<svg width="26" height="30" viewBox="0 0 26 30" fill="none" xmlns="http://www.w3.org/2000/svg">
<path d="M14.6608 3.941L12.2892 4.65147C12.2686 4.65525 12.2482 4.66044 12.2283 4.66702L12.1344 4.69904C11.6137 4.85336 11.061 4.85352 10.5402 4.6995L8.01119 3.941C7.00443 3.63781 5.93242 3.64637 4.93041 3.96559C4.7212 3.44159 4.56174 2.89822 4.45422 2.343C4.43137 2.23937 4.37472 2.14676 4.29359 2.08041C4.21247 2.01407 4.11168 1.97792 4.00781 1.97792C3.90393 1.97792 3.80315 2.01407 3.72202 2.08041C3.64089 2.14676 3.58425 2.23937 3.5614 2.343C3.03179 4.74159 2.70167 5.07829 0.35695 5.61996C0.255615 5.64348 0.165101 5.70152 0.100247 5.78456C0.035392 5.86759 4.49245e-05 5.9707 0 6.07698C4.49245e-05 6.18326 0.035392 6.28637 0.100247 6.3694C0.165101 6.45244 0.255615 6.51048 0.35695 6.534C0.781951 6.6269 1.20151 6.74415 1.61366 6.88518C1.31497 7.51871 1.14178 8.2064 1.10404 8.90867C1.06631 9.61094 1.16479 10.3139 1.3938 10.9771L3.12483 16.2148C3.3243 16.8344 3.31769 17.504 3.10604 18.1193C2.58036 19.7534 2.38107 21.4789 2.51999 23.1933C2.65892 24.9077 3.13323 26.576 3.91476 28.0993L4.46402 29.157C4.59067 29.4221 4.79079 29.6431 5.03943 29.7927C5.28808 29.9422 5.57426 30.0136 5.86229 29.9979C6.14918 29.9911 6.42844 29.9021 6.66824 29.7409C6.90803 29.5797 7.09871 29.3528 7.21852 29.0861L9.94712 22.9796C10.0694 22.7083 10.265 22.4785 10.5109 22.3173C10.7569 22.1562 11.0428 22.0704 11.3348 22.0702C11.6269 22.0699 11.9129 22.1552 12.1591 22.316C12.4053 22.4767 12.6013 22.7062 12.724 22.9773L15.4561 29.0893C15.576 29.3553 15.7666 29.5815 16.006 29.7421C16.2455 29.9027 16.5243 29.9914 16.8106 29.9979L16.85 29.9983C17.13 29.9985 17.4048 29.9202 17.6444 29.7719C17.8839 29.6236 18.0792 29.4109 18.2089 29.157L18.7224 28.1634C19.6816 26.3022 20.1838 24.2303 20.186 22.1264C20.1831 20.7433 19.9653 19.3694 19.5409 18.0562C19.3509 17.4574 19.3534 16.8121 19.5481 16.2148L21.2792 10.978C21.5953 10.0236 21.6489 8.9988 21.4342 8.01538C21.2196 7.03196 20.7448 6.12778 20.0618 5.40158C19.3788 4.67538 18.5138 4.15508 17.5614 3.8975C16.6089 3.63992 15.6055 3.65497 14.6608 3.941ZM4.00781 4.1496C4.07841 4.32925 4.16091 4.50377 4.25472 4.67194C4.25825 4.68338 4.25655 4.6951 4.26099 4.70636C4.27186 4.72652 4.28429 4.74576 4.29817 4.76389C4.65576 5.38509 5.22228 5.85187 5.89186 6.07698C5.45158 6.22376 5.05143 6.47485 4.72403 6.80978C4.39662 7.14472 4.15122 7.55403 4.00781 8.00436C3.88614 7.62961 3.6923 7.28359 3.43773 6.98672C3.18315 6.68986 2.873 6.44816 2.52559 6.27591C2.5148 6.26773 2.50843 6.25584 2.4968 6.24858C2.46275 6.23037 2.42651 6.21682 2.389 6.20829C2.2987 6.16558 2.22327 6.11657 2.12375 6.07699C2.56403 5.93021 2.96418 5.67913 3.29159 5.34419C3.61899 5.00925 3.8644 4.59994 4.00781 4.1496ZM20.4114 10.677L18.6803 15.9147C18.4227 16.7034 18.4189 17.5557 18.6696 18.3467C19.0642 19.5661 19.2669 20.8419 19.2698 22.1264C19.2679 24.0778 18.8019 25.9995 17.9118 27.7255L17.3983 28.7187C17.3468 28.8256 17.266 28.9149 17.1658 28.9757C17.0656 29.0364 16.9502 29.066 16.8338 29.0609C16.7184 29.0595 16.6057 29.0244 16.5091 28.9598C16.4125 28.8952 16.3358 28.8038 16.2881 28.6963L13.556 22.5853C13.36 22.1515 13.0467 21.7843 12.6531 21.5269C12.2595 21.2696 11.802 21.133 11.3348 21.1332C10.8677 21.1334 10.4103 21.2705 10.017 21.5283C9.62359 21.786 9.31064 22.1536 9.11513 22.5875L6.38657 28.6931C6.33795 28.8009 6.26071 28.8925 6.16367 28.9575C6.06662 29.0225 5.95366 29.0584 5.83767 29.061C5.72167 29.0635 5.6073 29.0327 5.50758 28.9721C5.40787 28.9114 5.32682 28.8233 5.27368 28.7178L4.7244 27.6606C3.99764 26.2396 3.55836 24.6833 3.43278 23.0848C3.3072 21.4862 3.4979 19.8782 3.9935 18.3567C4.25355 17.5644 4.25323 16.7068 3.99259 15.9147L2.26152 10.6756C1.87991 9.57501 1.94033 8.3646 2.42953 7.30949C3.01069 7.75674 3.25979 8.44496 3.56138 9.81095C3.58423 9.91459 3.64087 10.0072 3.722 10.0735C3.80313 10.1399 3.90391 10.176 4.00779 10.176C4.11166 10.176 4.21245 10.1399 4.29358 10.0735C4.3747 10.0072 4.43135 9.91459 4.4542 9.81095C4.98381 7.41236 5.31392 7.07566 7.65864 6.53399C7.76 6.51052 7.85055 6.45249 7.91541 6.36944C7.98028 6.28639 8.01561 6.18326 8.01561 6.07697C8.01561 5.97067 7.98028 5.86754 7.91541 5.78449C7.85055 5.70144 7.76 5.64342 7.65864 5.61994C6.87975 5.51488 6.13623 5.22276 5.48889 4.76746C6.23761 4.59177 7.018 4.61691 7.75443 4.84043L10.2844 5.59939C10.4656 5.65191 10.6505 5.6906 10.8373 5.71514C10.3725 6.2421 10.0481 6.88251 9.89523 7.57478C9.88223 7.63489 9.88094 7.69703 9.89144 7.75765C9.90194 7.81827 9.92403 7.87618 9.95643 7.92806C9.98884 7.97995 10.0309 8.02479 10.0803 8.06001C10.1297 8.09524 10.1853 8.12017 10.2441 8.13336C10.2765 8.14058 10.3094 8.14426 10.3425 8.14435C10.4468 8.14424 10.548 8.1078 10.6293 8.04101C10.7106 7.97423 10.7672 7.88111 10.7898 7.77699C10.8972 7.2903 11.1132 6.83562 11.421 6.4485C11.7287 6.06138 12.1199 5.75232 12.5638 5.5455L14.9194 4.83995C15.7031 4.60233 16.5356 4.58956 17.3259 4.80304C18.1162 5.01651 18.834 5.44803 19.4008 6.05044C19.9676 6.65285 20.3616 7.40299 20.5399 8.21891C20.7181 9.03484 20.6736 9.88516 20.4114 10.677V10.677ZM25.643 2.8714C23.7992 2.44548 23.5657 2.20712 23.1489 0.32047C23.1157 0.226595 23.055 0.14546 22.9752 0.088114C22.8953 0.0307682 22.8 0 22.7024 0C22.6049 0 22.5096 0.0307682 22.4297 0.088114C22.3499 0.14546 22.2892 0.226595 22.256 0.32047C21.8391 2.20667 21.6056 2.44502 19.761 2.8714C19.6596 2.89488 19.5691 2.95291 19.5042 3.03595C19.4393 3.119 19.404 3.22214 19.404 3.32843C19.404 3.43472 19.4393 3.53786 19.5042 3.6209C19.5691 3.70395 19.6596 3.76198 19.761 3.78546C21.6057 4.21186 21.8391 4.45017 22.256 6.33587C22.2789 6.43951 22.3355 6.53211 22.4167 6.59846C22.4978 6.66481 22.5986 6.70095 22.7024 6.70095C22.8063 6.70095 22.9071 6.66481 22.9882 6.59846C23.0694 6.53211 23.126 6.43951 23.1489 6.33587C23.5657 4.44967 23.7993 4.21132 25.643 3.7854C25.7444 3.76192 25.8349 3.70389 25.8998 3.62085C25.9647 3.5378 26 3.43467 26 3.32837C26 3.22208 25.9647 3.11895 25.8998 3.0359C25.8349 2.95285 25.7444 2.89482 25.643 2.87134V2.8714ZM22.7024 4.635C22.5838 4.34192 22.4099 4.07566 22.1905 3.85145C21.9711 3.62725 21.7107 3.44951 21.424 3.32842C21.7107 3.20731 21.9712 3.02952 22.1906 2.80524C22.41 2.58095 22.5839 2.31459 22.7024 2.02141C22.8208 2.31455 22.9945 2.5809 23.2137 2.80519C23.433 3.02948 23.6933 3.20729 23.9799 3.32842C23.6934 3.44947 23.433 3.6272 23.2138 3.85142C22.9946 4.07564 22.8208 4.34192 22.7025 4.635H22.7024Z" fill="#363636"/>
</svg>
