<svg width="25" height="26" viewBox="0 0 25 26" fill="none" xmlns="http://www.w3.org/2000/svg">
<path d="M24.6119 22.1597L16.6202 14.3844L22.4531 8.71754C22.5281 8.64462 22.5738 8.54796 22.5819 8.4451L23.2122 0.465144C23.2204 0.362098 23.1903 0.259612 23.1274 0.176298C23.0646 0.0929832 22.9731 0.0343664 22.8696 0.0110926C22.7661 -0.0121813 22.6574 0.00143121 22.5634 0.0494581C22.4693 0.097485 22.396 0.176741 22.3569 0.272832L19.8792 6.33814L16.3865 9.73137C16.3645 9.74005 16.3446 9.7529 16.3279 9.76917C16.3111 9.78543 16.2979 9.80479 16.289 9.82611L14.1104 11.9426L10.8017 8.72344C10.6074 8.53628 10.3583 8.41236 10.0885 8.36876C9.81881 8.32516 9.54182 8.36402 9.29575 8.48L3.26888 2.61597C3.22768 2.57585 3.17876 2.54403 3.1249 2.52232C3.07105 2.50061 3.01333 2.48944 2.95504 2.48945H0.443878C0.326155 2.48945 0.213252 2.53495 0.130009 2.61594C0.0467656 2.69692 0 2.80677 0 2.9213C0 3.03584 0.0467656 3.14568 0.130009 3.22667C0.213252 3.30765 0.326155 3.35315 0.443878 3.35315H2.77121L8.6681 9.09066C8.54938 9.3301 8.5097 9.59941 8.5545 9.86165C8.5993 10.1239 8.72638 10.3662 8.91833 10.5554L11.4286 12.9977L11.4295 12.9989L11.4308 12.9998L12.227 13.7745L2.67675 23.0487C2.42881 23.2908 2.26013 23.599 2.19199 23.9342C2.12385 24.2695 2.15929 24.6169 2.29386 24.9326C2.42842 25.2483 2.65607 25.5182 2.94809 25.7081C3.24011 25.8981 3.58342 25.9996 3.9347 26H3.9425C4.17419 25.9997 4.4035 25.9545 4.61703 25.8671C4.83056 25.7796 5.02404 25.6516 5.18614 25.4906L14.7364 16.2158L22.7288 23.9917C22.9787 24.2339 23.3171 24.3697 23.6698 24.3693C24.0225 24.369 24.3606 24.2326 24.61 23.9899C24.8594 23.7473 24.9997 23.4183 25 23.0752C25.0003 22.7321 24.8608 22.4028 24.6119 22.1597V22.1597ZM20.571 6.8864C20.614 6.84489 20.6478 6.79522 20.6703 6.74047L22.1033 3.23254L21.7093 8.21991L18.5338 11.305L17.2793 10.0844L20.571 6.8864ZM16.6511 10.6947L17.9057 11.9152L15.9926 13.7738L14.7381 12.5532L16.6511 10.6947ZM11.7436 12.0826L9.54642 9.94477C9.50452 9.90482 9.47118 9.85719 9.44832 9.80463C9.42546 9.75207 9.41354 9.69562 9.41324 9.63855C9.41294 9.58148 9.42428 9.52491 9.44659 9.47213C9.4689 9.41935 9.50175 9.37139 9.54323 9.33103C9.58471 9.29068 9.634 9.25872 9.68826 9.23701C9.74251 9.21531 9.80065 9.20428 9.85931 9.20457C9.91797 9.20485 9.97599 9.21645 10.03 9.23869C10.084 9.26093 10.133 9.29337 10.1741 9.33413L12.3713 11.4719L11.7436 12.0826ZM4.55583 24.8824C4.48085 24.9701 4.38525 25.039 4.27713 25.0832C4.16901 25.1274 4.05154 25.1456 3.93465 25.1363C3.818 25.1363 3.70248 25.1139 3.59476 25.0704C3.48704 25.0268 3.38924 24.9629 3.30701 24.8824C3.14161 24.7197 3.04859 24.5003 3.04802 24.2715C3.04745 24.0427 3.13938 23.8228 3.30397 23.6594L12.8542 14.3847L14.1091 15.6056L4.55583 24.8824ZM23.9842 23.3811C23.943 23.4212 23.8941 23.453 23.8402 23.4747C23.7864 23.4964 23.7287 23.5076 23.6704 23.5076C23.6121 23.5076 23.5544 23.4964 23.5005 23.4747C23.4467 23.453 23.3977 23.4212 23.3565 23.3811L12.3713 12.6932L12.999 12.0826L23.9842 22.7704C24.0672 22.8515 24.1139 22.9613 24.1139 23.0757C24.1139 23.1902 24.0672 23.3 23.9842 23.3811H23.9842Z" fill="#363636"/>
</svg>
