<svg width="28" height="24" viewBox="0 0 28 24" fill="none" xmlns="http://www.w3.org/2000/svg">
<path d="M6.36511 19.1221C6.19239 18.9733 6.06135 18.7823 5.98481 18.5679C5.90828 18.3534 5.88887 18.1228 5.92849 17.8987L6.02804 17.3455C6.07673 17.0743 6.05315 16.7951 5.95966 16.5359C5.86618 16.2766 5.70607 16.0464 5.49535 15.8682C5.28462 15.6901 5.03069 15.5702 4.75895 15.5207C4.4872 15.4712 4.20719 15.4937 3.94692 15.5861C3.68519 15.6793 3.45275 15.8397 3.27302 16.0511C3.09329 16.2626 2.97264 16.5175 2.92324 16.7903C2.75808 17.722 2.83848 18.6805 3.15658 19.5718C3.47467 20.4632 4.01953 21.2568 4.73775 21.8749C4.94881 22.0553 5.20385 22.177 5.47713 22.2276C5.75042 22.2783 6.03226 22.2561 6.29421 22.1634C6.55446 22.071 6.78582 21.912 6.96511 21.7024C7.1444 21.4928 7.26534 21.2398 7.31583 20.9689C7.36632 20.698 7.34458 20.4187 7.25279 20.1588C7.161 19.8989 7.00238 19.6676 6.7928 19.4881L6.36511 19.1221ZM6.45569 20.81C6.43298 20.9309 6.37874 21.0437 6.29845 21.1371C6.21815 21.2305 6.11462 21.3011 5.99827 21.3419C5.88192 21.3828 5.75684 21.3923 5.63562 21.3696C5.51439 21.3469 5.40129 21.2928 5.30769 21.2127C4.70481 20.6938 4.24745 20.0277 3.98044 19.2794C3.71342 18.5312 3.64592 17.7266 3.78455 16.9446C3.80612 16.8233 3.85938 16.7099 3.93896 16.6158C4.01854 16.5216 4.12162 16.4501 4.23779 16.4084C4.35396 16.3668 4.4791 16.3564 4.60056 16.3784C4.72203 16.4004 4.83552 16.454 4.92957 16.5338C5.0239 16.6126 5.09555 16.715 5.13721 16.8306C5.17887 16.9461 5.18905 17.0706 5.16669 17.1913L5.06715 17.7448C5.00114 18.1186 5.03352 18.503 5.16113 18.8604C5.28874 19.2179 5.5072 19.5363 5.79515 19.7843L6.22282 20.1503C6.31672 20.2299 6.38777 20.3329 6.42868 20.4488C6.4696 20.5647 6.47892 20.6893 6.45569 20.81ZM8.3125 21.3819C8.22597 21.3819 8.14139 21.4074 8.06944 21.4554C7.99749 21.5033 7.94142 21.5715 7.90831 21.6512C7.87519 21.731 7.86653 21.8187 7.88341 21.9033C7.90029 21.988 7.94196 22.0657 8.00314 22.1268C8.06433 22.1878 8.14228 22.2293 8.22715 22.2462C8.31202 22.263 8.39998 22.2544 8.47993 22.2214C8.55987 22.1883 8.6282 22.1324 8.67627 22.0606C8.72434 21.9889 8.75 21.9045 8.75 21.8182C8.75 21.7025 8.70391 21.5915 8.62186 21.5097C8.53981 21.4278 8.42854 21.3819 8.3125 21.3819ZM10.9375 18.7637C10.851 18.7637 10.7664 18.7893 10.6944 18.8372C10.6225 18.8852 10.5664 18.9533 10.5333 19.0331C10.5002 19.1128 10.4915 19.2005 10.5084 19.2852C10.5253 19.3698 10.567 19.4476 10.6281 19.5086C10.6893 19.5696 10.7673 19.6112 10.8521 19.628C10.937 19.6449 11.025 19.6362 11.1049 19.6032C11.1849 19.5702 11.2532 19.5142 11.3013 19.4425C11.3493 19.3707 11.375 19.2864 11.375 19.2001C11.375 19.0843 11.3289 18.9733 11.2469 18.8915C11.1648 18.8097 11.0535 18.7637 10.9375 18.7637ZM2.1875 14.4595C2.10098 14.4595 2.01639 14.4851 1.94444 14.533C1.8725 14.581 1.81642 14.6491 1.78331 14.7288C1.75019 14.8086 1.74153 14.8963 1.75841 14.981C1.77529 15.0656 1.81696 15.1434 1.87815 15.2044C1.93933 15.2654 2.01729 15.307 2.10215 15.3238C2.18702 15.3406 2.27499 15.332 2.35493 15.299C2.43487 15.2659 2.5032 15.21 2.55127 15.1383C2.59935 15.0665 2.625 14.9821 2.625 14.8958C2.625 14.7801 2.57891 14.6691 2.49686 14.5873C2.41482 14.5054 2.30354 14.4595 2.1875 14.4595ZM26.5452 11.0349C26.0963 10.6687 25.571 10.4072 25.0078 10.2693C24.4445 10.1314 23.8575 10.1208 23.2896 10.2381C22.5493 10.3941 21.8269 10.517 21.1171 10.624L22.9645 7.85898C23.3631 7.26256 23.5898 6.56845 23.6201 5.85231C23.6503 5.13618 23.4828 4.4255 23.1359 3.79778C22.789 3.17005 22.276 2.64935 21.6528 2.29246C21.0296 1.93556 20.3201 1.75617 19.6016 1.77383L17.7354 1.81989C17.3724 1.82959 17.0144 1.73396 16.7049 1.54461L15.1117 0.573887C14.4983 0.200273 13.7939 0.00176842 13.0752 1.1761e-05C12.3565 -0.0017449 11.6512 0.193314 11.036 0.563925C10.4208 0.934535 9.91946 1.46647 9.58657 2.10175C9.25368 2.73703 9.10203 3.45126 9.14816 4.1666L9.39426 7.97961C9.41955 8.40439 9.30213 8.82544 9.06058 9.17619C8.72227 9.6909 8.43853 10.2393 8.21393 10.8125C7.10203 10.6753 5.92998 10.4875 4.70822 10.2377C4.13713 10.1226 3.54751 10.1355 2.98206 10.2757C2.41661 10.4158 1.88948 10.6796 1.43884 11.0479C0.988191 11.4163 0.625307 11.88 0.376457 12.4054C0.127607 12.9309 -0.000979788 13.5049 5.62109e-06 14.0861V20.9455C0.000989736 21.7553 0.323961 22.5317 0.898078 23.1043C1.47219 23.6769 2.25058 23.999 3.0625 24H24.9375C25.7494 23.999 26.5278 23.6769 27.1019 23.1043C27.676 22.5317 27.999 21.7553 28 20.9455V14.0861C28.0009 13.5015 27.8708 12.9241 27.6191 12.3962C27.3673 11.8683 27.0004 11.4032 26.5452 11.035V11.0349ZM9.8147 9.6215C10.1478 9.12008 10.3069 8.52358 10.2676 7.92337L10.0215 4.11035C9.98565 3.55451 10.1035 2.99952 10.3622 2.50588C10.6208 2.01225 11.0104 1.59892 11.4884 1.31094C11.9664 1.02297 12.5146 0.871413 13.073 0.872791C13.6314 0.874169 14.1788 1.02843 14.6554 1.31876L16.249 2.28948C16.3133 2.32863 16.3815 2.35814 16.4482 2.39148C16.0906 2.65617 15.7972 2.99763 15.5898 3.3906C15.5365 3.49331 15.5263 3.6129 15.5614 3.7231C15.5965 3.83331 15.6739 3.92513 15.7768 3.97841C15.8797 4.0317 15.9996 4.04209 16.1101 4.0073C16.2207 3.97251 16.3129 3.89539 16.3665 3.79287C16.5185 3.50429 16.7352 3.25458 16.9997 3.06316C17.2643 2.87175 17.5695 2.74379 17.8918 2.68925L19.623 2.64658C20.1813 2.63272 20.7327 2.77203 21.217 3.0493C21.7014 3.32658 22.1001 3.73118 22.3697 4.21898C22.6394 4.70678 22.7695 5.25906 22.746 5.81558C22.7225 6.3721 22.5462 6.9115 22.2364 7.37495L20.1122 10.5543C19.7804 11.0527 19.6193 11.6449 19.6529 12.2422C19.7147 13.3429 19.5541 14.4447 19.1806 15.4822C18.8071 16.5197 18.2283 17.4718 17.4786 18.2818L16.9493 18.8511C16.9079 18.8954 16.855 18.9273 16.7965 18.9432C16.7379 18.959 16.6761 18.9583 16.6179 18.9409C16.5598 18.9236 16.5077 18.8904 16.4675 18.8451C16.4273 18.7998 16.4006 18.7441 16.3904 18.6845L15.6133 14.1112C15.5543 13.7647 15.3969 13.4423 15.1596 13.1824C14.9223 12.9224 14.6153 12.7359 14.2748 12.6449C13.9344 12.554 13.575 12.5624 13.2392 12.6692C12.9034 12.776 12.6055 12.9767 12.3807 13.2475L9.41522 16.8201C9.37743 16.8681 9.32637 16.9039 9.26836 16.9232C9.21035 16.9425 9.14794 16.9445 9.08885 16.9288C9.0294 16.9157 8.97499 16.8859 8.9321 16.8428C8.88922 16.7998 8.85968 16.7453 8.84702 16.6859L8.66245 15.8771C8.4228 14.8107 8.40133 13.707 8.59931 12.6322C8.7973 11.5573 9.21068 10.5333 9.8147 9.6215ZM27.125 20.9455C27.1243 21.5239 26.8936 22.0785 26.4835 22.4875C26.0735 22.8965 25.5174 23.1266 24.9375 23.1273H3.0625C2.48255 23.1266 1.92655 22.8965 1.51646 22.4875C1.10637 22.0785 0.875686 21.5239 0.875005 20.9455V14.0861C0.874328 13.6311 0.975647 13.1818 1.17155 12.771C1.36744 12.3602 1.65296 11.9982 2.00721 11.7117C2.35489 11.4269 2.76215 11.2234 3.19904 11.1163C3.63594 11.0091 4.09135 11.001 4.5318 11.0925C5.71346 11.334 6.84587 11.5152 7.92974 11.6537C7.5205 13.093 7.47921 14.6117 7.80963 16.071L7.9942 16.8798C8.04404 17.0977 8.15403 17.2973 8.31173 17.4561C8.46942 17.6149 8.66853 17.7264 8.88652 17.7782C9.10451 17.8299 9.33266 17.8198 9.54517 17.7489C9.75768 17.678 9.94604 17.5492 10.089 17.3771L13.0549 13.804C13.1727 13.6619 13.329 13.5566 13.5051 13.5006C13.6812 13.4445 13.8697 13.4401 14.0483 13.4878C14.2268 13.5355 14.3879 13.6333 14.5123 13.7697C14.6368 13.906 14.7193 14.0751 14.7502 14.2569L15.5274 18.8306V18.831C15.5642 19.0516 15.6626 19.2574 15.8113 19.4248C15.9601 19.5922 16.153 19.7144 16.3682 19.7774C16.4806 19.811 16.5973 19.8281 16.7147 19.8281C16.8794 19.828 17.0423 19.7939 17.1932 19.7278C17.344 19.6617 17.4794 19.5651 17.591 19.4442L18.1203 18.8749C18.95 17.9786 19.5905 16.9252 20.0038 15.7771C20.4171 14.629 20.5947 13.4098 20.5262 12.1919C20.5147 11.9866 20.537 11.7808 20.5921 11.5826C21.5209 11.4608 22.4849 11.2998 23.4686 11.0925C23.909 11.001 24.3643 11.0091 24.8012 11.1163C25.238 11.2234 25.6452 11.4269 25.9928 11.7116C26.347 11.9982 26.6326 12.3601 26.8285 12.771C27.0244 13.1818 27.1257 13.6311 27.125 14.0861V20.9455ZM5.6875 13.5274C5.77403 13.5274 5.85862 13.5018 5.93057 13.4539C6.00251 13.4059 6.05859 13.3378 6.0917 13.258C6.12481 13.1783 6.13348 13.0906 6.1166 13.0059C6.09972 12.9213 6.05805 12.8435 5.99686 12.7825C5.93568 12.7215 5.85772 12.6799 5.77286 12.6631C5.68799 12.6462 5.60002 12.6549 5.52008 12.6879C5.44014 12.7209 5.37181 12.7769 5.32374 12.8486C5.27566 12.9204 5.25 13.0047 5.25 13.0911C5.25 13.2068 5.2961 13.3178 5.37814 13.3996C5.46019 13.4814 5.57147 13.5274 5.6875 13.5274ZM2.1875 20.5091C2.10098 20.5091 2.01639 20.5347 1.94444 20.5827C1.8725 20.6306 1.81642 20.6988 1.78331 20.7785C1.75019 20.8582 1.74153 20.946 1.75841 21.0306C1.77529 21.1153 1.81696 21.193 1.87815 21.254C1.93933 21.3151 2.01729 21.3566 2.10215 21.3735C2.18702 21.3903 2.27499 21.3817 2.35493 21.3486C2.43487 21.3156 2.5032 21.2597 2.55127 21.1879C2.59935 21.1162 2.625 21.0318 2.625 20.9455C2.625 20.8298 2.57891 20.7188 2.49686 20.6369C2.41482 20.5551 2.30354 20.5091 2.1875 20.5091ZM23.7002 14.8906C23.4327 14.9602 23.1886 15.0995 22.9928 15.2942C22.797 15.4889 22.6566 15.732 22.5859 15.9985L22.4385 16.5415C22.3781 16.7611 22.2616 16.9613 22.1004 17.1225C21.9391 17.2837 21.7387 17.4004 21.5186 17.4611L20.9748 17.6102C20.7084 17.6832 20.4659 17.8248 20.2716 18.0207C20.0774 18.2166 19.9381 18.4599 19.8677 18.7264C19.7974 18.9928 19.7984 19.273 19.8708 19.5389C19.9432 19.8049 20.0843 20.0471 20.28 20.2416C20.4771 20.4369 20.7224 20.577 20.9911 20.6476C21.2598 20.7183 21.5424 20.7169 21.8104 20.6438C22.7245 20.3913 23.5571 19.9063 24.2266 19.2362C24.8962 18.5661 25.3796 17.734 25.6296 16.8214C25.7022 16.5538 25.7027 16.2719 25.631 16.0041C25.5592 15.7363 25.4179 15.4921 25.2212 15.2963C25.0264 15.1003 24.783 14.9595 24.5157 14.8882C24.2485 14.8169 23.967 14.8178 23.7002 14.8906V14.8906ZM24.7854 16.593C24.5753 17.359 24.1694 18.0576 23.6073 18.6201C23.0452 19.1827 22.3463 19.59 21.5789 19.8022C21.4596 19.8348 21.3337 19.8354 21.2141 19.804C21.0944 19.7726 20.9852 19.7102 20.8975 19.6232C20.8104 19.5365 20.7477 19.4286 20.7155 19.3103C20.6833 19.1919 20.6829 19.0671 20.7142 18.9485C20.7455 18.8299 20.8075 18.7215 20.8939 18.6343C20.9804 18.5471 21.0882 18.484 21.2068 18.4513L21.7502 18.3026C22.1169 18.2014 22.451 18.0069 22.7196 17.7382C22.9883 17.4695 23.1823 17.1358 23.2828 16.7698L23.4302 16.2269C23.4617 16.1083 23.5242 16.0001 23.6113 15.9135C23.6985 15.8269 23.8071 15.7649 23.9262 15.7339C23.9864 15.7175 24.0484 15.7092 24.1108 15.7092C24.2024 15.7093 24.293 15.7274 24.3776 15.7626C24.4621 15.7978 24.5389 15.8493 24.6034 15.9141L24.6038 15.9146C24.6913 16.0017 24.7541 16.1103 24.786 16.2294C24.8179 16.3485 24.8177 16.4739 24.7854 16.593ZM22.3125 14.4001C22.399 14.4001 22.4836 14.3745 22.5556 14.3266C22.6275 14.2786 22.6836 14.2105 22.7167 14.1308C22.7498 14.051 22.7585 13.9633 22.7416 13.8786C22.7247 13.794 22.683 13.7162 22.6219 13.6552C22.5607 13.5942 22.4827 13.5526 22.3979 13.5358C22.313 13.519 22.225 13.5276 22.1451 13.5606C22.0651 13.5937 21.9968 13.6496 21.9487 13.7213C21.9007 13.7931 21.875 13.8775 21.875 13.9638C21.875 14.0795 21.9211 14.1905 22.0031 14.2723C22.0852 14.3542 22.1965 14.4001 22.3125 14.4001ZM12.25 21.3819C12.1635 21.3819 12.0789 21.4074 12.0069 21.4554C11.935 21.5033 11.8789 21.5715 11.8458 21.6512C11.8127 21.731 11.804 21.8187 11.8209 21.9033C11.8378 21.988 11.8795 22.0657 11.9406 22.1268C12.0018 22.1878 12.0798 22.2293 12.1646 22.2462C12.2495 22.263 12.3375 22.2544 12.4174 22.2214C12.4974 22.1883 12.5657 22.1324 12.6138 22.0606C12.6618 21.9889 12.6875 21.9045 12.6875 21.8182C12.6875 21.7025 12.6414 21.5915 12.5594 21.5097C12.4773 21.4278 12.366 21.3819 12.25 21.3819ZM21.4375 21.3819C21.351 21.3819 21.2664 21.4074 21.1944 21.4554C21.1225 21.5033 21.0664 21.5715 21.0333 21.6512C21.0002 21.731 20.9915 21.8187 21.0084 21.9033C21.0253 21.988 21.067 22.0657 21.1281 22.1268C21.1893 22.1878 21.2673 22.2293 21.3521 22.2462C21.437 22.263 21.525 22.2544 21.6049 22.2214C21.6849 22.1883 21.7532 22.1324 21.8013 22.0606C21.8493 21.9889 21.875 21.9045 21.875 21.8182C21.875 21.7025 21.8289 21.5915 21.7469 21.5097C21.6648 21.4278 21.5535 21.3819 21.4375 21.3819ZM24.0625 20.5091C23.976 20.5091 23.8914 20.5347 23.8194 20.5827C23.7475 20.6306 23.6914 20.6988 23.6583 20.7785C23.6252 20.8582 23.6165 20.946 23.6334 21.0306C23.6503 21.1153 23.692 21.193 23.7531 21.254C23.8143 21.3151 23.8923 21.3566 23.9771 21.3735C24.062 21.3903 24.15 21.3817 24.2299 21.3486C24.3099 21.3156 24.3782 21.2597 24.4263 21.1879C24.4743 21.1162 24.5 21.0318 24.5 20.9455C24.5 20.8298 24.4539 20.7188 24.3719 20.6369C24.2898 20.5551 24.1785 20.5091 24.0625 20.5091ZM24.9375 13.5274C25.024 13.5274 25.1086 13.5018 25.1806 13.4539C25.2525 13.4059 25.3086 13.3378 25.3417 13.258C25.3748 13.1783 25.3835 13.0906 25.3666 13.0059C25.3497 12.9213 25.308 12.8435 25.2469 12.7825C25.1857 12.7215 25.1077 12.6799 25.0228 12.6631C24.938 12.6462 24.85 12.6549 24.7701 12.6879C24.6901 12.7209 24.6218 12.7769 24.5737 12.8486C24.5257 12.9204 24.5 13.0047 24.5 13.0911C24.5 13.2068 24.5461 13.3178 24.6281 13.3996C24.7102 13.4814 24.8215 13.5274 24.9375 13.5274ZM12.6875 16.1456C12.601 16.1456 12.5164 16.1711 12.4444 16.2191C12.3725 16.267 12.3164 16.3352 12.2833 16.4149C12.2502 16.4947 12.2415 16.5824 12.2584 16.667C12.2753 16.7517 12.317 16.8294 12.3781 16.8905C12.4393 16.9515 12.5173 16.9931 12.6021 17.0099C12.687 17.0267 12.775 17.0181 12.8549 16.9851C12.9349 16.952 13.0032 16.8961 13.0513 16.8243C13.0993 16.7526 13.125 16.6682 13.125 16.5819C13.125 16.4662 13.0789 16.3552 12.9969 16.2734C12.9148 16.1915 12.8035 16.1456 12.6875 16.1456ZM15.75 21.3819C15.6635 21.3819 15.5789 21.4074 15.5069 21.4554C15.435 21.5033 15.3789 21.5715 15.3458 21.6512C15.3127 21.731 15.304 21.8187 15.3209 21.9033C15.3378 21.988 15.3795 22.0657 15.4406 22.1268C15.5018 22.1878 15.5798 22.2293 15.6646 22.2462C15.7495 22.263 15.8375 22.2544 15.9174 22.2214C15.9974 22.1883 16.0657 22.1324 16.1138 22.0606C16.1618 21.9889 16.1875 21.9045 16.1875 21.8182C16.1875 21.7025 16.1414 21.5915 16.0594 21.5097C15.9773 21.4278 15.866 21.3819 15.75 21.3819ZM13.5625 18.7637C13.476 18.7637 13.3914 18.7893 13.3194 18.8372C13.2475 18.8852 13.1914 18.9533 13.1583 19.0331C13.1252 19.1128 13.1165 19.2005 13.1334 19.2852C13.1503 19.3698 13.192 19.4476 13.2531 19.5086C13.3143 19.5696 13.3923 19.6112 13.4771 19.628C13.562 19.6449 13.65 19.6362 13.7299 19.6032C13.8099 19.5702 13.8782 19.5142 13.9263 19.4425C13.9743 19.3707 14 19.2864 14 19.2001C14 19.0843 13.9539 18.9733 13.8719 18.8915C13.7898 18.8097 13.6785 18.7637 13.5625 18.7637Z" fill="#363636"/>
</svg>
