<svg width="32" height="32" viewBox="0 0 32 32" fill="none" xmlns="http://www.w3.org/2000/svg">
<path d="M17 15.5C16.9011 15.5 16.8044 15.5293 16.7222 15.5843C16.64 15.6392 16.5759 15.7173 16.5381 15.8087C16.5002 15.9 16.4903 16.0006 16.5096 16.0975C16.5289 16.1945 16.5765 16.2836 16.6464 16.3536C16.7164 16.4235 16.8055 16.4711 16.9025 16.4904C16.9994 16.5097 17.1 16.4998 17.1913 16.4619C17.2827 16.4241 17.3608 16.36 17.4157 16.2778C17.4707 16.1956 17.5 16.0989 17.5 16C17.5 15.8674 17.4473 15.7402 17.3536 15.6464C17.2598 15.5527 17.1326 15.5 17 15.5ZM15 16.5C14.9011 16.5 14.8044 16.5293 14.7222 16.5843C14.64 16.6392 14.5759 16.7173 14.5381 16.8087C14.5002 16.9 14.4903 17.0006 14.5096 17.0975C14.5289 17.1945 14.5765 17.2836 14.6464 17.3536C14.7164 17.4235 14.8055 17.4711 14.9025 17.4904C14.9994 17.5097 15.1 17.4998 15.1913 17.4619C15.2827 17.4241 15.3608 17.36 15.4157 17.2778C15.4707 17.1956 15.5 17.0989 15.5 17C15.5 16.8674 15.4473 16.7402 15.3536 16.6464C15.2598 16.5527 15.1326 16.5 15 16.5ZM9 10V12.5C9.00167 13.417 9.36304 14.2967 10.0064 14.95C10.6498 15.6034 11.5239 15.9782 12.4407 15.994L12.7925 17.0351C12.8399 17.1775 12.8377 17.3317 12.7861 17.4726C12.587 18.0776 12.5115 18.7164 12.5643 19.351C12.6171 19.9857 12.797 20.6033 13.0933 21.167L13.2851 21.5303C13.3614 21.6757 13.4768 21.7967 13.6184 21.8798C13.76 21.9628 13.9221 22.0045 14.0862 22C14.2502 21.9955 14.4098 21.9451 14.5466 21.8544C14.6835 21.7638 14.7922 21.6366 14.8603 21.4873L15.8218 19.3896C15.9126 19.1923 16.0874 19.1923 16.1782 19.3896L17.1397 21.4873C17.2074 21.6369 17.3159 21.7644 17.4528 21.8551C17.5897 21.9458 17.7494 21.996 17.9136 22H17.9385C18.0984 22.0006 18.2553 21.9572 18.3922 21.8745C18.5291 21.7918 18.6405 21.6731 18.7143 21.5312L18.8945 21.1904C19.1947 20.6196 19.3769 19.9942 19.4304 19.3515C19.4839 18.7088 19.4076 18.0618 19.2061 17.4492C19.1616 17.3144 19.1621 17.1688 19.2075 17.0342L19.5591 15.9941C20.476 15.9783 21.3501 15.6035 21.9935 14.9501C22.637 14.2968 22.9983 13.417 23 12.5V10C23.0657 10 23.1307 9.98713 23.1914 9.96202C23.2521 9.9369 23.3072 9.90008 23.3536 9.85364C23.4001 9.8072 23.4369 9.75207 23.462 9.69139C23.4871 9.63071 23.5 9.56567 23.5 9.5V7.5C23.5 5.51088 22.7098 3.60322 21.3033 2.1967C19.8968 0.790176 17.9891 0 16 0C14.0109 0 12.1032 0.790176 10.6967 2.1967C9.29018 3.60322 8.5 5.51088 8.5 7.5V9.5C8.49996 9.56567 8.51287 9.63071 8.53798 9.69139C8.5631 9.75207 8.59992 9.8072 8.64636 9.85364C8.6928 9.90008 8.74793 9.9369 8.80861 9.96202C8.86929 9.98713 8.93433 10 9 10ZM12 14.9502C11.4357 14.834 10.9288 14.5269 10.5645 14.0806C10.2002 13.6343 10.0008 13.0761 10 12.5V10H12V14.9502ZM18.8687 14.9141L18.2603 16.7129C18.1456 17.0536 18.1444 17.4222 18.2568 17.7637C18.4163 18.2484 18.4767 18.7602 18.4344 19.2687C18.3922 19.7772 18.2481 20.272 18.0107 20.7237L17.9458 20.8458L17.0874 18.9737C16.9919 18.7656 16.8386 18.5893 16.6459 18.4657C16.4531 18.3421 16.229 18.2764 16 18.2764C15.771 18.2764 15.5469 18.3421 15.3541 18.4657C15.1614 18.5893 15.0081 18.7656 14.9126 18.9737L14.0542 20.8458L13.977 20.7002C13.7425 20.2524 13.6008 19.7618 13.5605 19.2579C13.5201 18.754 13.5819 18.2471 13.7422 17.7676C13.8569 17.4256 13.856 17.0554 13.7397 16.7139L13.1313 14.9141C13.0591 14.7007 13.0468 14.4716 13.0958 14.2517C13.1449 14.0318 13.2534 13.8296 13.4096 13.6672C13.5657 13.5047 13.7634 13.3883 13.9812 13.3306C14.199 13.2729 14.4284 13.2761 14.6445 13.3399L15.2861 13.5289C15.2323 13.6421 15.1909 13.7608 15.1626 13.8829C15.1484 13.947 15.1471 14.0132 15.1585 14.0779C15.17 14.1425 15.1941 14.2042 15.2294 14.2595C15.2647 14.3148 15.3106 14.3627 15.3644 14.4002C15.4182 14.4378 15.4789 14.4645 15.543 14.4786C15.5786 14.4863 15.6149 14.4902 15.6514 14.4903C15.7652 14.4902 15.8756 14.4512 15.9643 14.3798C16.053 14.3084 16.1147 14.2089 16.1392 14.0977C16.1654 13.9839 16.2172 13.8776 16.2907 13.7868C16.3641 13.696 16.4572 13.623 16.5629 13.5735L17.3559 13.3399C17.572 13.2762 17.8014 13.273 18.0191 13.3308C18.2368 13.3885 18.4345 13.505 18.5906 13.6674C18.7467 13.8298 18.8552 14.032 18.9042 14.2518C18.9532 14.4717 18.9409 14.7008 18.8686 14.9141L18.8687 14.9141ZM19 12.728C18.7272 12.5258 18.4114 12.3893 18.0772 12.3291C17.743 12.2688 17.3995 12.2866 17.0732 12.3808L16.1855 12.6426C16.0646 12.6787 15.9358 12.6787 15.8149 12.6426L14.9272 12.3808C14.6008 12.2874 14.2572 12.2702 13.923 12.3306C13.5889 12.3911 13.2731 12.5275 13 12.7294V10H19V12.728ZM22 12.5C21.9992 13.0761 21.7998 13.6343 21.4355 14.0806C21.0712 14.5269 20.5643 14.834 20 14.9502V10H22V12.5ZM9.5 7.5C9.5 5.77609 10.1848 4.12279 11.4038 2.90381C12.6228 1.68482 14.2761 1 16 1C17.7239 1 19.3772 1.68482 20.5962 2.90381C21.8152 4.12279 22.5 5.77609 22.5 7.5V9H9.5V7.5ZM16 2C15.4067 2 14.8266 2.17595 14.3333 2.50559C13.8399 2.83524 13.4554 3.30377 13.2284 3.85195C13.0013 4.40013 12.9419 5.00333 13.0576 5.58527C13.1734 6.16721 13.4591 6.70176 13.8787 7.12132C14.2982 7.54088 14.8328 7.8266 15.4147 7.94236C15.9967 8.05811 16.5999 7.9987 17.1481 7.77164C17.6962 7.54458 18.1648 7.16006 18.4944 6.66671C18.8241 6.17336 19 5.59334 19 5C18.9991 4.20462 18.6828 3.44206 18.1204 2.87964C17.5579 2.31722 16.7954 2.00087 16 2ZM16 7C15.6044 7 15.2178 6.8827 14.8889 6.66294C14.56 6.44318 14.3036 6.13082 14.1522 5.76537C14.0009 5.39991 13.9613 4.99778 14.0384 4.60982C14.1156 4.22186 14.3061 3.86549 14.5858 3.58579C14.8655 3.30608 15.2219 3.1156 15.6098 3.03843C15.9978 2.96126 16.3999 3.00087 16.7654 3.15224C17.1308 3.30362 17.4432 3.55996 17.6629 3.88886C17.8827 4.21776 18 4.60444 18 5C17.9994 5.53025 17.7885 6.0386 17.4135 6.41354C17.0386 6.78849 16.5302 6.99939 16 7ZM29.5 21H28.4601L28.8159 19.9473C28.9467 19.5605 28.9688 19.1453 28.8798 18.7468C28.7907 18.3483 28.5941 17.982 28.3111 17.6876C28.0282 17.3932 27.6699 17.1822 27.2753 17.0775C26.8807 16.9728 26.4649 16.9784 26.0732 17.0938L25.1855 17.3555C25.0646 17.3916 24.9358 17.3916 24.8149 17.3555L23.9272 17.0938C23.5356 16.9783 23.1197 16.9727 22.725 17.0773C22.3304 17.182 21.972 17.393 21.689 17.6874C21.406 17.9818 21.2093 18.3482 21.1203 18.7467C21.0312 19.1452 21.0533 19.5605 21.1841 19.9473L21.5863 21.1373C20.7596 21.3162 19.9846 21.6818 19.3208 22.2061L18.8071 22.6104C18.0077 23.2439 17.0174 23.5884 15.9973 23.5877C14.9773 23.5869 13.9875 23.2411 13.1889 22.6064L12.6797 22.207C12.0158 21.6822 11.2407 21.3163 10.4136 21.1373L10.8159 19.9473C10.9467 19.5605 10.9688 19.1453 10.8797 18.7468C10.7907 18.3483 10.594 17.982 10.3111 17.6876C10.0282 17.3933 9.6699 17.1822 9.27528 17.0775C8.88066 16.9728 8.46486 16.9784 8.07322 17.0938L7.18552 17.3555C7.06463 17.3916 6.9358 17.3916 6.81491 17.3555L5.92721 17.0938C5.53554 16.9783 5.1197 16.9727 4.72503 17.0773C4.33035 17.182 3.97199 17.3931 3.68902 17.6874C3.40604 17.9818 3.2093 18.3482 3.12026 18.7467C3.03122 19.1452 3.05328 19.5605 3.18405 19.9473L3.53992 21H2.5C1.83717 21.0007 1.20169 21.2643 0.733002 21.733C0.264312 22.2017 0.000696197 22.8372 0 23.5L0 29.5C0.000696197 30.1628 0.264312 30.7983 0.733002 31.267C1.20169 31.7357 1.83717 31.9993 2.5 32H29.5C30.1628 31.9993 30.7983 31.7357 31.267 31.267C31.7357 30.7983 31.9993 30.1628 32 29.5V23.5C31.9993 22.8372 31.7357 22.2017 31.267 21.733C30.7983 21.2643 30.1628 21.0007 29.5 21ZM22.4097 18.3799C22.5648 18.216 22.7625 18.0986 22.9806 18.0408C23.1987 17.983 23.4286 17.9871 23.6445 18.0527L24.2861 18.2417C24.2323 18.3549 24.1909 18.4736 24.1626 18.5957C24.1484 18.6598 24.1471 18.7261 24.1585 18.7907C24.17 18.8553 24.1941 18.917 24.2294 18.9724C24.2647 19.0277 24.3106 19.0755 24.3644 19.1131C24.4182 19.1507 24.4789 19.1773 24.543 19.1914C24.5786 19.1991 24.6149 19.2031 24.6514 19.2031C24.7652 19.203 24.8756 19.164 24.9643 19.0926C25.053 19.0212 25.1147 18.9218 25.1392 18.8106C25.1654 18.6968 25.2172 18.5905 25.2907 18.4996C25.3641 18.4088 25.4572 18.3359 25.5629 18.2863L26.3559 18.0528C26.572 17.989 26.8014 17.9859 27.0191 18.0436C27.2368 18.1014 27.4345 18.2178 27.5906 18.3802C27.7467 18.5427 27.8552 18.7448 27.9042 18.9647C27.9532 19.1845 27.9409 19.4136 27.8686 19.627L27.303 21.2994L27.296 21.3199L27.2602 21.4258C27.1455 21.7665 27.1443 22.1351 27.2568 22.4766C27.4163 22.9613 27.4767 23.4731 27.4343 23.9816C27.3919 24.4901 27.2477 24.9849 27.0102 25.4366L26.9457 25.5596L26.0873 23.6866C25.9918 23.4785 25.8385 23.3022 25.6458 23.1786C25.453 23.055 25.2289 22.9893 24.9999 22.9893C24.771 22.9893 24.5468 23.055 24.354 23.1786C24.1613 23.3022 24.0081 23.4785 23.9125 23.6866L23.0541 25.5596L22.977 25.4131C22.7426 24.9652 22.6009 24.4746 22.5606 23.9707C22.5202 23.4668 22.582 22.96 22.7421 22.4805C22.8568 22.1385 22.8559 21.7682 22.7397 21.4268L22.1313 19.627C22.0569 19.4138 22.0435 19.1841 22.0927 18.9637C22.1419 18.7434 22.2517 18.5412 22.4097 18.3799ZM4.40967 18.3799C4.56483 18.2161 4.76254 18.0987 4.98064 18.0409C5.19874 17.9831 5.42862 17.9872 5.64453 18.0527L6.28613 18.2417C6.23231 18.3549 6.19089 18.4736 6.16259 18.5957C6.14845 18.6598 6.14707 18.7261 6.15853 18.7907C6.16999 18.8553 6.19407 18.917 6.22939 18.9724C6.26472 19.0277 6.31059 19.0755 6.36439 19.1131C6.41819 19.1507 6.47887 19.1773 6.54296 19.1914C6.57858 19.1991 6.61492 19.2031 6.65136 19.2031C6.76521 19.203 6.87559 19.164 6.96428 19.0926C7.05297 19.0212 7.11466 18.9218 7.13915 18.8106C7.16543 18.6968 7.21724 18.5905 7.29065 18.4996C7.36407 18.4088 7.45717 18.3359 7.56292 18.2863L8.35592 18.0528C8.57198 17.989 8.80139 17.9859 9.01913 18.0436C9.23687 18.1013 9.43456 18.2178 9.59064 18.3802C9.74673 18.5426 9.8552 18.7448 9.90422 18.9647C9.95325 19.1845 9.94094 19.4137 9.86865 19.627L9.26025 21.4258C9.14562 21.7665 9.14442 22.1352 9.25683 22.4766C9.41636 22.9613 9.47674 23.4732 9.43438 23.9817C9.39202 24.4902 9.24778 24.985 9.01025 25.4366L8.9458 25.5596L8.0874 23.6866C7.99186 23.4785 7.83862 23.3022 7.64587 23.1786C7.45313 23.055 7.22897 22.9894 7 22.9894C6.77103 22.9894 6.54687 23.055 6.35413 23.1786C6.16138 23.3022 6.00814 23.4785 5.9126 23.6866L5.0542 25.5596L4.97705 25.4131C4.74264 24.9652 4.60102 24.4747 4.56067 23.9708C4.52031 23.4669 4.58205 22.96 4.74219 22.4805C4.85688 22.1385 4.85602 21.7683 4.73975 21.4268L4.70441 21.3222L4.69635 21.2985L4.13135 19.627C4.05693 19.4138 4.04355 19.1841 4.09273 18.9638C4.1419 18.7434 4.25168 18.5412 4.40967 18.3799ZM31 29.5C30.9996 29.8977 30.8414 30.279 30.5602 30.5602C30.279 30.8414 29.8977 30.9996 29.5 31H2.5C2.10231 30.9996 1.72103 30.8414 1.43982 30.5602C1.15861 30.279 1.00043 29.8977 1 29.5V23.5C1.00043 23.1023 1.15861 22.721 1.43982 22.4398C1.72103 22.1586 2.10231 22.0004 2.5 22H3.81891C3.81606 22.063 3.80504 22.1254 3.78613 22.1856C3.587 22.7905 3.51153 23.4292 3.56421 24.0639C3.61688 24.6985 3.79663 25.3161 4.09277 25.8799L4.28564 26.2451C4.35969 26.3866 4.47116 26.505 4.60788 26.5875C4.74461 26.67 4.90135 26.7134 5.06103 26.7129H5.08691C5.251 26.7088 5.41061 26.6586 5.54743 26.5679C5.68424 26.4772 5.7927 26.3497 5.86035 26.2002L6.82178 24.1025C6.9126 23.9053 7.08741 23.9053 7.17823 24.1025L8.13966 26.2002C8.20731 26.3497 8.31577 26.4772 8.45258 26.5679C8.58939 26.6586 8.74901 26.7088 8.9131 26.7129C9.07679 26.7159 9.23815 26.6739 9.37956 26.5914C9.52097 26.5089 9.63696 26.3891 9.71486 26.2451L9.89455 25.9033C10.1947 25.3325 10.3769 24.7071 10.4305 24.0644C10.484 23.4217 10.4077 22.7747 10.2061 22.1621C10.2008 22.1461 10.2022 22.1289 10.1982 22.1126C10.8784 22.2597 11.5157 22.5609 12.0611 22.9932L12.5669 23.3897C13.5426 24.1643 14.7516 24.5862 15.9974 24.5869C17.2432 24.5876 18.4526 24.1671 19.4292 23.3936L19.9395 22.9922C20.4841 22.561 21.1202 22.2603 21.799 22.113C21.796 22.1374 21.7917 22.1616 21.7862 22.1855C21.587 22.7904 21.5116 23.4292 21.5643 24.0638C21.6169 24.6985 21.7967 25.3161 22.0928 25.8799L22.2857 26.2451C22.3597 26.3865 22.4712 26.505 22.6079 26.5875C22.7447 26.6699 22.9014 26.7133 23.0611 26.7129H23.087C23.251 26.7088 23.4107 26.6585 23.5475 26.5678C23.6843 26.4771 23.7927 26.3497 23.8604 26.2001L24.8218 24.1025C24.9127 23.9052 25.0875 23.9052 25.1783 24.1025L26.1397 26.2001C26.2074 26.3497 26.3158 26.4771 26.4526 26.5678C26.5894 26.6585 26.7491 26.7088 26.9132 26.7129C27.0769 26.7161 27.2383 26.6742 27.3798 26.5917C27.5212 26.5092 27.6372 26.3892 27.7149 26.2451L27.8946 25.9033C28.1947 25.3324 28.377 24.707 28.4305 24.0643C28.484 23.4216 28.4077 22.7747 28.2061 22.1621C28.1907 22.1094 28.182 22.0549 28.1803 22H29.5C29.8977 22.0004 30.279 22.1586 30.5602 22.4398C30.8414 22.721 30.9996 23.1023 31 23.5V29.5Z" fill="#363636"/>
</svg>
