<svg width="35" height="26" viewBox="0 0 35 26" fill="none" xmlns="http://www.w3.org/2000/svg">
<path d="M33.4294 16.8196C33.0134 16.4992 32.4883 16.2981 31.9292 16.2452C31.9081 15.9596 31.8567 15.6761 31.7756 15.3983C31.7217 15.2267 31.6175 15.0694 31.4729 14.9408C31.3282 14.8122 31.1476 14.7165 30.9477 14.6625H30.9467C28.9599 14.1166 26.8186 14.1246 24.8377 14.6854C24.64 14.7409 24.4616 14.8371 24.3187 14.9654C24.1759 15.0936 24.0729 15.25 24.0192 15.4203C23.8888 15.8865 23.8436 16.3668 23.8852 16.8446L23.2256 16.8998C22.7716 16.935 22.3196 16.9518 21.8655 16.9518H21.2433C21.3005 16.4313 21.256 15.9065 21.1115 15.3983C21.0576 15.2267 20.9534 15.0694 20.8088 14.9408C20.6641 14.8122 20.4835 14.7165 20.2836 14.6625H20.2825C18.2958 14.1166 16.1545 14.1246 14.1736 14.6854C13.9759 14.7409 13.7975 14.8371 13.6546 14.9654C13.5117 15.0936 13.4088 15.25 13.3551 15.4203C13.2127 15.9213 13.1687 16.4387 13.2249 16.9518H12.6094C12.1554 16.9518 11.7034 16.9344 11.2535 16.8998L10.583 16.8438C10.6255 16.3589 10.5798 15.8714 10.4474 15.3982C10.3935 15.2267 10.2893 15.0693 10.1447 14.9408C9.99998 14.8122 9.81939 14.7165 9.61952 14.6624H9.61845C7.63175 14.1165 5.49043 14.1246 3.50952 14.6853C3.31177 14.7408 3.13343 14.837 2.99054 14.9653C2.84765 15.0936 2.74471 15.2499 2.69097 15.4202C2.61205 15.6918 2.56182 15.9688 2.54087 16.2479C1.89013 16.3092 1.28897 16.5714 0.852447 16.9843C0.415926 17.3972 0.174716 17.9319 0.174988 18.4859V23.7192C0.175643 24.3173 0.456736 24.8907 0.956569 25.3137C1.4564 25.7366 2.13413 25.9744 2.841 25.975H31.634C32.3408 25.9744 33.0186 25.7366 33.5184 25.3137C34.0182 24.8907 34.2993 24.3173 34.3 23.7192V18.4859C34.2995 18.1722 34.2218 17.8621 34.0719 17.5752C33.922 17.2883 33.7032 17.031 33.4294 16.8196ZM25.0543 15.6388C25.0656 15.6138 25.0839 15.5915 25.1077 15.5738C25.1314 15.5562 25.16 15.5437 25.1907 15.5375C26.9507 15.0395 28.8533 15.0336 30.6175 15.5208C30.6455 15.5275 30.6712 15.5397 30.6926 15.5563C30.7139 15.573 30.7303 15.5938 30.7404 15.6168C31.0124 16.539 30.8722 17.5137 30.3468 18.3537L30.2113 18.5705L29.7854 17.7845C29.62 17.4792 29.3545 17.2206 29.0204 17.0392C28.6864 16.8579 28.2979 16.7615 27.901 16.7615C27.5041 16.7615 27.1156 16.8579 26.7815 17.0392C26.4475 17.2206 26.182 17.4792 26.0165 17.7845L25.5916 18.5705L25.4417 18.3299C24.9254 17.5038 24.7875 16.5456 25.0543 15.6388H25.0543ZM14.3903 15.6388C14.4015 15.6138 14.4198 15.5915 14.4436 15.5738C14.4674 15.5562 14.4959 15.5437 14.5267 15.5375C16.2867 15.0395 18.1893 15.0336 19.9535 15.5208C19.9815 15.5275 20.0072 15.5397 20.0285 15.5563C20.0499 15.573 20.0663 15.5938 20.0764 15.6168C20.3484 16.539 20.2082 17.5137 19.6827 18.3537L19.5473 18.5705L19.1213 17.7845C18.9559 17.4792 18.6904 17.2206 18.3564 17.0392C18.0223 16.8579 17.6338 16.7615 17.2369 16.7615C16.84 16.7615 16.4515 16.8579 16.1174 17.0392C15.7834 17.2206 15.5179 17.4792 15.3525 17.7845L14.9276 18.5705L14.7776 18.3299C14.2614 17.5038 14.1234 16.5456 14.3903 15.6388H14.3903ZM3.7262 15.6388C3.73744 15.6138 3.75575 15.5915 3.77953 15.5738C3.80331 15.5562 3.83183 15.5437 3.86262 15.5375C5.6226 15.0395 7.5252 15.0336 9.28942 15.5208C9.3174 15.5275 9.3431 15.5397 9.36446 15.5563C9.38581 15.573 9.4022 15.5938 9.4123 15.6168C9.68429 16.539 9.54411 17.5137 9.01865 18.3537L8.88322 18.5705L8.45728 17.7845C8.29186 17.4792 8.02636 17.2206 7.69232 17.0392C7.35827 16.8579 6.96973 16.7615 6.57285 16.7615C6.17597 16.7615 5.78742 16.8579 5.45338 17.0392C5.11934 17.2206 4.85384 17.4792 4.68841 17.7845L4.26351 18.5705L4.11356 18.3299C3.59731 17.5038 3.45939 16.5456 3.72621 15.6388H3.7262ZM33.2336 23.7192C33.2331 24.078 33.0644 24.4221 32.7646 24.6758C32.4647 24.9296 32.0581 25.0723 31.634 25.0727H2.841C2.4169 25.0723 2.01031 24.9296 1.71042 24.6758C1.41054 24.4221 1.24186 24.078 1.24139 23.7192V18.4859C1.23968 18.1665 1.37349 17.8571 1.6185 17.614C1.8635 17.371 2.20345 17.2104 2.57653 17.1614C2.66054 17.7171 2.86156 18.2555 3.17008 18.7511L3.39918 19.1186C3.4856 19.2552 3.615 19.3689 3.77307 19.4471C3.93114 19.5254 4.11171 19.5651 4.29479 19.5618C4.47887 19.5582 4.65801 19.5107 4.81164 19.4248C4.96526 19.3389 5.08716 19.2181 5.16333 19.0763L5.65802 18.1599C5.74593 18.019 5.87758 17.9012 6.0388 17.819C6.20001 17.7367 6.38467 17.6933 6.5729 17.6933C6.76113 17.6933 6.9458 17.7367 7.10701 17.819C7.26822 17.9012 7.39987 18.019 7.48778 18.1599L7.98454 19.0772C8.0606 19.2188 8.18235 19.3395 8.33581 19.4252C8.48926 19.5109 8.66819 19.5583 8.85204 19.5618H8.87911C9.05798 19.5623 9.23358 19.5213 9.38674 19.4431C9.53991 19.365 9.66475 19.2527 9.74765 19.1186L9.96218 18.7749C10.1611 18.4453 10.3138 18.0971 10.4172 17.7374L11.1536 17.7986C11.6389 17.8356 12.1242 17.8541 12.6094 17.8541H13.4169C13.5191 18.1645 13.6589 18.4651 13.8341 18.7511L14.0633 19.1186C14.1491 19.256 14.2786 19.3703 14.4373 19.4487C14.5959 19.527 14.7773 19.5662 14.9609 19.5618C15.1445 19.5574 15.323 19.5096 15.4761 19.4238C15.6292 19.338 15.7509 19.2176 15.8274 19.0763L16.3221 18.1599C16.41 18.019 16.5416 17.9012 16.7029 17.819C16.8641 17.7367 17.0487 17.6933 17.237 17.6933C17.4252 17.6933 17.6099 17.7367 17.7711 17.819C17.9323 17.9012 18.0639 18.019 18.1518 18.1599L18.6486 19.0772C18.7247 19.2188 18.8464 19.3395 18.9999 19.4252C19.1533 19.5109 19.3323 19.5583 19.5161 19.5618H19.5432C19.722 19.5624 19.8976 19.5213 20.0508 19.4431C20.204 19.365 20.3288 19.2527 20.4117 19.1186L20.6262 18.7749C20.8054 18.4813 20.948 18.1727 21.0516 17.8541H21.8655C22.3508 17.8541 22.8361 17.8356 23.3256 17.7986L24.0514 17.7381C24.1534 18.0893 24.3034 18.4292 24.4982 18.7511L24.7273 19.1186C24.8131 19.256 24.9427 19.3703 25.1013 19.4487C25.2599 19.527 25.4413 19.5662 25.6249 19.5618C25.8085 19.5574 25.987 19.5096 26.1401 19.4238C26.2933 19.338 26.415 19.2176 26.4915 19.0763L26.9861 18.1599C27.074 18.0191 27.2057 17.9012 27.3669 17.819C27.5281 17.7368 27.7128 17.6933 27.901 17.6933C28.0892 17.6933 28.2739 17.7368 28.4351 17.819C28.5963 17.9012 28.728 18.0191 28.8159 18.1599L29.3126 19.0772C29.3887 19.2188 29.5105 19.3395 29.6639 19.4252C29.8174 19.5109 29.9963 19.5583 30.1801 19.5618H30.2072C30.3861 19.5624 30.5617 19.5213 30.7148 19.4431C30.868 19.365 30.9929 19.2527 31.0758 19.1186L31.2903 18.7749C31.6041 18.2702 31.8082 17.7218 31.8931 17.156C32.1975 17.198 32.4813 17.3131 32.7108 17.4875C32.8763 17.6133 33.0085 17.7672 33.0986 17.9393C33.1887 18.1114 33.2347 18.2977 33.2336 18.4859V23.7192ZM28.0463 7.92855C27.9763 7.92852 27.9069 7.94017 27.8422 7.96283C27.7775 7.98549 27.7187 8.01872 27.6692 8.06062C27.6197 8.10252 27.5804 8.15227 27.5536 8.20702C27.5268 8.26178 27.5131 8.32046 27.5131 8.37971V10.9052L26.9153 10.3994C26.815 10.3162 26.6799 10.2698 26.5395 10.2704C26.399 10.271 26.2645 10.3185 26.1652 10.4026C26.0658 10.4866 26.0097 10.6004 26.009 10.7193C26.0083 10.8381 26.0631 10.9524 26.1614 11.0373L27.6693 12.3132C27.7188 12.3551 27.7776 12.3884 27.8423 12.4111C27.907 12.4337 27.9763 12.4454 28.0463 12.4454C28.1163 12.4454 28.1857 12.4337 28.2503 12.4111C28.315 12.3884 28.3738 12.3551 28.4233 12.3132L29.9323 11.0373C30.0306 10.9524 30.0853 10.8381 30.0846 10.7193C30.0839 10.6004 30.0278 10.4866 29.9285 10.4026C29.8291 10.3185 29.6946 10.271 29.5542 10.2704C29.4137 10.2698 29.2786 10.3162 29.1783 10.3994L28.5795 10.9056V8.37971C28.5795 8.32046 28.5658 8.26178 28.539 8.20702C28.5122 8.15227 28.4729 8.10252 28.4234 8.06062C28.3739 8.01872 28.3151 7.98549 28.2504 7.96283C28.1857 7.94017 28.1163 7.92852 28.0463 7.92855ZM24.1452 5.65601C24.1748 5.73025 24.2268 5.79667 24.296 5.84874C24.3652 5.90081 24.4493 5.93673 24.5399 5.95296L25.1418 6.06047C26.0497 6.22424 26.9754 6.30694 27.9036 6.3072C28.8365 6.30697 29.7668 6.22338 30.679 6.05782L31.2632 5.95296C31.3538 5.93658 31.4377 5.90061 31.5069 5.84856C31.5761 5.79651 31.6281 5.73017 31.6579 5.65601L32.3817 3.84432C32.5337 3.4641 32.5594 3.05585 32.456 2.66411C32.3526 2.27237 32.1241 1.91218 31.7953 1.62282C31.4666 1.33346 31.0502 1.12604 30.5916 1.02318C30.1331 0.920326 29.65 0.925985 29.195 1.03954L28.139 1.30302C27.9841 1.34003 27.8201 1.34003 27.6651 1.30302L26.6081 1.03954C26.1531 0.925985 25.67 0.920326 25.2115 1.02318C24.7529 1.12604 24.3365 1.33346 24.0078 1.62282C23.679 1.91218 23.4505 2.27237 23.3471 2.66411C23.2437 3.05585 23.2694 3.4641 23.4214 3.84432L24.1452 5.65601ZM24.7763 2.24763C24.9684 2.07586 25.2134 1.95279 25.4836 1.89225C25.7538 1.8317 26.0387 1.83607 26.3061 1.90486L27.138 2.11199C27.0609 2.2387 27.0029 2.37308 26.9653 2.51199C26.9347 2.62883 26.9602 2.75117 27.0362 2.85212C27.1121 2.95308 27.2324 3.02439 27.3704 3.05038C27.4084 3.05734 27.4472 3.06088 27.486 3.06096C27.6074 3.06095 27.7251 3.02594 27.8198 2.9617C27.9144 2.89746 27.9804 2.80784 28.0067 2.70761C28.0397 2.58448 28.1056 2.4694 28.1994 2.37124C28.2932 2.27308 28.4124 2.19447 28.5478 2.14146L29.497 1.90486C29.7647 1.83795 30.049 1.83456 30.3189 1.89506C30.5887 1.95557 30.8337 2.07764 31.0272 2.24795C31.2206 2.41826 31.355 2.63026 31.4158 2.86081C31.4765 3.09136 31.4612 3.3316 31.3715 3.5553L30.7446 5.12375L30.4572 5.17486C28.7783 5.48061 27.0419 5.48151 25.3626 5.1775L25.0585 5.1229L24.4316 3.5553C24.3391 3.33183 24.3224 3.09092 24.3833 2.85982C24.4442 2.62873 24.5803 2.41667 24.7763 2.24763ZM2.81705 5.65601C2.8467 5.73025 2.89869 5.79667 2.96789 5.84874C3.0371 5.90081 3.12115 5.93673 3.21175 5.95296L3.81368 6.06047C4.72157 6.22425 5.64727 6.30694 6.57556 6.3072C7.50848 6.30697 8.43876 6.22338 9.35092 6.05782L9.9351 5.95298C10.0256 5.9366 10.1096 5.90062 10.1788 5.84858C10.2479 5.79653 10.3 5.73018 10.3298 5.65603L11.0536 3.84434C11.2056 3.46412 11.2313 3.05587 11.1279 2.66413C11.0245 2.27239 10.796 1.9122 10.4672 1.62284C10.1384 1.33348 9.72207 1.12606 9.26353 1.0232C8.80498 0.920344 8.32186 0.926003 7.86686 1.03956L6.81087 1.30304C6.65595 1.34005 6.49194 1.34005 6.33702 1.30304L5.27999 1.03956C4.82499 0.926003 4.34187 0.920344 3.88333 1.0232C3.42478 1.12606 3.00842 1.33348 2.67966 1.62284C2.35089 1.9122 2.12234 2.27239 2.01894 2.66413C1.91554 3.05587 1.94125 3.46412 2.09327 3.84434L2.81705 5.65601ZM3.44815 2.24763C3.64032 2.07586 3.88526 1.95279 4.15549 1.89225C4.42571 1.8317 4.71053 1.83607 4.97799 1.90486L5.80988 2.11199C5.7328 2.2387 5.67479 2.37308 5.6372 2.51199C5.60661 2.62883 5.6321 2.75117 5.70806 2.85212C5.78402 2.95308 5.90424 3.02439 6.0423 3.05038C6.08029 3.05734 6.11904 3.06088 6.1579 3.06096C6.27925 3.06095 6.39697 3.02594 6.49163 2.9617C6.5863 2.89746 6.65225 2.80784 6.67861 2.70761C6.71153 2.58448 6.77745 2.4694 6.87125 2.37124C6.96506 2.27308 7.08427 2.19446 7.21967 2.14145L8.16885 1.90485C8.43658 1.83794 8.72089 1.83455 8.99074 1.89506C9.26058 1.95556 9.5056 2.07763 9.69903 2.24794C9.89247 2.41825 10.0269 2.63025 10.0876 2.8608C10.1483 3.09135 10.133 3.33159 10.0434 3.55529L9.41646 5.12375L9.12904 5.17486C7.45018 5.48061 5.71375 5.48151 4.03445 5.1775L3.73039 5.1229L3.10346 3.5553C3.01097 3.33183 2.99424 3.09092 3.05516 2.85982C3.11607 2.62873 3.2522 2.41667 3.44815 2.24763ZM6.71819 7.92856C6.64816 7.92853 6.5788 7.94017 6.51409 7.96283C6.44938 7.9855 6.39059 8.01873 6.34107 8.06063C6.29155 8.10253 6.25227 8.15228 6.22549 8.20703C6.19871 8.26178 6.18495 8.32047 6.18499 8.37972V10.9052L5.58721 10.3994C5.48689 10.3162 5.35182 10.2699 5.21135 10.2705C5.07089 10.2711 4.93638 10.3185 4.83705 10.4026C4.73773 10.4866 4.68161 10.6004 4.6809 10.7193C4.68019 10.8381 4.73495 10.9524 4.83326 11.0373L6.34123 12.3133C6.39072 12.3552 6.44949 12.3884 6.51417 12.4111C6.57886 12.4337 6.64819 12.4454 6.7182 12.4454C6.78822 12.4454 6.85754 12.4337 6.92223 12.4111C6.98691 12.3884 7.04568 12.3552 7.09518 12.3133L8.60414 11.0373C8.70246 10.9524 8.75721 10.8381 8.7565 10.7193C8.75579 10.6004 8.69968 10.4866 8.60035 10.4026C8.50103 10.3185 8.36652 10.2711 8.22605 10.2705C8.08558 10.2699 7.95051 10.3162 7.85019 10.3994L7.25138 10.9056V8.37971C7.25142 8.32046 7.23766 8.26178 7.21088 8.20702C7.1841 8.15227 7.14482 8.10252 7.0953 8.06062C7.04578 8.01872 6.98699 7.98549 6.92228 7.96283C6.85757 7.94017 6.78821 7.92852 6.71818 7.92855L6.71819 7.92856ZM13.4811 5.65602C13.5108 5.73026 13.5628 5.79668 13.632 5.84875C13.7012 5.90082 13.7852 5.93674 13.8758 5.95297L14.4778 6.06048C15.3856 6.22425 16.3113 6.30695 17.2396 6.30721C18.1725 6.30698 19.1028 6.22339 20.0149 6.05783L20.5992 5.95297C20.6897 5.93659 20.7737 5.90061 20.8428 5.84857C20.912 5.79652 20.9641 5.73017 20.9939 5.65602L21.7177 3.84433C21.8697 3.46411 21.8954 3.05586 21.792 2.66412C21.6886 2.27238 21.46 1.91219 21.1313 1.62283C20.8025 1.33347 20.3861 1.12605 19.9276 1.02319C19.4691 0.920335 18.9859 0.925994 18.5309 1.03955L17.4749 1.30303C17.32 1.34004 17.156 1.34004 17.0011 1.30303L15.9441 1.03955C15.4891 0.925994 15.0059 0.920335 14.5474 1.02319C14.0889 1.12605 13.6725 1.33347 13.3437 1.62283C13.015 1.91219 12.7864 2.27238 12.683 2.66412C12.5796 3.05586 12.6053 3.46411 12.7573 3.84433L13.4811 5.65602ZM14.1122 2.24764C14.3045 2.07596 14.5494 1.95296 14.8196 1.89242C15.0898 1.83188 15.3746 1.83619 15.6421 1.90487L16.474 2.112C16.3969 2.2387 16.3389 2.37308 16.3013 2.51199C16.2707 2.62884 16.2962 2.75118 16.3721 2.85213C16.4481 2.95308 16.5683 3.02439 16.7064 3.05039C16.7444 3.05735 16.7831 3.06089 16.822 3.06097C16.9433 3.06096 17.061 3.02595 17.1557 2.96171C17.2504 2.89747 17.3163 2.80784 17.3427 2.70762C17.3756 2.58449 17.4415 2.46941 17.5353 2.37125C17.6292 2.27309 17.7484 2.19448 17.8838 2.14147L18.833 1.90487C19.1007 1.83796 19.385 1.83457 19.6548 1.89507C19.9247 1.95558 20.1697 2.07765 20.3631 2.24796C20.5566 2.41827 20.691 2.63027 20.7517 2.86082C20.8124 3.09137 20.7971 3.33161 20.7075 3.5553L20.0805 5.12375L19.7931 5.17486C18.1142 5.48061 16.3778 5.48151 14.6985 5.1775L14.3944 5.1229L13.7675 3.5553C13.675 3.33183 13.6583 3.09092 13.7192 2.85982C13.7801 2.62873 13.9163 2.41667 14.1122 2.24763L14.1122 2.24764ZM17.3823 7.92857C17.3122 7.92854 17.2429 7.94018 17.1782 7.96284C17.1135 7.9855 17.0547 8.01873 17.0051 8.06064C16.9556 8.10254 16.9163 8.15229 16.8896 8.20704C16.8628 8.26179 16.849 8.32048 16.8491 8.37973V10.9052L16.2513 10.3994C16.151 10.3162 16.0159 10.2699 15.8754 10.2705C15.735 10.2711 15.6005 10.3185 15.5011 10.4026C15.4018 10.4866 15.3457 10.6004 15.345 10.7193C15.3443 10.8381 15.399 10.9524 15.4973 11.0373L17.0053 12.3133C17.0548 12.3552 17.1136 12.3884 17.1782 12.4111C17.2429 12.4338 17.3123 12.4454 17.3823 12.4454C17.4523 12.4454 17.5216 12.4338 17.5863 12.4111C17.651 12.3884 17.7097 12.3552 17.7592 12.3133L19.2682 11.0373C19.3665 10.9524 19.4213 10.8381 19.4206 10.7193C19.4199 10.6004 19.3637 10.4866 19.2644 10.4026C19.1651 10.3185 19.0306 10.2711 18.8901 10.2705C18.7497 10.2699 18.6146 10.3162 18.5143 10.3994L17.9155 10.9056V8.37971C17.9155 8.32046 17.9017 8.26177 17.875 8.20702C17.8482 8.15227 17.8089 8.10252 17.7594 8.06062C17.7099 8.01871 17.6511 7.98548 17.5863 7.96282C17.5216 7.94016 17.4523 7.92852 17.3822 7.92855L17.3823 7.92857Z" fill="#363636"/>
</svg>
