<svg width="29" height="28" viewBox="0 0 29 28" fill="none" xmlns="http://www.w3.org/2000/svg">
<path d="M24.0121 16.5012H19.8613V16.414C19.8613 16.3268 19.7711 16.1524 19.7711 16.0652C19.7711 15.8909 19.7711 15.6293 19.8613 15.455L19.9515 15.2806C20.132 14.7575 20.0418 14.2345 19.7711 13.7114C19.4101 13.2755 18.959 13.0139 18.3273 13.0139H17.3347C17.425 12.6652 17.3347 12.3165 17.1543 12.0549L16.7933 11.5319C16.5226 11.096 16.0715 10.8344 15.5301 10.8344H13.9961C13.184 10.8344 12.4621 11.5319 12.4621 12.3165V13.1011H10.7476C9.84529 13.1011 9.03318 13.8857 9.03318 14.7575C9.03318 14.9319 9.03318 15.1063 9.12341 15.2806C9.21365 15.5422 9.21365 15.8037 9.12341 16.0652C9.12341 16.1524 9.12341 16.2396 9.03318 16.3268L8.94294 16.5883H5.06287C2.35583 16.5883 0.0999756 18.7678 0.0999756 21.3833V24.8705C0.0999756 26.091 1.09255 27.05 2.35583 27.05H26.7191C27.9824 27.05 28.975 26.091 28.975 24.8705V21.3833C28.975 18.6807 26.7191 16.5012 24.0121 16.5012ZM13.2742 12.3165C13.2742 11.9678 13.5449 11.7062 13.9058 11.7062H15.4398C15.6203 11.7062 15.891 11.7934 15.9812 11.9678L16.3422 12.4908C16.5226 12.6652 16.4324 12.9267 16.3422 13.1883L15.8008 13.8857C15.7105 13.9729 15.7105 14.0601 15.6203 14.0601L14.5375 14.6704C14.357 14.7575 14.0863 14.7575 13.8156 14.5832L13.4547 14.3216C13.2742 14.2345 13.184 14.0601 13.184 13.8857V12.3165H13.2742ZM9.84529 14.9319C9.84529 14.8447 9.84529 14.7575 9.84529 14.6704C9.84529 14.2345 10.2062 13.8857 10.6574 13.8857H12.3719C12.3719 14.3216 12.5523 14.6704 12.9133 15.0191L13.2742 15.2806C13.5449 15.5422 13.9058 15.6293 14.2668 15.6293C14.5375 15.6293 14.8082 15.5422 14.9886 15.455L16.0715 14.8447C16.2519 14.7575 16.4324 14.5832 16.6129 14.4088L16.9738 13.8857H18.4176C18.6883 13.8857 18.959 13.9729 19.0492 14.2345C19.2297 14.4088 19.2297 14.7575 19.1394 14.9319L19.0492 15.1934C18.959 15.5422 18.8687 15.8909 18.8687 16.1524C18.8687 16.3268 18.8687 16.5883 18.959 16.7627C18.959 16.8499 19.0492 17.0242 19.0492 17.1114C19.2297 17.7217 19.3199 18.2448 19.3199 18.855C19.3199 20.0756 18.959 21.2961 18.4176 22.3423L18.0566 22.9525C17.9664 23.0397 17.8761 23.0397 17.8761 23.0397C17.7859 23.0397 17.6957 23.0397 17.6957 22.8653L15.9812 19.1166C15.7105 18.5063 15.0789 18.1576 14.4472 18.0704C13.7254 18.0704 13.184 18.4191 12.823 19.0294L10.9281 22.691C10.8379 22.7782 10.7476 22.7782 10.7476 22.7782C10.7476 22.7782 10.5672 22.7782 10.5672 22.691C10.0258 21.6448 9.66482 19.9884 9.66482 18.4191C9.66482 17.9832 9.66482 17.4601 9.75505 17.0242L9.84529 16.5012C9.84529 16.414 9.93552 16.2396 9.93552 16.1524C10.0258 15.8037 10.0258 15.3678 9.84529 14.9319ZM28.0726 24.7833C28.0726 25.4808 27.441 26.091 26.7191 26.091H2.35583C1.63396 26.091 1.00232 25.4808 1.00232 24.7833V21.2961C1.00232 19.1166 2.80701 17.373 5.06287 17.373H8.76248C8.76248 17.7217 8.67224 18.0704 8.67224 18.4191C8.67224 20.0756 9.03318 21.9063 9.66482 23.0397C9.84529 23.3884 10.2965 23.65 10.6574 23.65C11.1086 23.65 11.4695 23.3884 11.65 23.0397L13.5449 19.3781C13.7254 19.1166 13.9058 18.9422 14.2668 18.9422C14.6277 18.9422 14.8984 19.1166 14.9886 19.3781L16.7031 23.1269C16.8836 23.4756 17.2445 23.7371 17.6957 23.8243C17.6957 23.8243 17.6957 23.8243 17.7859 23.8243C18.2371 23.8243 18.598 23.65 18.7785 23.3012L19.1394 22.691C19.8613 21.4704 20.2222 20.1627 20.2222 18.7678C20.2222 18.3319 20.132 17.8089 20.0418 17.373H24.0121C26.2679 17.373 28.0726 19.1166 28.0726 21.2961V24.7833ZM8.3113 5.69075C8.40154 5.95229 8.49177 6.12666 8.67224 6.30102C8.85271 6.56256 9.03318 6.73692 9.30388 6.8241C10.3867 7.52155 12.1914 8.30617 14.5375 8.30617H14.6277C16.9738 8.30617 18.7785 7.52155 19.8613 6.8241C20.3125 6.56256 20.6734 6.21384 20.7636 5.69075L21.0344 4.90613C21.4855 3.6856 21.2148 2.29071 20.3125 1.33172C19.4101 0.372735 17.9664 0.0240123 16.7031 0.372735L15.1691 0.808638H15.0789C14.8082 0.895818 14.4472 0.895818 14.1765 0.808638L12.5523 0.285554C11.1988 -0.150349 9.84529 0.198373 8.85271 1.15736C7.86013 2.11635 7.49919 3.42406 7.95037 4.64459L8.3113 5.69075ZM14.6277 7.43437C14.5375 7.43437 14.5375 7.43437 14.6277 7.43437C12.4621 7.43437 10.8379 6.73692 9.75505 6.12666C10.5672 5.77793 12.1914 5.25485 14.5375 5.25485C16.7933 5.25485 18.4176 5.69075 19.2297 6.12666C18.2371 6.73692 16.6129 7.43437 14.6277 7.43437ZM9.48435 1.68044C10.0258 1.15736 10.6574 0.895819 11.3793 0.895819C11.65 0.895819 11.9207 0.895818 12.1914 0.982999L13.8156 1.50608H13.9058C13.6351 1.76762 13.4547 2.11635 13.3644 2.46507C13.4547 2.81379 13.5449 3.07533 13.8156 3.07533H13.9058C14.0863 3.07533 14.2668 2.90097 14.357 2.72661C14.5375 2.20353 14.8984 1.76762 15.4398 1.50608L16.9738 1.07018C17.9664 0.808638 18.959 1.07018 19.6808 1.85481C20.4027 2.55225 20.5832 3.59842 20.2222 4.5574L19.9515 5.42921C19.0492 4.99331 17.2445 4.38304 14.6277 4.38304H14.5375C12.0109 4.38304 10.2062 4.90613 9.30388 5.42921L8.85271 4.38304C8.49177 3.42406 8.76248 2.46507 9.48435 1.68044Z" fill="#363636"/>
</svg>
