<svg width="36" height="36" viewBox="0 0 36 36" fill="none" xmlns="http://www.w3.org/2000/svg">
<path d="M6.1875 31.5C6.07625 31.5 5.9675 31.533 5.875 31.5948C5.78249 31.6566 5.7104 31.7445 5.66782 31.8472C5.62525 31.95 5.61411 32.0631 5.63581 32.1722C5.65752 32.2814 5.71109 32.3816 5.78976 32.4602C5.86842 32.5389 5.96865 32.5925 6.07777 32.6142C6.18688 32.6359 6.29998 32.6248 6.40276 32.5822C6.50555 32.5396 6.5934 32.4675 6.65521 32.375C6.71701 32.2825 6.75 32.1738 6.75 32.0625C6.75 31.9133 6.69074 31.7702 6.58525 31.6648C6.47976 31.5593 6.33669 31.5 6.1875 31.5ZM7.3125 23.625C7.20125 23.625 7.0925 23.658 7 23.7198C6.90749 23.7816 6.8354 23.8695 6.79282 23.9722C6.75025 24.075 6.73911 24.1881 6.76081 24.2972C6.78252 24.4064 6.83609 24.5066 6.91476 24.5852C6.99342 24.6639 7.09365 24.7175 7.20277 24.7392C7.31188 24.7609 7.42498 24.7498 7.52776 24.7072C7.63055 24.6646 7.7184 24.5925 7.78021 24.5C7.84201 24.4075 7.875 24.2988 7.875 24.1875C7.875 24.0383 7.81574 23.8952 7.71025 23.7898C7.60476 23.6843 7.46169 23.625 7.3125 23.625ZM3.93751 21.375C3.82625 21.375 3.7175 21.408 3.625 21.4698C3.53249 21.5316 3.4604 21.6195 3.41782 21.7222C3.37525 21.825 3.36411 21.9381 3.38581 22.0472C3.40752 22.1564 3.46109 22.2566 3.53976 22.3352C3.61843 22.4139 3.71865 22.4675 3.82777 22.4892C3.93688 22.5109 4.04998 22.4998 4.15276 22.4572C4.25555 22.4146 4.3434 22.3425 4.40521 22.25C4.46702 22.1575 4.50001 22.0488 4.50001 21.9375C4.50001 21.7883 4.44074 21.6452 4.33525 21.5398C4.22976 21.4343 4.08669 21.375 3.93751 21.375ZM8.4375 28.125C8.32625 28.125 8.2175 28.158 8.125 28.2198C8.03249 28.2816 7.9604 28.3695 7.91782 28.4722C7.87525 28.575 7.86411 28.6881 7.88581 28.7972C7.90752 28.9064 7.96109 29.0066 8.03976 29.0852C8.11842 29.1639 8.21865 29.2175 8.32777 29.2392C8.43688 29.2609 8.54998 29.2498 8.65276 29.2072C8.75555 29.1646 8.8434 29.0925 8.90521 29C8.96701 28.9075 9 28.7988 9 28.6875C9 28.5383 8.94074 28.3952 8.83525 28.2898C8.72976 28.1843 8.58669 28.125 8.4375 28.125ZM2.81251 31.5C2.70125 31.5 2.5925 31.533 2.5 31.5948C2.4075 31.6566 2.3354 31.7445 2.29282 31.8472C2.25025 31.95 2.23911 32.0631 2.26081 32.1722C2.28252 32.2814 2.33609 32.3816 2.41476 32.4602C2.49343 32.5389 2.59365 32.5925 2.70277 32.6142C2.81188 32.6359 2.92498 32.6248 3.02777 32.5822C3.13055 32.5396 3.2184 32.4675 3.28021 32.375C3.34202 32.2825 3.37501 32.1738 3.37501 32.0625C3.37501 31.9133 3.31574 31.7702 3.21025 31.6648C3.10476 31.5593 2.96169 31.5 2.81251 31.5ZM3.93751 25.875C3.82625 25.875 3.7175 25.908 3.625 25.9698C3.53249 26.0316 3.4604 26.1195 3.41782 26.2222C3.37525 26.325 3.36411 26.4381 3.38581 26.5472C3.40752 26.6564 3.46109 26.7566 3.53976 26.8352C3.61843 26.9139 3.71865 26.9675 3.82777 26.9892C3.93688 27.0109 4.04998 26.9998 4.15276 26.9572C4.25555 26.9146 4.3434 26.8425 4.40521 26.75C4.46702 26.6575 4.50001 26.5488 4.50001 26.4375C4.50001 26.2883 4.44074 26.1452 4.33525 26.0398C4.22976 25.9343 4.08669 25.875 3.93751 25.875ZM32.625 28.6875C32.625 28.7988 32.658 28.9075 32.7198 29C32.7816 29.0925 32.8695 29.1646 32.9722 29.2072C33.075 29.2498 33.1881 29.2609 33.2972 29.2392C33.4063 29.2175 33.5066 29.1639 33.5852 29.0852C33.6639 29.0066 33.7175 28.9064 33.7392 28.7972C33.7609 28.6881 33.7498 28.575 33.7072 28.4722C33.6646 28.3695 33.5925 28.2816 33.5 28.2198C33.4075 28.158 33.2987 28.125 33.1875 28.125C33.0383 28.125 32.8952 28.1843 32.7897 28.2898C32.6843 28.3952 32.625 28.5383 32.625 28.6875ZM10.6875 32.625C10.5763 32.625 10.4675 32.658 10.375 32.7198C10.2825 32.7816 10.2104 32.8695 10.1678 32.9722C10.1252 33.075 10.1141 33.1881 10.1358 33.2972C10.1575 33.4064 10.2111 33.5066 10.2898 33.5852C10.3684 33.6639 10.4686 33.7175 10.5778 33.7392C10.6869 33.7609 10.8 33.7498 10.9028 33.7072C11.0055 33.6646 11.0934 33.5925 11.1552 33.5C11.217 33.4075 11.25 33.2988 11.25 33.1875C11.25 33.0383 11.1907 32.8952 11.0853 32.7898C10.9798 32.6843 10.8367 32.625 10.6875 32.625ZM30.9375 31.5C30.8262 31.5 30.7175 31.533 30.625 31.5948C30.5325 31.6566 30.4604 31.7445 30.4178 31.8472C30.3752 31.95 30.3641 32.0631 30.3858 32.1722C30.4075 32.2814 30.4611 32.3816 30.5397 32.4602C30.6184 32.5389 30.7186 32.5925 30.8278 32.6142C30.9369 32.6359 31.05 32.6248 31.1528 32.5822C31.2555 32.5396 31.3434 32.4675 31.4052 32.375C31.467 32.2825 31.5 32.1738 31.5 32.0625C31.5 31.9133 31.4407 31.7702 31.3352 31.6648C31.2298 31.5593 31.0867 31.5 30.9375 31.5ZM32.0625 22.5C31.9512 22.5 31.8425 22.533 31.75 22.5948C31.6575 22.6566 31.5854 22.7445 31.5428 22.8472C31.5002 22.95 31.4891 23.0631 31.5108 23.1722C31.5325 23.2814 31.5861 23.3816 31.6647 23.4602C31.7434 23.5389 31.8436 23.5925 31.9528 23.6142C32.0619 23.6359 32.175 23.6248 32.2778 23.5822C32.3805 23.5396 32.4684 23.4675 32.5302 23.375C32.592 23.2825 32.625 23.1738 32.625 23.0625C32.625 22.9133 32.5657 22.7702 32.4602 22.6648C32.3548 22.5593 32.2117 22.5 32.0625 22.5ZM28.6875 22.5C28.5762 22.5 28.4675 22.533 28.375 22.5948C28.2825 22.6566 28.2104 22.7445 28.1678 22.8472C28.1252 22.95 28.1141 23.0631 28.1358 23.1722C28.1575 23.2814 28.2111 23.3816 28.2897 23.4602C28.3684 23.5389 28.4686 23.5925 28.5778 23.6142C28.6869 23.6359 28.8 23.6248 28.9028 23.5822C29.0055 23.5396 29.0934 23.4675 29.1552 23.375C29.217 23.2825 29.25 23.1738 29.25 23.0625C29.25 22.9133 29.1907 22.7702 29.0852 22.6648C28.9798 22.5593 28.8367 22.5 28.6875 22.5ZM34.1301 19.2876C33.5534 18.8148 32.878 18.477 32.1537 18.2992C31.4294 18.1213 30.6745 18.1079 29.9443 18.2598C28.5156 18.5596 27.0729 18.7881 25.6395 18.9697L27.2252 14.5805C27.5448 13.7054 27.6167 12.759 27.4329 11.8456C27.2492 10.9322 26.8169 10.0872 26.1837 9.40377C25.5592 8.71274 24.7537 8.21031 23.8585 7.95334C22.9632 7.69636 22.0139 7.69512 21.1179 7.94973L20.6038 8.08644V3.84686H22.0825C22.1564 3.8469 22.2296 3.83238 22.2979 3.80413C22.3661 3.77588 22.4281 3.73444 22.4804 3.6822C22.5326 3.62996 22.5741 3.56793 22.6023 3.49967C22.6306 3.4314 22.6451 3.35824 22.645 3.28436V0.5625C22.6451 0.488619 22.6306 0.415455 22.6023 0.34719C22.5741 0.278925 22.5326 0.216898 22.4804 0.164657C22.4281 0.112415 22.3661 0.0709836 22.2979 0.0427305C22.2296 0.0144774 22.1564 -4.27933e-05 22.0825 9.47311e-08H13.9175C13.8436 -4.27933e-05 13.7704 0.0144774 13.7022 0.0427305C13.6339 0.0709836 13.5719 0.112415 13.5196 0.164657C13.4674 0.216898 13.426 0.278925 13.3977 0.34719C13.3695 0.415455 13.3549 0.488619 13.355 0.5625V3.28436C13.3549 3.35824 13.3695 3.4314 13.3977 3.49967C13.426 3.56793 13.4674 3.62996 13.5196 3.6822C13.5719 3.73444 13.6339 3.77588 13.7022 3.80413C13.7704 3.83238 13.8436 3.8469 13.9175 3.84686H15.3962V7.91916L15.0886 7.82337C14.2051 7.53097 13.2574 7.49161 12.3526 7.70974C11.4479 7.92787 10.6222 8.39478 9.969 9.05768C9.30664 9.71346 8.8378 10.5391 8.61395 11.4439C8.3901 12.3487 8.4199 13.2977 8.70008 14.1866L10.1964 18.925C10.1989 18.9328 10.1977 18.9405 10.2001 18.9483C8.82519 18.7694 7.43673 18.5462 6.05458 18.2593C5.32024 18.1107 4.56206 18.1274 3.83494 18.308C3.10783 18.4886 2.42997 18.8286 1.85045 19.3034C1.27093 19.7783 0.804256 20.376 0.484216 21.0534C0.164176 21.7308 -0.00121881 22.471 6.76163e-06 23.2202V32.0625C0.00127205 33.1064 0.416521 34.1072 1.15467 34.8453C1.89282 35.5835 2.8936 35.9987 3.93751 36H32.0625C33.1064 35.9987 34.1072 35.5835 34.8453 34.8453C35.5835 34.1072 35.9987 33.1064 36 32.0625V23.2202C36.0014 22.4667 35.8341 21.7225 35.5106 21.042C35.187 20.3616 34.7154 19.7621 34.1301 19.2876ZM14.48 2.72186V1.125H21.52V2.72186H14.48ZM19.4788 3.84686V13.8713L18 14.8574L16.5212 13.8713V8.66004C16.5206 8.64672 16.5228 8.63373 16.5212 8.62055V3.84686H19.4788ZM9.77339 13.8494C9.55643 13.1582 9.53343 12.4207 9.7069 11.7174C9.88036 11.0141 10.2436 10.3719 10.7571 9.86088C11.2705 9.34987 11.9144 8.98966 12.6186 8.81954C13.3227 8.64943 14.0601 8.67593 14.7502 8.89617L15.3962 9.09755V14.1724C15.3963 14.265 15.4193 14.3561 15.4629 14.4377C15.5066 14.5194 15.5697 14.589 15.6467 14.6404L17.6879 16.0017C17.7803 16.0633 17.8889 16.0962 18 16.0962C18.111 16.0962 18.2196 16.0633 18.312 16.0017L20.3532 14.6404C20.4302 14.589 20.4933 14.5194 20.537 14.4377C20.5807 14.3561 20.6036 14.265 20.6037 14.1724V9.25111L21.4112 9.03624C22.11 8.84485 22.848 8.84934 23.5445 9.04921C24.241 9.24907 24.869 9.63663 25.36 10.1695C25.851 10.7023 26.186 11.3599 26.3284 12.0704C26.4707 12.7808 26.415 13.5167 26.1672 14.1976L24.4797 18.8685C24.3954 19.0906 24.3371 19.3217 24.3061 19.5573C24.2261 20.0864 24.2674 20.6268 24.4269 21.1377C24.7405 22.1508 24.8987 23.2055 24.8961 24.266C24.8978 26.0744 24.4388 27.8534 23.5623 29.4351L23.1786 30.1161C23.5682 26.5518 23.1712 23.7326 21.9495 21.5387C21.4249 20.5551 20.6312 19.7411 19.6611 19.192C18.9059 18.7968 18.062 18.602 17.21 18.6263C16.358 18.6507 15.5266 18.8933 14.7952 19.331C12.988 20.4312 12.3562 22.7313 11.9761 24.8357C11.7263 26.2423 11.6332 27.6724 11.6987 29.0996C11.0697 27.8298 10.7028 26.4463 10.62 25.0317C10.5373 23.6171 10.7403 22.2002 11.217 20.8658C11.3498 20.4851 11.4197 20.0854 11.424 19.6822L11.4268 19.6738L11.4258 19.6614C11.426 19.6436 11.4301 19.6267 11.4301 19.6089C11.4307 19.2611 11.3762 18.9153 11.2686 18.5845L9.77339 13.8494ZM22.0875 29.7664L19.9105 24.7385C19.7272 24.3219 19.4287 23.9664 19.0501 23.7138C18.6715 23.4613 18.2286 23.3222 17.7735 23.3131C17.3185 23.3039 16.8704 23.425 16.4819 23.662C16.0934 23.8991 15.7807 24.2423 15.5808 24.6511L12.9595 30.074C12.9449 30.0998 12.9276 30.124 12.9078 30.1461C12.7291 28.4427 12.7882 26.7227 13.0836 25.0357C13.4187 23.1773 13.9537 21.1602 15.3797 20.2918C15.9444 19.9589 16.5842 19.7743 17.2394 19.7552C17.8946 19.7361 18.544 19.8831 19.1272 20.1824C19.9085 20.6301 20.5466 21.2903 20.9674 22.0864C22.1178 24.4715 22.5088 27.1521 22.0875 29.7664ZM34.875 32.0625C34.8742 32.8082 34.5776 33.5231 34.0504 34.0504C33.5231 34.5776 32.8082 34.8742 32.0625 34.875H3.93751C3.19182 34.8742 2.47691 34.5776 1.94963 34.0504C1.42236 33.5231 1.12579 32.8082 1.12501 32.0625V23.2202C1.12414 22.6337 1.2544 22.0545 1.50627 21.5249C1.75814 20.9953 2.12524 20.5288 2.5807 20.1594C3.02781 19.7926 3.55135 19.5306 4.11291 19.3925C4.67448 19.2544 5.25983 19.2437 5.82605 19.3612C7.30379 19.668 8.79092 19.9067 10.2604 20.0922C10.2338 20.2418 10.1959 20.3891 10.147 20.5329C9.62289 22.0082 9.402 23.5742 9.49752 25.1369C9.59304 26.6996 10.003 28.2269 10.7029 29.6274L11.1852 30.5816C11.3127 30.8409 11.5105 31.0592 11.756 31.2117C12.0015 31.3641 12.2849 31.4446 12.5738 31.444H12.5837C12.8745 31.4427 13.1591 31.3594 13.4047 31.2038C13.6503 31.0481 13.8471 30.8264 13.9724 30.564L16.5938 25.1411C16.6941 24.9219 16.8578 24.7377 17.0638 24.6124C17.2698 24.487 17.5087 24.4263 17.7495 24.438C17.9905 24.4384 18.2261 24.5096 18.4269 24.6428C18.6277 24.776 18.7849 24.9654 18.8789 25.1872L21.275 30.7222C21.3895 30.9899 21.5773 31.2199 21.8167 31.3856C22.0562 31.5513 22.3376 31.646 22.6285 31.6587C22.6538 31.6599 22.678 31.6604 22.7022 31.6604C22.9773 31.6614 23.2477 31.588 23.4846 31.448C23.7215 31.308 23.9161 31.1065 24.048 30.865L24.5435 29.985C25.514 28.2352 26.0226 26.267 26.0211 24.2661C26.0243 23.0926 25.8491 21.9256 25.5015 20.8048C25.438 20.5877 25.405 20.3629 25.4036 20.1367C26.9904 19.947 28.5919 19.6931 30.174 19.3612C30.7402 19.2438 31.3256 19.2545 31.8871 19.3926C32.4487 19.5307 32.9722 19.7927 33.4194 20.1594C33.8748 20.5288 34.2419 20.9954 34.4938 21.5249C34.7456 22.0545 34.8759 22.6337 34.875 23.2202V32.0625ZM29.8125 27C29.7012 27 29.5925 27.033 29.5 27.0948C29.4075 27.1566 29.3354 27.2445 29.2928 27.3472C29.2502 27.45 29.2391 27.5631 29.2608 27.6722C29.2825 27.7814 29.3361 27.8816 29.4147 27.9602C29.4934 28.0389 29.5936 28.0925 29.7028 28.1142C29.8119 28.1359 29.925 28.1248 30.0278 28.0822C30.1305 28.0396 30.2184 27.9675 30.2802 27.875C30.342 27.7825 30.375 27.6738 30.375 27.5625C30.375 27.4133 30.3157 27.2702 30.2102 27.1648C30.1048 27.0593 29.9617 27 29.8125 27ZM15.75 32.625C15.6387 32.625 15.53 32.658 15.4375 32.7198C15.345 32.7816 15.2729 32.8695 15.2303 32.9722C15.1877 33.075 15.1766 33.1881 15.1983 33.2972C15.22 33.4064 15.2736 33.5066 15.3523 33.5852C15.4309 33.6639 15.5311 33.7175 15.6403 33.7392C15.7494 33.7609 15.8625 33.7498 15.9653 33.7072C16.068 33.6646 16.1559 33.5925 16.2177 33.5C16.2795 33.4075 16.3125 33.2988 16.3125 33.1875C16.3125 33.0383 16.2532 32.8952 16.1477 32.7898C16.0423 32.6843 15.8992 32.625 15.75 32.625ZM17.4375 29.25C17.3262 29.25 17.2175 29.283 17.125 29.3448C17.0325 29.4066 16.9604 29.4945 16.9178 29.5972C16.8752 29.7 16.8641 29.8131 16.8858 29.9222C16.9075 30.0314 16.9611 30.1316 17.0398 30.2102C17.1184 30.2889 17.2186 30.3425 17.3278 30.3642C17.4369 30.3859 17.55 30.3748 17.6528 30.3322C17.7555 30.2896 17.8434 30.2175 17.9052 30.125C17.967 30.0325 18 29.9238 18 29.8125C18 29.6633 17.9407 29.5202 17.8352 29.4148C17.7298 29.3093 17.5867 29.25 17.4375 29.25ZM27.5625 32.625C27.4512 32.625 27.3425 32.658 27.25 32.7198C27.1575 32.7816 27.0854 32.8695 27.0428 32.9722C27.0002 33.075 26.9891 33.1881 27.0108 33.2972C27.0325 33.4064 27.0861 33.5066 27.1647 33.5852C27.2434 33.6639 27.3436 33.7175 27.4528 33.7392C27.5619 33.7609 27.675 33.7498 27.7778 33.7072C27.8805 33.6646 27.9684 33.5925 28.0302 33.5C28.092 33.4075 28.125 33.2988 28.125 33.1875C28.125 33.0383 28.0657 32.8952 27.9602 32.7898C27.8548 32.6843 27.7117 32.625 27.5625 32.625ZM22.5 32.625C22.3887 32.625 22.28 32.658 22.1875 32.7198C22.095 32.7816 22.0229 32.8695 21.9803 32.9722C21.9377 33.075 21.9266 33.1881 21.9483 33.2972C21.97 33.4064 22.0236 33.5066 22.1023 33.5852C22.1809 33.6639 22.2811 33.7175 22.3903 33.7392C22.4994 33.7609 22.6125 33.7498 22.7153 33.7072C22.818 33.6646 22.9059 33.5925 22.9677 33.5C23.0295 33.4075 23.0625 33.2988 23.0625 33.1875C23.0625 33.0383 23.0032 32.8952 22.8977 32.7898C22.7923 32.6843 22.6492 32.625 22.5 32.625Z" fill="#363636"/>
</svg>
