<svg width="25" height="31" viewBox="0 0 25 31" fill="none" xmlns="http://www.w3.org/2000/svg">
<path d="M22.351 2.07977C21.5911 1.22444 20.6208 0.611567 19.5498 0.310402C18.4788 0.0092381 17.3497 0.0317877 16.2901 0.375503L13.5709 1.22881L13.4256 1.26969C12.8212 1.45607 12.1793 1.4564 11.5747 1.27065L8.70837 0.375513C7.64878 0.0318439 6.5197 0.00931785 5.44868 0.31048C4.37766 0.611641 3.40739 1.22449 2.64749 2.07978C1.86938 2.92354 1.3298 3.98172 1.08995 5.13426C0.850102 6.2868 0.919595 7.48756 1.29054 8.60033L3.7856 15.1632L3.78765 15.1665C3.80841 15.2171 3.83731 15.2636 3.87304 15.3037C3.87786 15.3094 3.88013 15.3175 3.88517 15.3229C3.97694 15.3984 4.08595 15.4469 4.2011 15.4632L4.20647 15.4644H5.2409V17.8702C5.24129 18.2529 5.3848 18.6198 5.63994 18.8904C5.89508 19.161 6.24101 19.3132 6.60183 19.3137H7.13002L8.87892 28.5887L8.8823 28.5968L8.88291 28.6028L8.88739 28.6093C8.9015 28.6723 8.92749 28.7316 8.9638 28.7836C9.00011 28.8356 9.04599 28.8793 9.09865 28.9119L12.2742 30.8366C12.3427 30.8781 12.4203 30.9 12.4992 30.9C12.5782 30.9 12.6557 30.8781 12.7243 30.8366L15.8998 28.9119C15.9561 28.8778 16.0048 28.8313 16.0427 28.7755C16.0806 28.7198 16.1068 28.6561 16.1195 28.5887L17.1941 22.8902L17.1971 22.8742L17.8685 19.3137H18.3966C18.7575 19.3132 19.1034 19.161 19.3585 18.8904C19.6137 18.6198 19.7572 18.2529 19.7576 17.8702V15.4644H20.792C20.8714 15.4623 20.9489 15.4375 21.0161 15.3927C21.0317 15.383 21.0468 15.3723 21.0611 15.3605C21.1267 15.3111 21.1785 15.2438 21.211 15.1657L21.2129 15.1632L23.7168 8.57449C24.0828 7.46453 24.1488 6.26814 23.9074 5.12047C23.6661 3.9728 23.127 2.91958 22.351 2.07977ZM8.06245 19.3522H16.7108L8.58733 22.1357L8.06245 19.3522ZM15.2703 28.185L12.4992 29.8649L10.3989 28.5916L15.5229 26.8451L15.2703 28.185ZM15.7267 25.7648L9.66162 27.832L9.29614 25.894L16.1449 23.5471L15.7267 25.7648ZM16.3488 22.4663L9.11705 24.9444L8.76646 23.0853L16.7478 20.3505L16.3488 22.4663ZM18.8503 17.8701C18.8502 17.9977 18.8024 18.1201 18.7173 18.2103C18.6323 18.3005 18.5169 18.3512 18.3966 18.3513H6.60183C6.48154 18.3512 6.36621 18.3005 6.28115 18.2103C6.19609 18.1201 6.14827 17.9977 6.14819 17.8701V15.4643H18.8503V17.8701ZM22.8662 8.24041L20.4857 14.5021H4.51275L2.14108 8.26623C1.83002 7.32292 1.77386 6.30613 1.97897 5.33074C2.18408 4.35535 2.64227 3.46024 3.30178 2.74652C3.94772 2.02011 4.77219 1.49961 5.68218 1.24372C6.59217 0.98784 7.55147 1.00676 8.45186 1.29836L11.3204 2.19444C11.5669 2.26694 11.819 2.31577 12.0738 2.34034C11.5057 2.97061 11.1098 3.75293 10.9288 4.60351C10.9028 4.72813 10.9246 4.85856 10.9893 4.96615C11.054 5.07373 11.1564 5.14966 11.2739 5.17724C11.3062 5.18465 11.3391 5.18843 11.3722 5.18852C11.4754 5.1884 11.5755 5.15095 11.656 5.08235C11.7365 5.01375 11.7925 4.91811 11.8148 4.8112C11.9387 4.22694 12.1887 3.68113 12.5451 3.21666C12.9015 2.75218 13.3546 2.3817 13.8688 2.13433L16.5471 1.29836C17.4474 1.00674 18.4066 0.987812 19.3166 1.2437C20.2265 1.49959 21.0509 2.02011 21.6967 2.74653C22.354 3.45631 22.8118 4.34648 23.0184 5.31699C23.225 6.28751 23.1723 7.29991 22.8662 8.24041Z" fill="#363636"/>
</svg>
