<svg width="30" height="28" viewBox="0 0 30 28" fill="none" xmlns="http://www.w3.org/2000/svg">
<path d="M27.6563 11.2H18.75V9.86562C18.7504 9.48141 18.6554 9.10306 18.4733 8.76431C18.2912 8.42557 18.0277 8.13696 17.7063 7.92421L16.5638 7.16588C16.3709 7.03824 16.2128 6.86508 16.1036 6.66183C15.9943 6.45858 15.9372 6.23157 15.9375 6.00104V4.58071C16.2109 4.48482 16.4478 4.30704 16.6157 4.07176C16.7835 3.83649 16.8741 3.55525 16.875 3.26667V1.4C16.8746 1.02882 16.7263 0.672961 16.4627 0.410498C16.199 0.148035 15.8416 0.000405158 15.4688 0H3.28125C2.90842 0.000405158 2.55097 0.148035 2.28733 0.410498C2.0237 0.672961 1.87541 1.02882 1.875 1.4V3.26667C1.87589 3.55525 1.96649 3.83649 2.13434 4.07176C2.3022 4.30704 2.5391 4.48482 2.8125 4.58071V6.00104C2.81276 6.23157 2.7557 6.45857 2.64643 6.66181C2.53716 6.86505 2.37907 7.03821 2.18625 7.16584L1.04367 7.92418C0.722307 8.13692 0.458823 8.42555 0.276718 8.7643C0.0946125 9.10305 -0.000452158 9.48141 1.61691e-06 9.86562V25.6667C0.000731071 26.2853 0.247895 26.8784 0.687276 27.3158C1.12666 27.7532 1.72237 27.9993 2.34375 28H27.6563C28.2776 27.9993 28.8733 27.7532 29.3127 27.3158C29.7521 26.8784 29.9993 26.2853 30 25.6667V13.5333C29.9993 12.9147 29.7521 12.3216 29.3127 11.8842C28.8733 11.4468 28.2776 11.2007 27.6563 11.2ZM2.8125 1.4C2.81259 1.27626 2.862 1.15761 2.94989 1.07011C3.03778 0.982611 3.15696 0.933417 3.28125 0.933333H15.4688C15.593 0.933417 15.7122 0.982611 15.8001 1.07011C15.888 1.15761 15.9374 1.27626 15.9375 1.4V3.26667C15.9374 3.39041 15.888 3.50906 15.8001 3.59656C15.7122 3.68406 15.593 3.73325 15.4688 3.73333H3.28125C3.15696 3.73325 3.03778 3.68406 2.94989 3.59656C2.862 3.50906 2.81259 3.39041 2.8125 3.26667V1.4ZM15.5346 7.46667H3.2155C3.55825 7.05419 3.74709 6.53636 3.75 6.00104V4.66667H15V6.00104C15.0029 6.53637 15.1918 7.05419 15.5346 7.46667ZM17.8125 25.6667C17.8121 26.0378 17.6638 26.3937 17.4002 26.6562C17.1365 26.9186 16.7791 27.0663 16.4063 27.0667H2.34375C1.97092 27.0663 1.61347 26.9186 1.34983 26.6562C1.0862 26.3937 0.937909 26.0378 0.937502 25.6667V9.86562C0.937247 9.6351 0.994298 9.4081 1.10357 9.20486C1.21284 9.00162 1.37093 8.82846 1.56375 8.70082L2.01691 8.4H16.7331L17.1863 8.70079C17.3791 8.82842 17.5372 9.00158 17.6465 9.20482C17.7557 9.40806 17.8128 9.63506 17.8125 9.86559L17.8125 25.6667ZM29.0625 25.6667C29.0621 26.0378 28.9138 26.3937 28.6502 26.6562C28.3865 26.9186 28.0291 27.0663 27.6563 27.0667H18.2693C18.5793 26.6651 18.7482 26.1732 18.75 25.6667V12.1333H27.6563C28.0291 12.1337 28.3865 12.2814 28.6502 12.5438C28.9138 12.8063 29.0621 13.1622 29.0625 13.5333V25.6667ZM10.9621 11.499L9.74213 11.8284C9.53725 11.8842 9.3205 11.8796 9.11819 11.8152L7.91382 11.4343C7.42019 11.2781 6.89297 11.2598 6.38962 11.3815C5.88628 11.5031 5.42614 11.76 5.05937 12.1241C4.6926 12.4882 4.43327 12.9456 4.30966 13.4463C4.18605 13.9471 4.2029 14.472 4.35837 14.9639L5.13656 17.4266C5.21018 17.6655 5.20164 17.9219 5.1123 18.1553C4.83268 18.944 4.71521 19.7807 4.76688 20.6155C4.81854 21.4503 5.03829 22.2662 5.41305 23.0148L5.66482 23.5147C5.74713 23.6785 5.87387 23.8161 6.03069 23.9118C6.1875 24.0076 6.36812 24.0577 6.55209 24.0566C6.73606 24.0554 6.91601 24.0029 7.07157 23.9051C7.22713 23.8074 7.35207 23.6682 7.43224 23.5033L8.80416 20.6828C8.84619 20.602 8.9096 20.5341 8.98753 20.4866C9.06546 20.439 9.15496 20.4136 9.24636 20.413C9.33864 20.4141 9.4286 20.4419 9.5052 20.4932C9.58181 20.5444 9.64172 20.6168 9.67761 20.7015L10.9282 23.5776C11.0007 23.7459 11.1194 23.8905 11.2706 23.9948C11.4219 24.0991 11.5996 24.1589 11.7833 24.1673C11.8003 24.1682 11.8167 24.1682 11.8332 24.1682C12.0088 24.1687 12.1812 24.1222 12.3325 24.0335C12.4837 23.9449 12.6082 23.8173 12.6929 23.6642L12.9488 23.2058C13.3605 22.4642 13.6182 21.6478 13.7067 20.8051C13.7952 19.9624 13.7126 19.1106 13.4638 18.3003C13.3937 18.0721 13.3998 17.8275 13.4812 17.603L14.3638 15.1758C14.5401 14.6909 14.5794 14.1672 14.4773 13.6616C14.3752 13.1561 14.1356 12.6881 13.7847 12.3088C13.4338 11.9295 12.985 11.6534 12.4872 11.5106C11.9895 11.3678 11.462 11.3638 10.9621 11.499L10.9621 11.499ZM13.4821 14.8577L12.5995 17.2853C12.4494 17.7006 12.4383 18.153 12.5679 18.5751C12.7796 19.2651 12.8499 19.9904 12.7746 20.708C12.6992 21.4256 12.4798 22.1207 12.1294 22.7523L11.8295 23.2349C11.8206 23.2352 11.8119 23.2327 11.8045 23.2277C11.7972 23.2227 11.7917 23.2155 11.7888 23.2071V23.2066L10.5382 20.3305C10.4316 20.0814 10.2548 19.8685 10.029 19.7175C9.8033 19.5666 9.5384 19.4841 9.2665 19.4801L9.23491 19.4797C8.96834 19.4781 8.70685 19.5523 8.48107 19.6933C8.25528 19.8344 8.07455 20.0366 7.96004 20.2763L6.50298 23.0968L6.25079 22.5964C5.9314 21.9558 5.74505 21.2576 5.70289 20.5437C5.66073 19.8297 5.76363 19.1146 6.00543 18.4411C6.15637 18.0238 6.16522 17.5687 6.03061 17.1459L5.25281 14.684C5.14872 14.3552 5.13735 14.0041 5.21994 13.6692C5.30253 13.3343 5.47591 13.0285 5.72117 12.785C5.96642 12.5414 6.27414 12.3697 6.61074 12.2884C6.94735 12.207 7.29992 12.2193 7.63 12.3238L8.75787 12.6806C8.6244 12.8789 8.52495 13.0979 8.46359 13.3287C8.44905 13.3883 8.44642 13.4501 8.45587 13.5106C8.46532 13.5712 8.48666 13.6293 8.51866 13.6817C8.55067 13.734 8.59272 13.7796 8.64242 13.8157C8.69211 13.8519 8.74847 13.878 8.80829 13.8924C8.8681 13.9069 8.93019 13.9095 8.99102 13.9001C9.05185 13.8907 9.11022 13.8695 9.1628 13.8376C9.21539 13.8058 9.26115 13.7639 9.29748 13.7144C9.33381 13.6649 9.35999 13.6088 9.37454 13.5493C9.4213 13.3621 9.51069 13.1881 9.6358 13.0408C9.76091 12.8935 9.91838 12.7768 10.096 12.6997L11.2079 12.3995C11.5421 12.3091 11.8948 12.3118 12.2275 12.4073C12.5603 12.5028 12.8603 12.6874 13.0949 12.941C13.3295 13.1946 13.4897 13.5074 13.5579 13.8454C13.6262 14.1834 13.6 14.5335 13.4821 14.8577H13.4821ZM21.5625 13.0667C21.1917 13.0667 20.8291 13.1761 20.5208 13.3813C20.2125 13.5864 19.9721 13.8779 19.8302 14.219C19.6883 14.5601 19.6512 14.9354 19.7235 15.2975C19.7959 15.6596 19.9745 15.9922 20.2367 16.2533C20.4989 16.5143 20.833 16.6921 21.1967 16.7641C21.5604 16.8362 21.9374 16.7992 22.28 16.6579C22.6226 16.5166 22.9155 16.2774 23.1215 15.9704C23.3275 15.6634 23.4375 15.3025 23.4375 14.9333C23.437 14.4384 23.2393 13.9639 22.8878 13.6139C22.5363 13.264 22.0596 13.0672 21.5625 13.0667ZM21.5625 15.8667C21.3771 15.8667 21.1958 15.8119 21.0417 15.7094C20.8875 15.6068 20.7673 15.461 20.6964 15.2905C20.6254 15.12 20.6068 14.9323 20.643 14.7512C20.6792 14.5702 20.7685 14.4039 20.8996 14.2734C21.0307 14.1428 21.1977 14.0539 21.3796 14.0179C21.5615 13.9819 21.75 14.0004 21.9213 14.071C22.0926 14.1417 22.239 14.2613 22.342 14.4148C22.445 14.5683 22.5 14.7487 22.5 14.9333C22.4997 15.1808 22.4008 15.418 22.2251 15.5929C22.0493 15.7679 21.811 15.8663 21.5625 15.8667ZM26.25 13.0667C25.8792 13.0667 25.5166 13.1761 25.2083 13.3813C24.9 13.5864 24.6596 13.8779 24.5177 14.219C24.3758 14.5601 24.3387 14.9354 24.411 15.2975C24.4834 15.6596 24.662 15.9922 24.9242 16.2533C25.1864 16.5143 25.5205 16.6921 25.8842 16.7641C26.2479 16.8362 26.6249 16.7992 26.9675 16.6579C27.3101 16.5166 27.603 16.2774 27.809 15.9704C28.015 15.6634 28.125 15.3025 28.125 14.9333C28.1245 14.4384 27.9268 13.9639 27.5753 13.6139C27.2238 13.264 26.7471 13.0672 26.25 13.0667ZM26.25 15.8667C26.0646 15.8667 25.8833 15.8119 25.7292 15.7094C25.575 15.6068 25.4548 15.461 25.3839 15.2905C25.3129 15.12 25.2943 14.9323 25.3305 14.7512C25.3667 14.5702 25.456 14.4039 25.5871 14.2734C25.7182 14.1428 25.8852 14.0539 26.0671 14.0179C26.249 13.9819 26.4375 14.0004 26.6088 14.071C26.7801 14.1417 26.9265 14.2613 27.0295 14.4148C27.1325 14.5683 27.1875 14.7487 27.1875 14.9333C27.1872 15.1808 27.0883 15.418 26.9126 15.5929C26.7368 15.7679 26.4985 15.8663 26.25 15.8667ZM21.5625 17.7333C21.1917 17.7333 20.8291 17.8428 20.5208 18.0479C20.2125 18.253 19.9721 18.5446 19.8302 18.8857C19.6883 19.2267 19.6512 19.6021 19.7235 19.9642C19.7959 20.3263 19.9745 20.6589 20.2367 20.9199C20.4989 21.181 20.833 21.3588 21.1967 21.4308C21.5604 21.5028 21.9374 21.4659 22.28 21.3246C22.6226 21.1833 22.9155 20.944 23.1215 20.6371C23.3275 20.3301 23.4375 19.9692 23.4375 19.6C23.437 19.1051 23.2393 18.6306 22.8878 18.2806C22.5363 17.9307 22.0596 17.7338 21.5625 17.7333ZM21.5625 20.5333C21.3771 20.5333 21.1958 20.4786 21.0417 20.376C20.8875 20.2735 20.7673 20.1277 20.6964 19.9572C20.6254 19.7866 20.6068 19.599 20.643 19.4179C20.6792 19.2369 20.7685 19.0706 20.8996 18.94C21.0307 18.8095 21.1977 18.7206 21.3796 18.6846C21.5615 18.6486 21.75 18.6671 21.9213 18.7377C22.0926 18.8084 22.239 18.928 22.342 19.0815C22.445 19.235 22.5 19.4154 22.5 19.6C22.4997 19.8474 22.4008 20.0846 22.2251 20.2596C22.0493 20.4346 21.811 20.533 21.5625 20.5333ZM26.25 17.7333C25.8792 17.7333 25.5166 17.8428 25.2083 18.0479C24.9 18.253 24.6596 18.5446 24.5177 18.8857C24.3758 19.2267 24.3387 19.6021 24.411 19.9642C24.4834 20.3263 24.662 20.6589 24.9242 20.9199C25.1864 21.181 25.5205 21.3588 25.8842 21.4308C26.2479 21.5028 26.6249 21.4659 26.9675 21.3246C27.3101 21.1833 27.603 20.944 27.809 20.6371C28.015 20.3301 28.125 19.9692 28.125 19.6C28.1245 19.1051 27.9268 18.6306 27.5753 18.2806C27.2238 17.9307 26.7471 17.7338 26.25 17.7333ZM26.25 20.5333C26.0646 20.5333 25.8833 20.4786 25.7292 20.376C25.575 20.2735 25.4548 20.1277 25.3839 19.9572C25.3129 19.7866 25.2943 19.599 25.3305 19.4179C25.3667 19.2369 25.456 19.0706 25.5871 18.94C25.7182 18.8095 25.8852 18.7206 26.0671 18.6846C26.249 18.6486 26.4375 18.6671 26.6088 18.7377C26.7801 18.8084 26.9265 18.928 27.0295 19.0815C27.1325 19.235 27.1875 19.4154 27.1875 19.6C27.1872 19.8474 27.0883 20.0846 26.9126 20.2596C26.7368 20.4346 26.4985 20.533 26.25 20.5333ZM21.5625 22.4C21.1917 22.4 20.8291 22.5095 20.5208 22.7146C20.2125 22.9197 19.9721 23.2112 19.8302 23.5523C19.6883 23.8934 19.6512 24.2687 19.7235 24.6308C19.7959 24.9929 19.9745 25.3255 20.2367 25.5866C20.4989 25.8477 20.833 26.0254 21.1967 26.0975C21.5604 26.1695 21.9374 26.1325 22.28 25.9912C22.6226 25.85 22.9155 25.6107 23.1215 25.3037C23.3275 24.9968 23.4375 24.6359 23.4375 24.2667C23.437 23.7717 23.2393 23.2972 22.8878 22.9473C22.5363 22.5973 22.0596 22.4005 21.5625 22.4ZM21.5625 25.2C21.3771 25.2 21.1958 25.1453 21.0417 25.0427C20.8875 24.9401 20.7673 24.7944 20.6964 24.6238C20.6254 24.4533 20.6068 24.2656 20.643 24.0846C20.6792 23.9035 20.7685 23.7372 20.8996 23.6067C21.0307 23.4762 21.1977 23.3873 21.3796 23.3513C21.5615 23.3153 21.75 23.3337 21.9213 23.4044C22.0926 23.475 22.239 23.5946 22.342 23.7481C22.445 23.9016 22.5 24.0821 22.5 24.2667C22.4997 24.5141 22.4008 24.7513 22.2251 24.9263C22.0493 25.1012 21.811 25.1997 21.5625 25.2ZM26.25 22.4C25.8792 22.4 25.5166 22.5095 25.2083 22.7146C24.9 22.9197 24.6596 23.2112 24.5177 23.5523C24.3758 23.8934 24.3387 24.2687 24.411 24.6308C24.4834 24.9929 24.662 25.3255 24.9242 25.5866C25.1864 25.8477 25.5205 26.0254 25.8842 26.0975C26.2479 26.1695 26.6249 26.1325 26.9675 25.9912C27.3101 25.85 27.603 25.6107 27.809 25.3037C28.015 24.9968 28.125 24.6359 28.125 24.2667C28.1245 23.7717 27.9268 23.2972 27.5753 22.9473C27.2238 22.5973 26.7471 22.4005 26.25 22.4ZM26.25 25.2C26.0646 25.2 25.8833 25.1453 25.7292 25.0427C25.575 24.9401 25.4548 24.7944 25.3839 24.6238C25.3129 24.4533 25.2943 24.2656 25.3305 24.0846C25.3667 23.9035 25.456 23.7372 25.5871 23.6067C25.7182 23.4762 25.8852 23.3873 26.0671 23.3513C26.249 23.3153 26.4375 23.3337 26.6088 23.4044C26.7801 23.475 26.9265 23.5946 27.0295 23.7481C27.1325 23.9016 27.1875 24.0821 27.1875 24.2667C27.1872 24.5141 27.0883 24.7513 26.9126 24.9263C26.7368 25.1012 26.4985 25.1997 26.25 25.2Z" fill="#363636"/>
</svg>
