<svg width="28" height="28" viewBox="0 0 28 28" fill="none" xmlns="http://www.w3.org/2000/svg">
<path d="M25.8125 3.5H25.375V1.75C25.375 1.28587 25.1906 0.840752 24.8624 0.512563C24.5342 0.184374 24.0891 0 23.625 0C23.1609 0 22.7158 0.184374 22.3876 0.512563C22.0594 0.840752 21.875 1.28587 21.875 1.75V3.5H6.125V1.75C6.125 1.28587 5.94063 0.840752 5.61244 0.512563C5.28425 0.184374 4.83913 0 4.375 0C3.91087 0 3.46575 0.184374 3.13756 0.512563C2.80937 0.840752 2.625 1.28587 2.625 1.75V3.5H2.1875C1.60753 3.50061 1.05148 3.73127 0.641377 4.14138C0.231273 4.55148 0.000609172 5.10753 0 5.6875L0 25.8125C0.000609172 26.3925 0.231273 26.9485 0.641377 27.3586C1.05148 27.7687 1.60753 27.9994 2.1875 28H25.8125C26.3925 27.9994 26.9485 27.7687 27.3586 27.3586C27.7687 26.9485 27.9994 26.3925 28 25.8125V5.6875C27.9994 5.10753 27.7687 4.55148 27.3586 4.14138C26.9485 3.73127 26.3925 3.50061 25.8125 3.5ZM22.75 1.75C22.75 1.51794 22.8422 1.29538 23.0063 1.13128C23.1704 0.967187 23.3929 0.875 23.625 0.875C23.8571 0.875 24.0796 0.967187 24.2437 1.13128C24.4078 1.29538 24.5 1.51794 24.5 1.75V6.125C24.5 6.35706 24.4078 6.57962 24.2437 6.74372C24.0796 6.90781 23.8571 7 23.625 7C23.3929 7 23.1704 6.90781 23.0063 6.74372C22.8422 6.57962 22.75 6.35706 22.75 6.125V1.75ZM3.5 1.75C3.5 1.51794 3.59219 1.29538 3.75628 1.13128C3.92038 0.967187 4.14294 0.875 4.375 0.875C4.60706 0.875 4.82962 0.967187 4.99372 1.13128C5.15781 1.29538 5.25 1.51794 5.25 1.75V6.125C5.25 6.35706 5.15781 6.57962 4.99372 6.74372C4.82962 6.90781 4.60706 7 4.375 7C4.14294 7 3.92038 6.90781 3.75628 6.74372C3.59219 6.57962 3.5 6.35706 3.5 6.125V1.75ZM27.125 25.8125C27.1246 26.1605 26.9862 26.4941 26.7402 26.7402C26.4941 26.9862 26.1605 27.1246 25.8125 27.125H2.1875C1.83952 27.1246 1.5059 26.9862 1.25984 26.7402C1.01378 26.4941 0.87538 26.1605 0.875 25.8125V9.625H27.125V25.8125ZM27.125 8.75H0.875V5.6875C0.87538 5.33952 1.01378 5.0059 1.25984 4.75984C1.5059 4.51378 1.83952 4.37538 2.1875 4.375H2.625V6.125C2.625 6.58913 2.80937 7.03425 3.13756 7.36244C3.46575 7.69063 3.91087 7.875 4.375 7.875C4.83913 7.875 5.28425 7.69063 5.61244 7.36244C5.94063 7.03425 6.125 6.58913 6.125 6.125V4.375H21.875V6.125C21.875 6.58913 22.0594 7.03425 22.3876 7.36244C22.7158 7.69063 23.1609 7.875 23.625 7.875C24.0891 7.875 24.5342 7.69063 24.8624 7.36244C25.1906 7.03425 25.375 6.58913 25.375 6.125V4.375H25.8125C26.1605 4.37538 26.4941 4.51378 26.7402 4.75984C26.9862 5.0059 27.1246 5.33952 27.125 5.6875V8.75ZM17.0625 6.125H10.9375C10.8215 6.125 10.7102 6.17109 10.6281 6.25314C10.5461 6.33519 10.5 6.44647 10.5 6.5625C10.5 6.67853 10.5461 6.78981 10.6281 6.87186C10.7102 6.95391 10.8215 7 10.9375 7H17.0625C17.1785 7 17.2898 6.95391 17.3719 6.87186C17.4539 6.78981 17.5 6.67853 17.5 6.5625C17.5 6.44647 17.4539 6.33519 17.3719 6.25314C17.2898 6.17109 17.1785 6.125 17.0625 6.125ZM9.62842 18.5814C9.714 18.8308 9.71098 19.1021 9.61987 19.3495C9.34255 20.1615 9.23724 21.0223 9.31064 21.8771C9.38405 22.732 9.63457 23.5622 10.0463 24.315L10.3257 24.823C10.4104 24.9851 10.5402 25.1194 10.6993 25.2096C10.8585 25.2999 11.0402 25.3423 11.2229 25.3318C11.4043 25.3281 11.581 25.274 11.7334 25.1756C11.8858 25.0773 12.0079 24.9384 12.0859 24.7747L13.4796 21.8459C13.533 21.7553 13.6092 21.6802 13.7006 21.628C13.7919 21.5758 13.8953 21.5484 14.0005 21.5485C14.1058 21.5485 14.2091 21.576 14.3005 21.6283C14.3918 21.6805 14.4679 21.7557 14.5212 21.8464L15.9141 24.7747C15.9922 24.9384 16.1143 25.0772 16.2667 25.1755C16.4191 25.2739 16.5958 25.328 16.7771 25.3319L16.807 25.3323C16.984 25.3335 17.1579 25.2869 17.3106 25.1974C17.4633 25.1079 17.5889 24.9789 17.6743 24.8239L17.9358 24.3471C18.3534 23.5846 18.6076 22.7435 18.6822 21.8773C18.7568 21.0111 18.6501 20.1389 18.369 19.3163C18.2878 19.0779 18.2887 18.8192 18.3716 18.5814L19.2534 16.0679C19.4267 15.5845 19.4613 15.0622 19.3532 14.5602C19.245 14.0581 18.9986 13.5964 18.6416 13.2272C18.2646 12.8281 17.7848 12.5408 17.255 12.3968C16.7253 12.2529 16.1661 12.2578 15.6389 12.4111L14.3521 12.7764C14.122 12.8422 13.878 12.8422 13.648 12.7764L12.3611 12.4111C11.834 12.2576 11.2747 12.2525 10.7449 12.3965C10.2151 12.5405 9.7353 12.8279 9.35841 13.2272C9.00145 13.5964 8.75496 14.0581 8.64684 14.5602C8.53871 15.0622 8.57327 15.5845 8.74659 16.0679L9.62842 18.5814ZM9.995 13.827C10.2625 13.545 10.6025 13.3423 10.9777 13.241C11.3529 13.1397 11.7488 13.1437 12.1218 13.2528L13.3859 13.6116C13.2384 13.8242 13.1306 14.0617 13.0677 14.3128C13.0549 14.3687 13.0533 14.4267 13.0629 14.4834C13.0725 14.54 13.0931 14.5942 13.1237 14.6428C13.1542 14.6915 13.1941 14.7336 13.2409 14.7669C13.2878 14.8001 13.3407 14.8238 13.3967 14.8366C13.4287 14.844 13.4614 14.8477 13.4942 14.8477C13.5933 14.8477 13.6894 14.814 13.7669 14.7523C13.8444 14.6905 13.8985 14.6042 13.9205 14.5076C13.9702 14.3044 14.0664 14.1156 14.2014 13.9559C14.3365 13.7963 14.5068 13.6702 14.6989 13.5875L15.8782 13.2528C16.2512 13.1438 16.6471 13.1397 17.0223 13.241C17.3975 13.3423 17.7375 13.545 18.005 13.827C18.2505 14.0804 18.4202 14.3974 18.495 14.7422C18.5697 15.0871 18.5465 15.4459 18.428 15.7782L17.5462 18.2917C17.3978 18.7154 17.3963 19.1766 17.5419 19.6012C17.7834 20.3085 17.8749 21.0584 17.8106 21.8031C17.7463 22.5477 17.5276 23.2708 17.1685 23.9262L16.907 24.4035C16.8969 24.4208 16.8822 24.4349 16.8646 24.4444C16.8469 24.4539 16.827 24.4584 16.807 24.4573C16.7861 24.4589 16.7652 24.4543 16.7469 24.4439C16.7286 24.4335 16.7139 24.418 16.7045 24.3992L16.7036 24.3988L15.3116 21.4708C15.1912 21.2258 15.0046 21.0193 14.7729 20.875C14.5412 20.7306 14.2736 20.654 14.0006 20.654C13.7275 20.654 13.46 20.7304 13.2282 20.8747C12.9964 21.019 12.8097 21.2254 12.6892 21.4704L11.2956 24.3992C11.2864 24.4172 11.2723 24.4322 11.2549 24.4425C11.2375 24.4528 11.2175 24.4579 11.1973 24.4573C11.1765 24.4592 11.1556 24.4551 11.1371 24.4454C11.1186 24.4357 11.1033 24.4208 11.0931 24.4026L10.8136 23.8942C10.459 23.2436 10.244 22.5262 10.1825 21.7877C10.121 21.0493 10.2143 20.3062 10.4565 19.6059C10.6048 19.1802 10.6039 18.7168 10.4539 18.2917L9.57207 15.7782C9.45355 15.4459 9.43035 15.087 9.50508 14.7422C9.57982 14.3974 9.74953 14.0804 9.995 13.827ZM22.3125 14.875H24.9375C24.995 14.875 25.0519 14.8637 25.105 14.8418C25.1581 14.8198 25.2063 14.7876 25.2469 14.7469C25.2876 14.7063 25.3198 14.6581 25.3418 14.605C25.3637 14.5519 25.375 14.495 25.375 14.4375V11.8125C25.375 11.755 25.3637 11.6981 25.3418 11.645C25.3198 11.5919 25.2876 11.5437 25.2469 11.5031C25.2063 11.4624 25.1581 11.4302 25.105 11.4082C25.0519 11.3863 24.995 11.375 24.9375 11.375H22.3125C22.255 11.375 22.1981 11.3863 22.145 11.4082C22.0919 11.4302 22.0437 11.4624 22.0031 11.5031C21.9624 11.5437 21.9302 11.5919 21.9082 11.645C21.8863 11.6981 21.875 11.755 21.875 11.8125V14.4375C21.875 14.495 21.8863 14.5519 21.9082 14.605C21.9302 14.6581 21.9624 14.7063 22.0031 14.7469C22.0437 14.7876 22.0919 14.8198 22.145 14.8418C22.1981 14.8637 22.255 14.875 22.3125 14.875ZM22.75 12.25H24.5V14H22.75V12.25ZM22.3125 20.125H24.9375C24.995 20.125 25.0519 20.1137 25.105 20.0918C25.1581 20.0698 25.2063 20.0376 25.2469 19.9969C25.2876 19.9563 25.3198 19.9081 25.3418 19.855C25.3637 19.8019 25.375 19.745 25.375 19.6875V17.0625C25.375 17.005 25.3637 16.9481 25.3418 16.895C25.3198 16.8419 25.2876 16.7937 25.2469 16.7531C25.2063 16.7124 25.1581 16.6802 25.105 16.6582C25.0519 16.6363 24.995 16.625 24.9375 16.625H22.3125C22.255 16.625 22.1981 16.6363 22.145 16.6582C22.0919 16.6802 22.0437 16.7124 22.0031 16.7531C21.9624 16.7937 21.9302 16.8419 21.9082 16.895C21.8863 16.9481 21.875 17.005 21.875 17.0625V19.6875C21.875 19.745 21.8863 19.8019 21.9082 19.855C21.9302 19.9081 21.9624 19.9563 22.0031 19.9969C22.0437 20.0376 22.0919 20.0698 22.145 20.0918C22.1981 20.1137 22.255 20.125 22.3125 20.125ZM22.75 17.5H24.5V19.25H22.75V17.5ZM22.3125 25.375H24.9375C24.995 25.375 25.0519 25.3637 25.105 25.3418C25.1581 25.3198 25.2063 25.2876 25.2469 25.2469C25.2876 25.2063 25.3198 25.1581 25.3418 25.105C25.3637 25.0519 25.375 24.995 25.375 24.9375V22.3125C25.375 22.255 25.3637 22.1981 25.3418 22.145C25.3198 22.0919 25.2876 22.0437 25.2469 22.0031C25.2063 21.9624 25.1581 21.9302 25.105 21.9082C25.0519 21.8863 24.995 21.875 24.9375 21.875H22.3125C22.255 21.875 22.1981 21.8863 22.145 21.9082C22.0919 21.9302 22.0437 21.9624 22.0031 22.0031C21.9624 22.0437 21.9302 22.0919 21.9082 22.145C21.8863 22.1981 21.875 22.255 21.875 22.3125V24.9375C21.875 24.995 21.8863 25.0519 21.9082 25.105C21.9302 25.1581 21.9624 25.2063 22.0031 25.2469C22.0437 25.2876 22.0919 25.3198 22.145 25.3418C22.1981 25.3637 22.255 25.375 22.3125 25.375ZM22.75 22.75H24.5V24.5H22.75V22.75ZM3.0625 25.375H5.6875C5.74496 25.375 5.80187 25.3637 5.85496 25.3418C5.90806 25.3198 5.9563 25.2876 5.99693 25.2469C6.03757 25.2063 6.06979 25.1581 6.09177 25.105C6.11374 25.0519 6.12503 24.995 6.125 24.9375V22.3125C6.12503 22.255 6.11374 22.1981 6.09177 22.145C6.06979 22.0919 6.03757 22.0437 5.99693 22.0031C5.9563 21.9624 5.90806 21.9302 5.85496 21.9082C5.80187 21.8863 5.74496 21.875 5.6875 21.875H3.0625C3.00504 21.875 2.94813 21.8863 2.89504 21.9082C2.84194 21.9302 2.7937 21.9624 2.75307 22.0031C2.71243 22.0437 2.68021 22.0919 2.65823 22.145C2.63626 22.1981 2.62497 22.255 2.625 22.3125V24.9375C2.62497 24.995 2.63626 25.0519 2.65823 25.105C2.68021 25.1581 2.71243 25.2063 2.75307 25.2469C2.7937 25.2876 2.84194 25.3198 2.89504 25.3418C2.94813 25.3637 3.00504 25.375 3.0625 25.375ZM3.5 22.75H5.25V24.5H3.5V22.75ZM3.0625 14.875H5.6875C5.74496 14.875 5.80187 14.8637 5.85496 14.8418C5.90806 14.8198 5.9563 14.7876 5.99693 14.7469C6.03757 14.7063 6.06979 14.6581 6.09177 14.605C6.11374 14.5519 6.12503 14.495 6.125 14.4375V11.8125C6.12503 11.755 6.11374 11.6981 6.09177 11.645C6.06979 11.5919 6.03757 11.5437 5.99693 11.5031C5.9563 11.4624 5.90806 11.4302 5.85496 11.4082C5.80187 11.3863 5.74496 11.375 5.6875 11.375H3.0625C3.00504 11.375 2.94813 11.3863 2.89504 11.4082C2.84194 11.4302 2.7937 11.4624 2.75307 11.5031C2.71243 11.5437 2.68021 11.5919 2.65823 11.645C2.63626 11.6981 2.62497 11.755 2.625 11.8125V14.4375C2.62497 14.495 2.63626 14.5519 2.65823 14.605C2.68021 14.6581 2.71243 14.7063 2.75307 14.7469C2.7937 14.7876 2.84194 14.8198 2.89504 14.8418C2.94813 14.8637 3.00504 14.875 3.0625 14.875ZM3.5 12.25H5.25V14H3.5V12.25ZM3.0625 20.125H5.6875C5.74496 20.125 5.80187 20.1137 5.85496 20.0918C5.90806 20.0698 5.9563 20.0376 5.99693 19.9969C6.03757 19.9563 6.06979 19.9081 6.09177 19.855C6.11374 19.8019 6.12503 19.745 6.125 19.6875V17.0625C6.12503 17.005 6.11374 16.9481 6.09177 16.895C6.06979 16.8419 6.03757 16.7937 5.99693 16.7531C5.9563 16.7124 5.90806 16.6802 5.85496 16.6582C5.80187 16.6363 5.74496 16.625 5.6875 16.625H3.0625C3.00504 16.625 2.94813 16.6363 2.89504 16.6582C2.84194 16.6802 2.7937 16.7124 2.75307 16.7531C2.71243 16.7937 2.68021 16.8419 2.65823 16.895C2.63626 16.9481 2.62497 17.005 2.625 17.0625V19.6875C2.62497 19.745 2.63626 19.8019 2.65823 19.855C2.68021 19.9081 2.71243 19.9563 2.75307 19.9969C2.7937 20.0376 2.84194 20.0698 2.89504 20.0918C2.94813 20.1137 3.00504 20.125 3.0625 20.125ZM3.5 17.5H5.25V19.25H3.5V17.5Z" fill="#363636"/>
</svg>
