<svg width="24" height="30" viewBox="0 0 24 30" fill="none" xmlns="http://www.w3.org/2000/svg">
<path d="M21.5 13H21C21.0021 11.0958 20.3995 9.24011 19.2791 7.70042C18.1587 6.16073 16.5783 5.01656 14.7657 4.43285C12.9532 3.84914 11.0021 3.85603 9.19377 4.45253C7.3854 5.04902 5.81314 6.20432 4.70362 7.75189C5.30645 6.16953 6.28357 4.75672 7.55142 3.63429C8.81927 2.51187 10.3401 1.71324 11.9839 1.30669C13.6277 0.900146 15.3455 0.897788 16.9903 1.29982C18.6352 1.70185 20.1583 2.49631 21.4292 3.61525C21.4784 3.65894 21.5357 3.6925 21.5979 3.71398C21.6601 3.73547 21.726 3.74446 21.7917 3.74045C21.8573 3.73644 21.9216 3.71949 21.9807 3.6906C22.0398 3.6617 22.0927 3.62141 22.1362 3.57205C22.1797 3.52268 22.213 3.46521 22.2343 3.40294C22.2555 3.34066 22.2643 3.2748 22.26 3.20913C22.2558 3.14346 22.2386 3.07928 22.2095 3.02027C22.1803 2.96126 22.1399 2.90858 22.0903 2.86525C20.4299 1.40433 18.3834 0.453359 16.1961 0.126362C14.0088 -0.200636 11.7736 0.110222 9.75849 1.02166C7.74342 1.9331 6.03402 3.40643 4.83526 5.26498C3.63651 7.12352 2.99928 9.2884 3 11.5V13H2.5C1.8372 13.0008 1.20177 13.2644 0.733098 13.7331C0.264425 14.2018 0.000781555 14.8372 0 15.5V27.5C0.000694876 28.1628 0.26431 28.7983 0.733002 29.267C1.20169 29.7357 1.83717 29.9993 2.5 30H21.5C22.1628 29.9993 22.7983 29.7357 23.267 29.267C23.7357 28.7983 23.9993 28.1628 24 27.5V15.5C23.9992 14.8372 23.7356 14.2018 23.2669 13.7331C22.7982 13.2644 22.1628 13.0008 21.5 13ZM3.99999 13C3.99999 10.8783 4.84285 8.84345 6.34314 7.34316C7.84343 5.84287 9.87826 5.00001 12 5.00001C14.1217 5.00001 16.1566 5.84287 17.6569 7.34316C19.1571 8.84345 20 10.8783 20 13L20.0023 13.0113C19.2134 13.0369 18.4563 13.3288 17.8544 13.8394L14.9288 16.3399C14.1149 17.0413 13.076 17.4267 12.0016 17.4258C10.9272 17.4249 9.8889 17.0377 9.07621 16.335L6.16797 13.8423C6.13636 13.8152 6.09953 13.7963 6.06702 13.7704C6.02618 13.5155 6.00378 13.2581 6 13C6.00667 11.4089 6.63669 9.88386 7.75489 8.75197C7.84712 8.65759 7.8983 8.53058 7.89726 8.39862C7.89623 8.26666 7.84307 8.14047 7.74937 8.04755C7.65567 7.95463 7.52904 7.90252 7.39708 7.90259C7.26511 7.90265 7.13853 7.95489 7.04493 8.0479C5.74156 9.36745 5.0074 11.1453 5.00001 13C5.00001 13.066 5.01508 13.1286 5.01698 13.1938C4.68898 13.0824 4.34624 13.0205 4 13.0099L3.99999 13ZM23 27.5C22.9996 27.8977 22.8414 28.279 22.5602 28.5602C22.279 28.8414 21.8977 28.9996 21.5 29H2.5C2.10231 28.9996 1.72103 28.8414 1.43982 28.5602C1.15861 28.279 1.00044 27.8977 1 27.5V27H23V27.5ZM23 26H1V15.5C1.00044 15.1023 1.15861 14.721 1.43982 14.4398C1.72103 14.1586 2.10231 14.0004 2.5 14H3.89014C4.48695 14.0003 5.06405 14.2136 5.51758 14.6016L8.42531 17.0947C9.41841 17.9541 10.6875 18.4275 12.0008 18.4284C13.3141 18.4293 14.5839 17.9576 15.5781 17.0996L18.5039 14.5996C18.9568 14.2128 19.5328 14.0002 20.1284 14H21.5C21.8977 14.0004 22.279 14.1586 22.5602 14.4398C22.8414 14.721 22.9996 15.1023 23 15.5V26ZM9 13C9 13.5934 9.17595 14.1734 9.50559 14.6667C9.83524 15.1601 10.3038 15.5446 10.8519 15.7716C11.4001 15.9987 12.0033 16.0581 12.5853 15.9424C13.1672 15.8266 13.7018 15.5409 14.1213 15.1213C14.5409 14.7018 14.8266 14.1672 14.9424 13.5853C15.0581 13.0033 14.9987 12.4001 14.7716 11.852C14.5446 11.3038 14.1601 10.8352 13.6667 10.5056C13.1734 10.176 12.5933 10 12 10C11.2046 10.0009 10.4421 10.3172 9.87964 10.8797C9.31722 11.4421 9.00087 12.2046 9 13ZM12 11C12.3956 11 12.7822 11.1173 13.1111 11.3371C13.44 11.5568 13.6964 11.8692 13.8478 12.2346C13.9991 12.6001 14.0387 13.0022 13.9616 13.3902C13.8844 13.7781 13.6939 14.1345 13.4142 14.4142C13.1345 14.6939 12.7781 14.8844 12.3902 14.9616C12.0022 15.0387 11.6001 14.9991 11.2346 14.8478C10.8692 14.6964 10.5568 14.44 10.3371 14.1111C10.1173 13.7822 10 13.3956 10 13C10.0005 12.4697 10.2114 11.9613 10.5864 11.5864C10.9613 11.2114 11.4697 11.0005 12 11ZM9.25342 7.6089C9.32608 7.60873 9.39786 7.59291 9.46387 7.56251C9.93905 7.34038 10.4414 7.18179 10.958 7.09084C11.0885 7.06779 11.2046 6.99382 11.2806 6.88522C11.3566 6.77662 11.3863 6.64227 11.3633 6.51173C11.3402 6.3812 11.2663 6.26517 11.1577 6.18916C11.0491 6.11316 10.9147 6.08341 10.7842 6.10646C10.4833 6.15919 10.1862 6.23194 9.89501 6.32423C9.60383 6.41609 9.31889 6.52667 9.04198 6.65528C8.93864 6.70329 8.85479 6.78515 8.80432 6.88732C8.75384 6.98948 8.73977 7.10581 8.76444 7.21706C8.7891 7.32831 8.85102 7.4278 8.93994 7.49906C9.02887 7.57032 9.13946 7.60907 9.25341 7.6089H9.25342Z" fill="#363636"/>
</svg>
