<svg width="34" height="28" viewBox="0 0 34 28" fill="none" xmlns="http://www.w3.org/2000/svg">
<path d="M32.7112 21.4124C32.541 21.2539 32.3404 21.1329 32.1221 21.0567C31.9038 20.9806 31.6724 20.951 31.4423 20.9699L20.9522 21.8591C20.5503 21.8899 20.1466 21.8285 19.7711 21.6796L19.7166 21.6574L19.7305 21.6507C20.1051 21.393 20.4 21.0326 20.5811 20.6113C20.7623 20.19 20.8221 19.7251 20.7538 19.2706C20.6855 18.8161 20.4918 18.3907 20.1952 18.0436C19.8986 17.6965 19.5112 17.4421 19.0781 17.3098L10.3636 14.652C10.3009 14.2851 10.1129 13.9523 9.83283 13.7123C9.55274 13.4722 9.19839 13.3402 8.83203 13.3393H0.519531C0.451294 13.3393 0.383719 13.3529 0.320668 13.3794C0.257618 13.406 0.20033 13.4449 0.152079 13.4939C0.103828 13.543 0.0655612 13.6012 0.0394664 13.6653C0.0133715 13.7294 -3.95244e-05 13.7981 8.74947e-08 13.8675V25.4871C-3.95244e-05 25.5565 0.0133715 25.6252 0.0394664 25.6893C0.0655612 25.7534 0.103828 25.8116 0.152079 25.8607C0.20033 25.9097 0.257618 25.9486 0.320668 25.9751C0.383719 26.0017 0.451294 26.0153 0.519531 26.0153H8.83203C9.10761 26.0143 9.37798 25.9388 9.61539 25.7966C9.85281 25.6543 10.0487 25.4504 10.1831 25.2058L18.5372 27.7535C19.6645 28.0993 20.8696 28.0809 21.9862 27.7008L32.1085 24.2709C32.384 24.1776 32.6308 24.0128 32.8245 23.7928C33.0182 23.5729 33.1521 23.3053 33.2129 23.0167C33.2738 22.728 33.2595 22.4282 33.1715 22.1468C33.0835 21.8655 32.9249 21.6123 32.7112 21.4124ZM6.23438 24.9589H1.03906V14.3957H6.23438V24.9589ZM9.35156 24.4308C9.35138 24.5708 9.29659 24.705 9.1992 24.804C9.10181 24.9031 8.96976 24.9588 8.83203 24.9589H7.27344V14.3957H8.83203C8.96976 14.3958 9.10181 14.4515 9.1992 14.5506C9.29659 14.6496 9.35138 14.7838 9.35156 14.9238V24.4308ZM31.7802 23.2682L21.6574 26.6982C20.7439 27.0092 19.7581 27.0247 18.8355 26.7425L10.3906 24.1667V15.7622L18.7797 18.3208C18.9546 18.3742 19.117 18.463 19.2571 18.5819C19.3973 18.7008 19.5123 18.8474 19.5953 19.0127C19.6782 19.178 19.7274 19.3587 19.7398 19.5439C19.7522 19.7291 19.7276 19.9149 19.6675 20.0901C19.6073 20.2653 19.5129 20.4264 19.3899 20.5635C19.2669 20.7007 19.1179 20.8111 18.9518 20.8881C18.7857 20.9651 18.6059 21.0071 18.4234 21.0116C18.2409 21.016 18.0594 20.9829 17.8898 20.9142L15.2592 19.8444C15.1959 19.8184 15.1281 19.8054 15.0598 19.8061C14.9915 19.8067 14.924 19.8211 14.8611 19.8484C14.7983 19.8756 14.7414 19.9152 14.6937 19.9649C14.6459 20.0146 14.6083 20.0733 14.5829 20.1378C14.5575 20.2023 14.5449 20.2712 14.5458 20.3406C14.5467 20.4101 14.5611 20.4786 14.5881 20.5424C14.6151 20.6062 14.6542 20.664 14.7032 20.7123C14.7522 20.7607 14.8101 20.7988 14.8736 20.8244L17.5042 21.8941L19.3855 22.6596C19.91 22.8714 20.4754 22.9575 21.038 22.9113L31.5285 22.022C31.6153 22.0156 31.7025 22.0271 31.7848 22.0558C31.8671 22.0846 31.9429 22.1299 32.0075 22.1892C32.0882 22.2646 32.1481 22.3602 32.1813 22.4663C32.2145 22.5725 32.2199 22.6857 32.197 22.7947C32.174 22.9036 32.1235 23.0046 32.0504 23.0877C31.9773 23.1707 31.8842 23.2329 31.7802 23.2682V23.2682ZM20.1689 7.81527C20.2729 8.13471 20.2691 8.48029 20.1582 8.79733C19.8312 9.80739 19.7072 10.874 19.7938 11.9337C19.8803 12.9935 20.1756 14.0247 20.662 14.9661L20.9918 15.6016C21.0902 15.7931 21.2385 15.9535 21.4205 16.0652C21.6025 16.1769 21.8112 16.2356 22.0238 16.2349C22.0349 16.2349 22.0461 16.2349 22.0572 16.2339C22.2755 16.2287 22.4879 16.161 22.67 16.0386C22.8522 15.9161 22.9966 15.7439 23.0867 15.5417L24.7346 11.8868C24.7935 11.7738 24.8816 11.6792 24.9895 11.6132C25.0973 11.5472 25.2208 11.5124 25.3467 11.5124C25.4725 11.5124 25.596 11.5472 25.7039 11.6132C25.8117 11.6792 25.8998 11.7738 25.9588 11.8868L27.6067 15.5417C27.6965 15.7439 27.8407 15.9162 28.0227 16.0386C28.2046 16.1611 28.4169 16.2288 28.6351 16.2339C28.855 16.2516 29.075 16.2006 29.2655 16.0875C29.4561 15.9745 29.6081 15.8049 29.7011 15.6015L30.0105 15.0074C30.5033 14.0533 30.8025 13.0083 30.8902 11.9344C30.978 10.8605 30.8526 9.77965 30.5214 8.756C30.4225 8.4503 30.4235 8.12025 30.5245 7.81522L31.5676 4.67821C31.772 4.06367 31.8065 3.40388 31.6674 2.77077C31.5283 2.13766 31.2209 1.55552 30.7787 1.08782C30.3365 0.620129 29.7765 0.284828 29.1597 0.118476C28.5429 -0.0478751 27.8931 -0.0388922 27.281 0.144446L25.7599 0.601434C25.4905 0.680866 25.2044 0.680866 24.935 0.601434L23.4119 0.144446C22.7998 -0.0388922 22.1499 -0.0478751 21.5331 0.118476C20.9164 0.284828 20.3563 0.620129 19.9141 1.08782C19.4719 1.55552 19.1645 2.13766 19.0254 2.77077C18.8863 3.40388 18.9208 4.06367 19.1252 4.67821L20.1689 7.81527ZM20.663 1.81978C20.9706 1.48733 21.3636 1.24908 21.7975 1.13202C22.2314 1.01496 22.6889 1.02378 23.1181 1.15746L24.6325 1.61148C24.4489 1.88335 24.316 2.18715 24.2404 2.50779C24.2257 2.57549 24.2243 2.64547 24.2362 2.71373C24.2481 2.78199 24.2731 2.8472 24.3098 2.90564C24.3465 2.96407 24.3942 3.01458 24.4501 3.05428C24.506 3.09399 24.569 3.12211 24.6356 3.13704C24.6726 3.14518 24.7104 3.14933 24.7483 3.14942C24.8665 3.14918 24.9812 3.10797 25.0733 3.03258C25.1655 2.9572 25.2296 2.85214 25.2551 2.73473C25.3112 2.48261 25.4237 2.24701 25.5838 2.0462C25.7439 1.84538 25.9473 1.68474 26.1783 1.57673L27.5747 1.15746C28.0044 1.02878 28.4605 1.02249 28.8934 1.13926C29.3263 1.25604 29.7194 1.49141 30.0298 1.81971C30.3402 2.148 30.5559 2.55663 30.6535 3.00102C30.7511 3.44542 30.7269 3.90853 30.5833 4.33986L29.5402 7.47692C29.3671 7.99932 29.3653 8.56471 29.5352 9.08823C29.8225 9.97676 29.9313 10.9149 29.8551 11.847C29.7789 12.7791 29.5193 13.6862 29.0917 14.5143L28.7822 15.1085C28.7721 15.1301 28.756 15.1483 28.7359 15.1608C28.7158 15.1732 28.6926 15.1795 28.669 15.1787C28.6444 15.1783 28.6203 15.171 28.5995 15.1575C28.5787 15.144 28.562 15.1249 28.5513 15.1023L26.9034 11.4464C26.7685 11.1421 26.5495 10.8842 26.2731 10.704C25.9966 10.5238 25.6747 10.4291 25.3464 10.4314H25.3459C25.0176 10.4296 24.6959 10.5247 24.4197 10.705C24.1436 10.8854 23.9248 11.1433 23.7898 11.4475L22.1419 15.1023C22.1325 15.1251 22.1167 15.1444 22.0965 15.158C22.0763 15.1716 22.0525 15.1788 22.0283 15.1787C22.0036 15.1836 21.978 15.1792 21.9563 15.1663C21.9346 15.1534 21.9184 15.1328 21.9106 15.1085L21.5803 14.473C21.1574 13.6518 20.9019 12.7522 20.8289 11.8282C20.7559 10.9042 20.8671 9.97476 21.1556 9.09544C21.3291 8.57019 21.3282 8.00159 21.1531 7.4769L20.1095 4.33991C19.9615 3.90916 19.9348 3.44489 20.0326 2.99957C20.1304 2.55424 20.3488 2.14559 20.663 1.81978Z" fill="#363636"/>
</svg>
