<svg width="22" height="28" viewBox="0 0 22 28" fill="none" xmlns="http://www.w3.org/2000/svg">
<path d="M21.6839 7.70146C22.0315 6.69275 22.0939 5.60574 21.8638 4.56307C21.6338 3.5204 21.1206 2.56358 20.382 1.80058C19.6583 1.02305 18.7344 0.465876 17.7145 0.19195C16.6946 -0.0819766 15.6194 -0.0617422 14.6102 0.250368L11.88 1.06497C11.3056 1.23669 10.6944 1.23669 10.12 1.06497L7.38977 0.250395C6.38066 -0.0620855 5.30536 -0.0825067 4.28539 0.191439C3.26542 0.465385 2.34147 1.02278 1.61796 1.80061C0.879442 2.5636 0.366209 3.52042 0.136177 4.56308C-0.0938557 5.60574 -0.0315306 6.69276 0.316119 7.70146L2.18745 13.3054C2.40964 13.9794 2.40371 14.7092 2.17058 15.3793C1.60469 17.1189 1.39009 18.9559 1.53952 20.7811C1.68896 22.6063 2.19939 24.3824 3.04045 26.0038L3.63274 27.1388C3.74862 27.3602 3.9144 27.5507 4.11664 27.695C4.31887 27.8393 4.55186 27.9333 4.79669 27.9693C4.81945 27.9759 4.84272 27.9804 4.86625 27.9829L4.89493 27.982L4.90189 27.9801C4.96323 27.9904 5.02516 27.9968 5.0873 27.9991C5.38516 27.9919 5.67498 27.8998 5.92347 27.7333C6.17196 27.5669 6.36905 27.3328 6.49209 27.0581L9.4476 20.5293C9.58388 20.2283 9.80261 19.9733 10.0778 19.7945C10.353 19.6158 10.6731 19.5207 11 19.5207C11.327 19.5207 11.6471 19.6158 11.9223 19.7945C12.1974 19.9733 12.4162 20.2283 12.5524 20.5293L15.508 27.0581C15.6162 27.2947 15.7803 27.5008 15.9857 27.6582C16.1911 27.8156 16.4316 27.9194 16.6859 27.9606C16.7008 27.9656 16.716 27.9698 16.7313 27.9731C16.7368 27.9734 16.7415 27.9708 16.7469 27.9709C16.8016 27.9833 16.857 27.9927 16.9128 27.9991L16.9583 28C17.2485 28.0009 17.5334 27.921 17.7819 27.7692C18.0304 27.6173 18.2329 27.3993 18.3673 27.1388L18.9216 26.0765C19.7743 24.4329 20.292 22.6325 20.4439 20.7823C20.5958 18.9321 20.3788 17.0699 19.8058 15.3063C19.5946 14.656 19.5969 13.9539 19.8126 13.3051L21.6839 7.70146ZM16.3661 26.8106C16.3381 26.7738 16.3135 26.7346 16.2926 26.6933L13.3371 20.1645C13.132 19.7113 12.8027 19.3274 12.3884 19.0582C11.9741 18.789 11.4922 18.6459 11 18.6459C10.5077 18.6459 10.0258 18.789 9.61156 19.0582C9.19727 19.3274 8.86802 19.7113 8.66292 20.1645L5.70739 26.6933C5.66634 26.7865 5.60631 26.8699 5.53122 26.938C5.45614 27.0061 5.36769 27.0574 5.27167 27.0886C5.24736 26.6374 5.2278 26.09 5.23408 25.4626C5.27197 23.8174 5.41685 22.1765 5.66778 20.5506C6.00741 17.6963 6.60644 14.8799 7.45726 12.1371C8.56653 11.6382 9.76638 11.379 10.9802 11.3762C12.1939 11.3734 13.395 11.6271 14.5064 12.1209C14.7072 13.1666 15.5661 17.6835 15.9576 20.5506C16.2967 22.6186 16.4335 24.7154 16.3661 26.8106ZM7.21512 8.10684C7.31169 7.96229 7.43587 7.83879 7.58035 7.74364C7.72482 7.64848 7.88665 7.58359 8.05629 7.5528L9.6855 7.25291C10.5544 7.09258 11.4447 7.09244 12.3137 7.25248L13.9437 7.55278C14.1132 7.58382 14.2748 7.64875 14.4192 7.74379C14.5635 7.83883 14.6877 7.96206 14.7845 8.10629C14.8813 8.2505 14.9487 8.41282 14.9828 8.58373C15.0169 8.75464 15.0171 8.93073 14.9832 9.10168L14.5659 11.2149C13.3705 10.727 12.0912 10.4851 10.8026 10.5032C9.64639 10.5306 8.50478 10.7707 7.43342 11.2116L7.01683 9.10168C6.98246 8.93086 6.98229 8.75479 7.01635 8.5839C7.05041 8.41301 7.118 8.25079 7.21512 8.10684ZM18.9857 15.5818C19.5223 17.2334 19.7255 18.9774 19.5832 20.7102C19.4409 22.4429 18.9559 24.1289 18.1571 25.6681L17.6028 26.7304C17.5181 26.884 17.3814 27.0015 17.218 27.0613C17.3097 24.843 17.1741 22.621 16.8131 20.431C16.397 17.3842 15.4617 12.5069 15.328 11.8168L15.8302 9.27342C15.8357 9.2455 15.8341 9.21757 15.8385 9.18959L17.6695 9.80951C17.7135 9.82457 17.7597 9.83222 17.8062 9.83216C17.8928 9.8321 17.9775 9.80563 18.0491 9.75619C18.1208 9.70675 18.176 9.63662 18.2078 9.55493L18.6642 8.38064C18.6852 8.32721 18.6955 8.2701 18.6946 8.21261C18.6937 8.15512 18.6817 8.09837 18.6591 8.04561C18.6365 7.99285 18.6039 7.94512 18.5631 7.90515C18.5223 7.86518 18.4741 7.83376 18.4212 7.81269C18.3684 7.79162 18.312 7.78131 18.2552 7.78235C18.1984 7.78339 18.1424 7.79577 18.0904 7.81877C18.0383 7.84176 17.9913 7.87494 17.9519 7.91638C17.9126 7.95782 17.8817 8.00672 17.861 8.06027L17.5547 8.84839L15.8373 8.26713L16.5246 6.28454L17.618 5.8689C17.7249 5.82779 17.8113 5.74548 17.8583 5.64C17.9054 5.53451 17.9093 5.41445 17.8691 5.30609C17.8289 5.19772 17.748 5.10989 17.644 5.06182C17.54 5.01375 17.4215 5.00935 17.3143 5.0496L16.0318 5.537C15.9727 5.55952 15.9192 5.59491 15.875 5.64067C15.8308 5.68643 15.7971 5.74145 15.7762 5.80184L15.3483 7.03689L14.8212 5.54512L15.2743 4.04235C15.3068 3.93159 15.2948 3.8123 15.2408 3.71048C15.1868 3.60867 15.0953 3.5326 14.9861 3.49888C14.877 3.46516 14.7591 3.47651 14.6582 3.53047C14.5572 3.58442 14.4815 3.6766 14.4474 3.7869L13.953 5.4285C13.9261 5.51856 13.9284 5.615 13.9597 5.70359L14.333 6.76008C14.2563 6.73312 14.1782 6.71055 14.099 6.69248L12.4681 6.39176C11.497 6.21292 10.5021 6.21306 9.53112 6.39219L7.90108 6.69248C7.49959 6.76278 7.12668 6.94891 6.8271 7.22854C6.52752 7.50817 6.314 7.8694 6.21219 8.26888L5.41127 7.27128L5.3463 5.70104C5.34693 5.64264 5.3354 5.58476 5.31247 5.53116C5.28955 5.47757 5.25573 5.42947 5.21324 5.38998C5.17074 5.35049 5.12051 5.32051 5.06581 5.30197C5.01111 5.28344 4.95318 5.27677 4.89577 5.28241C4.78133 5.28735 4.67352 5.33808 4.596 5.42347C4.51848 5.50885 4.47761 5.62189 4.48235 5.73777L4.55405 7.45285C4.5581 7.54706 4.59213 7.63742 4.65108 7.71042L6.03803 9.43831L4.69664 10.091L4.44688 9.15211C4.4322 9.09669 4.40688 9.04473 4.37237 8.99922C4.33786 8.9537 4.29484 8.91552 4.24576 8.88684C4.19667 8.85816 4.14249 8.83955 4.08631 8.83208C4.03012 8.8246 3.97303 8.82841 3.9183 8.84327C3.86356 8.85814 3.81226 8.88377 3.76731 8.91872C3.72236 8.95366 3.68465 8.99723 3.65633 9.04693C3.628 9.09663 3.60963 9.15149 3.60225 9.20839C3.59486 9.26528 3.59862 9.32309 3.6133 9.37851L3.99722 10.8266C4.01362 10.8887 4.04335 10.9464 4.08428 10.9955C4.12521 11.0447 4.17634 11.0841 4.23403 11.1109C4.29172 11.1378 4.35454 11.1514 4.41803 11.1508C4.48151 11.1503 4.54409 11.1355 4.60131 11.1077L6.36277 10.251L6.66614 11.7872C5.78117 14.6031 5.16046 17.4971 4.81224 20.431C4.55633 22.0937 4.40864 23.7717 4.37014 25.4541C4.3656 25.9219 4.37509 26.3419 4.38986 26.7164L3.80486 25.5955C3.01497 24.0681 2.53746 22.3952 2.40091 20.6766C2.26435 18.9581 2.47156 17.2293 3.01012 15.5938C3.28676 14.7601 3.28528 13.8575 3.0059 13.0248L1.13451 7.42123C0.838971 6.56407 0.785933 5.64032 0.981383 4.75426C1.17683 3.86819 1.61299 3.05509 2.24062 2.40673C2.85561 1.74608 3.64072 1.27265 4.50734 1.03987C5.37396 0.807087 6.28758 0.824224 7.1451 1.08935L9.87534 1.90395C10.1098 1.97113 10.3499 2.01634 10.5925 2.03899C10.0525 2.61149 9.67633 3.32181 9.50411 4.09403C9.47934 4.20727 9.5 4.32583 9.56155 4.42364C9.62309 4.52145 9.72049 4.5905 9.83231 4.6156C9.86309 4.6223 9.89447 4.62573 9.92596 4.62585C10.0243 4.62576 10.1197 4.59173 10.1964 4.52937C10.2731 4.46702 10.3265 4.38006 10.3478 4.28284C10.466 3.75232 10.7039 3.25672 11.0429 2.83485C11.3818 2.41299 11.8126 2.07631 12.3015 1.8512L14.8549 1.08935C15.7124 0.824285 16.626 0.807179 17.4926 1.03996C18.3592 1.27273 19.1444 1.74613 19.7594 2.40673C20.387 3.05509 20.8232 3.86819 21.0186 4.75426C21.2141 5.64032 21.161 6.56407 20.8655 7.42123L18.9942 13.0244C18.7189 13.8536 18.7159 14.7507 18.9857 15.5818H18.9857Z" fill="#363636"/>
</svg>
