<svg width="29" height="31" viewBox="0 0 29 31" fill="none" xmlns="http://www.w3.org/2000/svg">
<path d="M26.1806 22.5062V19.8313C26.1799 19.1933 25.9343 18.5817 25.4978 18.1306C25.0612 17.6795 24.4694 17.4258 23.852 17.425H21.9891C21.417 17.427 20.8659 17.6482 20.4426 18.0459C20.2801 17.5831 19.9839 17.183 19.5941 16.8998C19.2043 16.6166 18.7398 16.464 18.2633 16.4625H16.4004C16.0375 16.4635 15.68 16.5525 15.3564 16.7222C15.0329 16.892 14.7524 17.1378 14.5375 17.4399C14.3226 17.1378 14.0421 16.892 13.7185 16.7222C13.395 16.5525 13.0374 16.4635 12.6746 16.4625H10.8117C10.3352 16.464 9.87064 16.6166 9.48086 16.8998C9.09108 17.183 8.79488 17.5831 8.63233 18.0459C8.20903 17.6482 7.65797 17.427 7.08586 17.425H5.22296C4.60559 17.4258 4.01372 17.6795 3.57717 18.1306C3.14062 18.5817 2.89506 19.1933 2.89433 19.8313V22.5062C2.07871 22.8009 1.37179 23.35 0.871222 24.0778C0.370658 24.8055 0.101165 25.6759 0.0999756 26.5688V28.4938C0.1007 29.1317 0.34627 29.7433 0.782816 30.1944C1.21936 30.6455 1.81124 30.8993 2.4286 30.9H26.6463C27.2637 30.8993 27.8556 30.6455 28.2921 30.1944C28.7287 29.7433 28.9743 29.1317 28.975 28.4938V26.5688C28.9738 25.6759 28.7043 24.8055 28.2037 24.0778C27.7032 23.35 26.9962 22.8009 26.1806 22.5062ZM20.5919 19.8313C20.5923 19.4485 20.7396 19.0815 21.0016 18.8108C21.2635 18.5402 21.6187 18.3879 21.9891 18.3875H23.852C24.2224 18.3879 24.5776 18.5402 24.8395 18.8108C25.1014 19.0815 25.2488 19.4485 25.2492 19.8313L25.2512 21.275H24.3177V20.7938C24.3178 20.7305 24.3057 20.6679 24.2823 20.6095C24.2589 20.5511 24.2246 20.4981 24.1814 20.4534C24.1381 20.4087 24.0868 20.3732 24.0303 20.3491C23.9737 20.3249 23.9132 20.3125 23.852 20.3125H21.9891C21.9279 20.3125 21.8673 20.3249 21.8108 20.3491C21.7543 20.3732 21.7029 20.4087 21.6597 20.4534C21.6164 20.4981 21.5821 20.5511 21.5587 20.6095C21.5353 20.6679 21.5233 20.7305 21.5234 20.7938V21.275H20.5919V19.8313ZM23.3863 21.275V22.2375H22.4548V21.275H23.3863ZM20.5919 22.2375H21.5234V22.7188C21.5233 22.782 21.5353 22.8446 21.5587 22.903C21.5821 22.9614 21.6164 23.0144 21.6597 23.0591C21.7029 23.1038 21.7543 23.1393 21.8108 23.1634C21.8673 23.1876 21.9279 23.2 21.9891 23.2H23.852C23.9132 23.2 23.9737 23.1876 24.0303 23.1634C24.0868 23.1393 24.1381 23.1038 24.1814 23.0591C24.2246 23.0144 24.2589 22.9614 24.2823 22.903C24.3057 22.8446 24.3178 22.782 24.3177 22.7188V22.2375H25.2526L25.2533 22.7296C25.2459 22.7608 25.2416 22.7928 25.2405 22.825C25.216 23.4437 24.9608 24.0286 24.5284 24.4573C24.0959 24.886 23.5198 25.1253 22.9205 25.125C22.3032 25.1243 21.7113 24.8705 21.2748 24.4194C20.8382 23.9683 20.5926 23.3567 20.5919 22.7188V22.2375ZM15.0032 18.8688C15.0036 18.486 15.1509 18.119 15.4129 17.8483C15.6748 17.5777 16.0299 17.4254 16.4004 17.425H18.2633C18.6337 17.4254 18.9889 17.5777 19.2508 17.8483C19.5127 18.119 19.6601 18.486 19.6605 18.8688V21.275H18.729V20.7938C18.729 20.7305 18.717 20.6679 18.6936 20.6095C18.6702 20.5511 18.6359 20.4981 18.5927 20.4534C18.5494 20.4087 18.4981 20.3732 18.4415 20.3491C18.385 20.3249 18.3245 20.3125 18.2633 20.3125H16.4004C16.3392 20.3125 16.2786 20.3249 16.2221 20.3491C16.1656 20.3732 16.1142 20.4087 16.071 20.4534C16.0277 20.4981 15.9934 20.5511 15.97 20.6095C15.9466 20.6679 15.9346 20.7305 15.9347 20.7938V21.275H15.0032V18.8688ZM17.7976 21.275V22.2375H16.8661V21.275H17.7976ZM15.0032 22.2375H15.9347V22.7188C15.9346 22.782 15.9466 22.8446 15.97 22.903C15.9934 22.9614 16.0277 23.0144 16.071 23.0591C16.1142 23.1038 16.1656 23.1393 16.2221 23.1634C16.2786 23.1876 16.3392 23.2 16.4004 23.2H18.2633C18.3245 23.2 18.385 23.1876 18.4415 23.1634C18.4981 23.1393 18.5494 23.1038 18.5927 23.0591C18.6359 23.0144 18.6702 22.9614 18.6936 22.903C18.717 22.8446 18.729 22.782 18.729 22.7188V22.2375H19.6605V22.7188C19.6605 23.3569 19.4151 23.969 18.9784 24.4202C18.5417 24.8715 17.9494 25.125 17.3318 25.125C16.7142 25.125 16.1219 24.8715 15.6852 24.4202C15.2485 23.969 15.0032 23.3569 15.0032 22.7188V22.2375ZM9.41449 18.8688C9.4149 18.486 9.56223 18.119 9.82416 17.8483C10.0861 17.5777 10.4412 17.4254 10.8117 17.425H12.6746C13.045 17.4254 13.4001 17.5777 13.6621 17.8483C13.924 18.119 14.0713 18.486 14.0717 18.8688V21.275H13.1403V20.7938C13.1403 20.7305 13.1283 20.6679 13.1049 20.6095C13.0815 20.5511 13.0472 20.4981 13.004 20.4534C12.9607 20.4087 12.9094 20.3732 12.8528 20.3491C12.7963 20.3249 12.7357 20.3125 12.6746 20.3125H10.8117C10.7505 20.3125 10.6899 20.3249 10.6334 20.3491C10.5769 20.3732 10.5255 20.4087 10.4823 20.4534C10.439 20.4981 10.4047 20.5511 10.3813 20.6095C10.3579 20.6679 10.3459 20.7305 10.3459 20.7938V21.275H9.41449V18.8688ZM12.2088 21.275V22.2375H11.2774V21.275H12.2088ZM9.41449 22.2375H10.3459V22.7188C10.3459 22.782 10.3579 22.8446 10.3813 22.903C10.4047 22.9614 10.439 23.0144 10.4823 23.0591C10.5255 23.1038 10.5769 23.1393 10.6334 23.1634C10.6899 23.1876 10.7505 23.2 10.8117 23.2H12.6746C12.7357 23.2 12.7963 23.1876 12.8528 23.1634C12.9094 23.1393 12.9607 23.1038 13.004 23.0591C13.0472 23.0144 13.0815 22.9614 13.1049 22.903C13.1283 22.8446 13.1403 22.782 13.1403 22.7188V22.2375H14.0717V22.7188C14.0717 23.3569 13.8264 23.969 13.3897 24.4202C12.953 24.8715 12.3607 25.125 11.7431 25.125C11.1255 25.125 10.5332 24.8715 10.0965 24.4202C9.65983 23.969 9.41449 23.3569 9.41449 22.7188V22.2375ZM3.82578 19.8313C3.82619 19.4485 3.97352 19.0815 4.23545 18.8108C4.49739 18.5402 4.85253 18.3879 5.22296 18.3875H7.08586C7.45629 18.3879 7.81144 18.5402 8.07337 18.8108C8.3353 19.0815 8.48264 19.4485 8.48304 19.8313V21.275H7.55159V20.7938C7.55162 20.7305 7.5396 20.6679 7.51621 20.6095C7.49282 20.5511 7.45851 20.4981 7.41526 20.4534C7.37201 20.4087 7.32065 20.3732 7.26413 20.3491C7.20761 20.3249 7.14703 20.3125 7.08586 20.3125H5.22296C5.16179 20.3125 5.10121 20.3249 5.04469 20.3491C4.98817 20.3732 4.93682 20.4087 4.89356 20.4534C4.85031 20.4981 4.816 20.5511 4.79261 20.6095C4.76922 20.6679 4.7572 20.7305 4.75723 20.7938V21.275H3.82578V19.8313ZM6.62014 21.275V22.2375H5.68869V21.275H6.62014ZM3.82578 22.2375H4.75723V22.7188C4.7572 22.782 4.76922 22.8446 4.79261 22.903C4.816 22.9614 4.85031 23.0144 4.89356 23.0591C4.93682 23.1038 4.98817 23.1393 5.04469 23.1634C5.10121 23.1876 5.16179 23.2 5.22296 23.2H7.08586C7.14703 23.2 7.20761 23.1876 7.26413 23.1634C7.32065 23.1393 7.37201 23.1038 7.41526 23.0591C7.45851 23.0144 7.49282 22.9614 7.51621 22.903C7.5396 22.8446 7.55162 22.782 7.55159 22.7188V22.2375H8.48304V22.7188C8.48385 23.3473 8.24627 23.9512 7.82126 24.4009C7.39625 24.8505 6.81764 25.1102 6.20951 25.1243C5.60137 25.1383 5.01213 24.9055 4.56814 24.4759C4.12414 24.0462 3.86074 23.4539 3.83443 22.8259C3.83475 22.79 3.83186 22.7541 3.82578 22.7188V22.2375ZM28.0435 28.4938C28.0431 28.8765 27.8958 29.2435 27.6339 29.5142C27.3719 29.7848 27.0168 29.9371 26.6463 29.9375H2.4286C2.05817 29.9371 1.70303 29.7848 1.4411 29.5142C1.17916 29.2435 1.03183 28.8765 1.03143 28.4938V26.5688C1.03133 25.9139 1.21653 25.2733 1.56423 24.7257C1.91194 24.1782 2.40697 23.7477 2.98841 23.4872C3.12923 24.1454 3.45949 24.7443 3.93579 25.205C4.41209 25.6657 5.01214 25.9667 5.65708 26.0685C6.30202 26.1703 6.96166 26.068 7.54932 25.7752C8.13699 25.4824 8.62516 25.0127 8.9497 24.4279C9.23425 24.9329 9.64207 25.352 10.1324 25.6432C10.6228 25.9344 11.1785 26.0876 11.744 26.0874C12.3096 26.0873 12.8652 25.9338 13.3554 25.6423C13.8456 25.3508 14.2532 24.9315 14.5375 24.4262C14.8192 24.9351 15.2259 25.358 15.7166 25.6522C16.2073 25.9464 16.7645 26.1014 17.3318 26.1016C17.8991 26.1018 18.4564 25.9471 18.9472 25.6532C19.4381 25.3592 19.8451 24.9366 20.127 24.4279C20.4556 25.0068 20.9447 25.4706 21.5311 25.7592C22.1175 26.0478 22.7742 26.148 23.4162 26.0467C24.0583 25.9455 24.6562 25.6475 25.1326 25.1913C25.609 24.7351 25.942 24.1417 26.0885 23.4878C26.6694 23.7486 27.164 24.1792 27.5113 24.7265C27.8587 25.2739 28.0436 25.9142 28.0435 26.5688V28.4938ZM26.6463 0.100006H2.4286C1.81124 0.100755 1.21936 0.35451 0.782816 0.805608C0.34627 1.2567 0.1007 1.86831 0.0999756 2.50626V4.43126C0.101165 5.32409 0.370658 6.19451 0.871222 6.92225C1.37179 7.64999 2.07871 8.19913 2.89433 8.4938V11.1688C2.89506 11.8067 3.14062 12.4183 3.57717 12.8694C4.01372 13.3205 4.60559 13.5743 5.22296 13.575H7.08586C7.65797 13.5731 8.20903 13.3518 8.63233 12.9541C8.79488 13.4169 9.09108 13.817 9.48086 14.1002C9.87064 14.3834 10.3352 14.5361 10.8117 14.5375H12.6746C13.0374 14.5365 13.395 14.4475 13.7185 14.2778C14.0421 14.1081 14.3226 13.8623 14.5375 13.5601C14.7524 13.8623 15.0329 14.1081 15.3564 14.2778C15.68 14.4475 16.0375 14.5365 16.4004 14.5375H18.2633C18.7398 14.5361 19.2043 14.3834 19.5941 14.1002C19.9839 13.817 20.2801 13.4169 20.4426 12.9541C20.8659 13.3518 21.417 13.5731 21.9891 13.575H23.852C24.4694 13.5743 25.0612 13.3205 25.4978 12.8694C25.9343 12.4183 26.1799 11.8067 26.1806 11.1688V8.4938C26.9962 8.19913 27.7032 7.64999 28.2037 6.92225C28.7043 6.19451 28.9738 5.32409 28.975 4.43126V2.50626C28.9743 1.86831 28.7287 1.2567 28.2921 0.805608C27.8556 0.35451 27.2637 0.100755 26.6463 0.100006V0.100006ZM8.48304 11.1688C8.48264 11.5515 8.3353 11.9185 8.07337 12.1892C7.81144 12.4598 7.45629 12.6121 7.08586 12.6125H5.22296C4.85253 12.6121 4.49739 12.4598 4.23545 12.1892C3.97352 11.9185 3.82619 11.5515 3.82578 11.1688V9.72501H4.75723V10.2063C4.7572 10.2695 4.76922 10.3321 4.79261 10.3905C4.816 10.4489 4.85031 10.5019 4.89356 10.5466C4.93682 10.5913 4.98817 10.6268 5.04469 10.6509C5.10121 10.6751 5.16179 10.6875 5.22296 10.6875H7.08586C7.14703 10.6875 7.20761 10.6751 7.26413 10.6509C7.32065 10.6268 7.37201 10.5913 7.41526 10.5466C7.45851 10.5019 7.49282 10.4489 7.51621 10.3905C7.5396 10.3321 7.55162 10.2695 7.55159 10.2063V9.72501H8.48304V11.1688ZM5.68869 9.72501V8.76251H6.62014V9.72501H5.68869ZM8.48304 8.76251H7.55159V8.28126C7.55162 8.21805 7.5396 8.15545 7.51621 8.09705C7.49282 8.03864 7.45851 7.98557 7.41526 7.94088C7.37201 7.89618 7.32065 7.86074 7.26413 7.83656C7.20761 7.81239 7.14703 7.79997 7.08586 7.80001H5.22296C5.16179 7.79997 5.10121 7.81239 5.04469 7.83656C4.98817 7.86074 4.93682 7.89618 4.89356 7.94088C4.85031 7.98557 4.816 8.03864 4.79261 8.09705C4.76922 8.15545 4.7572 8.21805 4.75723 8.28126V8.76251H3.82578V8.28126C3.82578 7.64308 4.07112 7.03104 4.50782 6.57978C4.94452 6.12852 5.53682 5.87501 6.15441 5.87501C6.772 5.87501 7.3643 6.12852 7.801 6.57978C8.2377 7.03104 8.48304 7.64308 8.48304 8.28126V8.76251ZM14.0717 12.1313C14.0713 12.514 13.924 12.881 13.6621 13.1517C13.4001 13.4223 13.045 13.5746 12.6746 13.575H10.8117C10.4412 13.5746 10.0861 13.4223 9.82416 13.1517C9.56223 12.881 9.4149 12.514 9.41449 12.1313V9.72501H10.3459V10.2063C10.3459 10.2695 10.3579 10.3321 10.3813 10.3905C10.4047 10.4489 10.439 10.5019 10.4823 10.5466C10.5255 10.5913 10.5769 10.6268 10.6334 10.6509C10.6899 10.6751 10.7505 10.6875 10.8117 10.6875H12.6746C12.7357 10.6875 12.7963 10.6751 12.8528 10.6509C12.9094 10.6268 12.9607 10.5913 13.004 10.5466C13.0472 10.5019 13.0815 10.4489 13.1049 10.3905C13.1283 10.3321 13.1403 10.2695 13.1403 10.2063V9.72501H14.0717V12.1313ZM11.2774 9.72501V8.76251H12.2088V9.72501H11.2774ZM14.0717 8.76251H13.1403V8.28126C13.1403 8.21805 13.1283 8.15545 13.1049 8.09705C13.0815 8.03864 13.0472 7.98557 13.004 7.94088C12.9607 7.89618 12.9094 7.86074 12.8528 7.83656C12.7963 7.81239 12.7357 7.79997 12.6746 7.80001H10.8117C10.7505 7.79997 10.6899 7.81239 10.6334 7.83656C10.5769 7.86074 10.5255 7.89618 10.4823 7.94088C10.439 7.98557 10.4047 8.03864 10.3813 8.09705C10.3579 8.15545 10.3459 8.21805 10.3459 8.28126V8.76251H9.41449V8.28126C9.41449 7.64308 9.65983 7.03104 10.0965 6.57978C10.5332 6.12852 11.1255 5.87501 11.7431 5.87501C12.3607 5.87501 12.953 6.12852 13.3897 6.57978C13.8264 7.03104 14.0717 7.64308 14.0717 8.28126V8.76251ZM19.6605 12.1313C19.6601 12.514 19.5127 12.881 19.2508 13.1517C18.9889 13.4223 18.6337 13.5746 18.2633 13.575H16.4004C16.0299 13.5746 15.6748 13.4223 15.4129 13.1517C15.1509 12.881 15.0036 12.514 15.0032 12.1313V9.72501H15.9347V10.2063C15.9346 10.2695 15.9466 10.3321 15.97 10.3905C15.9934 10.4489 16.0277 10.5019 16.071 10.5466C16.1142 10.5913 16.1656 10.6268 16.2221 10.6509C16.2786 10.6751 16.3392 10.6875 16.4004 10.6875H18.2633C18.3245 10.6875 18.385 10.6751 18.4415 10.6509C18.4981 10.6268 18.5494 10.5913 18.5927 10.5466C18.6359 10.5019 18.6702 10.4489 18.6936 10.3905C18.717 10.3321 18.729 10.2695 18.729 10.2063V9.72501H19.6605V12.1313ZM16.8661 9.72501V8.76251H17.7976V9.72501H16.8661ZM19.6605 8.76251H18.729V8.28126C18.729 8.21805 18.717 8.15545 18.6936 8.09705C18.6702 8.03864 18.6359 7.98557 18.5927 7.94088C18.5494 7.89618 18.4981 7.86074 18.4415 7.83656C18.385 7.81239 18.3245 7.79997 18.2633 7.80001H16.4004C16.3392 7.79997 16.2786 7.81239 16.2221 7.83656C16.1656 7.86074 16.1142 7.89618 16.071 7.94088C16.0277 7.98557 15.9934 8.03864 15.97 8.09705C15.9466 8.15545 15.9346 8.21805 15.9347 8.28126V8.76251H15.0032V8.28126C15.0032 7.64308 15.2485 7.03104 15.6852 6.57978C16.1219 6.12852 16.7142 5.87501 17.3318 5.87501C17.9494 5.87501 18.5417 6.12852 18.9784 6.57978C19.4151 7.03104 19.6605 7.64308 19.6605 8.28126V8.76251ZM25.2492 11.1688C25.2488 11.5515 25.1014 11.9185 24.8395 12.1892C24.5776 12.4598 24.2224 12.6121 23.852 12.6125H21.9891C21.6187 12.6121 21.2635 12.4598 21.0016 12.1892C20.7396 11.9185 20.5923 11.5515 20.5919 11.1688V9.72501H21.5234V10.2063C21.5233 10.2695 21.5353 10.3321 21.5587 10.3905C21.5821 10.4489 21.6164 10.5019 21.6597 10.5466C21.7029 10.5913 21.7543 10.6268 21.8108 10.6509C21.8673 10.6751 21.9279 10.6875 21.9891 10.6875H23.852C23.9132 10.6875 23.9737 10.6751 24.0303 10.6509C24.0868 10.6268 24.1381 10.5913 24.1814 10.5466C24.2246 10.5019 24.2589 10.4489 24.2823 10.3905C24.3057 10.3321 24.3178 10.2695 24.3177 10.2063V9.72501H25.2492V11.1688ZM22.4548 9.72501V8.76251H23.3863V9.72501H22.4548ZM25.2492 8.76251H24.3177V8.28126C24.3178 8.21805 24.3057 8.15545 24.2823 8.09705C24.2589 8.03864 24.2246 7.98557 24.1814 7.94088C24.1381 7.89618 24.0868 7.86074 24.0303 7.83656C23.9737 7.81239 23.9132 7.79997 23.852 7.80001H21.9891C21.9279 7.79997 21.8673 7.81239 21.8108 7.83656C21.7543 7.86074 21.7029 7.89618 21.6597 7.94088C21.6164 7.98557 21.5821 8.03864 21.5587 8.09705C21.5353 8.15545 21.5233 8.21805 21.5234 8.28126V8.76251H20.5919V8.28126C20.5919 7.64308 20.8372 7.03104 21.274 6.57978C21.7107 6.12852 22.3029 5.87501 22.9205 5.87501C23.5381 5.87501 24.1304 6.12852 24.5671 6.57978C25.0038 7.03104 25.2492 7.64308 25.2492 8.28126V8.76251ZM28.0435 4.43126C28.0436 5.08605 27.8584 5.72659 27.5108 6.27408C27.1632 6.82156 26.6683 7.2521 26.087 7.51274C25.9414 6.85821 25.6088 6.264 25.1324 5.80716C24.656 5.35033 24.0578 5.05196 23.4153 4.95075C22.7728 4.84954 22.1157 4.95016 21.5292 5.23957C20.9427 5.52898 20.4539 5.99381 20.1262 6.57378C19.8418 6.0684 19.4341 5.64898 18.9437 5.35745C18.4534 5.06592 17.8976 4.91249 17.3318 4.91249C16.7661 4.91249 16.2103 5.06592 15.7199 5.35745C15.2295 5.64898 14.8218 6.0684 14.5375 6.57378C14.2531 6.0684 13.8454 5.64898 13.355 5.35745C12.8647 5.06592 12.3089 4.91249 11.7431 4.91249C11.1774 4.91249 10.6216 5.06592 10.1312 5.35745C9.64084 5.64898 9.23311 6.0684 8.94877 6.57378C8.62106 5.99381 8.13226 5.52898 7.54578 5.23957C6.95929 4.95016 6.30218 4.84953 5.65968 4.95074C5.01717 5.05195 4.41892 5.35032 3.94252 5.80715C3.46612 6.26398 3.13355 6.8582 2.98796 7.51272C2.40665 7.25208 1.91175 6.82154 1.56413 6.27407C1.21652 5.72659 1.03136 5.08605 1.03143 4.43126V2.50626C1.03183 2.12348 1.17916 1.7565 1.4411 1.48583C1.70303 1.21517 2.05817 1.06292 2.4286 1.06251H26.6463C27.0168 1.06292 27.3719 1.21517 27.6339 1.48583C27.8958 1.7565 28.0431 2.12348 28.0435 2.50626V4.43126Z" fill="#363636"/>
</svg>
