<svg width="32" height="26" viewBox="0 0 32 26" fill="none" xmlns="http://www.w3.org/2000/svg">
<path d="M23.5041 21.99C23.4053 21.99 23.3086 22.0189 23.2264 22.0731C23.1442 22.1273 23.0801 22.2043 23.0423 22.2945C23.0044 22.3846 22.9945 22.4838 23.0138 22.5795C23.0331 22.6751 23.0807 22.763 23.1506 22.832C23.2205 22.901 23.3096 22.948 23.4066 22.967C23.5036 22.986 23.6041 22.9763 23.6954 22.9389C23.7868 22.9016 23.8649 22.8384 23.9198 22.7573C23.9747 22.6761 24.004 22.5808 24.004 22.4832C24.004 22.3524 23.9514 22.2269 23.8576 22.1344C23.7639 22.0419 23.6367 21.99 23.5041 21.99ZM25.5038 14.0978C25.6027 14.0978 25.6993 14.0689 25.7816 14.0147C25.8638 13.9605 25.9278 13.8835 25.9657 13.7933C26.0035 13.7032 26.0134 13.604 25.9941 13.5083C25.9748 13.4127 25.9272 13.3248 25.8573 13.2558C25.7874 13.1868 25.6983 13.1398 25.6013 13.1208C25.5044 13.1018 25.4039 13.1115 25.3125 13.1489C25.2212 13.1862 25.1431 13.2494 25.0881 13.3305C25.0332 13.4116 25.0039 13.507 25.0039 13.6046C25.0039 13.7354 25.0566 13.8609 25.1503 13.9534C25.2441 14.0459 25.3712 14.0978 25.5038 14.0978ZM21.3922 17.4283C21.3266 17.4321 21.2625 17.4485 21.2034 17.4767C21.1443 17.505 21.0914 17.5444 21.0478 17.5928C21.0042 17.6412 20.9706 17.6977 20.9491 17.7589C20.9276 17.8201 20.9186 17.8848 20.9225 17.9495C20.9498 18.2883 20.8977 18.6288 20.7702 18.9446C20.6427 19.2603 20.4433 19.5429 20.1873 19.7703C20.0181 19.8787 19.8279 19.9509 19.6288 19.9823C19.4983 20.0046 19.3822 20.077 19.3058 20.1837C19.2294 20.2904 19.1989 20.4226 19.2212 20.5514C19.2434 20.6802 19.3165 20.795 19.4243 20.8707C19.5322 20.9464 19.6661 20.9768 19.7967 20.9553C20.1329 20.9003 20.4537 20.777 20.739 20.5931C21.1429 20.2708 21.4614 19.8566 21.6672 19.3861C21.873 18.9155 21.9599 18.4027 21.9204 17.8917C21.9181 17.8265 21.9025 17.7625 21.8743 17.7035C21.8462 17.6445 21.8063 17.5917 21.7569 17.5484C21.7075 17.505 21.6497 17.4721 21.587 17.4514C21.5243 17.4308 21.458 17.4229 21.3922 17.4283V17.4283ZM23.5041 18.0439C23.4053 18.0439 23.3086 18.0728 23.2264 18.127C23.1442 18.1812 23.0801 18.2583 23.0423 18.3484C23.0044 18.4385 22.9945 18.5377 23.0138 18.6334C23.0331 18.7291 23.0807 18.817 23.1506 18.8859C23.2205 18.9549 23.3096 19.0019 23.4066 19.0209C23.5036 19.04 23.6041 19.0302 23.6954 18.9929C23.7868 18.9555 23.8649 18.8923 23.9198 18.8112C23.9747 18.7301 24.004 18.6347 24.004 18.5372C24.004 18.4063 23.9514 18.2809 23.8576 18.1884C23.7639 18.0959 23.6367 18.0439 23.5041 18.0439ZM21.5044 14.0978C21.4056 14.0978 21.3089 14.1268 21.2267 14.181C21.1445 14.2352 21.0804 14.3122 21.0426 14.4023C21.0047 14.4925 20.9948 14.5916 21.0141 14.6873C21.0334 14.783 21.081 14.8709 21.1509 14.9399C21.2208 15.0089 21.3099 15.0558 21.4069 15.0749C21.5039 15.0939 21.6044 15.0841 21.6957 15.0468C21.7871 15.0095 21.8652 14.9462 21.9201 14.8651C21.975 14.784 22.0044 14.6886 22.0044 14.5911C22.0044 14.4603 21.9517 14.3348 21.8579 14.2423C21.7642 14.1498 21.637 14.0978 21.5044 14.0978ZM29.0033 15.5776C29.0033 15.4801 28.974 15.3847 28.919 15.3036C28.8641 15.2225 28.786 15.1592 28.6947 15.1219C28.6033 15.0846 28.5028 15.0748 28.4058 15.0938C28.3088 15.1129 28.2198 15.1598 28.1499 15.2288C28.0799 15.2978 28.0323 15.3857 28.013 15.4814C27.9937 15.5771 28.0036 15.6762 28.0415 15.7664C28.0793 15.8565 28.1434 15.9335 28.2256 15.9877C28.3078 16.0419 28.4045 16.0709 28.5034 16.0709C28.6359 16.0709 28.7631 16.0189 28.8569 15.9264C28.9506 15.8339 29.0033 15.7084 29.0033 15.5776ZM25.5155 17.9977C25.5395 18.0008 25.5636 18.0024 25.5878 18.0025C25.7079 18.0022 25.8238 17.9594 25.9145 17.8817C26.0052 17.8041 26.0646 17.6968 26.0819 17.5796C26.1049 17.124 26.0226 16.6692 25.8412 16.2496C25.6599 15.8301 25.3843 15.4566 25.0351 15.1576C24.9443 15.0623 24.8187 15.0065 24.6861 15.0026C24.5536 14.9986 24.4248 15.0467 24.3282 15.1364C24.2316 15.2261 24.1751 15.35 24.1711 15.4808C24.167 15.6116 24.2158 15.7386 24.3067 15.8339C24.5476 16.0294 24.7426 16.2741 24.8781 16.5513C25.0137 16.8284 25.0866 17.1313 25.0918 17.439C25.0731 17.5685 25.1072 17.7 25.1866 17.8047C25.2661 17.9095 25.3843 17.9789 25.5155 17.9977ZM29.8132 13.3229C28.6864 12.2214 27.2362 11.4987 25.669 11.2578C24.1017 11.0169 22.4974 11.2701 21.0845 11.9812L19.2948 11.34L20.7046 7.21632C21.0281 6.26921 21.082 5.25268 20.8605 4.27741C20.639 3.30215 20.1506 2.40554 19.4484 1.68522C18.7462 0.964904 17.8571 0.448488 16.878 0.192211C15.8989 -0.0640668 14.8674 -0.0503819 13.8956 0.231775L11.506 0.942067L11.456 0.951932L11.3821 0.970173L11.3754 0.971683H11.366L11.316 0.981548C10.7865 1.12949 10.2257 1.12949 9.69624 0.981548L7.11664 0.231795C6.14408 -0.059085 5.10858 -0.0765429 4.12652 0.181383C3.14446 0.43931 2.25478 0.962396 1.5575 1.69184C0.845616 2.40473 0.351011 3.30059 0.130042 4.27734C-0.0909269 5.25408 -0.0293731 6.27243 0.30769 7.21633L2.08741 12.3857C2.28067 12.9903 2.27367 13.6399 2.06742 14.2403C1.52496 15.855 1.31885 17.5612 1.46146 19.2565C1.60406 20.9518 2.09245 22.6011 2.89729 24.1055L3.4572 25.1513C3.59462 25.412 3.80322 25.6296 4.05941 25.7796C4.3156 25.9295 4.60918 26.0057 4.90698 25.9997C5.20599 25.9945 5.49734 25.9055 5.74699 25.7431C5.99663 25.5806 6.19426 25.3514 6.31676 25.0822L9.11633 19.0546C9.23874 18.7925 9.4347 18.5705 9.68101 18.415C9.92731 18.2594 10.2137 18.1767 10.5061 18.1767C10.7986 18.1767 11.0849 18.2594 11.3312 18.415C11.5775 18.5705 11.7735 18.7925 11.8959 19.0546L14.6855 25.0822C14.8112 25.351 15.011 25.5796 15.262 25.7418C15.5131 25.904 15.8052 25.9933 16.1052 25.9997H16.1452C16.4356 26.0009 16.7207 25.9234 16.9693 25.7755C17.218 25.6276 17.4206 25.415 17.555 25.1611L18.0849 24.1746C18.2849 23.7997 18.4549 23.4347 18.6049 23.0796C18.7916 23.3235 18.9954 23.5542 19.2148 23.7701C20.6193 25.1548 22.5236 25.9327 24.5091 25.9328C26.4946 25.9329 28.3989 25.1551 29.8035 23.7705C31.2082 22.3859 31.9982 20.5077 32 18.5487C32.0018 16.5896 31.2152 14.71 29.8131 13.3229L29.8132 13.3229ZM17.2051 23.7109L16.6752 24.6974C16.6234 24.7962 16.5442 24.8783 16.4468 24.9342C16.3494 24.9902 16.2379 25.0175 16.1253 25.0131C16.0133 25.0093 15.9045 24.9751 15.811 24.9141C15.7175 24.8532 15.6429 24.768 15.5953 24.6678L12.7958 18.6402C12.595 18.2075 12.2724 17.8409 11.8665 17.5838C11.4606 17.3267 10.9885 17.19 10.5061 17.19C10.0238 17.19 9.55163 17.3267 9.14573 17.5838C8.73984 17.8409 8.41731 18.2075 8.21649 18.6402L5.41692 24.6678C5.36987 24.7685 5.29526 24.8541 5.2015 24.9151C5.10775 24.9762 4.99858 25.0101 4.88631 25.0132C4.77404 25.0163 4.66313 24.9884 4.56609 24.9326C4.46904 24.8768 4.38973 24.7953 4.33709 24.6974L3.77717 23.6517C3.03494 22.2519 2.58682 20.7187 2.45968 19.1438C2.33254 17.569 2.529 15.9851 3.03729 14.487C3.29901 13.7015 3.2955 12.8534 3.02729 12.07L1.24756 6.90068C0.975816 6.12605 0.928225 5.29202 1.11013 4.49219C1.29204 3.69235 1.69625 2.95836 2.27741 2.37257C2.84963 1.77487 3.57948 1.34651 4.38491 1.13563C5.19034 0.924761 6.03942 0.939738 6.8367 1.17888L9.4163 1.92863C9.58391 1.97741 9.75415 2.01694 9.92622 2.04702L9.93275 2.04725C9.47573 2.55989 9.15562 3.17697 9.00145 3.84255C8.97299 3.9703 8.99712 4.10397 9.06853 4.21417C9.13994 4.32437 9.25278 4.40208 9.38225 4.43021C9.41753 4.43781 9.45354 4.44169 9.48965 4.44178C9.60352 4.44156 9.71392 4.40309 9.80266 4.33269C9.8914 4.26229 9.95319 4.16417 9.97785 4.05449C10.0867 3.57797 10.306 3.13284 10.6186 2.75405C10.9312 2.37527 11.3285 2.07315 11.7794 1.87142L11.7865 1.86641L14.1756 1.17881C14.9721 0.946992 15.8179 0.935176 16.6208 1.14465C17.4237 1.35412 18.153 1.77686 18.7293 2.36686C19.3056 2.95686 19.7069 3.69152 19.8894 4.4909C20.072 5.29027 20.0288 6.12374 19.7647 6.90061L18.3549 11.0045L17.455 10.679C17.3668 10.647 17.2712 10.6402 17.1793 10.6594C17.0873 10.6786 17.0027 10.723 16.9351 10.7875C16.8705 10.8546 16.8253 10.9376 16.8042 11.0278C16.7831 11.118 16.7869 11.2122 16.8151 11.3005L18.045 14.8322C17.3726 15.9631 17.0172 17.2501 17.0151 18.5612C17.0165 19.7854 17.3294 20.9895 17.925 22.0634C17.7288 22.6302 17.4881 23.181 17.2051 23.7109H17.2051ZM29.1033 23.0796C27.8838 24.2761 26.2338 24.9478 24.514 24.9478C22.7941 24.9478 21.1442 24.2761 19.9247 23.0796C19.5732 22.7354 19.2644 22.3512 19.0048 21.9352C18.8897 21.7663 18.7894 21.5881 18.7049 21.4025H18.6949C18.2015 20.4217 17.9718 19.3324 18.0279 18.2389C18.0839 17.1454 18.4237 16.0845 19.0148 15.1578C19.0546 15.0952 19.0797 15.0247 19.0883 14.9513C19.097 14.8779 19.0889 14.8035 19.0648 14.7336L18.105 11.9615L20.9545 12.9874C21.0214 13.0096 21.0921 13.0185 21.1625 13.0134C21.2329 13.0083 21.3016 12.9894 21.3645 12.9578C22.7323 12.2071 24.3291 11.9696 25.8604 12.2891C27.3918 12.6086 28.7544 13.4637 29.6971 14.6966C30.6397 15.9295 31.0988 17.4571 30.9897 18.9977C30.8805 20.5383 30.2105 21.988 29.1033 23.0795V23.0796ZM29.0345 17.1307C28.9436 17.0353 28.8181 16.9796 28.6855 16.9756C28.553 16.9716 28.4242 17.0198 28.3276 17.1095C28.231 17.1991 28.1745 17.323 28.1705 17.4538C28.1664 17.5846 28.2152 17.7117 28.3061 17.807C28.547 18.0024 28.742 18.2472 28.8775 18.5243C29.0131 18.8015 29.086 19.1043 29.0912 19.412C29.0725 19.5415 29.1066 19.6731 29.186 19.7778C29.2655 19.8826 29.3837 19.952 29.5149 19.9708C29.5389 19.9738 29.563 19.9754 29.5872 19.9756C29.7073 19.9753 29.8232 19.9324 29.9139 19.8548C30.0046 19.7772 30.064 19.6699 30.0813 19.5527C30.1043 19.0971 30.022 18.6423 29.8406 18.2227C29.6593 17.8031 29.3836 17.4297 29.0345 17.1307L29.0345 17.1307ZM25.3281 20.069C25.2803 20.1134 25.2418 20.1667 25.2148 20.2257C25.1878 20.2848 25.1729 20.3486 25.1709 20.4134C25.1689 20.4781 25.1799 20.5427 25.2032 20.6032C25.2265 20.6638 25.2616 20.7193 25.3066 20.7665C25.5475 20.9619 25.7425 21.2067 25.878 21.4838C26.0136 21.761 26.0865 22.0639 26.0917 22.3715C26.073 22.5011 26.1071 22.6326 26.1865 22.7373C26.266 22.8421 26.3842 22.9115 26.5154 22.9303C26.5394 22.9334 26.5635 22.935 26.5877 22.9351C26.7078 22.9348 26.8237 22.892 26.9144 22.8143C27.0051 22.7367 27.0645 22.6294 27.0818 22.5122C27.1048 22.0566 27.0225 21.6018 26.8412 21.1823C26.6598 20.7627 26.3842 20.3892 26.0351 20.0902C25.9441 19.9951 25.8185 19.9394 25.686 19.9354C25.5535 19.9315 25.4248 19.9795 25.3281 20.069H25.3281ZM27.5036 20.0169C27.4047 20.0169 27.308 20.0459 27.2258 20.1001C27.1436 20.1543 27.0795 20.2313 27.0417 20.3214C27.0039 20.4116 26.9939 20.5107 27.0132 20.6064C27.0325 20.7021 27.0801 20.79 27.1501 20.859C27.22 20.928 27.3091 20.9749 27.406 20.994C27.503 21.013 27.6035 21.0032 27.6949 20.9659C27.7862 20.9286 27.8643 20.8653 27.9192 20.7842C27.9742 20.7031 28.0035 20.6077 28.0035 20.5102C28.0035 20.4454 27.9905 20.3813 27.9654 20.3214C27.9403 20.2616 27.9035 20.2072 27.857 20.1614C27.8106 20.1156 27.7555 20.0793 27.6948 20.0545C27.6342 20.0297 27.5692 20.0169 27.5035 20.0169L27.5036 20.0169Z" fill="#363636"/>
</svg>
