<svg width="19" height="28" viewBox="0 0 19 28" fill="none" xmlns="http://www.w3.org/2000/svg">
<path d="M10.0901 9.00268L8.86125 9.21728C8.74946 9.23699 8.64963 9.29931 8.58266 9.39118L7.16918 11.3345L5.42327 9.15989C5.36737 9.09037 5.29167 9.03958 5.20625 9.01427C4.49339 8.80376 3.73657 8.79346 3.01827 8.98449C2.29998 9.17552 1.64778 9.56056 1.13278 10.0976C0.617777 10.6347 0.259736 11.3032 0.0976847 12.0302C-0.0643665 12.7572 -0.0242082 13.5149 0.213782 14.2206L1.48791 17.9976C1.62921 18.4223 1.625 18.882 1.47595 19.304C1.08481 20.495 0.936513 21.7527 1.03987 23.0022C1.14322 24.2518 1.49611 25.4678 2.07758 26.578L2.48094 27.343C2.57192 27.514 2.70235 27.6608 2.86138 27.7712C3.0204 27.8815 3.20342 27.9521 3.39519 27.9772L3.40731 27.982C3.41579 27.9834 3.42354 27.9803 3.43198 27.9813C3.4879 27.9916 3.54448 27.9978 3.6013 28C3.83104 27.9944 4.05454 27.9239 4.2462 27.7968C4.43785 27.6697 4.5899 27.491 4.68491 27.2813L6.6966 22.8806C6.77802 22.7027 6.90866 22.5519 7.07302 22.4462C7.23738 22.3405 7.42855 22.2843 7.62382 22.2843C7.81909 22.2843 8.01026 22.3405 8.17462 22.4462C8.33898 22.5519 8.46962 22.7027 8.55104 22.8806L10.5627 27.2813C10.6577 27.491 10.8098 27.6697 11.0014 27.7968C11.1931 27.9239 11.4166 27.9944 11.6463 28H11.6805C11.6988 28 11.7155 27.9936 11.7337 27.9928C11.7497 27.9924 11.7656 27.9911 11.7814 27.9889L11.7919 27.9848C11.9951 27.9686 12.1909 27.9013 12.3613 27.7891C12.5317 27.6769 12.6711 27.5234 12.7667 27.3429L13.1444 26.6268C13.7339 25.5018 14.0917 24.2695 14.1967 23.0032C14.3016 21.7368 14.1516 20.4622 13.7555 19.2552C13.6214 18.8465 13.6229 18.4053 13.7597 17.9976L15.0339 14.2206C15.2708 13.519 15.312 12.766 15.1532 12.0427C14.9944 11.3193 14.6415 10.6532 14.1327 10.1162C13.6239 9.57918 12.9785 9.19164 12.266 8.99539C11.5536 8.79915 10.8013 8.80166 10.0902 9.00265L10.0901 9.00268ZM9.3458 22.5157C9.19486 22.185 8.95233 21.9047 8.64706 21.7082C8.34178 21.5116 7.98662 21.4072 7.62382 21.4072C7.26101 21.4072 6.90585 21.5116 6.60057 21.7082C6.2953 21.9047 6.05277 22.185 5.90183 22.5157L4.1375 26.3753L4.54989 24.0551C4.851 22.3639 4.89566 20.6368 4.68235 18.9322L4.49007 17.3859C4.46812 17.2092 4.49725 17.0299 4.57401 16.8694C4.65077 16.7088 4.77191 16.5737 4.92304 16.4801C5.07417 16.3865 5.24893 16.3384 5.42653 16.3415C5.60414 16.3446 5.77712 16.3988 5.92491 16.4976C6.42749 16.8352 7.01883 17.0154 7.62382 17.0154C8.2288 17.0154 8.82014 16.8352 9.32272 16.4976C9.47058 16.3988 9.64365 16.3446 9.82133 16.3416C9.99901 16.3385 10.1738 16.3867 10.325 16.4803C10.4761 16.574 10.5973 16.7093 10.6739 16.8699C10.7506 17.0306 10.7797 17.21 10.7576 17.3868L10.5559 19.0076C10.3487 20.6613 10.3844 22.3364 10.6618 23.9797L11.0398 26.2214L9.3458 22.5157ZM10.7849 15.7344C10.4922 15.5494 10.1521 15.4541 9.80612 15.46C9.46019 15.466 9.1235 15.5729 8.83729 15.7678C8.47835 16.0091 8.05595 16.1379 7.62379 16.1379C7.19162 16.1379 6.76922 16.0091 6.41028 15.7678C6.18802 15.6174 5.93485 15.5192 5.66955 15.4803C5.40425 15.4413 5.13361 15.4628 4.8777 15.543C4.62178 15.6232 4.38716 15.7601 4.19121 15.9436C3.99526 16.127 3.84301 16.3523 3.74575 16.6028C3.64464 16.3113 3.60675 16.0015 3.63461 15.6941C3.65138 15.5232 3.70567 15.3581 3.79357 15.2106C3.88148 15.0632 4.00084 14.9371 4.14308 14.8413C4.98488 14.4198 5.9146 14.205 6.85553 14.2146C7.89894 14.1357 8.94825 14.2095 9.97047 14.4335C10.884 14.6353 11.4147 15.0002 11.5925 15.5494C11.6929 15.9115 11.6651 16.2974 11.5137 16.6413C11.3792 16.2655 11.1225 15.9461 10.7849 15.7344ZM14.2049 13.9397L12.9307 17.7167C12.7331 18.3049 12.731 18.9416 12.9248 19.5311C13.2841 20.626 13.4202 21.7821 13.3249 22.9307C13.2296 24.0793 12.9049 25.197 12.3701 26.2174L12.0342 26.8543L11.525 23.8341C11.2617 22.275 11.2277 20.6855 11.4241 19.1165L11.5461 18.136C11.9335 17.7818 12.2194 17.3301 12.3739 16.8278C12.5284 16.3255 12.546 15.7909 12.4248 15.2795C12.2372 14.8159 11.9271 14.4124 11.5277 14.1124C11.1284 13.8124 10.655 13.6272 10.1585 13.5769C9.0495 13.3325 7.91068 13.2529 6.77861 13.3409C5.68226 13.3327 4.60163 13.6024 3.63717 14.1251C3.39602 14.2922 3.19348 14.5093 3.04325 14.7617C2.89302 15.014 2.7986 15.2958 2.76638 15.5879C2.72392 16.6026 3.06845 17.5955 3.72998 18.3647L3.8141 19.0411C4.01644 20.6581 3.97409 22.2965 3.68848 23.9009L3.17611 26.7835L2.85185 26.1685C2.32297 25.1563 2.00329 24.0474 1.91195 22.9084C1.82062 21.7694 1.95951 20.6236 2.3203 19.5397C2.51832 18.948 2.51712 18.3076 2.31688 17.7167L1.04269 13.9396C0.859796 13.3968 0.826009 12.8146 0.944868 12.2542C1.06373 11.6938 1.33085 11.1757 1.71822 10.7544C2.10559 10.3331 2.59893 10.0241 3.14647 9.85975C3.69402 9.69541 4.2756 9.6818 4.8302 9.82037L6.84529 12.3304C6.88807 12.3821 6.94177 12.4236 7.00252 12.4519C7.06327 12.4802 7.12954 12.4946 7.19653 12.494C7.26375 12.4923 7.32968 12.4752 7.38925 12.4439C7.44881 12.4127 7.50042 12.3681 7.54007 12.3137L9.18599 10.0508L10.2893 9.85553C10.8484 9.69066 11.442 9.68277 12.0053 9.83274C12.5686 9.9827 13.08 10.2848 13.4839 10.706C13.8878 11.1273 14.1686 11.6515 14.2957 12.2217C14.4229 12.7919 14.3915 13.3861 14.2049 13.9397H14.2049ZM17.6874 1.31585H9.18861C8.98785 0.85411 8.63455 0.47579 8.18816 0.244561C7.74177 0.0133328 7.22954 -0.056687 6.73769 0.0462862C6.24583 0.14926 5.80438 0.418939 5.48763 0.809938C5.17087 1.20094 4.99815 1.68938 4.99854 2.19307V5.70196C4.9985 5.75957 5.0098 5.81662 5.03178 5.86985C5.05375 5.92308 5.08598 5.97145 5.12662 6.01218C5.16725 6.05292 5.2155 6.08523 5.2686 6.10726C5.3217 6.12929 5.37861 6.14061 5.43608 6.14058H6.74872V8.33363C6.74872 8.44996 6.79482 8.56152 6.87687 8.64378C6.95893 8.72603 7.07022 8.77224 7.18627 8.77224C7.30231 8.77224 7.4136 8.72603 7.49566 8.64378C7.57771 8.56152 7.62381 8.44996 7.62381 8.33363V6.14058H8.93645C8.99392 6.14061 9.05083 6.12929 9.10393 6.10726C9.15703 6.08523 9.20528 6.05292 9.24591 6.01218C9.28655 5.97145 9.31878 5.92308 9.34076 5.86985C9.36273 5.81662 9.37403 5.75957 9.37399 5.70196V3.94752H17.6874C18.0355 3.94752 18.3694 3.80889 18.6155 3.56212C18.8617 3.31535 19 2.98067 19 2.63169C19 2.2827 18.8617 1.94802 18.6155 1.70125C18.3694 1.45448 18.0355 1.31585 17.6874 1.31585H17.6874ZM8.49891 3.50891V5.26335H5.87364V2.19307C5.87364 1.84409 6.01193 1.50941 6.2581 1.26264C6.50427 1.01587 6.83814 0.87724 7.18627 0.87724C7.53441 0.87724 7.86828 1.01587 8.11445 1.26264C8.36062 1.50941 8.49891 1.84409 8.49891 2.19307V3.50891ZM17.6874 3.0703H9.374V2.19307H17.6874C17.8034 2.19307 17.9147 2.23928 17.9968 2.32154C18.0788 2.4038 18.1249 2.51536 18.1249 2.63169C18.1249 2.74801 18.0788 2.85957 17.9968 2.94183C17.9147 3.02409 17.8034 3.0703 17.6874 3.0703Z" fill="#363636"/>
</svg>
