<svg width="24" height="28" viewBox="0 0 24 28" fill="none" xmlns="http://www.w3.org/2000/svg">
<path d="M5.82584 22.7492C5.73925 22.7492 5.6546 22.7748 5.58261 22.8229C5.51061 22.871 5.45449 22.9393 5.42135 23.0193C5.38822 23.0992 5.37955 23.1872 5.39644 23.2721C5.41333 23.357 5.45503 23.4349 5.51626 23.4961C5.57749 23.5573 5.6555 23.599 5.74043 23.6159C5.82536 23.6327 5.91339 23.6241 5.99339 23.591C6.07339 23.5578 6.14176 23.5018 6.18987 23.4298C6.23798 23.3579 6.26366 23.2733 6.26366 23.1867C6.26366 23.0707 6.21753 22.9594 6.13542 22.8773C6.05332 22.7953 5.94196 22.7492 5.82584 22.7492ZM6.70147 19.2488C6.61488 19.2488 6.53023 19.2745 6.45823 19.3226C6.38624 19.3707 6.33012 19.439 6.29698 19.5189C6.26385 19.5989 6.25518 19.6869 6.27207 19.7717C6.28896 19.8566 6.33066 19.9346 6.39189 19.9958C6.45312 20.057 6.53113 20.0986 6.61606 20.1155C6.70099 20.1324 6.78902 20.1237 6.86902 20.0906C6.94902 20.0575 7.01739 20.0014 7.0655 19.9295C7.11361 19.8575 7.13929 19.7729 7.13929 19.6864C7.13929 19.5703 7.09316 19.459 7.01105 19.377C6.92895 19.2949 6.81759 19.2488 6.70147 19.2488ZM10.204 16.6236C10.1174 16.6236 10.0327 16.6492 9.96075 16.6973C9.88875 16.7454 9.83264 16.8137 9.7995 16.8937C9.76636 16.9736 9.75769 17.0616 9.77459 17.1465C9.79148 17.2314 9.83318 17.3093 9.89441 17.3705C9.95564 17.4317 10.0336 17.4734 10.1186 17.4903C10.2035 17.5071 10.2915 17.4985 10.3715 17.4654C10.4515 17.4322 10.5199 17.3762 10.568 17.3042C10.6161 17.2322 10.6418 17.1477 10.6418 17.0611C10.6418 16.9451 10.5957 16.8338 10.5136 16.7517C10.4315 16.6697 10.3201 16.6236 10.204 16.6236ZM13.7065 16.6236C13.6199 16.6236 13.5353 16.6492 13.4633 16.6973C13.3913 16.7454 13.3352 16.8137 13.302 16.8937C13.2689 16.9736 13.2602 17.0616 13.2771 17.1465C13.294 17.2314 13.3357 17.3093 13.3969 17.3705C13.4582 17.4317 13.5362 17.4734 13.6211 17.4903C13.706 17.5071 13.794 17.4985 13.874 17.4654C13.954 17.4322 14.0224 17.3762 14.0705 17.3042C14.1186 17.2322 14.1443 17.1477 14.1443 17.0611C14.1443 17.0037 14.133 16.9468 14.111 16.8937C14.089 16.8406 14.0567 16.7924 14.0161 16.7517C13.9754 16.7111 13.9272 16.6789 13.874 16.6569C13.8209 16.6349 13.764 16.6236 13.7065 16.6236ZM4.95021 16.6236C4.86362 16.6236 4.77897 16.6492 4.70698 16.6973C4.63498 16.7454 4.57886 16.8137 4.54573 16.8937C4.51259 16.9736 4.50392 17.0616 4.52081 17.1465C4.5377 17.2314 4.5794 17.3093 4.64063 17.3705C4.70186 17.4317 4.77987 17.4734 4.8648 17.4903C4.94973 17.5071 5.03776 17.4985 5.11776 17.4654C5.19776 17.4322 5.26613 17.3762 5.31424 17.3042C5.36235 17.2322 5.38803 17.1477 5.38803 17.0611C5.38803 17.0037 5.3767 16.9468 5.3547 16.8937C5.3327 16.8406 5.30045 16.7924 5.25979 16.7517C5.21914 16.7111 5.17088 16.6789 5.11776 16.6569C5.06464 16.6349 5.00771 16.6236 4.95021 16.6236ZM4.07458 20.1239C3.98799 20.1239 3.90335 20.1496 3.83135 20.1977C3.75935 20.2457 3.70323 20.3141 3.6701 20.394C3.63696 20.474 3.62829 20.562 3.64518 20.6468C3.66208 20.7317 3.70377 20.8097 3.765 20.8709C3.82623 20.932 3.90424 20.9737 3.98917 20.9906C4.0741 21.0075 4.16213 20.9988 4.24213 20.9657C4.32213 20.9326 4.39051 20.8765 4.43861 20.8046C4.48672 20.7326 4.5124 20.648 4.5124 20.5615C4.5124 20.504 4.50107 20.4471 4.47907 20.394C4.45707 20.3409 4.42482 20.2927 4.38417 20.2521C4.34351 20.2114 4.29525 20.1792 4.24213 20.1572C4.18901 20.1352 4.13208 20.1239 4.07458 20.1239ZM7.5771 15.7485C7.49051 15.7485 7.40586 15.7741 7.33386 15.8222C7.26187 15.8703 7.20575 15.9386 7.17261 16.0186C7.13947 16.0985 7.13081 16.1865 7.1477 16.2714C7.16459 16.3563 7.20629 16.4342 7.26752 16.4954C7.32875 16.5566 7.40676 16.5983 7.49169 16.6152C7.57661 16.632 7.66464 16.6234 7.74464 16.5903C7.82464 16.5571 7.89302 16.5011 7.94113 16.4291C7.98924 16.3572 8.01491 16.2726 8.01491 16.186C8.01491 16.1286 8.00359 16.0717 7.98159 16.0186C7.95959 15.9655 7.92734 15.9173 7.88668 15.8766C7.84603 15.836 7.79776 15.8038 7.74464 15.7818C7.69153 15.7598 7.63459 15.7485 7.5771 15.7485ZM18.9603 19.2488C18.8737 19.2488 18.789 19.2745 18.717 19.3226C18.645 19.3707 18.5889 19.439 18.5558 19.5189C18.5227 19.5989 18.514 19.6869 18.5309 19.7717C18.5478 19.8566 18.5895 19.9346 18.6507 19.9958C18.7119 20.057 18.7899 20.0986 18.8749 20.1155C18.9598 20.1324 19.0478 20.1237 19.1278 20.0906C19.2078 20.0575 19.2762 20.0014 19.3243 19.9295C19.3724 19.8575 19.3981 19.7729 19.3981 19.6864C19.3981 19.6289 19.3868 19.572 19.3648 19.5189C19.3428 19.4659 19.3105 19.4176 19.2699 19.377C19.2292 19.3364 19.1809 19.3041 19.1278 19.2821C19.0747 19.2602 19.0178 19.2488 18.9603 19.2488ZM17.209 18.3737C17.2956 18.3737 17.3803 18.3481 17.4523 18.3C17.5243 18.2519 17.5804 18.1836 17.6135 18.1036C17.6466 18.0237 17.6553 17.9357 17.6384 17.8508C17.6215 17.766 17.5798 17.688 17.5186 17.6268C17.4574 17.5656 17.3794 17.5239 17.2944 17.5071C17.2095 17.4902 17.1215 17.4988 17.0415 17.532C16.9615 17.5651 16.8931 17.6212 16.845 17.6931C16.7969 17.7651 16.7712 17.8497 16.7712 17.9362C16.7712 18.0522 16.8173 18.1635 16.8994 18.2456C16.9815 18.3276 17.0929 18.3737 17.209 18.3737ZM23.766 5.08205L23.4068 4.5219C23.2868 4.33574 23.1259 4.17936 22.9363 4.06461C22.7468 3.94987 22.5336 3.87978 22.3129 3.85966C21.8029 2.46555 20.7826 1.31677 19.458 0.64532C18.1334 -0.026128 16.6032 -0.170209 15.1764 0.242175L12.5504 1.01813L12.411 1.05531C11.8281 1.22522 11.2087 1.22553 10.6256 1.05618L7.85757 0.241754C7.04996 -0.000418187 6.19885 -0.061613 5.36487 0.0625296C4.53089 0.186672 3.73457 0.493097 3.03264 0.959974C2.88975 0.904607 2.73822 0.874828 2.58499 0.872001H1.31344C0.965215 0.872381 0.631356 1.0108 0.38512 1.25688C0.138884 1.50296 0.000381352 1.83662 1.24291e-06 2.18463V3.51948C-0.000266988 3.71409 0.0428829 3.90631 0.12631 4.08215C0.209738 4.258 0.331344 4.41304 0.48228 4.536L0.52995 4.57483C0.292963 5.61057 0.348997 6.69178 0.691783 7.69752L2.58242 13.2997C2.80201 13.9394 2.80981 14.6327 2.60466 15.2772C2.59953 15.2891 2.56876 15.3626 2.56447 15.3754C1.99388 17.1169 1.77838 18.955 1.93069 20.7811C2.083 22.6072 2.60004 24.3843 3.45124 26.0073L4.04808 27.1383C4.18543 27.3984 4.39128 27.6161 4.64341 27.7679C4.89554 27.9196 5.18436 27.9996 5.47867 27.9993L5.52827 27.9984C5.83008 27.9897 6.12339 27.8966 6.37479 27.7295C6.6262 27.5624 6.8256 27.3281 6.95029 27.0532L9.94487 20.5251C10.0836 20.225 10.3055 19.9709 10.5841 19.7928C10.8628 19.6147 11.1866 19.5201 11.5174 19.5201C11.8482 19.5201 12.172 19.6147 12.4507 19.7928C12.7294 19.9709 12.9512 20.225 13.09 20.5251L16.0845 27.0536C16.2093 27.3284 16.4088 27.5625 16.6602 27.7296C16.9115 27.8966 17.2048 27.9897 17.5066 27.9984C17.8102 28.0121 18.1114 27.9382 18.374 27.7853C18.6367 27.6325 18.8497 27.4072 18.9876 27.1365L19.5494 26.0769C20.5929 24.0924 21.1389 21.8845 21.1408 19.6427C21.144 18.1688 20.9087 16.7041 20.4438 15.3053C20.2264 14.6534 20.2294 13.948 20.4524 13.2979L22.1671 8.21512L22.739 7.89316C22.9327 7.78402 23.0994 7.63255 23.2264 7.45006L23.7352 6.72076C23.9022 6.48139 23.9943 6.19785 23.9997 5.9061C24.0052 5.61435 23.9239 5.32754 23.766 5.08208V5.08205ZM0.87563 3.51948V2.18463C0.875781 2.06863 0.921956 1.95743 1.00403 1.87541C1.0861 1.79339 1.19738 1.74724 1.31344 1.74709H2.58499C2.65854 1.74686 2.73095 1.76519 2.79553 1.80037C2.8601 1.83556 2.91475 1.88646 2.9544 1.94836L3.25626 2.42091C3.30308 2.49357 3.32726 2.57849 3.32574 2.6649C3.32422 2.75132 3.29706 2.83534 3.2477 2.90631L2.82015 3.52032C2.78172 3.57454 2.73179 3.61963 2.67392 3.65235L1.8171 4.13562C1.74021 4.17871 1.65214 4.19772 1.56432 4.19018C1.47649 4.18263 1.39296 4.14889 1.32456 4.09332L1.0364 3.85835C0.986105 3.81734 0.945584 3.76565 0.917776 3.70703C0.889968 3.64842 0.875571 3.58435 0.87563 3.51948ZM18.7756 25.6684L18.2155 26.7255C18.1496 26.8484 18.051 26.9506 17.9306 27.0209C17.8101 27.0912 17.6725 27.1268 17.5331 27.1238C17.3941 27.1207 17.2588 27.0781 17.1431 27.001C17.0274 26.9239 16.9361 26.8154 16.8798 26.6884L13.8852 20.1602C13.6767 19.7079 13.3429 19.3248 12.9232 19.0563C12.5036 18.7878 12.0157 18.645 11.5174 18.645C11.0191 18.645 10.5313 18.7878 10.1116 19.0563C9.692 19.3248 9.35815 19.7079 9.14964 20.1602L6.15506 26.6879C6.09885 26.8151 6.00755 26.9236 5.89185 27.0008C5.77615 27.078 5.64084 27.1206 5.50176 27.1237C5.36303 27.1258 5.22635 27.0901 5.10642 27.0204C4.98649 26.9507 4.88785 26.8496 4.8211 26.7281L4.22594 25.5992C3.43118 24.0865 2.94709 22.4302 2.80215 20.7278C2.65721 19.0254 2.85434 17.3113 3.38195 15.6861C3.38708 15.6737 3.41873 15.5994 3.423 15.5861C3.58692 15.0738 3.64768 14.5342 3.60177 13.9983H5.28627C5.89909 13.9981 6.50797 14.0962 7.08969 14.2888C8.27915 14.6829 9.55627 14.7305 10.7718 14.426L11.042 14.3585C11.9535 14.1314 12.9067 14.1308 13.8185 14.3567L14.4402 14.5114C15.43 14.7557 16.4628 14.7695 17.4587 14.5516L19.4223 14.1192C19.3954 14.6139 19.4599 15.1092 19.6128 15.5805C20.0478 16.8906 20.2681 18.2624 20.2652 19.6427C20.2636 21.7421 19.7524 23.8098 18.7756 25.6684ZM19.623 13.0168C19.6037 13.0733 19.5962 13.1317 19.5795 13.1887L17.8896 13.5608H14.2444L14.0297 13.5074C12.9789 13.2472 11.8803 13.248 10.8299 13.5099L10.6264 13.5608H7.76902C7.63423 13.5269 7.49779 13.5021 7.36504 13.4583C6.69453 13.2361 5.99268 13.123 5.2863 13.1233H3.43839C3.42759 13.0887 3.42358 13.0529 3.41188 13.0186L1.52124 7.41849C1.25919 6.64792 1.19341 5.82424 1.32985 5.02188C1.41826 5.04692 1.50907 5.06251 1.60077 5.0684C1.82706 5.06808 2.04944 5.00937 2.24638 4.89795L3.1049 4.41427L3.10665 4.41384C3.27804 4.3163 3.42553 4.18185 3.53844 4.02024L3.96599 3.4058C4.11469 3.19321 4.1967 2.9412 4.20157 2.68186C4.20645 2.42253 4.13396 2.16762 3.99335 1.9496L3.73504 1.54522C4.31401 1.2048 4.95722 0.987844 5.62419 0.908014C6.29116 0.828185 6.96745 0.88721 7.61048 1.08137L10.3793 1.89621C10.6173 1.96229 10.8607 2.00673 11.1066 2.02899C10.5582 2.60204 10.1761 3.31343 10.0013 4.08692C9.97623 4.20019 9.99717 4.31878 10.0595 4.41662C10.1219 4.51446 10.2206 4.58353 10.334 4.60864C10.3652 4.61534 10.397 4.61878 10.4289 4.6189C10.5286 4.6188 10.6252 4.58476 10.703 4.52238C10.7807 4.46 10.8348 4.37302 10.8564 4.27577C10.9763 3.74455 11.2177 3.24832 11.5617 2.82601C11.9058 2.40371 12.343 2.06682 12.8392 1.84177L15.4244 1.08132C16.5805 0.745131 17.8193 0.839531 18.911 1.347C20.0027 1.85447 20.8731 2.74054 21.3607 3.84075H20.6525C20.2608 3.84114 19.8852 3.99685 19.6081 4.2737C19.3311 4.55055 19.1753 4.92593 19.1749 5.31746V6.9019C19.1747 7.12099 19.2234 7.33737 19.3175 7.53526C19.4116 7.73315 19.5487 7.90755 19.7188 8.04576L20.0608 8.32478C20.3234 8.54064 20.6528 8.65887 20.9929 8.65934C21.0281 8.65934 21.0628 8.64839 21.098 8.64583L19.623 13.0168ZM23.016 6.22123L22.5073 6.95105C22.4556 7.02492 22.3881 7.08637 22.3097 7.13094L21.6112 7.52385L21.6102 7.52439L21.2896 7.70476C21.1846 7.7649 21.0638 7.79159 20.9432 7.78129C20.8227 7.77098 20.7081 7.72416 20.6149 7.64708L20.2729 7.36805C20.2034 7.31177 20.1475 7.24072 20.109 7.16008C20.0705 7.07944 20.0506 6.99124 20.0505 6.9019V5.31751C20.0508 5.15803 20.1143 5.00514 20.2271 4.89236C20.34 4.77959 20.493 4.71613 20.6525 4.71589H22.1627C22.2637 4.71561 22.3632 4.74089 22.4519 4.78938C22.5405 4.83787 22.6155 4.90798 22.6697 4.9932L23.0289 5.55423C23.093 5.65419 23.1261 5.77093 23.1238 5.88967C23.1215 6.00841 23.084 6.1238 23.0161 6.22123H23.016ZM18.0846 21.8741C17.9981 21.8741 17.9134 21.8998 17.8414 21.9478C17.7694 21.9959 17.7133 22.0642 17.6802 22.1442C17.647 22.2241 17.6384 22.3121 17.6552 22.397C17.6721 22.4819 17.7138 22.5598 17.7751 22.621C17.8363 22.6822 17.9143 22.7239 17.9992 22.7408C18.0842 22.7577 18.1722 22.749 18.2522 22.7159C18.3322 22.6828 18.4006 22.6267 18.4487 22.5547C18.4968 22.4828 18.5225 22.3982 18.5225 22.3116C18.5225 22.1956 18.4763 22.0843 18.3942 22.0022C18.3121 21.9202 18.2008 21.8741 18.0846 21.8741ZM17.209 23.6243C17.1224 23.6243 17.0378 23.6499 16.9658 23.698C16.8938 23.7461 16.8377 23.8144 16.8045 23.8944C16.7714 23.9743 16.7627 24.0623 16.7796 24.1472C16.7965 24.232 16.8382 24.31 16.8994 24.3712C16.9607 24.4324 17.0387 24.4741 17.1236 24.4909C17.2085 24.5078 17.2966 24.4992 17.3766 24.4661C17.4566 24.4329 17.5249 24.3769 17.573 24.3049C17.6212 24.2329 17.6468 24.1484 17.6468 24.0618C17.6468 23.9458 17.6007 23.8345 17.5186 23.7524C17.4365 23.6704 17.3251 23.6243 17.209 23.6243ZM16.3334 16.6236C16.42 16.6236 16.5046 16.5979 16.5766 16.5498C16.6486 16.5018 16.7047 16.4334 16.7379 16.3535C16.771 16.2735 16.7797 16.1855 16.7628 16.1007C16.7459 16.0158 16.7042 15.9378 16.643 15.8766C16.5817 15.8154 16.5037 15.7738 16.4188 15.7569C16.3339 15.74 16.2458 15.7487 16.1658 15.7818C16.0858 15.8149 16.0175 15.871 15.9694 15.9429C15.9213 16.0149 15.8956 16.0995 15.8956 16.186C15.8956 16.3021 15.9417 16.4134 16.0238 16.4954C16.1059 16.5775 16.2173 16.6236 16.3334 16.6236ZM16.3334 20.1239C16.2468 20.1239 16.1622 20.1496 16.0902 20.1977C16.0182 20.2457 15.962 20.3141 15.9289 20.394C15.8958 20.474 15.8871 20.562 15.904 20.6468C15.9209 20.7317 15.9626 20.8097 16.0238 20.8709C16.085 20.932 16.1631 20.9737 16.248 20.9906C16.3329 21.0075 16.4209 20.9988 16.5009 20.9657C16.5809 20.9326 16.6493 20.8765 16.6974 20.8046C16.7455 20.7326 16.7712 20.648 16.7712 20.5615C16.7712 20.4454 16.7251 20.3341 16.643 20.2521C16.5609 20.17 16.4495 20.1239 16.3334 20.1239Z" fill="#363636"/>
</svg>
