<svg width="31" height="31" viewBox="0 0 31 31" fill="none" xmlns="http://www.w3.org/2000/svg">
<path d="M25.6063 19.3486H16.7031C16.6552 19.0392 16.6795 18.7229 16.7741 18.4245L18.1314 14.4001C18.4748 13.3901 18.4339 12.2889 18.0166 11.3072C17.5993 10.3254 16.8347 9.53194 15.8692 9.07849C15.8331 8.96637 15.7848 8.85855 15.7251 8.75698L15.3303 8.1403C15.1839 7.91045 14.9817 7.72134 14.7426 7.59052C14.5035 7.45971 14.2353 7.39142 13.9627 7.39202H12.3028C11.8724 7.3925 11.4597 7.56368 11.1553 7.86803C10.8509 8.17237 10.6797 8.58503 10.6791 9.0155V9.43306C10.3281 9.52273 9.95949 9.5165 9.61175 9.41502L7.62707 8.82654C6.86274 8.60335 6.05185 8.59404 5.2826 8.79962C4.51334 9.0052 3.81518 9.41781 3.26405 9.99256C2.71291 10.5673 2.32991 11.2822 2.1567 12.0595C1.98349 12.8368 2.0267 13.6466 2.28163 14.4011L3.63936 18.4274C3.77122 18.8233 3.78105 19.2498 3.66756 19.6515C2.62961 20.0121 1.72906 20.6858 1.09009 21.5798C0.451119 22.4738 0.105192 23.5441 0.100006 24.643L0.100006 28.4935C0.100676 29.1315 0.354406 29.7432 0.80552 30.1944C1.25663 30.6456 1.86828 30.8993 2.50626 30.9H28.4938C29.1317 30.8993 29.7434 30.6456 30.1945 30.1944C30.6456 29.7432 30.8993 29.1315 30.9 28.4935V24.643C30.8983 23.2393 30.3401 21.8936 29.3477 20.9011C28.3553 19.9086 27.0097 19.3502 25.6063 19.3486ZM11.6415 9.01551C11.6417 8.84021 11.7115 8.67216 11.8355 8.54825C11.9594 8.42435 12.1275 8.35472 12.3028 8.35465H13.9627C14.0738 8.35435 14.1831 8.38212 14.2805 8.43537C14.378 8.48861 14.4604 8.56562 14.5201 8.65923L14.9144 9.27591C14.9852 9.38589 15.0216 9.51446 15.019 9.64523C15.0164 9.776 14.9749 9.90303 14.8998 10.0101L14.3434 10.811C14.2867 10.8927 14.2124 10.9605 14.1258 11.0093L14.1239 11.0103L13.0035 11.642C12.8879 11.7084 12.7547 11.7378 12.6219 11.7264C12.4891 11.715 12.363 11.6632 12.2604 11.5781L11.8849 11.2716C11.8087 11.2098 11.7474 11.1317 11.7052 11.043C11.6631 10.9544 11.6413 10.8575 11.6415 10.7593L11.6415 9.01551ZM3.19383 14.0937C2.99508 13.5062 2.96121 12.8755 3.0959 12.2701C3.23059 11.6647 3.52868 11.1078 3.95775 10.66C4.38682 10.2122 4.93044 9.89068 5.52949 9.73035C6.12854 9.57001 6.76008 9.57703 7.35542 9.75063L9.33728 10.3382C9.42047 10.363 9.50547 10.3764 9.58983 10.394C9.28191 10.7812 9.06516 11.2329 8.95567 11.7154C8.94199 11.7771 8.94061 11.841 8.9516 11.9033C8.9626 11.9655 8.98575 12.0251 9.01975 12.0784C9.05375 12.1317 9.09792 12.1779 9.14974 12.2141C9.20157 12.2504 9.26002 12.2761 9.32178 12.2897C9.35606 12.2972 9.39103 12.301 9.42611 12.301C9.53553 12.3008 9.64163 12.2634 9.72696 12.1949C9.81228 12.1264 9.87176 12.0309 9.89561 11.9241C10.0101 11.4247 10.2854 10.9767 10.6791 10.6488V10.7593C10.6787 11.0004 10.7321 11.2385 10.8354 11.4562C10.9388 11.674 11.0894 11.866 11.2764 12.0181L11.6524 12.3245C11.9049 12.5322 12.2144 12.6583 12.5401 12.6862C12.8658 12.7141 13.1923 12.6424 13.4763 12.4806L14.5962 11.8488C14.8094 11.7288 14.9928 11.5624 15.1329 11.3619L15.6898 10.56C15.7686 10.4429 15.8317 10.316 15.8775 10.1825C16.5047 10.5916 16.9774 11.1985 17.2205 11.9069C17.4635 12.6153 17.4631 13.3846 17.2191 14.0927L15.8633 18.1134C15.6574 18.712 15.6449 19.3601 15.8275 19.9662H15.828C15.8344 19.9976 15.8424 20.0287 15.852 20.0593C16.2346 21.2235 16.3789 22.4528 16.2763 23.6739C16.1736 24.8951 15.8262 26.0831 15.2546 27.1671L14.8632 27.9313C14.8328 27.9926 14.7848 28.0433 14.7253 28.077C14.6658 28.1107 14.5976 28.1258 14.5295 28.1203C14.4607 28.1199 14.3935 28.0996 14.336 28.0619C14.2784 28.0243 14.233 27.9707 14.2052 27.9078L12.0579 23.2179C11.8936 22.8649 11.6319 22.5662 11.3036 22.357C10.9753 22.1479 10.5941 22.0369 10.2048 22.0372C9.81554 22.0375 9.43446 22.149 9.10647 22.3587C8.77848 22.5684 8.51725 22.8675 8.35356 23.2207L6.20681 27.9088C6.17894 27.9715 6.13355 28.0248 6.07611 28.0623C6.01866 28.0999 5.9516 28.12 5.88299 28.1203C5.81558 28.127 5.74774 28.1129 5.68853 28.08C5.62932 28.0471 5.58158 27.9968 5.55166 27.9361L5.12587 27.1126C4.57035 26.0624 4.22899 24.9123 4.12161 23.7291C4.01422 22.5459 4.14296 21.3531 4.50034 20.2201C4.51959 20.1796 4.53277 20.1402 4.51539 20.1702C4.5262 20.1486 4.55485 20.0772 4.56239 20.0537C4.76928 19.4237 4.76499 18.7435 4.55016 18.1162L3.19383 14.0937ZM29.9375 28.4935C29.9371 28.8763 29.7848 29.2433 29.5142 29.514C29.2435 29.7847 28.8765 29.937 28.4938 29.9374H2.50626C2.12348 29.937 1.7565 29.7847 1.48583 29.514C1.21517 29.2433 1.06292 28.8763 1.06251 28.4935V24.643C1.06639 23.8619 1.28053 23.0963 1.68242 22.4265C2.08432 21.7568 2.65915 21.2077 3.34652 20.8369C2.85882 23.117 3.18681 25.496 4.2733 27.559L4.69956 28.3825C4.812 28.5953 4.98057 28.7731 5.18696 28.8967C5.39335 29.0204 5.62968 29.0851 5.87026 29.0838L5.91302 29.0829C6.16102 29.0767 6.40227 29.0008 6.60909 28.8638C6.81591 28.7268 6.97992 28.5342 7.08231 28.3082L9.22772 23.6239C9.31434 23.4377 9.45228 23.2801 9.62536 23.1695C9.79844 23.0589 9.99946 23 10.2048 22.9997C10.4102 22.9994 10.6114 23.0577 10.7848 23.1678C10.9582 23.2779 11.0966 23.4351 11.1837 23.6211L13.3296 28.3073C13.4332 28.533 13.5979 28.7253 13.805 28.8623C14.0121 28.9994 14.2533 29.0758 14.5016 29.0829C14.7498 29.09 14.9951 29.0276 15.2097 28.9027C15.4243 28.7778 15.5997 28.5953 15.7161 28.3759L16.1072 27.6135C17.2939 25.3706 17.5857 22.7609 16.9237 20.3112H25.6063C26.7546 20.3124 27.8555 20.7692 28.6675 21.5813C29.4795 22.3934 29.9363 23.4945 29.9375 24.643V28.4935ZM16.8653 7.73045C16.9285 7.73052 16.9911 7.71811 17.0495 7.69391C17.1079 7.66971 17.1609 7.63421 17.2055 7.58944L18.9074 5.88782L19.9281 6.90884C19.9727 6.95354 20.0258 6.989 20.0842 7.01319C20.1426 7.03738 20.2051 7.04984 20.2683 7.04984C20.3315 7.04984 20.3941 7.03738 20.4525 7.01319C20.5108 6.989 20.5639 6.95354 20.6086 6.90884L21.9695 5.54751L28.4355 12.0133C28.7064 12.2832 29.0733 12.4346 29.4557 12.4342C29.8381 12.4338 30.2047 12.2818 30.475 12.0113C30.7454 11.7409 30.8975 11.3743 30.8979 10.9919C30.8982 10.6094 30.7469 10.2425 30.477 9.97154L23.8674 3.36065C24.0397 2.92551 24.0807 2.44942 23.9854 1.99122C23.8901 1.53302 23.6626 1.1128 23.3311 0.782485C22.8729 0.344456 22.2635 0.100006 21.6296 0.100006C20.9957 0.100006 20.3863 0.344456 19.9281 0.782485L17.2056 3.50489C17.1609 3.54957 17.1254 3.60262 17.1012 3.661C17.077 3.71939 17.0646 3.78197 17.0646 3.84517C17.0646 3.90837 17.077 3.97095 17.1012 4.02934C17.1254 4.08773 17.1609 4.14078 17.2056 4.18546L18.2269 5.20713L16.525 6.90884C16.4577 6.97616 16.4119 7.06191 16.3933 7.15527C16.3748 7.24862 16.3843 7.34539 16.4207 7.43333C16.4571 7.52127 16.5188 7.59643 16.5979 7.64932C16.6771 7.70221 16.7701 7.73044 16.8653 7.73046V7.73045ZM29.7965 10.6522C29.8853 10.7427 29.9347 10.8646 29.934 10.9914C29.9334 11.1182 29.8827 11.2396 29.7931 11.3293C29.7035 11.419 29.582 11.4696 29.4553 11.4703C29.3285 11.4709 29.2066 11.4215 29.116 11.3327L22.6501 4.86703L23.3311 4.1855L29.7965 10.6522ZM18.2263 3.84519L20.6086 1.46311C20.8837 1.20063 21.2494 1.05419 21.6296 1.05419C22.0098 1.05419 22.3755 1.20063 22.6506 1.46311C22.9211 1.73397 23.0731 2.10116 23.0731 2.48401C23.0731 2.86686 22.9211 3.23406 22.6506 3.50492L20.2683 5.88794L18.2263 3.84519Z" fill="#363636"/>
</svg>
