<svg width="25" height="26" viewBox="0 0 25 26" fill="none" xmlns="http://www.w3.org/2000/svg">
<path d="M9.8797 0.0282483C9.4452 0.011742 9.01197 0.0841173 8.60789 0.240716C8.20381 0.397315 7.83783 0.634668 7.53351 0.9375C7.22669 1.23683 6.98577 1.59407 6.82549 1.98736C6.66522 2.38064 6.58897 2.80168 6.6014 3.2247C6.62553 4.09329 6.99129 4.91957 7.62297 5.53248C8.25466 6.14539 9.10388 6.49799 9.99482 6.51726V9.83278C9.75192 9.91621 9.54146 10.0709 9.39233 10.2756C9.2432 10.4803 9.16271 10.725 9.16192 10.9761V24.7818C9.16192 25.1049 9.29355 25.4148 9.52785 25.6432C9.76215 25.8717 10.0799 26 10.4113 26C10.7426 26 11.0604 25.8717 11.2947 25.6432C11.529 25.4148 11.6606 25.1049 11.6606 24.7818V10.9761C11.6598 10.725 11.5793 10.4803 11.4302 10.2756C11.2811 10.0709 11.0706 9.91621 10.8277 9.83278V6.42286C11.3959 6.29441 11.9164 6.01474 12.3313 5.61497C12.9433 4.9941 13.2778 4.16192 13.2615 3.30091C13.2452 2.4399 12.8794 1.62034 12.2442 1.02193C11.618 0.404359 10.7702 0.0480853 9.8797 0.0282483ZM10.8277 24.7819C10.8277 24.8896 10.7838 24.9929 10.7057 25.069C10.6276 25.1452 10.5217 25.1879 10.4112 25.1879C10.3008 25.1879 10.1949 25.1452 10.1168 25.069C10.0387 24.9929 9.99479 24.8896 9.99479 24.7819V14.6306H10.8277V24.7819ZM10.8277 13.8185H9.99479V10.9762C9.99479 10.8685 10.0387 10.7652 10.1168 10.6891C10.1949 10.6129 10.3008 10.5701 10.4112 10.5701C10.5217 10.5701 10.6276 10.6129 10.7057 10.6891C10.7838 10.7652 10.8277 10.8685 10.8277 10.9762V13.8185ZM11.7423 5.04083C11.2618 5.48541 10.6201 5.72613 9.9579 5.71022C9.29567 5.69431 8.66691 5.42308 8.20942 4.95597C7.72853 4.4931 7.45065 3.86632 7.4343 3.20765C7.42413 2.89849 7.47819 2.59051 7.59321 2.30224C7.70824 2.01397 7.88186 1.75135 8.10364 1.53018C8.32543 1.30901 8.59079 1.13385 8.88378 1.01523C9.17677 0.896617 9.49133 0.836992 9.80856 0.839943C9.82645 0.839943 9.84437 0.839943 9.86224 0.840341C10.5378 0.856102 11.1807 1.12708 11.6553 1.59613C12.1343 2.04225 12.4124 2.65529 12.4287 3.30095C12.445 3.94661 12.1982 4.57226 11.7423 5.04083ZM17.4909 9.83279V2.04303C17.4909 1.98971 17.4801 1.9369 17.4592 1.88764C17.4383 1.83838 17.4076 1.79363 17.3689 1.75594L15.7031 0.131734C15.6247 0.0568629 15.5192 0.015167 15.4095 0.0157073C15.2998 0.0162475 15.1948 0.0589803 15.1172 0.13462C15.0396 0.210259 14.9958 0.312693 14.9952 0.419661C14.9947 0.52663 15.0374 0.62949 15.1142 0.705889L16.658 2.21113V9.83276C16.4151 9.91618 16.2047 10.0709 16.0555 10.2756C15.9064 10.4803 15.8259 10.725 15.8251 10.9761V24.7818C15.8251 25.1049 15.9568 25.4147 16.1911 25.6432C16.4254 25.8716 16.7431 26 17.0745 26C17.4058 26 17.7236 25.8716 17.9579 25.6432C18.1922 25.4147 18.3238 25.1049 18.3238 24.7818V10.9761C18.323 10.725 18.2425 10.4803 18.0934 10.2756C17.9443 10.0709 17.7338 9.9162 17.4909 9.83278V9.83279ZM17.4909 24.7819C17.4909 24.8895 17.447 24.9928 17.3689 25.069C17.2908 25.1451 17.1849 25.1879 17.0744 25.1879C16.964 25.1879 16.8581 25.1451 16.78 25.069C16.7019 24.9928 16.658 24.8895 16.658 24.7819V14.6306H17.4909V24.7819ZM17.4909 13.8185H16.658V10.9761C16.658 10.8685 16.7019 10.7652 16.78 10.689C16.8581 10.6129 16.964 10.5701 17.0744 10.5701C17.1849 10.5701 17.2908 10.6129 17.3689 10.689C17.447 10.7652 17.4909 10.8685 17.4909 10.9761V13.8185ZM3.48777 0.101605L1.40552 1.72581C1.35678 1.7639 1.31744 1.81219 1.29041 1.8671C1.26338 1.922 1.24935 1.98213 1.24935 2.04304V5.69749C1.14608 5.6975 1.04649 5.73491 0.969916 5.80246C0.893339 5.87002 0.845232 5.96291 0.834932 6.0631L0.0683227 13.5389C0.0486996 13.73 0.0498656 13.9249 0.0386382 14.1183C0.0263075 14.1525 0.0189158 14.1883 0.0166747 14.2246C0.0192105 14.2462 0.0236324 14.2677 0.0298928 14.2886C0.0210973 14.4838 0 14.6775 0 14.8725V24.3758C0 24.8066 0.175503 25.2197 0.487901 25.5243C0.800299 25.8289 1.224 26 1.6658 26C2.1076 26 2.5313 25.8289 2.8437 25.5243C3.1561 25.2197 3.3316 24.8066 3.3316 24.3758V14.8725C3.3316 14.6611 3.30948 14.4512 3.29917 14.2398C3.29937 14.2344 3.30231 14.2299 3.30231 14.2245C3.30231 14.2156 3.29763 14.2081 3.29707 14.1993C3.28564 13.9788 3.28564 13.7568 3.26327 13.5393L2.49667 6.0631C2.48637 5.96291 2.43826 5.87002 2.36168 5.80246C2.28511 5.73491 2.18552 5.6975 2.08225 5.69749V2.2381L4.00833 0.736059C4.05106 0.702732 4.08663 0.661526 4.11302 0.614794C4.13942 0.568061 4.15611 0.516718 4.16215 0.463695C4.1682 0.410672 4.16347 0.357008 4.14824 0.305766C4.13301 0.254525 4.10758 0.20671 4.0734 0.165051C4.03922 0.123392 3.99696 0.0887053 3.94903 0.0629713C3.9011 0.0372372 3.84844 0.0209598 3.79406 0.0150684C3.73968 0.00917693 3.68464 0.0137868 3.63209 0.0286349C3.57953 0.0434829 3.53049 0.0682783 3.48777 0.101605ZM2.4987 24.3758C2.4987 24.5912 2.41095 24.7977 2.25475 24.95C2.09855 25.1023 1.8867 25.1879 1.6658 25.1879C1.4449 25.1879 1.23305 25.1023 1.07685 24.95C0.920651 24.7977 0.8329 24.5912 0.8329 24.3758V21.9395H2.4987V24.3758ZM2.4987 14.8725V21.1274H0.8329V14.8725C0.8329 14.7917 0.843727 14.7115 0.845302 14.6306H2.48629C2.48787 14.7115 2.4987 14.7917 2.4987 14.8725ZM2.43441 13.6206C2.44117 13.6858 2.43888 13.7529 2.44458 13.8185H0.886988C0.892685 13.7528 0.890395 13.6856 0.897158 13.6202L1.62635 6.50958H1.70525L2.43441 13.6206ZM24.8996 5.85173L19.8762 0.14165C19.8113 0.0679558 19.7216 0.019358 19.6231 0.00467183C19.5247 -0.0100143 19.4241 0.010184 19.3397 0.061603C19.2552 0.113022 19.1924 0.192256 19.1627 0.284932C19.1331 0.377608 19.1384 0.477588 19.1779 0.566736L21.6684 6.19989L21.6631 14.1875C21.6618 14.2003 21.6554 14.2114 21.6554 14.2245C21.6554 14.2377 21.6618 14.2486 21.663 14.2613L21.6562 24.3746C21.6559 24.8054 21.8311 25.2186 22.1432 25.5234C22.4554 25.8283 22.879 25.9997 23.3208 26C23.7626 26.0003 24.1864 25.8295 24.499 25.5251C24.8117 25.2208 24.9875 24.8078 24.9878 24.377L25 6.11662C25.0001 6.01945 24.9645 5.92546 24.8996 5.85173ZM24.1549 24.3762C24.1548 24.5916 24.067 24.7981 23.9107 24.9503C23.7544 25.1025 23.5425 25.188 23.3216 25.1879C23.1007 25.1878 22.8889 25.1021 22.7328 24.9497C22.5767 24.7974 22.489 24.5908 22.4891 24.3754L22.4956 14.6306H24.1614L24.1549 24.3762ZM24.1621 13.8185H22.4962L22.5013 6.11662C22.5014 6.06123 22.4898 6.00641 22.4672 5.95562L21.0262 2.69612L24.1671 6.2665L24.1621 13.8185Z" fill="#363636"/>
</svg>
