<svg width="28" height="30" viewBox="0 0 28 30" fill="none" xmlns="http://www.w3.org/2000/svg">
<path d="M26.8358 3.78183L27.8588 2.78786C27.9036 2.74436 27.9391 2.69271 27.9633 2.63586C27.9875 2.57901 28 2.51808 28 2.45655C28 2.39502 27.9875 2.33409 27.9633 2.27724C27.9391 2.22039 27.9036 2.16874 27.8588 2.12524L25.8132 0.137273C25.7685 0.0937535 25.7153 0.0592307 25.6569 0.0356769C25.5984 0.0121232 25.5357 0 25.4724 0C25.4091 0 25.3464 0.0121232 25.2879 0.0356769C25.2294 0.0592307 25.1763 0.0937535 25.1316 0.137273L22.4047 2.78786C22.3599 2.83136 22.3244 2.88301 22.3002 2.93986C22.276 2.9967 22.2635 3.05763 22.2635 3.11917C22.2635 3.1807 22.276 3.24163 22.3002 3.29848C22.3244 3.35533 22.3599 3.40698 22.4047 3.45048L23.4885 4.50392L20.9806 8.16135C20.9207 8.24879 20.8928 8.35323 20.9013 8.45792C20.9098 8.56262 20.9543 8.66151 21.0275 8.73874C21.1007 8.81597 21.1984 8.86708 21.3051 8.88386C21.4117 8.90065 21.5211 8.88214 21.6157 8.83131L27.7519 5.51716C27.8172 5.4819 27.8731 5.43241 27.9153 5.37258C27.9576 5.31275 27.9849 5.24421 27.9953 5.17236C28.0057 5.1005 27.9987 5.02729 27.975 4.95848C27.9514 4.88967 27.9116 4.82715 27.8588 4.77582L26.8358 3.78183ZM22.8858 7.0731L24.5101 4.70442C24.5719 4.61428 24.5997 4.50611 24.5887 4.39832C24.5777 4.29052 24.5286 4.18976 24.4498 4.11316L23.4273 3.11919L25.4724 1.13125L26.8363 2.45654L25.8133 3.45051C25.7685 3.49402 25.733 3.54567 25.7087 3.60251C25.6845 3.65936 25.672 3.72029 25.672 3.78182C25.672 3.84336 25.6845 3.90429 25.7087 3.96113C25.733 4.01798 25.7685 4.06963 25.8133 4.11313L26.7252 4.9991L22.8858 7.0731ZM21.1011 10.7177L18.9844 9.7301L19.1271 7.60853C19.1334 7.51327 19.1097 7.41839 19.059 7.33661C19.0084 7.25482 18.9332 7.19003 18.8436 7.1509L16.5156 6.13402L16.251 4.12685C16.2469 4.06867 16.231 4.01186 16.2041 3.95971C16.1773 3.90755 16.14 3.8611 16.0946 3.82305C16.0491 3.78499 15.9963 3.75608 15.9393 3.73801C15.8823 3.71993 15.8221 3.71304 15.7623 3.71774C15.2557 3.7283 14.7528 3.80401 14.2666 3.94289L11.7714 4.66228C11.7502 4.66612 11.7293 4.67132 11.7088 4.67784L11.6085 4.70987C11.061 4.8644 10.4797 4.86472 9.93203 4.71081L7.26877 3.94292C6.27395 3.64888 5.21431 3.6314 4.2098 3.89247C3.20529 4.15354 2.29602 4.68273 1.58492 5.42015C0.860033 6.14102 0.35685 7.04448 0.132158 8.02858C-0.0925334 9.01267 -0.0297879 10.0382 0.313313 10.9895L2.12586 16.2202C2.33941 16.8384 2.33592 17.5079 2.11595 18.1239C1.55931 19.7562 1.34769 21.4809 1.4938 23.1946C1.63991 24.9084 2.14073 26.5757 2.96621 28.0966L3.54434 29.1647C3.68475 29.4233 3.89683 29.6386 4.15658 29.7861C4.41633 29.9336 4.71337 30.0075 5.01409 29.9994C5.3148 29.9913 5.60718 29.9015 5.85813 29.7403C6.10908 29.579 6.30858 29.3527 6.43406 29.0869L9.31718 22.9849C9.44417 22.7143 9.64856 22.4849 9.90597 22.324C10.1634 22.1632 10.4629 22.0778 10.7689 22.0779C11.0749 22.0779 11.3744 22.1636 11.6317 22.3246C11.889 22.4856 12.0933 22.7151 12.2201 22.9858L15.1027 29.0851C15.2269 29.3524 15.4264 29.5801 15.6781 29.7419C15.9297 29.9037 16.2233 29.993 16.525 29.9994H16.5711C16.8639 30.0009 17.1514 29.9239 17.4021 29.777C17.6528 29.6301 17.8571 29.4189 17.9924 29.1665L18.5315 28.1735C19.375 26.6329 19.8872 24.9415 20.0368 23.2023C20.1863 21.4631 19.9702 19.7125 19.4015 18.0571C19.199 17.4601 19.2025 16.8151 19.4114 16.2202L19.9467 14.677L21.3398 11.3153C21.3855 11.2049 21.3863 11.0816 21.342 10.9706C21.2976 10.8596 21.2115 10.7692 21.1011 10.7177ZM19.047 14.3393L19.0376 14.3641L18.4981 15.92C18.222 16.7088 18.2182 17.5635 18.4872 18.3546C19.0145 19.8896 19.2147 21.5129 19.0758 23.1256C18.9369 24.7383 18.4618 26.3066 17.6794 27.7351L17.1389 28.7309C17.0817 28.8331 16.9966 28.918 16.8931 28.9765C16.7896 29.0349 16.6715 29.0646 16.5518 29.0622C16.4303 29.0609 16.3117 29.0255 16.2103 28.9605C16.1089 28.8954 16.0289 28.8033 15.9798 28.6952L13.0967 22.595C12.8929 22.1612 12.5651 21.7935 12.1524 21.5357C11.7397 21.2779 11.2595 21.1407 10.7689 21.1406C10.2784 21.1405 9.79808 21.2775 9.38529 21.5351C8.97249 21.7928 8.64457 22.1604 8.44056 22.594L5.55697 28.697C5.50766 28.8047 5.42759 28.8963 5.32628 28.9611C5.22497 29.0258 5.10667 29.0609 4.98543 29.0622C4.86537 29.0656 4.74673 29.0363 4.6429 28.9776C4.53908 28.9189 4.45421 28.8331 4.39789 28.73L3.81881 27.6591C3.05116 26.2404 2.5873 24.6852 2.45524 23.0875C2.32319 21.4897 2.52568 19.8824 3.05049 18.3628C3.32081 17.5694 3.31683 16.7119 3.03916 15.9209L1.22661 10.6893C0.941841 9.9002 0.889686 9.04941 1.07603 8.233C1.26238 7.41659 1.67982 6.66707 2.28121 6.06907C2.87127 5.45743 3.62554 5.01838 4.4588 4.80149C5.29205 4.58461 6.1711 4.59854 6.99665 4.8417L9.66132 5.61052C9.85141 5.66302 10.0452 5.70176 10.2412 5.72642C9.75361 6.25282 9.41308 6.89203 9.2522 7.5829C9.23849 7.64303 9.23711 7.70519 9.24813 7.76584C9.25914 7.82649 9.28234 7.88443 9.31639 7.93636C9.35045 7.98829 9.3947 8.03319 9.44661 8.0685C9.49853 8.1038 9.55708 8.12882 9.61895 8.14212C9.65329 8.14937 9.68832 8.15305 9.72346 8.15311C9.83308 8.15292 9.93936 8.11647 10.0248 8.04977C10.1103 7.98307 10.1699 7.89008 10.1938 7.78609C10.3065 7.30099 10.5327 6.84769 10.8549 6.46142C11.1772 6.07515 11.5867 5.76631 12.0517 5.55892L12.0722 5.55378L14.5392 4.8417C14.805 4.76598 15.077 4.71269 15.3522 4.68245L15.5933 6.51388C15.6038 6.59341 15.6351 6.669 15.6842 6.73341C15.7333 6.79783 15.7986 6.84892 15.8739 6.88182L18.1431 7.87211L18.0009 9.98546C17.9948 10.0788 18.0175 10.1717 18.0661 10.2524C18.1146 10.3331 18.1869 10.3979 18.2735 10.4385L20.2763 11.373L19.047 14.3393Z" fill="#363636"/>
</svg>
