<svg width="27" height="27" viewBox="0 0 27 27" fill="none" xmlns="http://www.w3.org/2000/svg">
<path d="M25.5181 15.6657L24.4698 15.3439V2.14115C24.4697 1.58288 24.2474 1.04752 23.8518 0.652768C23.4562 0.258014 22.9196 0.0361793 22.3602 0.0360365H22.3523L15.8886 0.0607084C15.6782 0.0614684 15.4681 0.0796204 15.2607 0.114978L13.0945 0.486043C12.6909 0.163478 12.1824 0.000430988 11.666 0.0279953C11.1497 0.0555596 10.6615 0.271807 10.2947 0.635498C10.2556 0.674581 10.2245 0.720986 10.2033 0.77206C10.1821 0.823134 10.1711 0.877876 10.1711 0.933161C10.1711 0.988445 10.1821 1.04319 10.2033 1.09426C10.2245 1.14534 10.2556 1.19174 10.2947 1.23082L12.6813 3.61306C12.7205 3.65216 12.767 3.68317 12.8182 3.70434C12.8693 3.7255 12.9242 3.73639 12.9796 3.73639C13.035 3.73639 13.0899 3.7255 13.141 3.70434C13.1922 3.68317 13.2387 3.65216 13.2779 3.61306C13.5825 3.30734 13.7856 2.91556 13.8597 2.49082C13.9337 2.06607 13.8751 1.62888 13.6918 1.23849L15.4045 0.944663C15.5656 0.917153 15.7288 0.903126 15.8923 0.902729L22.3557 0.878083H22.3602C22.6959 0.878167 23.0178 1.01127 23.2552 1.24812C23.4925 1.48497 23.6259 1.80619 23.626 2.14115V15.0848L16.1272 12.7827C15.6778 12.6445 15.2102 12.5744 14.7399 12.5746H11.8119V8.44992H13.9215C14.0334 8.44992 14.1408 8.40556 14.2199 8.32661C14.299 8.24765 14.3435 8.14056 14.3435 8.0289C14.3435 7.91724 14.299 7.81015 14.2199 7.73119C14.1408 7.65223 14.0334 7.60788 13.9215 7.60788H8.85835C8.74644 7.60788 8.63912 7.65223 8.55999 7.73119C8.48087 7.81015 8.43641 7.91724 8.43641 8.0289C8.43641 8.14056 8.48087 8.24765 8.55999 8.32661C8.63912 8.40556 8.74644 8.44992 8.85835 8.44992H10.968V12.5746H7.44339C7.34843 12.5744 7.25613 12.5434 7.18035 12.4863C7.10457 12.4292 7.0494 12.3491 7.02314 12.258L4.10914 2.08027C3.98338 1.647 3.72033 1.26605 3.3594 0.994481C2.99846 0.722907 2.55906 0.575329 2.10702 0.573851C1.78611 0.573886 1.46955 0.647935 1.18206 0.790217C0.894563 0.9325 0.643919 1.13916 0.449694 1.39407C0.255469 1.64898 0.122919 1.94524 0.0623939 2.25971C0.00186868 2.57418 0.0150062 2.89836 0.100781 3.20693L3.46223 15.2809C3.58826 15.7301 3.85787 16.126 4.23004 16.4083C4.60221 16.6906 5.05659 16.8439 5.52409 16.845H8.51408L10.0199 23.6068H8.01448C7.45514 23.6074 6.91888 23.8294 6.52337 24.224C6.12786 24.6187 5.90541 25.1538 5.90482 25.7119V26.554C5.90479 26.6093 5.91568 26.664 5.93687 26.7151C5.95806 26.7662 5.98914 26.8126 6.02833 26.8518C6.06752 26.8909 6.11404 26.9219 6.16525 26.943C6.21645 26.9642 6.27133 26.975 6.32675 26.975H17.297C17.3524 26.975 17.4073 26.9642 17.4585 26.943C17.5097 26.9219 17.5562 26.8909 17.5954 26.8518C17.6346 26.8126 17.6657 26.7662 17.6869 26.7151C17.7081 26.664 17.719 26.6093 17.7189 26.554V25.7119C17.7183 25.1538 17.4959 24.6187 17.1004 24.224C16.7049 23.8294 16.1686 23.6074 15.6093 23.6068H13.6038L15.1036 16.8721C15.3664 16.8936 15.6262 16.9418 15.8791 17.016L24.3038 19.6022C24.5027 19.6639 24.7098 19.6955 24.9181 19.6959C25.4118 19.694 25.8885 19.5155 26.2617 19.193C26.635 18.8705 26.8801 18.4253 26.9526 17.938C27.0252 17.4507 26.9203 16.9535 26.6572 16.5367C26.394 16.1199 25.9899 15.8109 25.518 15.6658L25.5181 15.6657ZM12.9289 2.66907L11.2408 0.984138C11.4338 0.892194 11.647 0.850545 11.8605 0.863079C12.074 0.875613 12.2809 0.941921 12.4618 1.05581C12.6426 1.16971 12.7916 1.32747 12.8949 1.51439C12.9981 1.7013 13.0522 1.91126 13.0521 2.12468C13.0526 2.31308 13.0105 2.49915 12.9289 2.66907ZM16.8751 25.7119V26.1329H6.74868V25.7119C6.74905 25.377 6.88253 25.0559 7.11983 24.8191C7.35713 24.5823 7.67888 24.4492 8.01448 24.4488H15.6093C15.9449 24.4492 16.2666 24.5823 16.5039 24.8191C16.7412 25.0559 16.8747 25.377 16.8751 25.7119V25.7119ZM12.7394 23.6067H10.8844L9.38453 16.8704H14.2392L12.7394 23.6067ZM25.6359 18.6137C25.4827 18.7275 25.3046 18.8036 25.1162 18.8356C24.9279 18.8676 24.7346 18.8547 24.5522 18.7979L16.1272 16.2117C15.6779 16.0731 15.2102 16.0027 14.7399 16.0029H5.52409C5.24099 16.0022 4.96584 15.9093 4.74048 15.7384C4.51513 15.5674 4.3519 15.3276 4.2756 15.0556L0.914156 2.98156C0.863084 2.79808 0.85522 2.6053 0.891176 2.41829C0.927133 2.23128 1.00594 2.0551 1.12143 1.90351C1.23693 1.75192 1.38598 1.62903 1.55695 1.54444C1.72793 1.45986 1.91618 1.41586 2.10702 1.4159C2.3759 1.41668 2.63728 1.50446 2.85192 1.66607C3.06656 1.82768 3.22288 2.0544 3.29741 2.3122L6.21179 12.4899C6.2891 12.7565 6.45089 12.9909 6.67293 13.158C6.89497 13.325 7.16529 13.4158 7.44339 13.4167H14.7398C15.126 13.4166 15.51 13.474 15.8791 13.5869L25.2696 16.4699C25.4855 16.5362 25.6787 16.661 25.8278 16.8304C25.9768 16.9998 26.0758 17.2071 26.1138 17.4293C26.1518 17.6515 26.1272 17.8799 26.0428 18.089C25.9585 18.2981 25.8176 18.4797 25.6359 18.6137Z" fill="#363636"/>
</svg>
