<svg width="28" height="28" viewBox="0 0 28 28" fill="none" xmlns="http://www.w3.org/2000/svg">
<path d="M25.6926 18.8641C25.6609 18.7173 25.6044 18.5771 25.5254 18.4495C25.4346 18.3038 25.3158 18.1775 25.1759 18.0781C25.036 17.9786 24.8777 17.9079 24.7102 17.8701L22.1528 17.2937C21.9843 17.2528 21.8094 17.2463 21.6384 17.2744C21.4674 17.3025 21.3038 17.3647 21.1573 17.4574C20.8621 17.6435 20.6523 17.9386 20.5736 18.2786L20.557 18.3518L20.1908 17.2335C20.0811 16.9039 19.8459 16.6309 19.5362 16.4737C19.2265 16.3164 18.8673 16.2876 18.5365 16.3934L16.6205 17.021C16.6091 16.6815 16.4664 16.3596 16.2224 16.1231C15.9784 15.8867 15.6523 15.7541 15.3125 15.7534H12.6875C12.3478 15.7541 12.0216 15.8867 11.7776 16.1232C11.5337 16.3596 11.391 16.6815 11.3796 17.0211L9.46097 16.3926C9.13045 16.2878 8.77198 16.3172 8.46295 16.4744C8.15392 16.6317 7.91912 16.9042 7.80923 17.233L7.5656 17.9768C7.44375 17.8285 7.29067 17.7089 7.11728 17.6266C6.94389 17.5443 6.75448 17.5012 6.56254 17.5005H3.93754C3.58956 17.5009 3.25594 17.6393 3.00989 17.8854C2.76383 18.1315 2.62542 18.4651 2.62504 18.8131V18.8996C2.31131 18.8312 1.98627 18.8339 1.67372 18.9075C1.36116 18.981 1.06901 19.1235 0.818654 19.3246C0.562086 19.5297 0.355193 19.7901 0.21344 20.0865C0.0716862 20.3828 -0.0012615 20.7073 4.92735e-05 21.0358V25.8136C-0.00044662 26.1389 0.0721725 26.4601 0.212536 26.7535C0.3529 27.0469 0.557417 27.3049 0.810963 27.5086C1.0674 27.7167 1.36746 27.8641 1.6888 27.9401C2.01014 28.0161 2.34447 28.0186 2.66691 27.9474C10.1393 26.3117 17.877 26.3115 25.3494 27.947C25.5062 27.9821 25.6663 27.9999 25.827 28C26.405 27.9979 26.9585 27.7665 27.3659 27.3565C27.7734 26.9466 28.0014 26.3916 28 25.8136V21.0358C28.0001 20.7389 27.9395 20.4451 27.8218 20.1726C27.7041 19.9001 27.5319 19.6545 27.3157 19.451C27.0995 19.2476 26.844 19.0905 26.5649 18.9896C26.2857 18.8886 25.9888 18.8459 25.6926 18.864V18.8641ZM21.4255 18.4777C21.4521 18.3619 21.5234 18.2613 21.6238 18.1978C21.6724 18.1673 21.7267 18.147 21.7834 18.1381C21.8401 18.1292 21.898 18.132 21.9537 18.1461L24.5171 18.7238C24.5723 18.7366 24.6244 18.7602 24.6705 18.7932C24.7165 18.8262 24.7556 18.868 24.7854 18.9161C24.8179 18.9681 24.839 19.0264 24.8474 19.0872C24.8558 19.1479 24.8513 19.2097 24.8341 19.2686L24.3625 21.3751C24.2588 21.8273 23.9808 22.2203 23.5889 22.4686C23.197 22.7168 22.7229 22.8003 22.2698 22.7009C22.0227 22.6438 21.7913 22.5328 21.592 22.3761C21.3926 22.2193 21.2303 22.0205 21.1165 21.7938C21.3031 21.2637 21.3135 20.6874 21.1461 20.1509L21.0867 19.9694L21.4255 18.4777ZM16.625 17.9401L18.8057 17.2258C18.9161 17.1901 19.0361 17.1994 19.1396 17.2518C19.2431 17.3041 19.3218 17.3952 19.3585 17.5052L20.3113 20.4133C20.4457 20.8239 20.4195 21.2702 20.2378 21.6622C20.1429 21.8898 19.9993 22.0938 19.8172 22.26C19.635 22.4261 19.4187 22.5504 19.1833 22.624C18.7429 22.7668 18.2639 22.7293 17.8511 22.5197C17.4382 22.3102 17.1252 21.9456 16.9805 21.5058L16.625 20.3966V17.9401ZM12.25 17.066C12.2502 16.95 12.2963 16.8388 12.3783 16.7568C12.4603 16.6747 12.5715 16.6286 12.6875 16.6284H15.3125C15.4285 16.6286 15.5397 16.6747 15.6217 16.7568C15.7037 16.8388 15.7499 16.95 15.75 17.066V21.0038C15.75 21.4679 15.5656 21.9131 15.2375 22.2413C14.9093 22.5695 14.4641 22.7539 14 22.7539C13.5359 22.7539 13.0908 22.5695 12.7626 22.2413C12.4344 21.9131 12.25 21.4679 12.25 21.0038V17.066ZM7.6879 20.4158L8.64153 17.5052C8.67808 17.3956 8.75629 17.3047 8.85925 17.2523C8.96221 17.1999 9.08167 17.19 9.19183 17.2249L11.375 17.9401V20.4146L11.0213 21.5028C10.9499 21.7214 10.8362 21.9239 10.6867 22.0985C10.5371 22.2732 10.3545 22.4166 10.1494 22.5207C9.94438 22.6247 9.72083 22.6873 9.49155 22.7049C9.26228 22.7225 9.03179 22.6947 8.81326 22.6231C8.56227 22.5434 8.33318 22.4066 8.14399 22.2234C7.95481 22.0402 7.81068 21.8156 7.72293 21.5673L7.72101 21.5608L7.71647 21.5454C7.57979 21.1829 7.56972 20.7848 7.6879 20.4158ZM3.50004 18.8131C3.50019 18.6971 3.54633 18.5859 3.62835 18.5039C3.71036 18.4219 3.82156 18.3757 3.93754 18.3756H6.56254C6.67852 18.3757 6.78971 18.4219 6.87173 18.5039C6.95374 18.5859 6.99988 18.6971 7.00003 18.8131V19.7036L6.85391 20.1497C6.69663 20.6494 6.69468 21.1851 6.8483 21.686C6.69161 22.0571 6.41121 22.3625 6.05481 22.5502C5.69841 22.7379 5.288 22.7963 4.89338 22.7155C4.49877 22.6348 4.14431 22.4198 3.89029 22.1072C3.63627 21.7946 3.49837 21.4036 3.50004 21.0008V18.8131ZM27.125 25.8136C27.1255 26.0108 27.0815 26.2057 26.9961 26.3835C26.9107 26.5613 26.7862 26.7175 26.632 26.8404C26.4809 26.9626 26.304 27.0488 26.1146 27.0926C25.9253 27.1363 25.7285 27.1364 25.5391 27.0929C17.9429 25.4302 10.0769 25.4301 2.48067 27.0924C2.28604 27.1353 2.08425 27.1338 1.89031 27.0879C1.69636 27.042 1.51525 26.9531 1.36044 26.8275C1.20871 26.7057 1.08631 26.5514 1.00229 26.3759C0.918269 26.2003 0.874784 26.0082 0.875047 25.8136V21.0358C0.874016 20.8385 0.917597 20.6435 1.00253 20.4654C1.08747 20.2873 1.21156 20.1307 1.36553 20.0073C1.52465 19.8827 1.7102 19.7962 1.90794 19.7544C2.10567 19.7127 2.31035 19.7167 2.50627 19.7663L2.62504 19.7908V21.0008C2.62506 21.5488 2.7966 22.0831 3.11559 22.5288C3.43458 22.9744 3.88503 23.3091 4.40379 23.4858C4.92255 23.6625 5.4836 23.6724 6.00827 23.5141C6.53294 23.3558 6.99492 23.0373 7.32944 22.6032C7.64091 23.001 8.0633 23.2976 8.54324 23.4555C8.8055 23.5417 9.0798 23.5857 9.35586 23.5858C9.83189 23.5844 10.2987 23.4541 10.7066 23.2087C11.1145 22.9633 11.4483 22.612 11.6726 22.1921C11.8891 22.6239 12.2214 22.987 12.6324 23.2408C13.0434 23.4945 13.5169 23.6289 13.9999 23.6289C14.483 23.629 14.9565 23.4946 15.3675 23.2409C15.7785 22.9871 16.1109 22.6241 16.3274 22.1922C16.616 22.7379 17.0882 23.164 17.6605 23.3952C18.2328 23.6265 18.8685 23.648 19.4551 23.4559C19.9166 23.3026 20.3257 23.0224 20.6355 22.6475C20.8758 22.9506 21.1817 23.1954 21.5302 23.3633C21.8786 23.5313 22.2606 23.6182 22.6475 23.6174C23.2438 23.6157 23.8221 23.4124 24.2884 23.0405C24.7547 22.6687 25.0816 22.1501 25.2161 21.569L25.6262 19.7462C25.805 19.7206 25.9871 19.7319 26.1614 19.7793C26.3357 19.8267 26.4984 19.9093 26.6396 20.0219C26.7914 20.1437 26.9138 20.2981 26.9978 20.4736C27.0818 20.6491 27.1253 20.8412 27.125 21.0358V25.8136ZM27.1797 0.476973C26.9265 0.273117 26.6305 0.129112 26.3139 0.0557149C25.9972 -0.0176818 25.6681 -0.0185722 25.3511 0.0531102C17.8776 1.68902 10.1387 1.68887 2.66521 0.0526902C2.34297 -0.0176662 2.00905 -0.0147188 1.6881 0.0613148C1.36716 0.137348 1.0674 0.284525 0.810963 0.491971C0.557422 0.695656 0.352907 0.953734 0.212544 1.24712C0.0721803 1.54051 -0.000441372 1.86169 4.92735e-05 2.18693V6.96477C-0.00214013 7.28949 0.0686594 7.61055 0.207216 7.90422C0.345773 8.1979 0.548545 8.45669 0.800548 8.66146C1.05255 8.86623 1.34734 9.01176 1.66314 9.08728C1.97894 9.1628 2.30767 9.16639 2.62504 9.09779V9.18746C2.62542 9.53547 2.76383 9.86911 3.00989 10.1152C3.25594 10.3613 3.58956 10.4997 3.93754 10.5001H6.56254C6.63656 10.4971 6.71019 10.4878 6.78262 10.4723C6.95824 10.6901 7.19729 10.8478 7.46659 10.9235L10.0027 11.5879C10.1134 11.6172 10.2274 11.6321 10.342 11.6323C10.6308 11.6317 10.9113 11.5357 11.1399 11.3591C11.3684 11.1825 11.5322 10.9353 11.6058 10.656L11.7965 9.93856L12.4167 11.6652C12.537 11.9911 12.7801 12.2569 13.094 12.4056C13.4078 12.5543 13.7675 12.5741 14.0958 12.4608L16.5695 11.5742C16.7942 11.4869 16.9915 11.341 17.1408 11.1517L18.5391 11.608C18.6686 11.6497 18.8038 11.6709 18.9399 11.6708C19.2169 11.6709 19.487 11.5836 19.7116 11.4214C19.9362 11.2591 20.1039 11.0302 20.1909 10.7671L20.5584 9.64212L20.5762 9.72063C20.6421 10.0105 20.8042 10.2695 21.0362 10.4554C21.2683 10.6412 21.5564 10.743 21.8537 10.744C21.952 10.7438 22.05 10.7327 22.1459 10.7111L24.706 10.1317C24.9487 10.0784 25.1709 9.9562 25.346 9.77983C25.5211 9.60346 25.6416 9.38036 25.6932 9.13723C25.731 9.13916 25.7687 9.14935 25.8066 9.14935C26.3099 9.14933 26.798 8.97647 27.1891 8.65969C27.4427 8.45604 27.6472 8.19796 27.7876 7.90457C27.9279 7.61118 28.0005 7.28998 28 6.96474V2.1869C28.0008 1.8585 27.9275 1.53416 27.7855 1.23807C27.6434 0.941989 27.4363 0.681816 27.1797 0.476973ZM7.00003 7.54364L6.53605 9.31135C6.51029 9.4139 6.49725 9.51923 6.49723 9.62497H3.93754C3.82156 9.62482 3.71036 9.57867 3.62835 9.49665C3.54633 9.41463 3.50019 9.30343 3.50004 9.18744V6.99978C3.50004 6.53562 3.68442 6.09047 4.0126 5.76226C4.34079 5.43404 4.78591 5.24966 5.25004 5.24966C5.71417 5.24966 6.15929 5.43404 6.48747 5.76226C6.81566 6.09047 7.00003 6.53562 7.00003 6.99978V7.54364ZM10.7598 10.4334C10.7453 10.4889 10.7199 10.5409 10.6851 10.5865C10.6503 10.6321 10.6068 10.6704 10.5572 10.699C10.5075 10.7277 10.4526 10.7462 10.3957 10.7535C10.3388 10.7608 10.281 10.7567 10.2257 10.7414L7.69216 10.0779C7.62219 10.0593 7.55762 10.0244 7.50371 9.97603C7.4498 9.92768 7.40809 9.86728 7.38198 9.79974C7.35314 9.71716 7.35224 9.62738 7.37942 9.54422L8.15787 6.57765C8.21631 6.35556 8.31793 6.14717 8.45693 5.96437C8.59593 5.78157 8.76958 5.62794 8.96796 5.51228C9.16634 5.39662 9.38556 5.32117 9.61311 5.29027C9.84065 5.25936 10.0721 5.27359 10.2941 5.33214C10.6559 5.4267 10.9761 5.63883 11.2043 5.93519C10.9469 6.44312 10.8703 7.02359 10.9871 7.5809C11.0089 7.7113 11.0421 7.83955 11.0862 7.96418L11.2773 8.48571L10.7598 10.4334ZM13.8052 11.6353C13.6946 11.6731 13.5736 11.6663 13.4679 11.6163C13.3623 11.5662 13.2803 11.4769 13.2395 11.3674L12.1603 8.36237C12.156 8.34487 12.1509 8.32776 12.1449 8.31067L11.9082 7.66463C11.8804 7.58357 11.8598 7.50021 11.8467 7.41552C11.7981 7.19705 11.794 6.97102 11.8346 6.75093C11.8753 6.53084 11.9599 6.32121 12.0834 6.13455C12.2926 5.8088 12.6022 5.55999 12.9652 5.42569C13.403 5.27114 13.8841 5.29561 14.3039 5.49378C14.7238 5.69195 15.0484 6.0478 15.2074 6.48402L15.6539 7.73717L15.2014 9.14129C15.0957 9.47187 15.1248 9.8308 15.2822 10.1401C15.4396 10.4494 15.7128 10.6841 16.0422 10.7931L16.1012 10.8124L13.8052 11.6353ZM19.3585 10.4953C19.3222 10.6053 19.2439 10.6964 19.1406 10.7488C19.0374 10.8013 18.9176 10.8107 18.8074 10.7752L16.3148 9.96163C16.2049 9.92506 16.1139 9.84664 16.0614 9.74338C16.009 9.64012 15.9993 9.52035 16.0345 9.41002L16.59 7.68854C16.6024 7.66472 16.6129 7.64001 16.6216 7.61463L16.9788 6.49772C17.1234 6.05693 17.4368 5.69143 17.8503 5.48134C18.2639 5.27126 18.7439 5.23373 19.1851 5.37698C19.6087 5.51316 19.9611 5.8116 20.1653 6.20702C20.017 6.65216 19.9922 7.12915 20.0934 7.58728L20.1815 7.97674L19.3585 10.4953ZM24.5128 9.278L21.9527 9.85738C21.8968 9.87054 21.8388 9.87232 21.7821 9.86263C21.7254 9.85295 21.6713 9.83198 21.6229 9.80099C21.5245 9.73916 21.4547 9.6408 21.4289 9.52753L20.9461 7.39413C20.8677 7.04672 20.898 6.68361 21.0328 6.35398C21.0378 6.34341 21.0442 6.33422 21.0483 6.32335C21.1927 5.98302 21.4413 5.69728 21.7584 5.50724C22.0755 5.31719 22.4448 5.23264 22.8129 5.26575C23.1811 5.29886 23.5293 5.44792 23.8075 5.69149C24.0856 5.93506 24.2793 6.26058 24.3607 6.62121L24.8434 8.75461C24.8689 8.86786 24.8483 8.98656 24.7863 9.08468C24.7244 9.1828 24.626 9.25233 24.5128 9.27801L24.5128 9.278ZM27.125 6.96474C27.1253 7.15931 27.0818 7.35145 26.9978 7.52695C26.9137 7.70245 26.7914 7.85681 26.6396 7.97863C26.4975 8.08969 26.3344 8.17087 26.1602 8.21728C25.9859 8.26369 25.804 8.27436 25.6255 8.24866L25.2135 6.42803C25.1078 5.94763 24.8684 5.50689 24.5231 5.15662C24.1778 4.80635 23.7405 4.56081 23.2617 4.44831C22.7828 4.3358 22.282 4.36092 21.8168 4.52075C21.3516 4.68058 20.9411 4.96863 20.6325 5.35169C20.3241 4.97783 19.9166 4.69831 19.4568 4.5451C18.7948 4.32978 18.0744 4.38599 17.4537 4.70138C16.8331 5.01677 16.363 5.56556 16.1465 6.22728L16.0985 6.37758L16.0303 6.18626C15.8849 5.77006 15.6362 5.39759 15.3075 5.10376C14.9788 4.80992 14.5809 4.60434 14.1511 4.50626C13.7213 4.40818 13.2736 4.42083 12.8501 4.543C12.4265 4.66518 12.0408 4.89289 11.7293 5.20481C11.4 4.85555 10.9791 4.60617 10.5146 4.48527C9.94873 4.33739 9.34964 4.3834 8.81299 4.61596C8.27634 4.84851 7.83309 5.25419 7.55401 5.76822C7.28063 5.25095 6.84176 4.84026 6.30755 4.60176C5.77333 4.36326 5.17459 4.31072 4.60701 4.45254C4.03942 4.59436 3.53575 4.92235 3.17647 5.38409C2.81719 5.84584 2.62304 6.4147 2.62504 6.99977V8.21009L2.45928 8.24443C2.2698 8.28736 2.07309 8.28707 1.88375 8.24358C1.6944 8.20008 1.51728 8.11451 1.36553 7.9932C1.21156 7.86982 1.08746 7.71323 1.00253 7.53513C0.917595 7.35704 0.874015 7.16205 0.875047 6.96474V2.1869C0.874786 1.99232 0.91827 1.80018 1.00228 1.62468C1.08629 1.44918 1.20868 1.29482 1.3604 1.17301C1.5148 1.04736 1.6956 0.95823 1.88929 0.912284C2.08297 0.866338 2.28454 0.86476 2.47892 0.90767C10.0763 2.57049 17.9434 2.57035 25.5408 0.90725C25.73 0.864576 25.9263 0.865159 26.1153 0.908956C26.3042 0.952753 26.4808 1.03863 26.632 1.16019C26.7862 1.28308 26.9107 1.43926 26.9961 1.61707C27.0815 1.79487 27.1255 1.98969 27.125 2.18693V6.96474Z" fill="#363636"/>
</svg>
