<svg width="34" height="32" viewBox="0 0 34 32" fill="none" xmlns="http://www.w3.org/2000/svg">
<path d="M23.7506 13.0021L22.2482 14.5104C22.198 14.5597 22.1581 14.6186 22.1308 14.6835C22.1034 14.7484 22.0891 14.8181 22.0888 14.8886C22.0884 14.9591 22.102 15.0289 22.1287 15.0941C22.1554 15.1593 22.1947 15.2185 22.2444 15.2684C22.294 15.3182 22.353 15.3577 22.4179 15.3845C22.4829 15.4113 22.5525 15.4249 22.6227 15.4246C22.6929 15.4242 22.7623 15.4099 22.827 15.3824C22.8916 15.3549 22.9502 15.3149 22.9994 15.2645L24.5018 13.7562C24.5998 13.6559 24.6543 13.5208 24.6536 13.3803C24.6529 13.2398 24.597 13.1052 24.498 13.0059C24.3991 12.9065 24.2651 12.8504 24.1251 12.8497C23.9851 12.849 23.8506 12.9037 23.7506 13.0021ZM28.6232 13.7562L30.1256 15.2645C30.2256 15.3629 30.3601 15.4177 30.5001 15.4169C30.64 15.4162 30.7741 15.3601 30.873 15.2608C30.972 15.1614 31.0279 15.0269 31.0286 14.8864C31.0293 14.7459 30.9748 14.6108 30.8768 14.5104L29.3744 13.0021C29.2744 12.9037 29.1398 12.849 28.9999 12.8497C28.8599 12.8504 28.7259 12.9065 28.627 13.0059C28.528 13.1052 28.4721 13.2398 28.4714 13.3803C28.4707 13.5208 28.5252 13.6559 28.6232 13.7562ZM2.65625 7.46667H13.9104C14.0195 7.77774 14.2219 8.04728 14.4897 8.23826C14.7576 8.42924 15.0777 8.53232 15.4063 8.53333H16.4688C16.8913 8.53287 17.2964 8.36415 17.5952 8.06419C17.894 7.76424 18.062 7.35754 18.0625 6.93333V6.4H23.9063C24.0471 6.40018 24.1821 6.45643 24.2817 6.55641C24.3813 6.65639 24.4373 6.79194 24.4375 6.93333V9.6C24.4375 10.1658 24.6614 10.7084 25.0599 11.1085C25.4584 11.5086 25.9989 11.7333 26.5625 11.7333C27.1261 11.7333 27.6666 11.5086 28.0651 11.1085C28.4636 10.7084 28.6875 10.1658 28.6875 9.6V5.86667C28.6863 4.87689 28.2941 3.928 27.597 3.22813C26.8998 2.52825 25.9547 2.13453 24.9688 2.13333H18.0625V1.6C18.062 1.1758 17.894 0.769099 17.5952 0.469141C17.2964 0.169183 16.8913 0.000463038 16.4688 0H15.4063C15.0777 0.0010139 14.7576 0.104089 14.4897 0.295074C14.2219 0.486059 14.0195 0.755591 13.9104 1.06667H2.65625C1.952 1.06741 1.2768 1.3486 0.778819 1.84854C0.280836 2.34847 0.000744037 3.02632 4.32869e-06 3.73333V4.8C0.000744037 5.50702 0.280836 6.18486 0.778819 6.6848C1.2768 7.18473 1.952 7.46592 2.65625 7.46667ZM27.625 9.6C27.625 9.8829 27.5131 10.1542 27.3138 10.3542C27.1145 10.5543 26.8443 10.6667 26.5625 10.6667C26.2807 10.6667 26.0105 10.5543 25.8112 10.3542C25.6119 10.1542 25.5 9.8829 25.5 9.6V8.53333H27.625V9.6ZM18.0625 3.2H24.9688C25.673 3.20074 26.3482 3.48193 26.8462 3.98187C27.3442 4.48181 27.6243 5.15965 27.625 5.86667V7.46667H25.5V6.93333C25.4995 6.50913 25.3315 6.10243 25.0327 5.80247C24.7339 5.50252 24.3288 5.3338 23.9063 5.33333H18.0625V3.2ZM14.875 1.6C14.8752 1.45861 14.9312 1.32306 15.0308 1.22308C15.1304 1.1231 15.2654 1.06685 15.4063 1.06667H16.4688C16.6096 1.06685 16.7446 1.1231 16.8442 1.22308C16.9438 1.32306 16.9998 1.45861 17 1.6V6.93333C16.9998 7.07473 16.9438 7.21028 16.8442 7.31025C16.7446 7.41023 16.6096 7.46648 16.4688 7.46667H15.4063C15.2654 7.46648 15.1304 7.41023 15.0308 7.31025C14.9312 7.21028 14.8752 7.07473 14.875 6.93333V1.6ZM1.0625 3.73333C1.06297 3.30913 1.23103 2.90243 1.52981 2.60247C1.8286 2.30252 2.23371 2.1338 2.65625 2.13333H13.8125V6.4H2.65625C2.23371 6.39954 1.8286 6.23082 1.52981 5.93086C1.23103 5.6309 1.06297 5.2242 1.0625 4.8V3.73333ZM26.0313 13.3333V15.4667C26.0313 15.6081 26.0872 15.7438 26.1868 15.8438C26.2865 15.9438 26.4216 16 26.5625 16C26.7034 16 26.8385 15.9438 26.9382 15.8438C27.0378 15.7438 27.0938 15.6081 27.0938 15.4667V13.3333C27.0938 13.1919 27.0378 13.0562 26.9382 12.9562C26.8385 12.8562 26.7034 12.8 26.5625 12.8C26.4216 12.8 26.2865 12.8562 26.1868 12.9562C26.0872 13.0562 26.0313 13.1919 26.0313 13.3333ZM28.1562 25.6C28.0512 25.6 27.9485 25.6313 27.8611 25.6899C27.7737 25.7485 27.7057 25.8318 27.6654 25.9292C27.6252 26.0267 27.6147 26.1339 27.6352 26.2374C27.6557 26.3408 27.7063 26.4359 27.7806 26.5105C27.8549 26.585 27.9496 26.6358 28.0526 26.6564C28.1557 26.677 28.2625 26.6664 28.3596 26.6261C28.4566 26.5857 28.5396 26.5173 28.598 26.4296C28.6563 26.3419 28.6875 26.2388 28.6875 26.1333C28.6875 25.9919 28.6315 25.8562 28.5319 25.7562C28.4323 25.6562 28.2971 25.6 28.1562 25.6ZM31.3438 25.6C31.2387 25.6 31.136 25.6313 31.0486 25.6899C30.9612 25.7485 30.8932 25.8318 30.8529 25.9292C30.8127 26.0267 30.8022 26.1339 30.8227 26.2374C30.8432 26.3408 30.8938 26.4359 30.9681 26.5105C31.0424 26.585 31.1371 26.6358 31.2401 26.6564C31.3432 26.677 31.45 26.6664 31.5471 26.6261C31.6441 26.5857 31.7271 26.5173 31.7855 26.4296C31.8438 26.3419 31.875 26.2388 31.875 26.1333C31.875 25.9919 31.819 25.8562 31.7194 25.7562C31.6198 25.6562 31.4846 25.6 31.3438 25.6ZM30.2812 23.4667C30.1762 23.4667 30.0735 23.4979 29.9861 23.5566C29.8987 23.6152 29.8307 23.6985 29.7904 23.7959C29.7502 23.8934 29.7397 24.0006 29.7602 24.104C29.7807 24.2075 29.8313 24.3025 29.9056 24.3771C29.9799 24.4517 30.0746 24.5025 30.1776 24.5231C30.2807 24.5437 30.3875 24.5331 30.4846 24.4927C30.5816 24.4524 30.6646 24.384 30.723 24.2963C30.7813 24.2086 30.8125 24.1055 30.8125 24C30.8125 23.8586 30.7565 23.7229 30.6569 23.6229C30.5573 23.5229 30.4221 23.4667 30.2812 23.4667ZM15.4063 27.7333C15.3012 27.7333 15.1985 27.7646 15.1111 27.8232C15.0237 27.8818 14.9557 27.9651 14.9154 28.0626C14.8752 28.16 14.8647 28.2673 14.8852 28.3707C14.9057 28.4742 14.9563 28.5692 15.0306 28.6438C15.1049 28.7184 15.1996 28.7692 15.3026 28.7898C15.4057 28.8103 15.5125 28.7998 15.6096 28.7594C15.7066 28.719 15.7896 28.6507 15.848 28.563C15.9063 28.4753 15.9375 28.3722 15.9375 28.2667C15.9375 28.1252 15.8815 27.9896 15.7819 27.8895C15.6823 27.7895 15.5471 27.7333 15.4063 27.7333ZM29.3766 20.2827C29.4082 19.974 29.3783 19.6622 29.2886 19.3653C29.1988 19.0684 29.0511 18.7924 28.854 18.5535C28.6569 18.3145 28.4144 18.1174 28.1406 17.9735C27.8668 17.8297 27.5672 17.742 27.2592 17.7156L26.2803 17.6208C26.1476 17.6082 26.0214 17.5576 25.9166 17.475L25.1441 16.8604C24.8037 16.5904 24.396 16.4193 23.9655 16.3659C23.535 16.3124 23.0981 16.3787 22.7024 16.5574C22.3068 16.736 21.9676 17.0203 21.7218 17.3792C21.4761 17.7381 21.3331 18.1578 21.3086 18.5927L21.2142 20.2667H18.6545L18.9294 19.45C19.0686 19.0374 19.0922 18.5944 18.9977 18.1693C18.9033 17.7442 18.6943 17.3532 18.3936 17.0392C18.0929 16.7251 17.7121 16.5 17.2927 16.3884C16.8733 16.2768 16.4315 16.283 16.0153 16.4062L15.0721 16.6854C14.9436 16.7234 14.8069 16.7234 14.6784 16.6854L13.7352 16.4062C13.319 16.2831 12.8772 16.2771 12.4579 16.3887C12.0385 16.5004 11.6578 16.7255 11.3571 17.0395C11.0564 17.3535 10.8474 17.7443 10.7528 18.1694C10.6582 18.5944 10.6816 19.0374 10.8206 19.45L11.0954 20.2667H8.98884L9.36691 19.1438C9.50585 18.7312 9.52931 18.2883 9.43474 17.8632C9.34017 17.4382 9.13119 17.0474 8.83059 16.7334C8.52998 16.4195 8.14929 16.1944 7.73 16.0827C7.31072 15.971 6.86893 15.977 6.45281 16.1L5.50963 16.3792C5.38118 16.4177 5.24431 16.4177 5.11586 16.3792L4.17268 16.1C3.75653 15.9769 3.3147 15.9708 2.89536 16.0825C2.47602 16.1942 2.09526 16.4193 1.79459 16.7332C1.49393 17.0472 1.2849 17.4381 1.19029 17.8631C1.09568 18.2882 1.11913 18.7312 1.25807 19.1438L1.90449 21.0635C1.91992 21.1171 1.92874 21.1724 1.93076 21.2282C1.33131 21.6709 0.844142 22.249 0.508707 22.9159C0.173271 23.5828 -0.00100143 24.3196 4.32869e-06 25.0667V29.3333C0.000744037 30.0404 0.280836 30.7182 0.778819 31.2181C1.2768 31.7181 1.952 31.9993 2.65625 32H31.3438C32.048 31.9993 32.7232 31.7181 33.2212 31.2181C33.7192 30.7182 33.9993 30.0404 34 29.3333V25.0667C33.9973 23.8231 33.5137 22.6293 32.6512 21.7368C31.7887 20.8443 30.6146 20.3229 29.3766 20.2827ZM21.8388 21.7198C21.9992 21.5207 22.114 21.2886 22.175 21.0399C22.215 20.9662 22.2367 20.8839 22.2383 20.8C22.2383 20.791 22.2337 20.7836 22.2333 20.7747C22.2371 20.7408 22.253 20.7104 22.2549 20.676L22.3691 18.6531C22.3826 18.4133 22.4615 18.1818 22.5971 17.9839C22.7326 17.7859 22.9197 17.6291 23.1378 17.5305C23.356 17.4319 23.597 17.3952 23.8345 17.4246C24.0719 17.4539 24.2969 17.5481 24.4847 17.6969L25.2582 18.3115C25.523 18.5213 25.8423 18.6504 26.178 18.6833L27.1575 18.7781C27.3958 18.8012 27.6231 18.8895 27.8148 19.0334C28.0065 19.1772 28.1551 19.3712 28.2445 19.594C28.334 19.8169 28.3607 20.0601 28.3219 20.2972C28.2831 20.5343 28.1802 20.7561 28.0245 20.9386L26.7098 22.4771C26.4623 22.7685 26.3151 23.1324 26.2901 23.5146C26.255 24.0576 26.1115 24.5879 25.8682 25.0741C25.6249 25.5603 25.2868 25.9924 24.8738 26.3448L24.7607 26.4406L24.6574 24.2458C24.6476 24.0013 24.5672 23.7649 24.426 23.5653C24.2848 23.3658 24.0889 23.2117 23.8621 23.1219C23.71 23.0599 23.5474 23.0281 23.3833 23.0281C23.0594 23.0286 22.7482 23.1544 22.5143 23.3792L20.9252 24.8917L20.907 24.7146C20.8537 24.1782 20.9087 23.6364 21.0688 23.1218C21.2289 22.6072 21.4908 22.1304 21.8388 21.7198ZM12.1228 17.7781C12.2877 17.6035 12.4977 17.4783 12.7295 17.4167C12.9612 17.3551 13.2054 17.3594 13.4348 17.4292L14.379 17.7083C14.703 17.8042 15.0476 17.8042 15.3715 17.7083L16.3157 17.4292C16.5453 17.3612 16.789 17.3578 17.0203 17.4194C17.2517 17.481 17.4617 17.6052 17.6276 17.7785C17.7934 17.9517 17.9086 18.1674 17.9607 18.4019C18.0128 18.6364 17.9997 18.8808 17.9229 19.1083L17.2765 21.0271C17.1547 21.3905 17.1534 21.7837 17.2729 22.1479C17.4423 22.6649 17.5065 23.2109 17.4616 23.7533C17.4167 24.2957 17.2636 24.8235 17.0114 25.3053L16.9424 25.4355L16.0304 23.4386C15.9289 23.2166 15.766 23.0286 15.5612 22.8968C15.3565 22.7649 15.1183 22.6949 14.875 22.6949C14.6317 22.6949 14.3936 22.7649 14.1888 22.8968C13.984 23.0286 13.8212 23.2166 13.7196 23.4386L12.8076 25.4355L12.7256 25.2803C12.4764 24.8026 12.3259 24.2793 12.283 23.7417C12.2401 23.2042 12.3058 22.6636 12.4761 22.1521C12.5979 21.7873 12.597 21.3924 12.4735 21.0282L11.8271 19.1084C11.748 18.881 11.7338 18.636 11.786 18.4009C11.8383 18.1659 11.9549 17.9502 12.1228 17.7781ZM2.56028 17.4719C2.72512 17.2971 2.93518 17.1719 3.16692 17.1103C3.39866 17.0487 3.64292 17.053 3.87232 17.1229L4.81653 17.4021C5.14046 17.4979 5.48505 17.4979 5.80899 17.4021L6.7532 17.1229C6.98276 17.0549 7.22652 17.0516 7.45786 17.1132C7.6892 17.1748 7.89925 17.299 8.06508 17.4722C8.23092 17.6455 8.34616 17.8611 8.39825 18.0957C8.45033 18.3302 8.43726 18.5746 8.36044 18.8021L7.75944 20.586L7.752 20.6079L7.71393 20.7208C7.59214 21.0842 7.59086 21.4775 7.7103 21.8417C7.8798 22.3587 7.94395 22.9047 7.89894 23.4471C7.85394 23.9895 7.70068 24.5173 7.44831 24.999L7.37983 25.1302L6.46778 23.1323C6.36627 22.9104 6.20345 22.7223 5.99866 22.5905C5.79387 22.4587 5.5557 22.3886 5.31242 22.3886C5.06914 22.3886 4.83097 22.4587 4.62618 22.5905C4.42139 22.7223 4.25857 22.9104 4.15706 23.1323L3.24501 25.1302L3.16303 24.974C2.91398 24.4962 2.76351 23.9729 2.72063 23.4354C2.67775 22.8979 2.74335 22.3573 2.9135 21.8458C2.92641 21.8068 2.92257 21.7661 2.9327 21.7267C2.98575 21.6253 3.00446 21.5093 2.986 21.3962C3.00523 21.1687 2.97972 20.9396 2.9109 20.7219L2.26448 18.8021C2.18542 18.5747 2.17122 18.3297 2.22349 18.0947C2.27576 17.8596 2.39241 17.6439 2.56028 17.4719V17.4719ZM32.9375 29.3333C32.937 29.7575 32.769 30.1642 32.4702 30.4642C32.1714 30.7642 31.7663 30.9329 31.3438 30.9333H2.65625C2.23371 30.9329 1.8286 30.7642 1.52981 30.4642C1.23103 30.1642 1.06297 29.7575 1.0625 29.3333V25.0667C1.06801 24.3537 1.27896 23.6575 1.66989 23.0622C1.65199 23.8991 1.8423 24.7274 2.22358 25.4719L2.42851 25.8615C2.50719 26.0124 2.62562 26.1387 2.77089 26.2267C2.91616 26.3146 3.0827 26.3609 3.25236 26.3604H3.27986C3.4542 26.3561 3.62379 26.3025 3.76915 26.2057C3.91452 26.109 4.02976 25.973 4.10164 25.8135L5.12316 23.576C5.21965 23.3656 5.40539 23.3656 5.50188 23.576L6.5234 25.8135C6.59528 25.973 6.71052 26.109 6.85588 26.2057C7.00125 26.3025 7.17084 26.3561 7.34518 26.3604C7.5193 26.3648 7.6912 26.3204 7.84164 26.2323C7.99209 26.1442 8.11515 26.0158 8.19705 25.8615L8.38797 25.4969C8.70687 24.888 8.90051 24.2209 8.95737 23.5353C9.01423 22.8498 8.93316 22.1597 8.71896 21.5062C8.70258 21.45 8.69337 21.3919 8.69157 21.3333H11.4544L11.467 21.3708C11.5174 21.5227 11.515 21.6872 11.4603 21.8375C11.2487 22.4827 11.1685 23.1641 11.2246 23.8411C11.2806 24.5181 11.4718 25.1768 11.7866 25.7781L11.9905 26.1656C12.0714 26.3207 12.1941 26.4499 12.3446 26.5385C12.495 26.627 12.6672 26.6715 12.8415 26.6667C13.0159 26.6619 13.1854 26.6081 13.3308 26.5114C13.4762 26.4148 13.5917 26.2791 13.6641 26.1198L14.6856 23.8823C14.7821 23.6718 14.9679 23.6718 15.0644 23.8823L16.0859 26.1198C16.1578 26.2794 16.2731 26.4153 16.4186 26.5121C16.5641 26.6088 16.7337 26.6624 16.9082 26.6667H16.9346C17.1045 26.6673 17.2713 26.621 17.4167 26.5328C17.5621 26.4446 17.6805 26.3179 17.759 26.1667L17.9504 25.8031C18.2693 25.1942 18.463 24.5271 18.5198 23.8416C18.5767 23.156 18.4956 22.466 18.2814 21.8125C18.2342 21.6687 18.2348 21.5133 18.283 21.3698L18.2953 21.3333H20.8181C20.0767 22.3371 19.7317 23.581 19.8498 24.825L19.8949 25.2625C19.9129 25.4365 19.979 25.602 20.0858 25.7402C20.1926 25.8784 20.3358 25.9839 20.4992 26.0447C20.6625 26.1055 20.8396 26.1192 21.0103 26.0842C21.1811 26.0493 21.3387 25.9671 21.4653 25.8469L23.2453 24.1542C23.2732 24.1252 23.3093 24.1055 23.3488 24.0979C23.3883 24.0902 23.4291 24.095 23.4658 24.1115C23.5034 24.1255 23.536 24.1506 23.5593 24.1835C23.5825 24.2164 23.5953 24.2556 23.596 24.2959L23.7117 26.7542C23.7195 26.9291 23.776 27.0983 23.8748 27.2425C23.9736 27.3868 24.1107 27.5003 24.2706 27.5702C24.4304 27.6401 24.6066 27.6635 24.7791 27.6379C24.9516 27.6122 25.1135 27.5385 25.2463 27.4251L25.5596 27.1595C26.0818 26.714 26.5094 26.1677 26.8171 25.553C27.1247 24.9383 27.3061 24.2678 27.3505 23.5813C27.3604 23.4302 27.4187 23.2862 27.5166 23.1709L28.8307 21.6324C28.9021 21.5377 28.9663 21.4378 29.0226 21.3333H29.2188C30.2047 21.3345 31.1498 21.7283 31.847 22.4281C32.5441 23.128 32.9363 24.0769 32.9375 25.0667V29.3333ZM23.7594 28.8208C23.146 29.0242 22.4843 29.0275 21.8689 28.8302C21.5353 28.703 21.2267 28.5175 20.9574 28.2823C20.6013 27.9564 20.1613 27.7374 19.6874 27.65C19.1969 27.6273 18.7077 27.7159 18.2561 27.9093C17.8045 28.1026 17.4021 28.3957 17.0789 28.7667C17.028 28.8146 16.9871 28.8722 16.9584 28.936C16.9298 28.9998 16.9139 29.0687 16.9117 29.1386C16.9095 29.2086 16.9211 29.2784 16.9458 29.3438C16.9705 29.4093 17.0078 29.4693 17.0555 29.5203C17.1033 29.5714 17.1606 29.6124 17.2241 29.6412C17.2877 29.67 17.3563 29.686 17.426 29.6881C17.4957 29.6903 17.5652 29.6787 17.6304 29.6539C17.6957 29.6291 17.7554 29.5917 17.8062 29.5438C18.0168 29.2861 18.2808 29.0776 18.5799 28.933C18.879 28.7883 19.206 28.7109 19.538 28.7063C19.8271 28.7695 20.0923 28.914 20.3027 29.1229C20.663 29.4294 21.0736 29.6709 21.5161 29.8365C21.9106 29.975 22.3257 30.0448 22.7436 30.0427C23.1871 30.0392 23.628 29.9729 24.0531 29.8459C24.1201 29.8265 24.1827 29.7941 24.2373 29.7504C24.2918 29.7068 24.3373 29.6528 24.371 29.5915C24.4048 29.5302 24.4262 29.4629 24.4341 29.3933C24.4419 29.3237 24.436 29.2533 24.4167 29.186C24.3975 29.1187 24.3652 29.0558 24.3217 29.0011C24.2782 28.9463 24.2244 28.9006 24.1634 28.8667C24.1024 28.8328 24.0353 28.8113 23.966 28.8035C23.8966 28.7956 23.8265 28.8015 23.7594 28.8209L23.7594 28.8208ZM29.2188 27.7333C29.1137 27.7333 29.011 27.7646 28.9236 27.8232C28.8362 27.8818 28.7682 27.9651 28.7279 28.0626C28.6877 28.16 28.6772 28.2673 28.6977 28.3707C28.7182 28.4742 28.7688 28.5692 28.8431 28.6438C28.9174 28.7184 29.0121 28.7692 29.1151 28.7898C29.2182 28.8103 29.325 28.7998 29.4221 28.7594C29.5191 28.719 29.6021 28.6507 29.6605 28.563C29.7188 28.4753 29.75 28.3722 29.75 28.2667C29.75 28.1252 29.694 27.9896 29.5944 27.8895C29.4948 27.7895 29.3596 27.7333 29.2188 27.7333ZM27.0938 28.8C26.9887 28.8 26.886 28.8313 26.7986 28.8899C26.7112 28.9485 26.6432 29.0318 26.6029 29.1292C26.5627 29.2267 26.5522 29.3339 26.5727 29.4374C26.5932 29.5408 26.6438 29.6359 26.7181 29.7105C26.7924 29.785 26.8871 29.8358 26.9901 29.8564C27.0932 29.877 27.2 29.8664 27.2971 29.8261C27.3941 29.7857 27.4771 29.7173 27.5355 29.6296C27.5938 29.5419 27.625 29.4388 27.625 29.3333C27.625 29.1919 27.569 29.0562 27.4694 28.9562C27.3698 28.8562 27.2346 28.8 27.0938 28.8Z" fill="#363636"/>
</svg>
