<svg width="19" height="30" viewBox="0 0 19 30" fill="none" xmlns="http://www.w3.org/2000/svg">
<path d="M15.0419 8.06584L12.5313 4.01628C11.9154 2.80032 10.9777 1.78103 9.82261 1.07194C8.66748 0.362858 7.34029 -0.00818757 5.98885 0.000137057H1.69603C1.24621 0.000137064 0.814821 0.180751 0.496754 0.502245C0.178688 0.82374 0 1.25978 0 1.71444C0 2.1691 0.178688 2.60514 0.496754 2.92664C0.814821 3.24813 1.24621 3.42875 1.69603 3.42875H2.41542L1.68696 10.7954C1.23817 10.798 0.808696 10.9804 0.492679 11.3025C0.176661 11.6246 -0.000121022 12.0602 0.00107824 12.5139C0.00227749 12.9675 0.18136 13.4022 0.499077 13.7226C0.816793 14.043 1.24722 14.223 1.69603 14.2231H7.85696C9.47637 14.225 11.0289 14.876 12.1741 16.0334C13.3192 17.1908 13.9634 18.7601 13.9654 20.3969V27.4556C13.9654 28.1304 14.2306 28.7776 14.7027 29.2547C15.1748 29.7319 15.8151 30 16.4827 30C17.1503 30 17.7906 29.7319 18.2627 29.2547C18.7348 28.7776 19 28.1304 19 27.4556V21.9844C19.0017 17.061 17.6298 12.2369 15.0419 8.06584ZM18.0578 21.5624H14.8929V20.6249H18.0253C18.0419 20.9368 18.0528 21.2492 18.0578 21.5624ZM6.21389 13.2857H1.69603C1.4922 13.2857 1.29672 13.2038 1.15259 13.0581C1.00846 12.9124 0.927492 12.7149 0.927492 12.5088C0.927492 12.3028 1.00846 12.1052 1.15259 11.9595C1.29672 11.8139 1.4922 11.732 1.69603 11.732H6.21389C6.85096 11.7314 7.4809 11.5965 8.06349 11.3359C8.64607 11.0753 9.16849 10.6948 9.59738 10.2187C10.0291 9.74215 10.3563 9.17867 10.5572 8.56527C10.7582 7.95187 10.8285 7.30242 10.7635 6.6596C10.6212 5.49873 10.0604 4.43165 9.18843 3.66258C8.31643 2.89352 7.19449 2.47647 6.0373 2.49126H1.69603C1.4922 2.49126 1.29672 2.40942 1.15259 2.26373C1.00846 2.11805 0.927492 1.92047 0.927492 1.71444C0.927492 1.50842 1.00846 1.31083 1.15259 1.16515C1.29672 1.01947 1.4922 0.937625 1.69603 0.937625H5.98885C6.96551 0.93334 7.93027 1.1543 8.80971 1.58369C9.68915 2.01308 10.4601 2.63958 11.0639 3.41553L11.7185 4.47152C12.0582 5.16792 12.2587 5.92515 12.3087 6.69993C12.3645 7.54353 12.2483 8.38972 11.9672 9.18605C11.6862 9.98239 11.2463 10.7119 10.6749 11.3293C10.1035 11.9468 9.41266 12.439 8.64531 12.7756C7.87795 13.1121 7.05039 13.2857 6.21392 13.2857L6.21389 13.2857ZM2.61921 10.7945L3.34761 3.42875H6.03734C6.96425 3.41235 7.86462 3.74187 8.56627 4.3543C9.26793 4.96673 9.72162 5.8191 9.8406 6.74839C9.89065 7.26021 9.83412 7.77695 9.67464 8.26534C9.51517 8.75373 9.25628 9.20296 8.91464 9.58411C8.57301 9.96525 8.1562 10.2699 7.69105 10.4783C7.2259 10.6868 6.72272 10.7945 6.21389 10.7945H2.61921ZM9.36901 13.4553C10.566 12.8564 11.5672 11.9222 12.2533 10.764C12.9394 9.60579 13.2815 8.27254 13.2386 6.92327L14.2557 8.56388C16.3372 11.9261 17.6052 15.737 17.9565 19.6874H14.855C14.7047 18.1976 14.0937 16.7936 13.1089 15.6748C12.124 14.5561 10.8154 13.7794 9.369 13.4553H9.36901ZM18.0725 27.4556C18.0725 27.8817 17.905 28.2905 17.6069 28.5918C17.3087 28.8932 16.9043 29.0625 16.4827 29.0625C16.061 29.0625 15.6567 28.8932 15.3585 28.5918C15.0604 28.2905 14.8929 27.8817 14.8929 27.4556V26.2498H18.0725V27.4556ZM18.0725 25.3123H14.8929V24.3748H18.0725L18.0725 25.3123ZM18.0725 23.4374H14.8929V22.4999H18.0725L18.0725 23.4374Z" fill="#363636"/>
</svg>
