<svg width="34" height="28" viewBox="0 0 34 28" fill="none" xmlns="http://www.w3.org/2000/svg">
<path d="M33.7253 11.49C34.0261 10.6479 34.0811 9.74004 33.8841 8.86888C33.6871 7.99772 33.246 7.19793 32.6104 6.55976C31.982 5.91363 31.1843 5.44985 30.305 5.21928C29.4256 4.98871 28.4985 5.00027 27.6254 5.25268L25.3536 5.91514C24.9054 6.04151 24.43 6.04151 23.9818 5.91514L23.9778 5.92877C23.9668 5.92374 23.958 5.91545 23.947 5.91055C23.9063 5.89587 23.8638 5.88635 23.8207 5.8822L23.8203 5.86775L21.7417 5.2639C21.4882 5.1706 21.214 5.14545 20.9473 5.19105C20.6806 5.23666 20.4312 5.35135 20.2249 5.52328C20.0495 5.67472 19.9109 5.86285 19.8194 6.07381C19.7279 6.28477 19.6859 6.51319 19.6963 6.74224L19.69 6.75587L16.4856 5.28654C16.6676 4.42087 16.523 3.51976 16.0787 2.75088C15.6344 1.98201 14.9205 1.39772 14.07 1.10674L11.0541 0.0855279C10.6542 -0.0497988 10.2158 -0.0237289 9.83548 0.158007C9.45512 0.339742 9.16388 0.662266 9.02577 1.05467L7.63778 5.00144C7.5289 5.31544 7.52462 5.65528 7.62555 5.97182C7.72648 6.28836 7.92739 6.56519 8.19923 6.76227L6.71658 13.7021C6.59889 14.2526 6.38151 14.778 6.07478 15.2532L0.40956 24.0242C0.19652 24.3542 0.0623473 24.7272 0.0170979 25.1153C-0.0281516 25.5034 0.0166959 25.8965 0.148279 26.2651C0.279862 26.6338 0.494767 26.9684 0.776888 27.244C1.05901 27.5196 1.40103 27.7289 1.77731 27.8563C2.05641 27.9511 2.34965 27.9997 2.64501 28C3.09151 27.9998 3.53058 27.8878 3.9206 27.6744C4.31063 27.4611 4.63869 27.1536 4.8737 26.781L11.0026 17.152C11.2131 16.8136 11.3871 16.4546 11.5218 16.0809C11.5469 16.0311 11.5635 15.9776 11.571 15.9225C11.6477 15.7178 11.7125 15.509 11.7649 15.2971L13.2978 8.16514C13.8938 8.10948 14.4657 7.90708 14.9607 7.57668C15.4557 7.24629 15.8577 6.7986 16.1294 6.27513L18.8542 7.52459L18.6052 7.63447C18.2441 7.79517 17.9413 8.05978 17.7369 8.39323C17.5325 8.72667 17.4362 9.11321 17.4608 9.50159L17.4748 9.70848C17.4867 9.882 17.4449 10.055 17.355 10.2049C17.265 10.3547 17.131 10.4744 16.9706 10.5483C16.5256 10.759 16.1787 11.1276 16 11.5797C15.8213 12.0317 15.8241 12.5335 16.0079 12.9836L16.7026 14.6774L17.1399 15.9483C17.322 16.4425 17.3361 16.9814 17.1798 17.4842C16.6815 18.9331 16.49 20.4668 16.6172 21.9909C16.7443 23.5151 17.1874 24.9977 17.9193 26.3479L18.3804 27.204C18.5133 27.4446 18.7109 27.6449 18.9516 27.7831C19.1924 27.9213 19.4672 27.9921 19.7461 27.9877C20.0261 27.9818 20.2988 27.8983 20.5325 27.7469C20.7663 27.5954 20.9516 27.3821 21.0671 27.1316L23.5336 21.8625C23.6332 21.6496 23.7929 21.4692 23.9938 21.3428C24.1948 21.2163 24.4285 21.1491 24.6672 21.1491C24.9059 21.1491 25.1396 21.2163 25.3405 21.3428C25.5414 21.4692 25.7012 21.6496 25.8007 21.8625L28.2667 27.1296C28.3819 27.3805 28.5672 27.5943 28.8011 27.7462C29.035 27.898 29.3079 27.9818 29.5883 27.9877L29.6319 27.9888C29.9043 27.9901 30.1718 27.9176 30.405 27.7793C30.6382 27.641 30.8279 27.4423 30.9534 27.205L31.4623 26.2562C32.1721 24.9231 32.6004 23.4631 32.7216 21.9637C32.8428 20.4643 32.6543 18.9563 32.1675 17.5301C32.0004 17.035 32.0028 16.4999 32.1742 16.0064L33.7253 11.49ZM3.97226 26.2287C3.86236 26.4008 3.71894 26.55 3.5502 26.6677C3.38147 26.7854 3.19074 26.8693 2.98892 26.9146C2.78711 26.9598 2.57819 26.9656 2.37411 26.9315C2.17003 26.8974 1.9748 26.8241 1.79961 26.7159C1.62442 26.6077 1.4727 26.4666 1.35314 26.3008C1.23358 26.1349 1.14853 25.9476 1.10286 25.7494C1.05718 25.5513 1.05178 25.3462 1.08697 25.146C1.12215 24.9458 1.19723 24.7544 1.3079 24.5827L4.57221 19.5289L9.83847 17.0123L3.97226 26.2287ZM10.7243 15.081C10.6942 15.2213 10.6405 15.3534 10.5979 15.4895L5.65595 17.8511L6.89194 15.9375L10.9538 14.0133L10.7243 15.081ZM11.231 12.7233L7.59227 14.4471C7.64855 14.2705 7.71819 14.0987 7.7572 13.9161L7.95556 12.9878L11.5425 11.2739L11.231 12.7233ZM11.8207 9.98009L8.23175 11.6953L9.19558 7.1845L12.2027 8.20266L11.8207 9.98009ZM15.3686 5.41065C15.2547 5.73454 15.077 6.03325 14.8455 6.28972C14.6139 6.54619 14.3332 6.75539 14.0193 6.9054C13.7054 7.0554 13.3645 7.14325 13.016 7.16395C12.6675 7.18465 12.3182 7.13779 11.9882 7.02603L8.97229 6.00482C8.83913 5.95948 8.72971 5.86419 8.668 5.73983C8.60629 5.61547 8.59733 5.47218 8.64308 5.34134L10.0311 1.39512C10.0771 1.2643 10.1741 1.15676 10.3009 1.09618C10.4277 1.03559 10.5738 1.02691 10.7072 1.07205L13.7231 2.09326C14.389 2.31972 14.9363 2.79615 15.2448 3.41806C15.5533 4.03996 15.5978 4.75655 15.3686 5.41064L15.3686 5.41065ZM31.1746 17.9072C31.6087 19.194 31.7746 20.5533 31.6623 21.9043C31.5501 23.2553 31.1621 24.5703 30.5214 25.7711L30.012 26.7209C29.9737 26.7909 29.9162 26.8489 29.8461 26.8885C29.7759 26.9281 29.6959 26.9477 29.615 26.9451C29.5341 26.9424 29.4556 26.9177 29.3883 26.8736C29.321 26.8295 29.2676 26.7678 29.2341 26.6955L26.7671 21.4264C26.5824 21.0322 26.2864 20.6982 25.9141 20.4641C25.5419 20.23 25.109 20.1055 24.6669 20.1055C24.2248 20.1055 23.7919 20.23 23.4197 20.4641C23.0474 20.6982 22.7514 21.0322 22.5667 21.4264L20.0997 26.6975C20.0658 26.7696 20.0121 26.831 19.9446 26.8748C19.8771 26.9185 19.7984 26.9429 19.7175 26.9451C19.6366 26.9474 19.5567 26.9274 19.4868 26.8874C19.4169 26.8474 19.3597 26.7891 19.3218 26.7189L18.8591 25.8598C18.1947 24.6345 17.7925 23.2889 17.6771 21.9056C17.5617 20.5223 17.7357 19.1304 18.1883 17.8155C18.421 17.0971 18.4066 16.3236 18.1472 15.6141L17.7053 14.3289L17.6949 14.3014L16.9945 12.5943C16.911 12.3891 16.9102 12.1604 16.9923 11.9546C17.0743 11.7489 17.2331 11.5815 17.4364 11.4864C17.7874 11.3225 18.08 11.0587 18.2762 10.7294C18.4724 10.4 18.5629 10.0203 18.5362 9.63968L18.5222 9.43279C18.511 9.25668 18.5547 9.08141 18.6475 8.93024C18.7402 8.77908 18.8776 8.65916 19.0414 8.58641L19.6251 8.32856C19.9282 8.19382 20.1913 7.98552 20.3897 7.72331C20.588 7.46111 20.715 7.15364 20.7586 6.82991C20.7631 6.78976 20.7636 6.74929 20.7602 6.70905C20.755 6.63663 20.7662 6.56398 20.7928 6.49626C20.8195 6.42854 20.861 6.3674 20.9144 6.31718C20.9827 6.2637 21.0646 6.22951 21.1513 6.2183C21.2379 6.20708 21.326 6.21925 21.4061 6.25351L23.5217 6.86915C23.9022 7.04058 24.2374 7.29576 24.5011 7.61487C24.7649 7.93398 24.9501 8.30844 25.0426 8.70919C25.0687 8.82513 25.1344 8.92886 25.2287 9.00325C25.323 9.07765 25.4403 9.11826 25.5613 9.11839C25.6001 9.11833 25.6387 9.11423 25.6766 9.10616C25.8143 9.07628 25.9343 8.99394 26.0101 8.87726C26.086 8.76058 26.1115 8.61911 26.0811 8.48396C25.9549 7.93437 25.7022 7.42042 25.3423 6.98151C25.4459 6.96189 25.5499 6.94559 25.6522 6.91698L27.9266 6.25403C28.6117 6.05707 29.3386 6.04838 30.0284 6.22888C30.7181 6.40938 31.3442 6.77216 31.8383 7.2777C32.3325 7.78325 32.6758 8.41217 32.8309 9.09597C32.986 9.77976 32.9469 10.4922 32.7179 11.1557L31.1668 15.6722C30.9178 16.3976 30.9205 17.1835 31.1746 17.9072Z" fill="#363636"/>
</svg>
