<svg width="20" height="26" viewBox="0 0 20 26" fill="none" xmlns="http://www.w3.org/2000/svg">
<path d="M19.7124 7.15128C20.0286 6.21465 20.0854 5.20522 19.8762 4.23699C19.6671 3.26875 19.2004 2.38027 18.5289 1.67187C17.8713 0.949705 17.0315 0.432181 16.1045 0.177801C15.1774 -0.0765788 14.2 -0.0576707 13.2828 0.232388L10.7996 0.988809C10.2776 1.14826 9.72206 1.14826 9.2 0.988809L6.71715 0.232412C5.79994 -0.0575898 4.82258 -0.0764692 3.89554 0.177908C2.9685 0.432284 2.12872 0.949776 1.47113 1.6719C0.799578 2.3803 0.33289 3.26877 0.123759 4.237C-0.0853711 5.20523 -0.0286142 6.21465 0.287621 7.15128L1.98886 12.3546C2.1904 12.9807 2.18473 13.6584 1.97275 14.2808C1.4586 15.8961 1.26369 17.6019 1.39961 19.2967C1.53552 20.9915 1.9995 22.6407 2.76394 24.1464L3.30239 25.2003C3.42878 25.4479 3.61966 25.6539 3.85341 25.7951C4.08716 25.9363 4.35445 26.007 4.62503 25.9992C4.89561 25.9914 5.15868 25.9054 5.38447 25.751C5.61025 25.5965 5.78973 25.3798 5.90259 25.1253L8.58907 19.0629C8.71287 18.7834 8.91164 18.5466 9.16176 18.3806C9.41187 18.2146 9.70281 18.1263 10 18.1263C10.2972 18.1263 10.5881 18.2146 10.8382 18.3806C11.0884 18.5466 11.2871 18.7834 11.4109 19.0629L14.0974 25.1253C14.2094 25.3805 14.3886 25.5978 14.6146 25.7523C14.8406 25.9069 15.1041 25.9925 15.3749 25.9992L15.4167 26C15.6805 26.0009 15.9395 25.9267 16.1654 25.7857C16.3913 25.6447 16.5754 25.4422 16.6976 25.2003L17.2019 24.2138C17.9769 22.6876 18.4474 21.0158 18.5855 19.2978C18.7235 17.5798 18.5262 15.8506 18.0054 14.213C17.8132 13.6092 17.8152 12.9572 18.0111 12.3547L19.7124 7.15128ZM17.2598 14.4688C17.7476 16.0024 17.9324 17.6218 17.8032 19.2307C17.6739 20.8397 17.2332 22.4053 16.5074 23.8346L16.0035 24.8211C15.9483 24.937 15.8613 25.0336 15.7534 25.0987C15.6455 25.1638 15.5215 25.1946 15.3967 25.1872C15.2724 25.1852 15.1512 25.1464 15.0475 25.0754C14.9438 25.0044 14.8619 24.9042 14.8115 24.7866L12.125 18.7241C11.9385 18.3034 11.6391 17.9468 11.2624 17.6968C10.8857 17.4469 10.4476 17.314 10 17.314C9.55245 17.314 9.1143 17.4469 8.73761 17.6968C8.36092 17.9468 8.06152 18.3034 7.87498 18.7241L5.18847 24.7866C5.13679 24.9033 5.05456 25.0026 4.9511 25.0734C4.84764 25.1442 4.72708 25.1836 4.60307 25.1872C4.47906 25.1908 4.35655 25.1584 4.24942 25.0937C4.14229 25.029 4.05482 24.9346 3.9969 24.8211L3.45845 23.7672C2.74047 22.3489 2.30647 20.7953 2.1824 19.1995C2.05832 17.6036 2.24674 15.9983 2.73636 14.4795C2.98779 13.7055 2.98658 12.8676 2.73292 12.0944L1.03168 6.89111C0.76299 6.09517 0.71476 5.2374 0.892435 4.41462C1.07011 3.59184 1.46661 2.8368 2.03719 2.23474C2.59606 1.62107 3.30974 1.1813 4.09758 0.965129C4.88541 0.748959 5.71601 0.765003 6.49549 1.01145L8.97794 1.76787C9.1911 1.83022 9.40936 1.87213 9.62996 1.89306C9.13905 2.42475 8.79702 3.0844 8.64042 3.80153C8.61798 3.90672 8.63685 4.01683 8.69287 4.10765C8.74889 4.19846 8.83748 4.26256 8.93917 4.28584C8.96715 4.2921 8.99569 4.29529 9.02431 4.29536C9.11368 4.29526 9.20034 4.26365 9.27 4.20574C9.33965 4.14783 9.38813 4.06709 9.40744 3.97685C9.51466 3.48416 9.73079 3.02387 10.0389 2.63208C10.347 2.24028 10.7386 1.92764 11.1831 1.71868L12.4134 1.34384L13.106 4.7614L10.9035 6.9918C10.8453 7.05061 10.8062 7.12667 10.7917 7.20945C10.7771 7.29224 10.7878 7.37766 10.8222 7.45391L12.3931 10.9401C12.4149 10.9885 12.4457 11.0319 12.4837 11.0679C12.5217 11.1039 12.5663 11.1319 12.6147 11.1501C12.6632 11.1683 12.7147 11.1765 12.7662 11.1742C12.8177 11.1718 12.8683 11.159 12.915 11.1365C12.9618 11.1139 13.0037 11.082 13.0386 11.0427C13.0734 11.0034 13.1004 10.9573 13.118 10.9072C13.1357 10.8571 13.1436 10.8038 13.1413 10.7505C13.139 10.6973 13.1267 10.6449 13.1049 10.5966L11.6513 7.37101L13.5102 5.48872L15.5934 7.98741C15.6505 8.0558 15.728 8.10257 15.8136 8.12031C15.8993 8.13806 15.9882 8.12577 16.0663 8.08539L17.6372 7.27304C17.6834 7.24926 17.7247 7.21627 17.7586 7.17597C17.7925 7.13567 17.8184 7.08885 17.8348 7.03818C17.8512 6.98752 17.8578 6.934 17.8541 6.88071C17.8505 6.82741 17.8367 6.77538 17.8136 6.7276C17.7905 6.67981 17.7586 6.63721 17.7195 6.60222C17.6805 6.56724 17.6351 6.54057 17.5861 6.52374C17.5371 6.5069 17.4853 6.50024 17.4338 6.50412C17.3823 6.508 17.332 6.52236 17.2859 6.54636L15.9884 7.2175L13.8979 4.71001L13.1691 1.11363L13.5045 1.01145C14.284 0.76515 15.1146 0.74918 15.9024 0.965342C16.6902 1.1815 17.4039 1.62119 17.9628 2.23474C18.5334 2.83679 18.9299 3.59182 19.1076 4.4146C19.2853 5.23737 19.237 6.09514 18.9684 6.89108L17.2671 12.0944C17.017 12.8643 17.0144 13.6973 17.2598 14.4688Z" fill="#363636"/>
</svg>
