<svg width="19" height="26" viewBox="0 0 19 26" fill="none" xmlns="http://www.w3.org/2000/svg">
<path d="M3.14154 10.5851L3.65797 12.0962C3.6975 12.2157 3.69559 12.3455 3.65256 12.4636C3.48359 12.9706 3.41938 13.5081 3.46404 14.0419C3.5087 14.5757 3.66124 15.0941 3.91194 15.5641L4.07545 15.8691C4.1382 15.989 4.23259 16.0882 4.34779 16.1555C4.463 16.2228 4.59436 16.2554 4.7268 16.2496C4.85887 16.2467 4.98758 16.2062 5.09856 16.1327C5.20954 16.0591 5.29844 15.9554 5.35534 15.833L6.17097 14.0723C6.18857 14.0394 6.21449 14.0119 6.246 13.9928C6.27751 13.9737 6.31345 13.9636 6.35006 13.9636C6.38667 13.9637 6.42259 13.9738 6.45406 13.993C6.48553 14.0122 6.51139 14.0398 6.52892 14.0727L7.34455 15.833C7.40146 15.9554 7.49035 16.0591 7.60133 16.1327C7.71232 16.2062 7.84102 16.2467 7.9731 16.2496L7.99398 16.25C8.12273 16.2508 8.24929 16.2159 8.36027 16.1489C8.47126 16.0819 8.56254 15.9854 8.62446 15.8695L8.77753 15.5831C9.03139 15.1073 9.18591 14.5825 9.23123 14.0421C9.27656 13.5017 9.21169 12.9575 9.04078 12.4442C9.00288 12.3314 9.00329 12.2088 9.04193 12.0963L9.55837 10.5851C9.66864 10.2699 9.69076 9.92924 9.62224 9.60176C9.55373 9.27428 9.3973 8.973 9.17065 8.732C8.93234 8.47287 8.62898 8.28623 8.29397 8.19265C7.95897 8.09906 7.60529 8.10215 7.27189 8.20158L6.5181 8.42137C6.40824 8.4539 6.29166 8.4539 6.1818 8.42137L5.42801 8.20158C5.09462 8.10198 4.7409 8.0988 4.40586 8.1924C4.07082 8.28599 3.76747 8.47272 3.52925 8.732C3.30261 8.973 3.14618 9.27428 3.07766 9.60176C3.00915 9.92924 3.03127 10.2699 3.14154 10.5851ZM4.10599 9.289C4.24494 9.13845 4.4217 9.03021 4.61679 8.97623C4.81187 8.92226 5.01769 8.92465 5.21154 8.98313L5.96533 9.20292C6.2167 9.27671 6.4832 9.27671 6.73457 9.20292L7.48836 8.98313C7.6822 8.92453 7.88805 8.92209 8.08316 8.97607C8.27827 9.03005 8.45503 9.13835 8.59391 9.289C8.71989 9.42236 8.80703 9.5892 8.84548 9.77071C8.88394 9.95221 8.87218 10.1411 8.81153 10.3161L8.29508 11.8273C8.19796 12.1124 8.197 12.4227 8.29238 12.7084C8.42756 13.1147 8.47878 13.5454 8.44278 13.9732C8.40677 14.4009 8.28433 14.8162 8.08325 15.1927L8.01406 15.3855L7.24404 13.724C7.1622 13.5522 7.03503 13.4075 6.87699 13.3062C6.71894 13.2049 6.53637 13.1512 6.35005 13.1511C6.16373 13.1511 5.98114 13.2047 5.82305 13.3059C5.66496 13.4072 5.53773 13.5519 5.45583 13.7236L4.70171 15.3518L4.60623 15.1733C4.40757 14.7999 4.28717 14.388 4.25275 13.9641C4.21833 13.5402 4.27065 13.1135 4.40635 12.7116C4.50384 12.4252 4.50328 12.1133 4.40477 11.8273L3.88833 10.3161C3.82769 10.1411 3.81594 9.95219 3.8544 9.77069C3.89287 9.5892 3.98001 9.42235 4.10599 9.289ZM16.2292 22.75H2.77083C2.66585 22.75 2.56517 22.7928 2.49094 22.869C2.4167 22.9452 2.375 23.0485 2.375 23.1562C2.375 23.264 2.4167 23.3673 2.49094 23.4435C2.56517 23.5197 2.66585 23.5625 2.77083 23.5625H16.2292C16.3341 23.5625 16.4348 23.5197 16.5091 23.4435C16.5833 23.3673 16.625 23.264 16.625 23.1562C16.625 23.0485 16.5833 22.9452 16.5091 22.869C16.4348 22.7928 16.3341 22.75 16.2292 22.75ZM11.4792 8.9375H13.8542C13.9591 8.9375 14.0598 8.8947 14.1341 8.81851C14.2083 8.74233 14.25 8.63899 14.25 8.53125C14.25 8.42351 14.2083 8.32017 14.1341 8.24399C14.0598 8.1678 13.9591 8.125 13.8542 8.125H11.4792C11.3742 8.125 11.2735 8.1678 11.1993 8.24399C11.125 8.32017 11.0833 8.42351 11.0833 8.53125C11.0833 8.63899 11.125 8.74233 11.1993 8.81851C11.2735 8.8947 11.3742 8.9375 11.4792 8.9375ZM16.2292 20.3125H2.77083C2.66585 20.3125 2.56517 20.3553 2.49094 20.4315C2.4167 20.5077 2.375 20.611 2.375 20.7188C2.375 20.8265 2.4167 20.9298 2.49094 21.006C2.56517 21.0822 2.66585 21.125 2.77083 21.125H16.2292C16.3341 21.125 16.4348 21.0822 16.5091 21.006C16.5833 20.9298 16.625 20.8265 16.625 20.7188C16.625 20.611 16.5833 20.5077 16.5091 20.4315C16.4348 20.3553 16.3341 20.3125 16.2292 20.3125ZM18.9899 6.04175C18.9877 6.02441 18.9844 6.00724 18.9799 5.99038C18.9643 5.92229 18.9316 5.85958 18.885 5.80852L18.884 5.80654L16.1134 2.96297L13.3428 0.119015C13.292 0.0700082 13.2294 0.0358616 13.1615 0.0201338C13.1463 0.0160192 13.131 0.0128875 13.1155 0.0107575C13.0982 0.00591732 13.0806 0.0023227 13.0629 0L1.97917 0C1.45445 0.000632193 0.951397 0.214841 0.580365 0.595638C0.209332 0.976434 0.000615983 1.49272 0 2.03125V23.9688C0.000615983 24.5073 0.209332 25.0236 0.580365 25.4044C0.951397 25.7852 1.45445 25.9994 1.97917 26H17.0208C17.5456 25.9994 18.0486 25.7852 18.4196 25.4044C18.7907 25.0236 18.9994 24.5073 19 23.9688V6.09415C18.9978 6.07647 18.9944 6.05896 18.9899 6.04175ZM13.4583 1.38694L15.5537 3.53741L17.6483 5.6875H14.6458C14.331 5.68715 14.0291 5.55863 13.8065 5.33015C13.5839 5.10166 13.4587 4.79187 13.4583 4.46875V1.38694ZM13.0726 5.6875H3.5625C3.45754 5.68743 3.3569 5.6446 3.28268 5.56843C3.20846 5.49226 3.16674 5.38897 3.16667 5.28125V3.65625C3.16674 3.54853 3.20846 3.44524 3.28268 3.36907C3.3569 3.2929 3.45754 3.25007 3.5625 3.25H12.6667V4.46875C12.6682 4.90968 12.8108 5.33789 13.0726 5.6875ZM18.2083 23.9688C18.208 24.2919 18.0828 24.6017 17.8601 24.8301C17.6375 25.0586 17.3357 25.1871 17.0208 25.1875H1.97917C1.66433 25.1871 1.36248 25.0586 1.13986 24.8301C0.917232 24.6017 0.79201 24.2919 0.791667 23.9688V2.03125C0.79201 1.70813 0.917232 1.39834 1.13986 1.16985C1.36248 0.94137 1.66433 0.812853 1.97917 0.8125H12.6667V2.4375H3.5625C3.24766 2.43785 2.94582 2.56637 2.72319 2.79485C2.50057 3.02334 2.37534 3.33313 2.375 3.65625V5.28125C2.37534 5.60437 2.50057 5.91416 2.72319 6.14265C2.94582 6.37113 3.24766 6.49965 3.5625 6.5H18.2083V23.9688ZM11.4792 11.375H16.2292C16.3341 11.375 16.4348 11.3322 16.5091 11.256C16.5833 11.1798 16.625 11.0765 16.625 10.9688C16.625 10.861 16.5833 10.7577 16.5091 10.6815C16.4348 10.6053 16.3341 10.5625 16.2292 10.5625H11.4792C11.3742 10.5625 11.2735 10.6053 11.1993 10.6815C11.125 10.7577 11.0833 10.861 11.0833 10.9688C11.0833 11.0765 11.125 11.1798 11.1993 11.256C11.2735 11.3322 11.3742 11.375 11.4792 11.375ZM16.2292 17.875H2.77083C2.66585 17.875 2.56517 17.9178 2.49094 17.994C2.4167 18.0702 2.375 18.1735 2.375 18.2812C2.375 18.389 2.4167 18.4923 2.49094 18.5685C2.56517 18.6447 2.66585 18.6875 2.77083 18.6875H16.2292C16.3341 18.6875 16.4348 18.6447 16.5091 18.5685C16.5833 18.4923 16.625 18.389 16.625 18.2812C16.625 18.1735 16.5833 18.0702 16.5091 17.994C16.4348 17.9178 16.3341 17.875 16.2292 17.875ZM11.4792 16.25H16.2292C16.3341 16.25 16.4348 16.2072 16.5091 16.131C16.5833 16.0548 16.625 15.9515 16.625 15.8438C16.625 15.736 16.5833 15.6327 16.5091 15.5565C16.4348 15.4803 16.3341 15.4375 16.2292 15.4375H11.4792C11.3742 15.4375 11.2735 15.4803 11.1993 15.5565C11.125 15.6327 11.0833 15.736 11.0833 15.8438C11.0833 15.9515 11.125 16.0548 11.1993 16.131C11.2735 16.2072 11.3742 16.25 11.4792 16.25ZM11.4792 13.8125H16.2292C16.3341 13.8125 16.4348 13.7697 16.5091 13.6935C16.5833 13.6173 16.625 13.514 16.625 13.4062C16.625 13.2985 16.5833 13.1952 16.5091 13.119C16.4348 13.0428 16.3341 13 16.2292 13H11.4792C11.3742 13 11.2735 13.0428 11.1993 13.119C11.125 13.1952 11.0833 13.2985 11.0833 13.4062C11.0833 13.514 11.125 13.6173 11.1993 13.6935C11.2735 13.7697 11.3742 13.8125 11.4792 13.8125Z" fill="#363636"/>
</svg>
