<svg width="31" height="31" viewBox="0 0 31 31" fill="none" xmlns="http://www.w3.org/2000/svg">
<path d="M30.111 19.497L28.595 17.9805L28.5948 17.9803L28.5946 17.9801L26.3221 15.707L26.3206 15.7048L26.3183 15.7033L24.0481 13.4324L24.0463 13.4298L24.0436 13.428L21.771 11.1547C21.5365 10.9226 21.236 10.7688 20.9106 10.7145C20.5852 10.6601 20.251 10.7078 19.9539 10.8511L15.7104 6.60682C15.2679 6.16163 14.7419 5.80813 14.1626 5.56655C13.5833 5.32496 12.962 5.20005 12.3344 5.19896C12.2877 4.21265 11.9692 3.25848 11.4141 2.44203C10.8589 1.62557 10.0888 0.978659 9.18892 0.572863C8.28904 0.167066 7.29447 0.0182068 6.31527 0.142756C5.33606 0.267305 4.41039 0.660406 3.64066 1.27857C3.58189 1.32571 3.5337 1.38472 3.49924 1.45175C3.46479 1.51877 3.44483 1.5923 3.44069 1.66755C3.43654 1.74281 3.44829 1.81809 3.47517 1.88849C3.50205 1.9589 3.54346 2.02285 3.5967 2.07618L5.12963 3.61014C5.21758 3.69765 5.33305 3.75208 5.45651 3.7642C5.57997 3.77632 5.70383 3.74538 5.8071 3.67663C6.22007 3.40419 6.71448 3.2829 7.2066 3.33329C7.69872 3.38368 8.15831 3.60266 8.50753 3.95315C8.84175 4.28556 9.0559 4.71977 9.11625 5.18734C9.17659 5.65492 9.0797 6.12929 8.84083 6.53571C8.30789 6.56675 7.80584 6.79612 7.43341 7.17871C7.06098 7.56131 6.84512 8.06944 6.82828 8.6032L6.64687 8.77026C6.2353 9.04265 5.74227 9.16441 5.25125 9.11493C4.76024 9.06545 4.3014 8.84776 3.9524 8.49873C3.60341 8.14969 3.38571 7.69074 3.33615 7.19957C3.2866 6.70841 3.40823 6.2152 3.68045 5.80344C3.74961 5.70032 3.78083 5.57638 3.76881 5.45279C3.75678 5.3292 3.70225 5.21361 3.61451 5.12576L2.08155 3.59181C2.02952 3.53685 1.96581 3.4943 1.89512 3.4673C1.82444 3.44029 1.74859 3.42952 1.67319 3.43579C1.59803 3.43976 1.52457 3.45959 1.45762 3.49397C1.39067 3.52836 1.33175 3.57651 1.28472 3.63529C0.664344 4.40333 0.269257 5.32855 0.143459 6.30793C0.0176603 7.2873 0.166088 8.28238 0.572213 9.18236C0.978337 10.0823 1.62622 10.8519 2.44371 11.4053C3.2612 11.9588 4.21621 12.2743 5.2024 12.3169C5.20224 12.9473 5.32652 13.5715 5.56812 14.1536C5.80971 14.7358 6.16385 15.2645 6.61022 15.7095L10.8535 19.9541C10.7102 20.2514 10.6623 20.5858 10.7166 20.9114C10.7709 21.237 10.9246 21.5378 11.1567 21.7725L19.4967 30.1147C19.7456 30.3637 20.0411 30.5612 20.3663 30.6959C20.6914 30.8307 21.04 30.9 21.3919 30.9C21.7439 30.9 22.0925 30.8307 22.4176 30.6959C22.7428 30.5612 23.0383 30.3637 23.2872 30.1147C23.5361 29.8658 23.7335 29.5702 23.8682 29.2449C24.0029 28.9196 24.0722 28.571 24.0722 28.2189C24.0722 27.8668 24.0029 27.5182 23.8682 27.1929C23.7335 26.8676 23.5361 26.572 23.2872 26.323L21.7716 24.8068L21.771 24.8058L21.77 24.8052L19.4968 22.531L19.4967 22.5308L19.4966 22.5308L17.223 20.2561L17.2224 20.2553L17.2216 20.2547L14.9482 17.9803C14.7133 17.748 14.4123 17.5943 14.0865 17.5402C13.7607 17.486 13.4261 17.5342 13.1288 17.678L8.87925 13.4271C8.57802 13.1248 8.40887 12.7154 8.40887 12.2886C8.40887 11.8618 8.57802 11.4524 8.87925 11.1501L9.24396 10.7852C9.70993 10.724 10.1427 10.5106 10.4751 10.1783C10.8075 9.84593 11.0209 9.41316 11.0824 8.94707L11.1525 8.87663C11.4547 8.57531 11.864 8.40611 12.2906 8.40611C12.7173 8.40611 13.1266 8.57531 13.4288 8.87663L17.6783 13.127C17.5345 13.4243 17.4862 13.7589 17.5404 14.0848C17.5945 14.4106 17.7482 14.7117 17.9805 14.9465L20.2538 17.2204L20.2548 17.2219L20.2564 17.223L22.5281 19.4954L22.5291 19.497L22.5307 19.498L26.3206 23.2892C26.5694 23.5389 26.8649 23.7372 27.1903 23.8725C27.5158 24.0079 27.8647 24.0778 28.2171 24.0781C28.5696 24.0784 28.9186 24.0092 29.2443 23.8744C29.5699 23.7396 29.8658 23.5419 30.115 23.2926C30.3642 23.0433 30.5618 22.7473 30.6965 22.4215C30.8312 22.0957 30.9003 21.7465 30.9 21.394C30.8996 21.0414 30.8297 20.6924 30.6944 20.3669C30.559 20.0414 30.3608 19.7458 30.1111 19.497L30.111 19.497ZM2.43547 10.0167C1.762 9.34458 1.33155 8.46718 1.21209 7.52307C1.09263 6.57896 1.29098 5.62194 1.77581 4.80316L2.56741 5.59553C2.26758 6.21736 2.17674 6.91948 2.30846 7.59717C2.44017 8.27486 2.78737 8.8918 3.29827 9.35595C3.80916 9.8201 4.45638 10.1066 5.14336 10.1727C5.83034 10.2388 6.52028 10.081 7.11026 9.72276C7.29535 10.0483 7.56237 10.3196 7.88478 10.5099C7.24884 10.954 6.50183 11.2121 5.72748 11.2553C5.12205 11.2971 4.51472 11.2082 3.9467 10.9945C3.37869 10.7807 2.86328 10.4473 2.43547 10.0167ZM22.5291 27.0814C22.6785 27.2307 22.797 27.408 22.8778 27.6032C22.9587 27.7984 23.0003 28.0076 23.0003 28.2189C23.0003 28.4301 22.9587 28.6393 22.8778 28.8345C22.797 29.0297 22.6785 29.207 22.5291 29.3564C22.2229 29.6493 21.8156 29.8128 21.3919 29.8128C20.9683 29.8128 20.561 29.6493 20.2548 29.3564L19.1176 28.2189L21.3918 25.9435L22.5291 27.0814ZM20.6337 25.1852L18.3596 27.4606L16.8433 25.944L19.1177 23.6684L20.6337 25.1852ZM18.3596 22.91L16.0851 25.1857L14.5686 23.6687L16.8432 21.393L18.3596 22.91ZM13.4309 18.7386C13.5316 18.638 13.6681 18.5815 13.8105 18.5815C13.9528 18.5815 14.0893 18.638 14.19 18.7386L16.0852 20.6346L13.8105 22.9105L11.9147 21.0142C11.8149 20.9141 11.7586 20.7786 11.7581 20.6372C11.7576 20.4957 11.813 20.3599 11.9122 20.2591L11.9147 20.2575L11.9188 20.2512L13.4309 18.7386ZM12.2938 18.3594L11.5347 19.1188L7.36835 14.9511C7.01807 14.5973 6.74265 14.1766 6.55851 13.714C6.37437 13.2514 6.28529 12.7564 6.29659 12.2586C6.66133 12.2081 7.01971 12.1191 7.36573 11.9931C7.31864 12.3919 7.36212 12.7961 7.49293 13.1757C7.62374 13.5553 7.83849 13.9004 8.1212 14.1854L12.2938 18.3594ZM8.96615 9.74071C8.75409 9.74071 8.54679 9.67781 8.37046 9.55995C8.19414 9.4421 8.05671 9.27459 7.97555 9.0786C7.8944 8.88262 7.87317 8.66696 7.91454 8.4589C7.95591 8.25085 8.05803 8.05973 8.20798 7.90973C8.35793 7.75973 8.54898 7.65758 8.75697 7.6162C8.96496 7.57481 9.18055 7.59605 9.37647 7.67723C9.5724 7.75841 9.73985 7.89588 9.85767 8.07227C9.97549 8.24865 10.0384 8.45602 10.0384 8.66815C10.0381 8.95252 9.92503 9.22517 9.72401 9.42625C9.52299 9.62734 9.25044 9.74043 8.96615 9.74071ZM10.7594 7.49824C10.5514 7.18372 10.2643 6.92944 9.92699 6.76092C10.1924 6.15994 10.2673 5.49205 10.1417 4.84717C10.0161 4.20229 9.69598 3.6114 9.22442 3.15407C8.75287 2.69674 8.15254 2.39494 7.5043 2.2893C6.85605 2.18366 6.191 2.27926 5.59873 2.56323L4.80713 1.77085C5.62564 1.28563 6.58243 1.08703 7.52636 1.20644C8.47028 1.32584 9.34754 1.75644 10.0195 2.43021C10.6663 3.08608 11.0868 3.93134 11.2199 4.84292C11.353 5.75449 11.1916 6.68476 10.7594 7.49824ZM14.1869 8.11825C13.9025 7.83548 13.5578 7.6206 13.1788 7.48964C12.7997 7.35868 12.396 7.315 11.9977 7.36187C12.1229 7.01581 12.2114 6.65752 12.2616 6.29292C12.7591 6.28164 13.2538 6.37078 13.7161 6.555C14.1784 6.73923 14.5989 7.01476 14.9524 7.36515L19.119 11.5326L18.3599 12.292L14.1869 8.11825ZM18.7386 14.1881C18.6888 14.1383 18.6493 14.0792 18.6224 14.0141C18.5955 13.9491 18.5816 13.8793 18.5816 13.8089C18.5816 13.7385 18.5955 13.6688 18.6224 13.6037C18.6493 13.5387 18.6888 13.4796 18.7386 13.4298L20.2523 11.9157L20.2569 11.9126L20.258 11.911C20.3586 11.8117 20.4945 11.7561 20.6359 11.7565C20.7773 11.7569 20.9128 11.8132 21.0129 11.9132L22.9087 13.8094L20.6342 16.0844L18.7386 14.1881ZM21.3923 16.8426L23.6668 14.5677L25.183 16.0843L22.9085 18.3593L21.3923 16.8426ZM23.6665 19.1176L25.9411 16.8426L27.4577 18.3595L25.1834 20.635L23.6665 19.1176ZM29.353 22.5308C29.0509 22.8317 28.6421 23.0006 28.2158 23.0006C27.7896 23.0006 27.3807 22.8317 27.0787 22.5308L25.9415 21.3933L28.2158 19.1178L29.353 20.2553C29.6542 20.5573 29.8234 20.9664 29.8234 21.3931C29.8234 21.8197 29.6542 22.2288 29.3529 22.5308L29.353 22.5308Z" fill="#363636"/>
</svg>
