<svg width="28" height="28" viewBox="0 0 28 28" fill="none" xmlns="http://www.w3.org/2000/svg">
<path d="M25.8125 0H2.1875C1.6075 0.000537489 1.05142 0.231178 0.641298 0.641298C0.231178 1.05142 0.000537489 1.6075 0 2.1875L0 25.8125C0.000537489 26.3925 0.231178 26.9486 0.641298 27.3587C1.05142 27.7688 1.6075 27.9995 2.1875 28H25.8125C26.3925 27.9995 26.9486 27.7688 27.3587 27.3587C27.7688 26.9486 27.9995 26.3925 28 25.8125V2.1875C27.9995 1.6075 27.7688 1.05142 27.3587 0.641298C26.9486 0.231178 26.3925 0.000537489 25.8125 0V0ZM0.875 5.7268L1.78675 5.45935C2.34638 5.28788 2.94285 5.27656 3.50858 5.42668C4.07431 5.57681 4.58669 5.88237 4.98768 6.30875C5.39567 6.72527 5.67884 7.24774 5.8051 7.81695C5.93136 8.38617 5.89565 8.97937 5.70203 9.52933L4.43311 13.3011C4.23355 13.887 4.23025 14.522 4.42371 15.11C4.71159 15.9767 4.85759 16.8842 4.85608 17.7974C4.85358 19.1822 4.51738 20.546 3.87598 21.7733L3.53658 22.4056L3.03003 19.3953C2.76607 17.8413 2.73152 16.257 2.92749 14.693L3.12915 13.0729C3.16193 12.82 3.1399 12.5631 3.06456 12.3195C2.98922 12.076 2.86233 11.8514 2.69252 11.6613C2.46915 11.4119 2.18118 11.2291 1.86042 11.1331C1.53967 11.0372 1.19864 11.0318 0.875 11.1175V5.7268ZM0.875 12.0584C1.02343 11.9704 1.19356 11.9258 1.36608 11.9297C1.53859 11.9335 1.70656 11.9857 1.85092 12.0802C1.99528 12.1747 2.11023 12.3079 2.18272 12.4645C2.25521 12.6211 2.28233 12.7948 2.261 12.9661L2.05934 14.5853C1.85266 16.2337 1.88892 17.9035 2.16696 19.5414L2.54652 21.7964L0.875 18.1469V12.0584ZM27.125 25.8125C27.1246 26.1605 26.9862 26.4941 26.7402 26.7402C26.4941 26.9862 26.1605 27.1246 25.8125 27.125H2.1875C1.83952 27.1246 1.5059 26.9862 1.25984 26.7402C1.01378 26.4941 0.87538 26.1605 0.875 25.8125V20.2476L2.06274 22.8397C2.15975 23.0486 2.3133 23.2261 2.506 23.3522C2.69869 23.4783 2.92284 23.5479 3.15307 23.5532H3.18299C3.21204 23.5532 3.23885 23.5437 3.26753 23.5417L3.28382 23.5404L3.2874 23.539C3.49001 23.5238 3.68548 23.4576 3.85573 23.3467C4.02599 23.2358 4.1655 23.0838 4.26136 22.9046L4.6493 22.1826C5.35729 20.8291 5.72837 19.3248 5.73107 17.7974C5.73236 16.7901 5.57136 15.7892 5.25427 14.8331C5.1205 14.4261 5.1232 13.9866 5.26196 13.5813V13.5795L6.53089 9.80953C6.54355 9.77236 6.54931 9.73471 6.5609 9.69743C6.57238 9.73471 6.57809 9.77236 6.5907 9.80953L7.86475 13.577C8.00602 14.0006 8.00181 14.4592 7.85278 14.8801C7.46169 16.0681 7.3134 17.3226 7.41674 18.569C7.52008 19.8154 7.87294 21.0283 8.45435 22.1356L8.85767 22.8987C8.94834 23.0695 9.07864 23.216 9.23763 23.3261C9.39661 23.4361 9.57967 23.5065 9.77144 23.5312L9.78393 23.5361C9.79237 23.5375 9.80011 23.5345 9.80856 23.5353C9.86449 23.5456 9.92109 23.5518 9.97791 23.5541C10.2076 23.5485 10.4311 23.4782 10.6227 23.3514C10.8144 23.2246 10.9664 23.0464 11.0614 22.8372L13.0746 18.4476C13.1557 18.2702 13.2861 18.1198 13.4502 18.0144C13.6144 17.909 13.8053 17.8529 14.0004 17.8529C14.1955 17.8529 14.3865 17.909 14.5506 18.0144C14.7148 18.1198 14.8451 18.2702 14.9263 18.4476L16.9386 22.8372C17.0336 23.0464 17.1856 23.2246 17.3773 23.3514C17.5689 23.4782 17.7924 23.5485 18.0221 23.5541H18.0563C18.0746 23.5541 18.0913 23.5477 18.1095 23.5469C18.1254 23.5465 18.1413 23.5452 18.1571 23.543L18.1676 23.539C18.3708 23.5228 18.5666 23.4556 18.737 23.3437C18.9074 23.2318 19.0468 23.0787 19.1423 22.8987L19.52 22.1843C20.1094 21.0622 20.4672 19.833 20.5722 18.5699C20.6771 17.3068 20.5271 16.0354 20.131 14.8314C19.9969 14.4238 19.9984 13.9837 20.1353 13.577L21.4093 9.80957C21.6474 9.10565 21.6877 8.34986 21.5257 7.62463C21.3637 6.8994 21.0057 6.23257 20.4907 5.69686C19.9757 5.16115 19.3235 4.77713 18.6052 4.58668C17.8869 4.39622 17.1301 4.40665 16.4174 4.61682L14.5589 5.16457C14.1944 5.27224 13.8065 5.27224 13.442 5.16457L11.5827 4.61682C10.8705 4.39903 10.1117 4.38476 9.39184 4.57562C8.67201 4.76648 8.01992 5.15487 7.50925 5.6969C7.07508 6.14781 6.75095 6.69293 6.56212 7.28973C6.37398 6.69532 6.05129 6.1523 5.61914 5.70288C5.10816 5.15942 4.45518 4.76994 3.73418 4.57859C3.01318 4.38725 2.25301 4.40167 1.53979 4.62024L0.875 4.81496V2.1875C0.87538 1.83952 1.01378 1.5059 1.25984 1.25984C1.5059 1.01378 1.83952 0.87538 2.1875 0.875H25.8125C26.1605 0.87538 26.4941 1.01378 26.7402 1.25984C26.9862 1.5059 27.1246 1.83952 27.125 2.1875V25.8125ZM13.1737 7.82886C13.2049 7.83556 13.2367 7.839 13.2686 7.83912C13.3681 7.83895 13.4646 7.80494 13.5422 7.74267C13.6199 7.6804 13.674 7.59358 13.6958 7.49647C13.7714 7.16295 13.9228 6.85133 14.1382 6.58571C14.3536 6.32009 14.6273 6.10761 14.938 5.96473L16.6652 5.45593C17.2243 5.29138 17.8178 5.28343 18.381 5.43295C18.9443 5.58247 19.4557 5.88372 19.8596 6.30388C20.2634 6.72404 20.5442 7.24698 20.6713 7.81572C20.7984 8.38446 20.767 8.97718 20.5805 9.52929L19.3064 13.2967C19.1088 13.8835 19.1067 14.5185 19.3005 15.1066C19.6598 16.1986 19.7958 17.3518 19.7006 18.4975C19.6053 19.6433 19.2806 20.7581 18.7459 21.7759L18.41 22.4112L17.9007 19.3987C17.6375 17.8435 17.6035 16.2581 17.7999 14.693L18.0016 13.0763C18.0444 12.7337 17.9879 12.386 17.8389 12.0745C17.6898 11.7631 17.4545 11.501 17.1608 11.3195C16.8671 11.1379 16.5274 11.0446 16.1822 11.0505C15.837 11.0564 15.5007 11.1613 15.2134 11.3528C14.8545 11.5934 14.4321 11.7219 14 11.7219C13.5679 11.7219 13.1455 11.5934 12.7866 11.3528C12.4994 11.1613 12.1632 11.0564 11.818 11.0504C11.4729 11.0445 11.1333 11.1378 10.8396 11.3192C10.5459 11.5007 10.3106 11.7626 10.1614 12.0739C10.0123 12.3853 9.95573 12.7329 9.99841 13.0754L10.1907 14.6178C10.393 16.2307 10.3506 17.865 10.0651 19.4653L9.55275 22.3405L9.22853 21.7272C8.6997 20.7175 8.38006 19.6115 8.28873 18.4753C8.19741 17.3392 8.33628 16.1963 8.69704 15.1151C8.89503 14.525 8.89383 13.8861 8.69361 13.2967L7.41955 9.5293C7.23301 8.97719 7.20159 8.38446 7.32871 7.81572C7.45583 7.24698 7.73661 6.72404 8.14046 6.30388C8.54431 5.88372 9.05574 5.58247 9.61901 5.43295C10.1823 5.28343 10.7758 5.29138 11.3348 5.45593L13.1951 6.00368C13.277 6.02787 13.3605 6.04144 13.4436 6.0581C13.1503 6.42295 12.9443 6.85007 12.8413 7.30678C12.8162 7.42008 12.8372 7.53871 12.8995 7.6366C12.9618 7.73449 13.0604 7.80364 13.1737 7.82886ZM11.0588 14.5093L10.8666 12.9669C10.8446 12.7907 10.8738 12.6118 10.9505 12.4516C11.0272 12.2915 11.1484 12.1567 11.2995 12.0634C11.4506 11.97 11.6253 11.9221 11.8029 11.9252C11.9805 11.9282 12.1535 11.9823 12.3013 12.0808C12.8038 12.4176 13.3951 12.5973 14 12.5973C14.6049 12.5973 15.1962 12.4176 15.6987 12.0808C15.8466 11.9822 16.0196 11.9282 16.1973 11.9252C16.3749 11.9221 16.5497 11.9702 16.7009 12.0636C16.852 12.1571 16.9731 12.2919 17.0498 12.4522C17.1265 12.6125 17.1555 12.7915 17.1334 12.9678L16.9318 14.5845C16.7247 16.234 16.7604 17.9049 17.0377 19.544L17.4156 21.78L15.7218 18.0836C15.571 17.7538 15.3286 17.4742 15.0234 17.2782C14.7182 17.0821 14.3631 16.9779 14.0004 16.9779C13.6377 16.9779 13.2826 17.0821 12.9775 17.2782C12.6723 17.4742 12.4299 17.7538 12.279 18.0836L10.514 21.9339L10.9264 19.6191C11.2275 17.9322 11.2721 16.2095 11.0588 14.5093L11.0588 14.5093ZM24.9375 14.875C24.88 14.875 24.8231 14.8863 24.77 14.9082C24.7169 14.9302 24.6687 14.9624 24.6281 15.0031C24.5874 15.0437 24.5552 15.0919 24.5332 15.145C24.5113 15.1981 24.5 15.255 24.5 15.3125V24.9375C24.5 25.0535 24.5461 25.1648 24.6281 25.2469C24.7102 25.3289 24.8215 25.375 24.9375 25.375C25.0535 25.375 25.1648 25.3289 25.2469 25.2469C25.3289 25.1648 25.375 25.0535 25.375 24.9375V15.3125C25.375 15.255 25.3637 15.1981 25.3418 15.145C25.3198 15.0919 25.2876 15.0437 25.2469 15.0031C25.2063 14.9624 25.1581 14.9302 25.105 14.9082C25.0519 14.8863 24.995 14.875 24.9375 14.875ZM23.1875 21C23.13 21 23.0731 21.0113 23.02 21.0332C22.9669 21.0552 22.9187 21.0874 22.8781 21.1281C22.8374 21.1687 22.8052 21.2169 22.7832 21.27C22.7613 21.3231 22.75 21.38 22.75 21.4375V24.9375C22.75 25.0535 22.7961 25.1648 22.8781 25.2469C22.9602 25.3289 23.0715 25.375 23.1875 25.375C23.3035 25.375 23.4148 25.3289 23.4969 25.2469C23.5789 25.1648 23.625 25.0535 23.625 24.9375V21.4375C23.625 21.38 23.6137 21.3231 23.5918 21.27C23.5698 21.2169 23.5376 21.1687 23.4969 21.1281C23.4563 21.0874 23.4081 21.0552 23.355 21.0332C23.3019 21.0113 23.245 21 23.1875 21ZM25.8125 1.75H22.3125C22.1965 1.75 22.0852 1.79609 22.0031 1.87814C21.9211 1.96019 21.875 2.07147 21.875 2.1875C21.875 2.30353 21.9211 2.41481 22.0031 2.49686C22.0852 2.57891 22.1965 2.625 22.3125 2.625H25.8125C25.9285 2.625 26.0398 2.57891 26.1219 2.49686C26.2039 2.41481 26.25 2.30353 26.25 2.1875C26.25 2.07147 26.2039 1.96019 26.1219 1.87814C26.0398 1.79609 25.9285 1.75 25.8125 1.75ZM25.8125 3.5H24.0625C23.9465 3.5 23.8352 3.54609 23.7531 3.62814C23.6711 3.71019 23.625 3.82147 23.625 3.9375C23.625 4.05353 23.6711 4.16481 23.7531 4.24686C23.8352 4.32891 23.9465 4.375 24.0625 4.375H25.8125C25.9285 4.375 26.0398 4.32891 26.1219 4.24686C26.2039 4.16481 26.25 4.05353 26.25 3.9375C26.25 3.82147 26.2039 3.71019 26.1219 3.62814C26.0398 3.54609 25.9285 3.5 25.8125 3.5Z" fill="#363636"/>
</svg>
