<svg width="29" height="27" viewBox="0 0 29 27" fill="none" xmlns="http://www.w3.org/2000/svg">
<path d="M26.2679 17.6376V17.5445C26.2675 17.1872 26.1248 16.8446 25.8711 16.592C25.6173 16.3393 25.2733 16.1972 24.9144 16.1968H22.2074C22.0348 16.1973 21.8639 16.2308 21.704 16.2957C21.6272 16.0103 21.4581 15.758 21.2229 15.5777C20.9878 15.3974 20.6995 15.2993 20.4027 15.2983H17.6957C17.5231 15.2988 17.3522 15.3324 17.1923 15.3973C17.1155 15.1118 16.9464 14.8595 16.7112 14.6792C16.476 14.499 16.1878 14.4008 15.891 14.3999H13.184C12.8872 14.4008 12.599 14.499 12.3638 14.6792C12.1286 14.8595 11.9595 15.1118 11.8827 15.3973C11.7228 15.3324 11.5519 15.2988 11.3793 15.2983H8.67227C8.37548 15.2993 8.08724 15.3974 7.85205 15.5777C7.61687 15.758 7.44781 16.0103 7.37097 16.2957C7.21113 16.2308 7.04021 16.1973 6.86759 16.1968H4.16056C3.80171 16.1972 3.45767 16.3393 3.20392 16.592C2.95017 16.8446 2.80744 17.1872 2.80705 17.5445V17.6242C2.47903 17.5564 2.13993 17.5623 1.81453 17.6417C1.48912 17.721 1.18562 17.8717 0.926194 18.0828C0.666766 18.2939 0.457961 18.56 0.315026 18.8617C0.172091 19.1634 0.0986364 19.4931 0.100026 19.8267V24.7323C0.100748 25.0685 0.177358 25.4001 0.324189 25.7028C0.471019 26.0055 0.684313 26.2714 0.948293 26.4809C1.21227 26.6905 1.52018 26.8382 1.84925 26.9132C2.17831 26.9883 2.52011 26.9887 2.84935 26.9145C10.558 25.2434 18.5378 25.2465 26.245 26.9237C26.4031 26.9576 26.5644 26.9748 26.7262 26.975C27.323 26.9743 27.8951 26.7377 28.3168 26.3172C28.7385 25.8966 28.9752 25.3266 28.975 24.7323V19.8175C28.9757 19.4828 28.9004 19.1523 28.7549 18.8506C28.6093 18.5489 28.3972 18.2839 28.1343 18.0753C27.8739 17.8715 27.572 17.7268 27.2497 17.6512C26.9273 17.5756 26.5923 17.571 26.2679 17.6376ZM21.7562 17.5445C21.7564 17.4254 21.804 17.3112 21.8885 17.227C21.9731 17.1428 22.0878 17.0954 22.2074 17.0953H24.9144C25.034 17.0954 25.1487 17.1428 25.2333 17.227C25.3179 17.3112 25.3654 17.4254 25.3656 17.5445V19.7907C25.3656 20.2673 25.1755 20.7243 24.837 21.0613C24.4986 21.3983 24.0395 21.5876 23.5609 21.5876C23.0823 21.5876 22.6233 21.3983 22.2848 21.0613C21.9464 20.7243 21.7562 20.2673 21.7562 19.7907V17.5445ZM17.2445 16.646C17.2447 16.5269 17.2923 16.4128 17.3768 16.3286C17.4614 16.2443 17.5761 16.197 17.6957 16.1968H20.4027C20.5223 16.197 20.637 16.2443 20.7216 16.3286C20.8062 16.4128 20.8537 16.5269 20.8539 16.646V19.7907C20.8539 20.2673 20.6638 20.7243 20.3253 21.0613C19.9869 21.3983 19.5278 21.5876 19.0492 21.5876C18.5706 21.5876 18.1115 21.3983 17.7731 21.0613C17.4347 20.7243 17.2445 20.2673 17.2445 19.7907V16.646ZM12.7328 15.7476C12.733 15.6285 12.7806 15.5143 12.8651 15.4301C12.9497 15.3459 13.0644 15.2985 13.184 15.2983H15.891C16.0106 15.2985 16.1253 15.3459 16.2099 15.4301C16.2944 15.5143 16.342 15.6285 16.3422 15.7476V19.7907C16.3422 20.2673 16.152 20.7243 15.8136 21.0613C15.4752 21.3983 15.0161 21.5876 14.5375 21.5876C14.0589 21.5876 13.5998 21.3983 13.2614 21.0613C12.9229 20.7243 12.7328 20.2673 12.7328 19.7907V15.7476ZM8.2211 16.646C8.22126 16.5269 8.26884 16.4128 8.35342 16.3286C8.438 16.2443 8.55266 16.197 8.67227 16.1968H11.3793C11.4989 16.197 11.6136 16.2443 11.6982 16.3286C11.7827 16.4128 11.8303 16.5269 11.8305 16.646V19.7907C11.8305 20.2673 11.6403 20.7243 11.3019 21.0613C10.9634 21.3983 10.5044 21.5876 10.0258 21.5876C9.54716 21.5876 9.08813 21.3983 8.74968 21.0613C8.41124 20.7243 8.2211 20.2673 8.2211 19.7907V16.646ZM3.70939 17.5445C3.70955 17.4254 3.75713 17.3112 3.84171 17.227C3.92629 17.1428 4.04095 17.0954 4.16056 17.0953H6.86759C6.9872 17.0954 7.10187 17.1428 7.18645 17.227C7.27102 17.3112 7.31861 17.4254 7.31876 17.5445V19.7907C7.31876 20.2673 7.12863 20.7243 6.79018 21.0613C6.45174 21.3983 5.99271 21.5876 5.51408 21.5876C5.03545 21.5876 4.57642 21.3983 4.23797 21.0613C3.89953 20.7243 3.70939 20.2673 3.70939 19.7907V17.5445ZM28.0726 24.7323C28.0728 24.933 28.0277 25.1312 27.9408 25.3122C27.854 25.4933 27.7274 25.6527 27.5705 25.7787C27.4137 25.9047 27.2304 25.9941 27.0343 26.0403C26.8381 26.0865 26.6341 26.0884 26.4371 26.0458C18.6024 24.3411 10.4906 24.3381 2.6546 26.037C2.45538 26.082 2.24853 26.0817 2.04943 26.0361C1.85034 25.9906 1.66413 25.9009 1.50465 25.7738C1.34762 25.649 1.2209 25.4905 1.13394 25.3102C1.04697 25.1299 1.002 24.9323 1.00237 24.7323V19.8266C1.00128 19.6213 1.0474 19.4184 1.1372 19.2335C1.22701 19.0486 1.35811 18.8867 1.52047 18.76C1.68283 18.6334 1.87215 18.5454 2.07392 18.5028C2.2757 18.4603 2.48458 18.4642 2.68457 18.5145L2.80705 18.5396V19.7907C2.80655 20.3701 2.99373 20.9342 3.34079 21.3993C3.68784 21.8643 4.17628 22.2055 4.73357 22.3722C5.29086 22.5389 5.88728 22.5222 6.43427 22.3246C6.98127 22.127 7.44967 21.759 7.76993 21.2752C8.0158 21.6473 8.35065 21.9528 8.7444 22.1641C9.13815 22.3755 9.57847 22.4861 10.0258 22.4861C10.4731 22.4861 10.9134 22.3755 11.3072 22.1641C11.7009 21.9528 12.0358 21.6473 12.2816 21.2752C12.5275 21.6473 12.8624 21.9528 13.2561 22.1641C13.6499 22.3755 14.0902 22.4861 14.5375 22.4861C14.9848 22.4861 15.4251 22.3755 15.8189 22.1641C16.2126 21.9528 16.5475 21.6473 16.7934 21.2752C17.0392 21.6473 17.3741 21.9528 17.7678 22.1641C18.1616 22.3755 18.6019 22.4861 19.0492 22.4861C19.4965 22.4861 19.9368 22.3755 20.3306 22.1641C20.7243 21.9528 21.0592 21.6473 21.3051 21.2752C21.6253 21.759 22.0937 22.127 22.6407 22.3246C23.1877 22.5222 23.7841 22.5389 24.3414 22.3722C24.8987 22.2055 25.3872 21.8643 25.7342 21.3993C26.0813 20.9342 26.2684 20.3701 26.2679 19.7907V18.5445C26.318 18.534 26.3606 18.5254 26.4204 18.5127C26.6196 18.4677 26.8265 18.4681 27.0256 18.5137C27.2247 18.5594 27.4109 18.6492 27.5703 18.7764C27.7274 18.901 27.8542 19.0594 27.9411 19.2397C28.0281 19.42 28.0731 19.6175 28.0726 19.8175V24.7323ZM28.129 0.514775C27.868 0.305424 27.5627 0.157541 27.2362 0.0821799C26.9096 0.00681927 26.5702 0.00593105 26.2433 0.0795815C18.5362 1.75925 10.5555 1.7591 2.84847 0.0791412C2.51616 0.00690251 2.1718 0.00992885 1.84083 0.0879965C1.50986 0.166064 1.20073 0.317178 0.936281 0.530174C0.674816 0.739308 0.463911 1.00429 0.319161 1.30553C0.174411 1.60676 0.0995202 1.93654 0.100026 2.27048V7.17614C0.0977737 7.50955 0.170789 7.8392 0.313676 8.14073C0.456563 8.44226 0.665671 8.70797 0.925547 8.91823C1.18542 9.12848 1.48942 9.27791 1.81509 9.35546C2.14075 9.43301 2.47976 9.43671 2.80705 9.36628V9.45523C2.80744 9.81254 2.95017 10.1551 3.20392 10.4078C3.45767 10.6604 3.80171 10.8025 4.16056 10.8029H6.86759C7.04021 10.8025 7.21113 10.7689 7.37097 10.704C7.44781 10.9894 7.61687 11.2418 7.85206 11.422C8.08725 11.6023 8.37548 11.7004 8.67227 11.7014H11.3793C11.5519 11.7009 11.7228 11.6673 11.8827 11.6024C11.9595 11.8879 12.1286 12.1402 12.3638 12.3205C12.599 12.5007 12.8872 12.5989 13.184 12.5998H15.891C16.1878 12.5989 16.476 12.5007 16.7112 12.3205C16.9464 12.1402 17.1155 11.8879 17.1923 11.6024C17.3522 11.6673 17.5231 11.7009 17.6957 11.7014H20.4027C20.6995 11.7004 20.9878 11.6023 21.2229 11.422C21.4581 11.2417 21.6272 10.9894 21.704 10.704C21.8639 10.7689 22.0348 10.8024 22.2074 10.8029H24.9144C25.2733 10.8025 25.6173 10.6604 25.8711 10.4077C26.1248 10.1551 26.2675 9.8125 26.2679 9.45518V9.37183C26.4144 9.40193 26.5634 9.41779 26.7129 9.41921C27.232 9.41918 27.7353 9.2417 28.1387 8.91645C28.4002 8.70734 28.6112 8.44236 28.7559 8.14111C28.9007 7.83986 28.9755 7.51006 28.975 7.17611V2.27044C28.9758 1.93326 28.9002 1.60024 28.7537 1.29624C28.6073 0.992232 28.3937 0.725098 28.129 0.514775ZM7.31876 9.45519C7.31861 9.57429 7.27102 9.68846 7.18645 9.77268C7.10187 9.85689 6.9872 9.90427 6.86759 9.90443H4.16056C4.04095 9.90427 3.92629 9.85689 3.84171 9.77268C3.75713 9.68846 3.70955 9.57429 3.70939 9.45519V7.20901C3.70939 6.73243 3.89953 6.27537 4.23797 5.93838C4.57642 5.60138 5.03545 5.41206 5.51408 5.41206C5.99271 5.41206 6.45174 5.60138 6.79018 5.93838C7.12863 6.27537 7.31876 6.73243 7.31876 7.20901V9.45519ZM11.8305 10.3537C11.8303 10.4728 11.7827 10.5869 11.6982 10.6711C11.6136 10.7554 11.4989 10.8027 11.3793 10.8029H8.67227C8.55266 10.8027 8.438 10.7554 8.35342 10.6711C8.26884 10.5869 8.22126 10.4728 8.2211 10.3537V7.20901C8.2211 6.73243 8.41124 6.27537 8.74968 5.93838C9.08813 5.60138 9.54716 5.41206 10.0258 5.41206C10.5044 5.41206 10.9634 5.60138 11.3019 5.93838C11.6403 6.27537 11.8305 6.73243 11.8305 7.20901V10.3537ZM16.3422 11.2521C16.342 11.3712 16.2944 11.4854 16.2099 11.5696C16.1253 11.6538 16.0106 11.7012 15.891 11.7014H13.184C13.0644 11.7012 12.9497 11.6538 12.8651 11.5696C12.7806 11.4854 12.733 11.3712 12.7328 11.2521V7.20901C12.7328 6.73243 12.9229 6.27537 13.2614 5.93838C13.5998 5.60138 14.0589 5.41206 14.5375 5.41206C15.0161 5.41206 15.4752 5.60138 15.8136 5.93838C16.152 6.27537 16.3422 6.73243 16.3422 7.20901V11.2521ZM20.8539 10.3537C20.8537 10.4728 20.8062 10.5869 20.7216 10.6711C20.637 10.7554 20.5223 10.8027 20.4027 10.8029H17.6957C17.5761 10.8027 17.4614 10.7554 17.3768 10.6711C17.2923 10.5869 17.2447 10.4728 17.2445 10.3537V7.20901C17.2445 6.73243 17.4347 6.27537 17.7731 5.93838C18.1115 5.60138 18.5706 5.41206 19.0492 5.41206C19.5278 5.41206 19.9869 5.60138 20.3253 5.93838C20.6638 6.27537 20.8539 6.73243 20.8539 7.20901V10.3537ZM25.3656 9.45519C25.3654 9.57429 25.3179 9.68846 25.2333 9.77268C25.1487 9.85689 25.034 9.90427 24.9144 9.90443H22.2074C22.0878 9.90427 21.9731 9.85689 21.8885 9.77268C21.804 9.68846 21.7564 9.57429 21.7562 9.45519V7.20901C21.7562 6.73243 21.9464 6.27537 22.2848 5.93838C22.6233 5.60138 23.0823 5.41206 23.5609 5.41206C24.0395 5.41206 24.4986 5.60138 24.837 5.93838C25.1755 6.27537 25.3656 6.73243 25.3656 7.20901V9.45519ZM28.0726 7.17611C28.0729 7.37589 28.0281 7.57318 27.9414 7.75338C27.8548 7.93358 27.7286 8.09208 27.5721 8.21716C27.4005 8.35124 27.2002 8.44407 26.9866 8.48843C26.7731 8.5328 26.5522 8.52749 26.3411 8.47293C26.3165 8.46777 26.2922 8.46394 26.2679 8.45883V7.20901C26.2684 6.62961 26.0813 6.0655 25.7342 5.60044C25.3871 5.13538 24.8987 4.79417 24.3414 4.62747C23.7841 4.46077 23.1877 4.47747 22.6407 4.6751C22.0937 4.87272 21.6253 5.24073 21.3051 5.72448C21.0592 5.35239 20.7243 5.04695 20.3306 4.83559C19.9368 4.62424 19.4965 4.51359 19.0492 4.51359C18.6019 4.51359 18.1616 4.62424 17.7678 4.83559C17.3741 5.04695 17.0392 5.35239 16.7934 5.72448C16.5475 5.35239 16.2126 5.04695 15.8189 4.83559C15.4251 4.62424 14.9848 4.51359 14.5375 4.51359C14.0902 4.51359 13.6499 4.62424 13.2561 4.83559C12.8624 5.04695 12.5275 5.35239 12.2816 5.72448C12.0358 5.35239 11.7009 5.04695 11.3072 4.83559C10.9134 4.62424 10.4731 4.51359 10.0258 4.51359C9.57847 4.51359 9.13815 4.62424 8.7444 4.83559C8.35065 5.04695 8.0158 5.35239 7.76993 5.72448C7.44967 5.24073 6.98127 4.87272 6.43427 4.6751C5.88728 4.47747 5.29086 4.46077 4.73357 4.62747C4.17628 4.79417 3.68784 5.13538 3.34079 5.60044C2.99373 6.0655 2.80655 6.62961 2.80705 7.20901V8.45478L2.6361 8.49004C2.44071 8.53417 2.23784 8.53389 2.04257 8.48923C1.8473 8.44457 1.66465 8.35668 1.50818 8.23208C1.34939 8.1054 1.22142 7.94462 1.13383 7.76176C1.04625 7.5789 1.0013 7.3787 1.00237 7.17611V2.27044C1.00209 2.07066 1.04693 1.87337 1.13357 1.69317C1.22021 1.51297 1.34643 1.35447 1.50289 1.22939C1.66228 1.10067 1.84873 1.00934 2.04842 0.962182C2.2481 0.915025 2.45589 0.913252 2.65636 0.956994C10.4912 2.6643 18.6041 2.66415 26.4389 0.956554C26.634 0.912895 26.8365 0.913572 27.0313 0.958534C27.2261 1.0035 27.4082 1.09159 27.5642 1.21627C27.7233 1.34244 27.8517 1.5028 27.9397 1.68537C28.0278 1.86793 28.0732 2.06796 28.0726 2.27048V7.17611Z" fill="#363636"/>
</svg>
