<svg width="35" height="35" viewBox="0 0 35 35" fill="none" xmlns="http://www.w3.org/2000/svg">
<path d="M33.0252 23.0428C32.4689 22.5865 31.8178 22.2607 31.1196 22.0892C30.4214 21.9177 29.6938 21.9049 28.9901 22.0518C28.783 22.0979 28.58 22.1328 28.3747 22.1728C28.2912 21.7805 28.1867 21.393 28.0616 21.012C27.9021 20.5242 27.904 19.9978 28.0669 19.5111L29.597 14.974C29.884 14.1237 29.9325 13.2107 29.7373 12.3346C29.5421 11.4586 29.1107 10.653 28.4901 10.0058C27.8695 9.35861 27.0836 8.89462 26.218 8.66441C25.3524 8.4342 24.4403 8.44662 23.5813 8.70031L21.3469 9.36012C20.912 9.48837 20.4495 9.48837 20.0146 9.36012L17.7813 8.70031C16.9222 8.44649 16.0101 8.43398 15.1445 8.66415C14.2788 8.89431 13.4928 9.35831 12.8722 10.0055C12.2516 10.6528 11.8202 11.4584 11.625 12.3345C11.4299 13.2107 11.4785 14.1237 11.7655 14.974L13.2956 19.5111C13.4641 20.018 13.4589 20.5667 13.2808 21.0702C13.0736 21.7084 12.9245 22.3642 12.8355 23.0293C12.0198 22.9618 11.2815 22.8872 10.5729 22.8005L9.72159 20.267L11.2611 19.7475C11.3287 19.725 11.3911 19.6894 11.4448 19.6427C11.4985 19.5959 11.5424 19.539 11.5741 19.4751C11.6058 19.4113 11.6245 19.3418 11.6292 19.2706C11.6339 19.1995 11.6246 19.1281 11.6016 19.0606L7.62712 7.23131L8.14064 7.05795C8.20816 7.0354 8.27058 6.99972 8.32432 6.95295C8.37807 6.90618 8.42208 6.84924 8.45383 6.7854C8.48559 6.72155 8.50446 6.65205 8.50938 6.58089C8.5143 6.50972 8.50516 6.43827 8.48248 6.37065C8.45981 6.30303 8.42405 6.24056 8.37725 6.18681C8.33045 6.13306 8.27353 6.0891 8.20975 6.05744C8.14598 6.02577 8.07659 6.00703 8.00558 6.00229C7.93457 5.99755 7.86332 6.0069 7.79591 6.02981L6.76915 6.37641L6.20217 6.56779L4.47376 1.42381L5.04021 1.23255C5.108 1.21022 5.17072 1.17467 5.22474 1.12795C5.27877 1.08123 5.32304 1.02425 5.35501 0.960307C5.38698 0.896362 5.40602 0.826709 5.41102 0.755359C5.41603 0.68401 5.4069 0.612373 5.38417 0.544573C5.36144 0.476774 5.32555 0.414151 5.27858 0.36031C5.2316 0.30647 5.17447 0.262475 5.11046 0.23086C5.04645 0.199244 4.97684 0.180632 4.90562 0.176095C4.83441 0.171558 4.763 0.181186 4.69552 0.204425L1.67144 1.22567H1.67127L1.67114 1.22574L0.591628 1.59029C0.469928 1.6313 0.366734 1.71433 0.300477 1.82457C0.234221 1.9348 0.209217 2.06505 0.229933 2.19206C0.250649 2.31907 0.315735 2.43456 0.413565 2.51791C0.511395 2.60125 0.635599 2.64702 0.76399 2.64704C0.822627 2.64711 0.88087 2.63744 0.936352 2.61842L1.50346 2.42691L3.23171 7.57056L1.63849 8.10834C1.51679 8.14934 1.4136 8.23238 1.34734 8.34261C1.28108 8.45284 1.25608 8.5831 1.2768 8.71011C1.29751 8.83712 1.3626 8.95261 1.46043 9.03595C1.55826 9.1193 1.68246 9.16507 1.81085 9.16509C1.86949 9.16516 1.92773 9.15548 1.98321 9.13646L2.49739 8.9629L3.36078 11.5332L3.36104 11.5351L3.36176 11.5361L4.39706 14.618L4.39732 14.62L4.39811 14.6211L6.47095 20.7915C6.49343 20.8591 6.52902 20.9216 6.57567 20.9754C6.62233 21.0292 6.67912 21.0732 6.74279 21.1049C6.80647 21.1366 6.87576 21.1554 6.9467 21.1602C7.01764 21.165 7.08883 21.1557 7.15617 21.1328L8.69606 20.6131L9.37466 22.6326C8.20884 22.4657 7.08736 22.2791 6.00146 22.0507C5.29894 21.9046 4.57272 21.9178 3.87598 22.0895C3.17924 22.2611 2.52963 22.5869 1.97475 23.0428C1.41154 23.5006 0.957611 24.0788 0.646204 24.7352C0.334797 25.3916 0.173797 26.1095 0.174994 26.8363V34.2823C0.174953 34.3536 0.188929 34.4242 0.216122 34.49C0.243316 34.5559 0.283194 34.6157 0.333477 34.6661C0.383759 34.7165 0.443459 34.7565 0.509165 34.7838C0.57487 34.811 0.64529 34.825 0.716401 34.825H34.2836C34.3547 34.825 34.4251 34.811 34.4908 34.7838C34.5565 34.7565 34.6162 34.7165 34.6665 34.6661C34.7168 34.6157 34.7567 34.5559 34.7839 34.49C34.8111 34.4242 34.825 34.3536 34.825 34.2823V26.8363C34.8262 26.1095 34.6652 25.3916 34.3538 24.7352C34.0424 24.0788 33.5884 23.5006 33.0252 23.0428ZM12.7912 14.6264C12.5987 14.054 12.5442 13.444 12.6322 12.8464C12.7201 12.2488 12.948 11.6805 13.2972 11.1882C13.6464 10.6958 14.1069 10.2934 14.6411 10.0138C15.1753 9.73418 15.768 9.58537 16.3706 9.57952C16.7444 9.58016 17.1162 9.6346 17.4746 9.74117L19.7079 10.401C19.7999 10.4281 19.894 10.4427 19.9873 10.462C19.641 10.8988 19.3974 11.4081 19.2743 11.9522C19.2434 12.0928 19.2695 12.24 19.3469 12.3613C19.4242 12.4827 19.5464 12.5683 19.6867 12.5993C19.7249 12.6076 19.7639 12.6119 19.803 12.612C19.9263 12.6119 20.0459 12.5697 20.142 12.4923C20.2381 12.4149 20.305 12.3071 20.3318 12.1864C20.4216 11.7866 20.6024 11.413 20.8602 11.0948C21.118 10.7767 21.4457 10.5226 21.8177 10.3525L23.8879 9.74118C24.5568 9.54396 25.2668 9.53453 25.9406 9.71393C26.6144 9.89332 27.2262 10.2547 27.7093 10.7585C28.1924 11.2624 28.5282 11.8896 28.6802 12.5716C28.8322 13.2536 28.7945 13.9644 28.5713 14.6264L27.0412 19.1635C26.803 19.8735 26.8004 20.6417 27.0338 21.3533C27.4651 22.6662 27.6284 24.0527 27.5141 25.4302C27.3999 26.8078 27.0103 28.1482 26.3687 29.3717L25.915 30.2324C25.884 30.3038 25.8311 30.3635 25.764 30.4027C25.6969 30.442 25.6191 30.4588 25.5418 30.4507C25.465 30.4498 25.3902 30.4269 25.3261 30.3846C25.262 30.3423 25.2113 30.2825 25.1801 30.2122L22.7639 24.9263C22.5812 24.5266 22.2878 24.1878 21.9186 23.9503C21.5494 23.7128 21.12 23.5866 20.6813 23.5866C20.2426 23.5866 19.8132 23.7128 19.444 23.9503C19.0748 24.1878 18.7814 24.5266 18.5987 24.9263L16.1803 30.2122C16.1496 30.2824 16.0994 30.3423 16.0356 30.3846C15.9719 30.4269 15.8973 30.4498 15.8208 30.4507C15.7434 30.4584 15.6656 30.4415 15.5984 30.4023C15.5312 30.3631 15.478 30.3036 15.4465 30.2324L14.9632 29.3134C14.3289 28.0993 13.9453 26.7695 13.8356 25.4034C13.7259 24.0373 13.8922 22.663 14.3246 21.3628C14.5646 20.6493 14.5635 19.8763 14.3214 19.1635L12.7912 14.6264ZM2.52923 2.0805L3.44801 1.7702L5.1764 6.91406L4.71721 7.06907L4.25755 7.22421L2.52923 2.0805ZM7.32431 19.9308L6.63347 17.8742L7.14666 17.7007C7.28147 17.6537 7.39228 17.5552 7.45499 17.4266C7.5177 17.2981 7.52723 17.1499 7.4815 17.0144C7.43578 16.8788 7.3385 16.7669 7.21084 16.7029C7.08317 16.6389 6.93545 16.628 6.79982 16.6726L6.28796 16.8456L5.59693 14.7885L6.10933 14.6158C6.24511 14.5697 6.3571 14.4715 6.42076 14.3427C6.48441 14.2139 6.49454 14.0651 6.44891 13.9289C6.40328 13.7927 6.30562 13.6801 6.17734 13.616C6.04906 13.5518 5.90064 13.5412 5.7646 13.5866L5.25135 13.7596L4.56032 11.7025L5.07304 11.5293C5.20785 11.4822 5.31866 11.3837 5.38137 11.2552C5.44408 11.1266 5.45361 10.9785 5.40788 10.8429C5.36216 10.7074 5.26488 10.5954 5.13722 10.5314C5.00955 10.4674 4.86184 10.4565 4.72621 10.5011L4.2148 10.674L3.52388 8.6171L6.60102 7.57784L10.4025 18.8921L7.32431 19.9308ZM33.7422 33.7396H1.25781V26.8363C1.25703 26.2707 1.38245 25.7121 1.62487 25.2013C1.8673 24.6905 2.2206 24.2406 2.65891 23.8844C3.08901 23.5304 3.59268 23.2774 4.13299 23.1439C4.6733 23.0104 5.23657 22.9997 5.78151 23.1127C7.05692 23.3819 8.36965 23.5999 9.76255 23.7868L10.7684 26.7801C10.8144 26.9161 10.9123 27.0283 11.0406 27.092C11.169 27.1557 11.3173 27.1658 11.4531 27.1201C11.5889 27.0744 11.7011 26.9765 11.765 26.848C11.8289 26.7195 11.8394 26.5708 11.7941 26.4346L10.9555 23.9389C11.5175 24.0018 12.1064 24.0583 12.7386 24.1111C12.6502 26.0928 13.0873 28.0626 14.0052 29.82L14.4884 30.739C14.6144 30.9803 14.8041 31.1824 15.0368 31.3232C15.2695 31.4639 15.5363 31.5379 15.8081 31.5371L15.8525 31.536C16.131 31.5291 16.4018 31.4436 16.634 31.2893C16.8661 31.135 17.0501 30.9181 17.1648 30.6637L19.5821 25.3778C19.6788 25.1672 19.8337 24.9887 20.0285 24.8635C20.2234 24.7384 20.4499 24.6719 20.6813 24.6719C20.9127 24.6719 21.1392 24.7384 21.334 24.8635C21.5288 24.9887 21.6838 25.1672 21.7805 25.3778L24.1967 30.6637C24.3118 30.9185 24.4964 31.1355 24.7291 31.2898C24.9618 31.4442 25.2332 31.5295 25.5122 31.5361C25.789 31.5355 26.0608 31.4615 26.2998 31.3215C26.5389 31.1815 26.7367 30.9805 26.8731 30.739L27.3267 29.8783C28.3944 27.8415 28.8225 25.5286 28.5546 23.2434C28.7762 23.2006 28.9974 23.1623 29.2164 23.1128C29.7616 22.9989 30.3254 23.0091 30.8662 23.1426C31.407 23.2762 31.911 23.5297 32.3411 23.8844C32.7794 24.2406 33.1327 24.6906 33.3751 25.2013C33.6175 25.7121 33.7429 26.2707 33.7422 26.8363V33.7396Z" fill="#363636"/>
</svg>
