<svg width="20" height="26" viewBox="0 0 20 26" fill="none" xmlns="http://www.w3.org/2000/svg">
<path d="M8.03643 8.12826C7.95876 8.12826 7.88283 8.15208 7.81825 8.19671C7.75367 8.24134 7.70333 8.30478 7.67361 8.37899C7.64389 8.45321 7.63611 8.53488 7.65126 8.61366C7.66641 8.69245 7.70382 8.76482 7.75874 8.82163C7.81366 8.87843 7.88363 8.91712 7.95981 8.93279C8.03599 8.94846 8.11495 8.94042 8.18671 8.90967C8.25847 8.87893 8.31981 8.82687 8.36296 8.76008C8.40611 8.69329 8.42914 8.61476 8.42914 8.53443C8.42914 8.4267 8.38777 8.32339 8.31412 8.24722C8.24047 8.17105 8.14058 8.12826 8.03643 8.12826ZM8.03643 9.75292C7.95876 9.75292 7.88283 9.77675 7.81825 9.82138C7.75367 9.86601 7.70333 9.92944 7.67361 10.0037C7.64389 10.0779 7.63611 10.1595 7.65126 10.2383C7.66641 10.3171 7.70382 10.3895 7.75874 10.4463C7.81366 10.5031 7.88363 10.5418 7.95981 10.5575C8.03599 10.5731 8.11495 10.5651 8.18671 10.5343C8.25847 10.5036 8.31981 10.4515 8.36296 10.3847C8.40611 10.318 8.42914 10.2394 8.42914 10.1591C8.42914 10.0514 8.38777 9.94806 8.31412 9.87189C8.24047 9.79572 8.14058 9.75292 8.03643 9.75292ZM9.60728 10.5653C9.52961 10.5653 9.45368 10.5891 9.3891 10.6337C9.32452 10.6783 9.27419 10.7418 9.24446 10.816C9.21474 10.8902 9.20696 10.9719 9.22212 11.0507C9.23727 11.1295 9.27467 11.2018 9.32959 11.2586C9.38451 11.3154 9.45449 11.3541 9.53067 11.3698C9.60685 11.3855 9.68581 11.3774 9.75757 11.3467C9.82933 11.3159 9.89066 11.2639 9.93381 11.1971C9.97697 11.1303 10 11.0518 10 10.9714C10 10.8637 9.95862 10.7604 9.88497 10.6842C9.81133 10.6081 9.71144 10.5653 9.60728 10.5653ZM10.3927 12.1899C10.315 12.1899 10.2391 12.2137 10.1745 12.2584C10.11 12.303 10.0596 12.3664 10.0299 12.4407C10.0002 12.5149 9.99239 12.5965 10.0075 12.6753C10.0227 12.7541 10.0601 12.8265 10.115 12.8833C10.1699 12.9401 10.2399 12.9788 10.3161 12.9945C10.3923 13.0101 10.4712 13.0021 10.543 12.9713C10.6148 12.9406 10.6761 12.8885 10.7192 12.8217C10.7624 12.755 10.7854 12.6764 10.7854 12.5961C10.7854 12.4884 10.7441 12.3851 10.6704 12.3089C10.5968 12.2327 10.4969 12.1899 10.3927 12.1899ZM14.7787 13.9454C14.9071 13.5708 14.9321 13.1666 14.851 12.7781C14.7796 12.4351 14.6253 12.1164 14.4025 11.8517C14.1797 11.5871 13.8957 11.3852 13.577 11.2649C13.1485 11.1037 12.736 10.9004 12.3451 10.6578L12.38 10.0563C12.3831 10.0031 12.376 9.94977 12.3592 9.89937C12.3423 9.84897 12.316 9.80249 12.2818 9.7626C12.2476 9.72271 12.2061 9.69018 12.1597 9.66688C12.1133 9.64357 12.0629 9.62995 12.0115 9.62678C11.9083 9.62358 11.8079 9.66126 11.7307 9.73211C11.6535 9.80296 11.6053 9.90164 11.5961 10.008L11.5904 10.1062C11.4805 10.0155 11.3685 9.92766 11.2636 9.82989C10.8246 9.41905 10.4385 8.95155 10.1147 8.4389L10.4218 7.95295C10.45 7.90831 10.4695 7.85836 10.479 7.80596C10.4885 7.75355 10.488 7.69972 10.4774 7.64753C10.4668 7.59534 10.4464 7.54581 10.4174 7.50178C10.3883 7.45775 10.3511 7.42007 10.3079 7.3909C10.2648 7.36174 10.2165 7.34164 10.1658 7.33178C10.1151 7.32191 10.0631 7.32246 10.0126 7.3334C9.96216 7.34434 9.91427 7.36545 9.8717 7.39553C9.82913 7.42561 9.7927 7.46407 9.76449 7.50871L9.67864 7.64456C9.56371 7.40587 9.4609 7.16114 9.37063 6.91136C9.23125 6.52784 8.98725 6.19439 8.66823 5.95148L8.80956 5.38229C8.82249 5.33059 8.82544 5.27675 8.81824 5.22387C8.81104 5.17099 8.79382 5.12009 8.76758 5.07409C8.74135 5.0281 8.7066 4.9879 8.66532 4.95581C8.62405 4.92372 8.57707 4.90035 8.52705 4.88706C8.47704 4.87376 8.42499 4.8708 8.37387 4.87833C8.32275 4.88586 8.27357 4.90374 8.22913 4.93095C8.1847 4.95816 8.14589 4.99417 8.11493 5.0369C8.08396 5.07964 8.06145 5.12827 8.04867 5.18002L7.94786 5.58604C7.92806 5.58078 7.91104 5.56943 7.89105 5.56477C7.40709 5.45303 6.90035 5.52765 6.46578 5.77465L6.03715 5.41722C5.95609 5.34958 5.85236 5.31801 5.7488 5.32947C5.64523 5.34092 5.5503 5.39446 5.4849 5.4783C5.4195 5.56215 5.38898 5.66942 5.40006 5.77654C5.41113 5.88366 5.4629 5.98183 5.54396 6.04948L5.85326 6.30739C5.6733 6.52553 5.538 6.77917 5.45557 7.05295C5.37313 7.32674 5.34528 7.61498 5.37368 7.90023C5.38926 8.05538 5.41103 8.22845 5.44075 8.41553L5.14166 8.38493C5.03818 8.37464 4.93497 8.4072 4.85467 8.47547C4.77436 8.54375 4.72351 8.64218 4.71325 8.74917C4.703 8.85617 4.73418 8.963 4.79997 9.04626C4.86575 9.12951 4.96077 9.18239 5.06419 9.1933L5.61841 9.24997C5.81057 10.0073 6.10168 10.7339 6.4837 11.4099L6.18367 11.4978C6.09254 11.5246 6.01384 11.5845 5.96206 11.6665C5.91027 11.7485 5.88891 11.8472 5.90189 11.9442C5.91487 12.0413 5.96133 12.1302 6.03271 12.1946C6.10408 12.259 6.19556 12.2946 6.29028 12.2947C6.3266 12.2948 6.36276 12.2897 6.39767 12.2793L6.93822 12.1209C7.2392 12.5503 7.58172 12.947 7.96046 13.3046C8.14848 13.4801 8.33975 13.6381 8.53208 13.7862L8.39536 13.8579C8.31666 13.8993 8.25373 13.9668 8.2167 14.0497C8.17968 14.1326 8.17072 14.2259 8.19128 14.3147C8.21184 14.4035 8.26072 14.4825 8.33003 14.539C8.39934 14.5955 8.48504 14.6263 8.57331 14.6262C8.63492 14.6264 8.69567 14.6113 8.75049 14.5822L9.28899 14.3C9.8873 14.656 10.5279 14.9301 11.1946 15.1152L11.0688 15.2799C11.036 15.3217 11.0116 15.3698 10.997 15.4215C10.9823 15.4731 10.9777 15.5272 10.9835 15.5807C10.9892 15.6342 11.0052 15.6859 11.0305 15.733C11.0557 15.78 11.0898 15.8214 11.1306 15.8547C11.1715 15.888 11.2183 15.9126 11.2685 15.9271C11.3186 15.9415 11.371 15.9455 11.4226 15.9388C11.4742 15.9321 11.524 15.9149 11.5692 15.8881C11.6143 15.8614 11.6538 15.8256 11.6855 15.7829L12.049 15.3066C12.2631 15.3424 12.47 15.3715 12.66 15.389C12.7198 15.3946 12.78 15.3973 12.8395 15.3973C13.1096 15.3965 13.377 15.3406 13.6262 15.2327C13.8754 15.1248 14.1016 14.9671 14.2918 14.7686C14.3135 14.7462 14.3266 14.7181 14.3472 14.6949L14.5258 14.9325C14.5573 14.975 14.5966 15.0108 14.6415 15.0375C14.6865 15.0643 14.7361 15.0816 14.7875 15.0885C14.8389 15.0953 14.8911 15.0916 14.9411 15.0774C14.9912 15.0633 15.038 15.0391 15.0789 15.0061C15.1198 14.9732 15.154 14.9322 15.1795 14.8855C15.205 14.8388 15.2214 14.7874 15.2275 14.7342C15.2337 14.6809 15.2297 14.6269 15.2156 14.5753C15.2015 14.5237 15.1777 14.4755 15.1455 14.4335L14.7787 13.9454ZM13.7365 14.1942C13.6061 14.3305 13.4484 14.4357 13.2745 14.5023C13.1006 14.5689 12.9147 14.5953 12.7298 14.5797C11.1554 14.4483 9.66556 13.7888 8.48668 12.7016C7.15636 11.424 6.3265 9.68527 6.15494 7.8161C6.13334 7.6176 6.15564 7.41662 6.22015 7.22835C6.28466 7.04007 6.3897 6.86942 6.52732 6.72928L6.55724 6.69954C6.78938 6.45943 7.10411 6.32435 7.43241 6.32391C7.52855 6.3241 7.62436 6.33527 7.71813 6.35722C7.92612 6.40568 8.11898 6.50748 8.27896 6.65325C8.43893 6.79902 8.56088 6.98408 8.63357 7.19137C8.8073 7.66952 9.0233 8.13007 9.27882 8.56719C9.29545 8.61786 9.32188 8.6645 9.35648 8.70428C9.73555 9.34503 10.2005 9.92698 10.7375 10.4328C11.0327 10.7042 11.3476 10.952 11.6793 11.1738C11.7105 11.2042 11.7463 11.2289 11.7854 11.2471C12.2642 11.5633 12.7746 11.8252 13.3078 12.0281C13.5031 12.1005 13.6772 12.2238 13.8132 12.3859C13.9492 12.548 14.0426 12.7436 14.0844 12.9539C14.1324 13.1742 14.1257 13.4035 14.0649 13.6204C14.0041 13.8373 13.8911 14.0347 13.7365 14.1942L13.7365 14.1942ZM11.9636 12.1899C11.8859 12.1899 11.81 12.2137 11.7454 12.2584C11.6808 12.303 11.6305 12.3664 11.6007 12.4407C11.571 12.5149 11.5632 12.5965 11.5784 12.6753C11.5936 12.7541 11.631 12.8265 11.6859 12.8833C11.7408 12.9401 11.8108 12.9788 11.887 12.9945C11.9631 13.0101 12.0421 13.0021 12.1139 12.9713C12.1856 12.9406 12.2469 12.8885 12.2901 12.8217C12.3332 12.755 12.3563 12.6764 12.3563 12.5961C12.3563 12.4884 12.3149 12.3851 12.2413 12.3089C12.1676 12.2327 12.0677 12.1899 11.9636 12.1899ZM19.7124 7.15132C20.0286 6.2147 20.0854 5.2053 19.8762 4.23709C19.6671 3.26888 19.2004 2.38042 18.5289 1.67203C17.8714 0.949741 17.0316 0.432133 16.1045 0.177749C15.1774 -0.0766336 14.2 -0.0576411 13.2828 0.232579L10.7996 0.989023C10.2776 1.14848 9.72206 1.14848 9.2 0.989023L6.71715 0.232611C5.79991 -0.0570525 4.82264 -0.0757639 3.89566 0.178589C2.96868 0.432943 2.12891 0.950232 1.47113 1.67207C0.799578 2.38045 0.33289 3.2689 0.123759 4.23711C-0.0853711 5.20532 -0.0286142 6.21472 0.287621 7.15132L1.98886 12.3545C2.1904 12.9806 2.18473 13.6583 1.97275 14.2806C1.4586 15.896 1.26369 17.6017 1.39961 19.2965C1.53553 20.9912 1.9995 22.6404 2.76394 24.1461L3.30239 25.1999C3.4261 25.4498 3.61641 25.6578 3.85081 25.7994C4.08521 25.941 4.3539 26.0102 4.62511 25.9988C4.89594 25.9921 5.15944 25.9065 5.38539 25.752C5.61135 25.5974 5.7906 25.3801 5.90258 25.125L8.58906 19.0626C8.71286 18.7832 8.91163 18.5464 9.16175 18.3804C9.41186 18.2144 9.7028 18.1261 9.99999 18.1261C10.2972 18.1261 10.5881 18.2144 10.8382 18.3804C11.0884 18.5464 11.2871 18.7832 11.4109 19.0626L14.0974 25.125C14.2094 25.3801 14.3886 25.5974 14.6146 25.752C14.8406 25.9065 15.1041 25.9921 15.3749 25.9988L15.4167 25.9996C15.6805 26.0005 15.9395 25.9263 16.1654 25.7853C16.3913 25.6443 16.5754 25.4418 16.6976 25.2L17.2019 24.2135C17.9769 22.6873 18.4474 21.0155 18.5855 19.2976C18.7235 17.5796 18.5262 15.8504 18.0054 14.2129C17.8132 13.6091 17.8152 12.9571 18.0111 12.3546L19.7124 7.15132ZM17.2598 14.4687C17.7476 16.0022 17.9324 17.6216 17.8032 19.2305C17.6739 20.8394 17.2332 22.405 16.5074 23.8343L16.0035 24.8207C15.9483 24.9367 15.8614 25.0333 15.7535 25.0984C15.6456 25.1635 15.5215 25.1943 15.3967 25.1869C15.2724 25.1848 15.1512 25.146 15.0475 25.075C14.9438 25.004 14.8619 24.9038 14.8115 24.7862L12.125 18.7239C11.9385 18.3031 11.6391 17.9466 11.2624 17.6966C10.8857 17.4467 10.4476 17.3138 10 17.3138C9.55245 17.3138 9.1143 17.4467 8.73761 17.6966C8.36092 17.9466 8.06152 18.3031 7.87498 18.7239L5.18847 24.7862C5.13679 24.9029 5.05456 25.0022 4.9511 25.073C4.84764 25.1438 4.72708 25.1833 4.60307 25.1869C4.47906 25.1905 4.35655 25.1581 4.24942 25.0934C4.14229 25.0287 4.05482 24.9342 3.9969 24.8207L3.45848 23.7668C2.7405 22.3485 2.30649 20.795 2.18241 19.1992C2.05834 17.6034 2.24674 15.9981 2.73636 14.4794C2.98779 13.7054 2.98658 12.8675 2.73292 12.0944L1.03168 6.89115C0.76299 6.09523 0.71476 5.23748 0.892435 4.41472C1.07011 3.59195 1.46661 2.83693 2.03719 2.23488C2.59619 1.62142 3.30987 1.1818 4.09766 0.965647C4.88546 0.749494 5.71599 0.765419 6.49549 1.01162L8.97794 1.76803C9.19114 1.83025 9.40941 1.87213 9.63001 1.89313C9.13908 2.42484 8.79704 3.0845 8.64042 3.80164C8.61798 3.90683 8.63685 4.01694 8.69287 4.10775C8.74889 4.19857 8.83748 4.26266 8.93918 4.28594C8.96715 4.2922 8.99569 4.29539 9.02432 4.29546C9.11368 4.29536 9.20034 4.26375 9.27 4.20584C9.33965 4.14794 9.38813 4.0672 9.40744 3.97695C9.51466 3.48428 9.73079 3.024 10.0389 2.63221C10.347 2.24043 10.7386 1.9278 11.1831 1.71884L13.5045 1.01161C14.284 0.765295 15.1145 0.749312 15.9023 0.965471C16.6902 1.18163 17.4038 1.62132 17.9628 2.23487C18.5333 2.83692 18.9299 3.59193 19.1075 4.41469C19.2852 5.23744 19.237 6.09519 18.9683 6.89111L17.2671 12.0943C17.017 12.8642 17.0144 13.6971 17.2598 14.4687V14.4687Z" fill="#363636"/>
</svg>
