<svg width="29" height="27" viewBox="0 0 29 27" fill="none" xmlns="http://www.w3.org/2000/svg">
<path d="M28.199 2.46673L24.8916 2.10126C24.814 2.09218 24.7353 2.10082 24.6616 2.12654C24.5879 2.15226 24.5211 2.19437 24.4662 2.24967L21.1573 5.54036L21.1548 5.53783C21.0639 5.44673 20.9421 5.39269 20.8133 5.38634C20.6844 5.37999 20.5578 5.42178 20.4584 5.50351L14.0127 10.7468L12.7451 9.48626C12.513 9.27429 12.2231 9.13519 11.9119 9.08642C11.6006 9.03764 11.2818 9.08136 10.9954 9.21209L7.89492 6.12875C8.28074 5.5154 8.48764 4.80752 8.49253 4.08406C8.47074 2.98813 8.01289 1.9455 7.21936 1.18473C6.42582 0.423966 5.36135 0.00712854 4.25928 0.0255957C3.15705 0.00691773 2.09235 0.423654 1.2986 1.18444C0.504862 1.94522 0.0468526 2.98797 0.0249939 4.08406C0.0468526 5.18014 0.50486 6.22289 1.2986 6.98367C2.09234 7.74445 3.15704 8.16119 4.25927 8.14252C5.37447 8.14642 6.44758 7.71935 7.25219 6.95142L10.2446 9.92731C10.1026 10.2162 10.0552 10.542 10.1089 10.8591C10.1626 11.1762 10.3149 11.4685 10.5442 11.6952L11.6545 12.796L3.53413 20.8792C3.529 20.8839 3.52221 20.8854 3.51719 20.8903C3.51216 20.8953 3.51065 20.9021 3.5059 20.9072L0.948808 23.4527C0.754863 23.644 0.601061 23.8718 0.496326 24.1227C0.391591 24.3736 0.338007 24.6428 0.338684 24.9144C0.340701 25.4623 0.559939 25.9872 0.948797 26.3753C1.14105 26.5662 1.36934 26.7175 1.62056 26.8204C1.87178 26.9233 2.14097 26.9759 2.41267 26.975C2.96496 26.9755 3.49523 26.7597 3.88873 26.3743L14.5968 15.7154L25.253 26.3137C25.5462 26.604 25.9433 26.7665 26.357 26.7655C26.7707 26.7646 27.1671 26.6002 27.4589 26.3087C27.7508 26.0171 27.9142 25.6221 27.9133 25.2107C27.9123 24.7993 27.7471 24.4051 27.4538 24.1148L16.6534 13.374L21.9273 6.96436C22.0091 6.86527 22.0508 6.73947 22.0444 6.61146C22.038 6.48344 21.984 6.36237 21.8928 6.2718L21.8923 6.27129L25.0246 3.15628L28.0833 3.49448C28.2201 3.50925 28.3572 3.4695 28.4646 3.38393C28.5719 3.29836 28.6408 3.17395 28.6561 3.03796C28.6715 2.90198 28.6319 2.7655 28.5463 2.65843C28.4606 2.55136 28.3357 2.48243 28.199 2.46674L28.199 2.46673ZM4.25928 7.10872C3.43272 7.12746 2.63239 6.81965 2.03359 6.25273C1.43479 5.6858 1.08632 4.90598 1.06453 4.08406C1.08632 3.26214 1.43479 2.48231 2.03359 1.91539C2.63239 1.34846 3.43272 1.04066 4.25928 1.05939C5.08572 1.04069 5.88593 1.34854 6.48456 1.91548C7.08319 2.48243 7.43144 3.26224 7.453 4.08406C7.43144 4.90587 7.08319 5.68568 6.48456 6.25263C5.88593 6.81957 5.08572 7.12742 4.25928 7.10872ZM3.15578 25.6414C3.01071 25.7865 2.82562 25.8855 2.62393 25.926C2.42223 25.9665 2.213 25.9465 2.0227 25.8687C1.8324 25.7909 1.66959 25.6587 1.55486 25.4888C1.44013 25.319 1.37864 25.1191 1.37818 24.9145C1.37802 24.7784 1.40504 24.6436 1.45767 24.5179C1.5103 24.3923 1.58748 24.2783 1.68476 24.1825L3.88768 21.9898L5.35667 23.4506L3.15578 25.6414ZM6.09128 22.7193L4.62235 21.2584L12.3907 13.5258L13.4862 14.6118L13.8618 14.9844L6.09128 22.7193ZM14.0434 13.3289L13.8525 13.5173L11.2792 10.9643C11.1836 10.8682 11.129 10.7391 11.127 10.604C11.1249 10.4688 11.1755 10.3381 11.2682 10.2393C11.2727 10.235 11.2788 10.2337 11.2833 10.2293L11.285 10.2267C11.3847 10.1354 11.5142 10.0829 11.6497 10.0789C11.7878 10.0793 11.9204 10.1324 12.0203 10.2273L14.5927 12.7865L14.2446 13.1304L14.0434 13.3289ZM26.7189 24.8458C26.8156 24.9444 26.8697 25.0766 26.8697 25.2143C26.8697 25.352 26.8156 25.4842 26.7189 25.5828C26.6218 25.6788 26.4904 25.7327 26.3534 25.7327C26.2165 25.7327 26.0851 25.6788 25.988 25.5828L14.9592 14.6139L14.5896 14.2464L14.9348 13.9055L15.3278 13.5176L15.5855 13.7739L26.7189 24.8458ZM15.9144 12.6381L15.6972 12.422L14.752 11.4821L16.0926 10.3913L17.0114 11.3051L15.9144 12.6381ZM17.6731 10.5012L16.9011 9.73354L20.7528 6.59991L20.8248 6.67159L17.6731 10.5012Z" fill="#363636"/>
</svg>
