<svg width="20" height="22" viewBox="0 0 20 22" fill="none" xmlns="http://www.w3.org/2000/svg">
<path d="M18.2512 13.2241C17.9687 12.9379 17.7447 12.5974 17.5922 12.2224C17.4397 11.8475 17.3617 11.4454 17.3627 11.0396V8.49843C17.3627 6.50973 16.587 4.60247 15.2061 3.19624C13.8253 1.79001 11.9524 1 9.99959 1C8.04676 1 6.17392 1.79001 4.79306 3.19624C3.41221 4.60247 2.63645 6.50973 2.63645 8.49843V11.0396C2.63749 11.4454 2.5595 11.8475 2.407 12.2224C2.25449 12.5974 2.0305 12.9379 1.74796 13.2241C1.39083 13.5878 1.14761 14.0511 1.04907 14.5556C0.950536 15.06 1.0011 15.5828 1.19438 16.058C1.38765 16.5332 1.71495 16.9393 2.13489 17.225C2.55483 17.5107 3.04853 17.6632 3.55357 17.6632H5.99077C6.17854 18.6049 6.68023 19.4515 7.41083 20.0597C8.14142 20.6678 9.056 21 9.99959 21C10.9432 21 11.8578 20.6678 12.5884 20.0597C13.319 19.4515 13.8206 18.6049 14.0084 17.6632H16.4464C16.9515 17.6632 17.4452 17.5107 17.8651 17.225C18.285 16.9393 18.6123 16.5332 18.8056 16.058C18.9989 15.5828 19.0495 15.06 18.9509 14.5556C18.8524 14.0511 18.6092 13.5878 18.252 13.2241H18.2512ZM9.99959 19.3295C9.49378 19.3274 9.00096 19.1661 8.58857 18.8679C8.17618 18.5696 7.86435 18.1488 7.69575 17.6632H12.3034C12.1348 18.1488 11.823 18.5696 11.4106 18.8679C10.9982 19.1661 10.5054 19.3274 9.99959 19.3295V19.3295ZM16.4456 15.9969H3.55357C3.3721 15.997 3.19468 15.9423 3.04376 15.8396C2.89284 15.737 2.77521 15.5911 2.70575 15.4204C2.63629 15.2497 2.61812 15.0618 2.65356 14.8805C2.68899 14.6993 2.77642 14.5328 2.9048 14.4022C3.33975 13.9616 3.6846 13.4376 3.9194 12.8604C4.1542 12.2832 4.27428 11.6643 4.2727 11.0396V8.49843C4.2727 6.95166 4.87607 5.46824 5.95007 4.37451C7.02407 3.28077 8.48073 2.66632 9.99959 2.66632C11.5185 2.66632 12.9751 3.28077 14.0491 4.37451C15.1231 5.46824 15.7265 6.95166 15.7265 8.49843V11.0396C15.7249 11.6643 15.845 12.2832 16.0798 12.8604C16.3146 13.4376 16.6594 13.9616 17.0944 14.4022C17.2228 14.5328 17.3102 14.6993 17.3456 14.8805C17.3811 15.0618 17.3629 15.2497 17.2934 15.4204C17.224 15.5911 17.1063 15.737 16.9554 15.8396C16.8045 15.9423 16.6271 15.997 16.4456 15.9969V15.9969Z" fill="white" stroke="white" stroke-width="0.5"/>
</svg>
