<svg width="66" height="66" viewBox="0 0 66 66" fill="none" xmlns="http://www.w3.org/2000/svg">
<path d="M56.265 26.4825C55.8789 22.4645 54.4589 18.615 52.1432 15.3087C49.8276 12.0025 46.6953 9.35228 43.0512 7.6161C39.4072 5.87992 35.3757 5.11698 31.3492 5.40155C27.3228 5.68613 23.4386 7.00854 20.075 9.24C17.1853 11.1723 14.7594 13.7206 12.9716 16.7018C11.1838 19.6831 10.0785 23.0233 9.73499 26.4825C9.39807 29.9191 9.83035 33.3875 11.0005 36.6362C12.1706 39.885 14.0492 42.8325 16.5 45.265L31.075 59.8675C31.3306 60.1252 31.6348 60.3298 31.9699 60.4694C32.305 60.6091 32.6645 60.6809 33.0275 60.6809C33.3905 60.6809 33.75 60.6091 34.0851 60.4694C34.4202 60.3298 34.7243 60.1252 34.98 59.8675L49.5 45.265C51.9508 42.8325 53.8294 39.885 54.9995 36.6362C56.1696 33.3875 56.6019 29.9191 56.265 26.4825ZM45.65 41.3875L33 54.0375L20.35 41.3875C18.4857 39.5231 17.0577 37.2689 16.1685 34.7868C15.2794 32.3048 14.9512 29.6565 15.2075 27.0325C15.4655 24.368 16.3123 21.7942 17.6868 19.4971C19.0613 17.1999 20.929 15.2369 23.155 13.75C26.0726 11.8119 29.4973 10.7781 33 10.7781C36.5027 10.7781 39.9274 11.8119 42.845 13.75C45.0642 15.2312 46.9278 17.1855 48.302 19.4726C49.6761 21.7596 50.5266 24.3226 50.7925 26.9775C51.0572 29.6104 50.7331 32.2693 49.8437 34.7615C48.9543 37.2537 47.5218 39.517 45.65 41.3875ZM33 16.5C30.5524 16.5 28.1599 17.2258 26.1248 18.5856C24.0898 19.9453 22.5036 21.8781 21.567 24.1393C20.6304 26.4005 20.3853 28.8887 20.8628 31.2892C21.3403 33.6898 22.5189 35.8948 24.2495 37.6254C25.9802 39.3561 28.1852 40.5347 30.5858 41.0122C32.9863 41.4897 35.4745 41.2446 37.7357 40.308C39.9969 39.3714 41.9296 37.7852 43.2894 35.7502C44.6492 33.7151 45.375 31.3225 45.375 28.875C45.3677 25.5952 44.0616 22.4518 41.7424 20.1326C39.4232 17.8134 36.2798 16.5073 33 16.5ZM33 35.75C31.6402 35.75 30.311 35.3468 29.1804 34.5914C28.0499 33.8359 27.1687 32.7622 26.6483 31.5059C26.128 30.2497 25.9918 28.8674 26.2571 27.5337C26.5224 26.2001 27.1771 24.9751 28.1386 24.0136C29.1001 23.0522 30.3251 22.3974 31.6587 22.1321C32.9924 21.8668 34.3747 22.003 35.6309 22.5233C36.8872 23.0437 37.9609 23.9249 38.7163 25.0555C39.4718 26.186 39.875 27.5152 39.875 28.875C39.875 30.6984 39.1507 32.447 37.8614 33.7364C36.572 35.0257 34.8234 35.75 33 35.75Z" fill="url(#paint0_linear_0_32)"/>
<defs>
<linearGradient id="paint0_linear_0_32" x1="9.99995" y1="5" x2="56" y2="61" gradientUnits="userSpaceOnUse">
<stop stop-color="#BE34B6"/>
<stop offset="1" stop-color="#EC2B3F"/>
</linearGradient>
</defs>
</svg>
