<svg width="20" height="20" viewBox="0 0 20 20" fill="none" xmlns="http://www.w3.org/2000/svg">
<path d="M16.2 10.8333C16.0167 10.8333 15.825 10.775 15.6417 10.7333C15.2704 10.6515 14.9055 10.5429 14.55 10.4083C14.1634 10.2677 13.7384 10.275 13.3569 10.4288C12.9754 10.5827 12.6642 10.8722 12.4833 11.2417L12.3 11.6167C11.4883 11.1652 10.7425 10.6044 10.0833 9.95C9.42897 9.29085 8.86818 8.545 8.41666 7.73334L8.76666 7.5C9.13613 7.3191 9.42564 7.00794 9.57949 6.62641C9.73333 6.24488 9.74063 5.81993 9.59999 5.43334C9.46768 5.07702 9.35911 4.71233 9.27499 4.34167C9.23333 4.15834 9.19999 3.96667 9.17499 3.775C9.0738 3.18802 8.76635 2.65645 8.30801 2.27603C7.84967 1.89562 7.27057 1.69134 6.67499 1.7H4.17499C3.81585 1.69663 3.4602 1.77068 3.13225 1.91711C2.8043 2.06354 2.51175 2.27892 2.27452 2.54857C2.03728 2.81823 1.86094 3.13583 1.75748 3.47976C1.65403 3.8237 1.62589 4.18588 1.67499 4.54167C2.11894 8.03282 3.71335 11.2766 6.20637 13.7605C8.69939 16.2445 11.9489 17.8271 15.4417 18.2583H15.7583C16.3728 18.2592 16.9662 18.0338 17.425 17.625C17.6886 17.3892 17.8992 17.1002 18.0429 16.7769C18.1865 16.4537 18.26 16.1037 18.2583 15.75V13.25C18.2481 12.6712 18.0373 12.1138 17.6619 11.6731C17.2866 11.2323 16.7698 10.9355 16.2 10.8333ZM16.6167 15.8333C16.6165 15.9517 16.5912 16.0686 16.5423 16.1764C16.4935 16.2841 16.4222 16.3802 16.3333 16.4583C16.2405 16.5392 16.1316 16.5995 16.0139 16.6354C15.8961 16.6713 15.7721 16.682 15.65 16.6667C12.5291 16.2665 9.63019 14.8387 7.41059 12.6086C5.19099 10.3784 3.777 7.47278 3.39166 4.35C3.3784 4.22793 3.39002 4.10444 3.42583 3.98699C3.46164 3.86955 3.52088 3.76058 3.59999 3.66667C3.67808 3.57778 3.77421 3.50654 3.88197 3.45768C3.98974 3.40883 4.10667 3.38349 4.22499 3.38334H6.72499C6.91878 3.37902 7.10801 3.4424 7.26011 3.56256C7.41221 3.68272 7.51767 3.85214 7.55833 4.04167C7.59166 4.26945 7.63333 4.49445 7.68333 4.71667C7.77959 5.15596 7.90771 5.58765 8.06666 6.00834L6.89999 6.55C6.80024 6.59577 6.71051 6.66079 6.63596 6.74133C6.5614 6.82187 6.50349 6.91635 6.46555 7.01933C6.42761 7.12231 6.41039 7.23178 6.41487 7.34144C6.41935 7.4511 6.44544 7.55879 6.49166 7.65834C7.69099 10.2273 9.75603 12.2923 12.325 13.4917C12.5279 13.575 12.7554 13.575 12.9583 13.4917C13.0623 13.4545 13.1578 13.397 13.2393 13.3227C13.3208 13.2483 13.3868 13.1584 13.4333 13.0583L13.95 11.8917C14.3808 12.0457 14.8205 12.1737 15.2667 12.275C15.4889 12.325 15.7139 12.3667 15.9417 12.4C16.1312 12.4407 16.3006 12.5461 16.4208 12.6982C16.5409 12.8503 16.6043 13.0395 16.6 13.2333L16.6167 15.8333Z" fill="url(#paint0_linear_1_46)"/>
<defs>
<linearGradient id="paint0_linear_1_46" x1="1.65152" y1="1.69974" x2="20.9401" y2="14.0804" gradientUnits="userSpaceOnUse">
<stop stop-color="#AD37E0"/>
<stop offset="1" stop-color="#EE2B3B"/>
</linearGradient>
</defs>
</svg>
