<svg width="20" height="20" viewBox="0 0 20 20" fill="none" xmlns="http://www.w3.org/2000/svg">
<path fill-rule="evenodd" clip-rule="evenodd" d="M16.3775 3.6158C14.6854 1.92988 12.4351 1.00095 10.0376 1C5.09763 1 1.07712 5.00098 1.07515 9.91885C1.07449 11.4909 1.4872 13.0254 2.27146 14.378L1 19L5.75112 17.7597C7.06014 18.4702 8.534 18.8447 10.034 18.8453H10.0377C14.9771 18.8453 18.998 14.8439 19 9.92597C19.001 7.5427 18.0696 5.30171 16.3775 3.6158ZM10.0377 17.3389H10.0346C8.69799 17.3384 7.38694 16.981 6.24325 16.3056L5.97122 16.1449L3.15187 16.8809L3.90442 14.1452L3.72728 13.8648C2.98161 12.6844 2.58777 11.3201 2.58835 9.91941C2.58999 5.83188 5.9317 2.50643 10.0406 2.50643C12.0303 2.50718 13.9006 3.27933 15.3071 4.6806C16.7135 6.08187 17.4876 7.9445 17.4868 9.92538C17.4851 14.0132 14.1434 17.3389 10.0377 17.3389ZM14.1237 11.7866C13.8997 11.6751 12.7988 11.1359 12.5935 11.0615C12.3882 10.9872 12.239 10.95 12.0896 11.1731C11.9404 11.3962 11.5112 11.8982 11.3805 12.0469C11.2499 12.1957 11.1193 12.2143 10.8954 12.1027C10.6714 11.9912 9.94987 11.7558 9.09449 10.9966C8.42881 10.4056 7.97934 9.67575 7.84871 9.45266C7.71809 9.22953 7.83483 9.1089 7.94692 8.99781C8.04765 8.89795 8.17085 8.73751 8.28283 8.60735C8.39478 8.47722 8.4321 8.38426 8.50674 8.23553C8.5814 8.08678 8.54408 7.95662 8.48809 7.84507C8.4321 7.73353 7.98427 6.63655 7.79763 6.19033C7.61587 5.75575 7.43124 5.81455 7.29378 5.80775C7.1633 5.80129 7.01386 5.7999 6.86459 5.7999C6.7153 5.7999 6.4727 5.85569 6.26741 6.07878C6.06216 6.30191 5.48367 6.84109 5.48367 7.93804C5.48367 9.03499 6.28609 10.0947 6.39806 10.2435C6.51002 10.3922 7.97714 12.6433 10.2236 13.6087C10.7578 13.8383 11.175 13.9754 11.5002 14.0782C12.0367 14.2478 12.5249 14.2238 12.9107 14.1665C13.341 14.1025 14.2356 13.6273 14.4223 13.1067C14.6089 12.5861 14.6089 12.1399 14.5529 12.0469C14.4969 11.954 14.3476 11.8982 14.1237 11.7866Z" fill="url(#paint0_linear_1_49)"/>
<defs>
<linearGradient id="paint0_linear_1_49" x1="1" y1="1" x2="21.9421" y2="14.403" gradientUnits="userSpaceOnUse">
<stop stop-color="#AD37E0"/>
<stop offset="1" stop-color="#EE2B3B"/>
</linearGradient>
</defs>
</svg>
