<svg width="15" height="15" viewBox="0 0 15 15" fill="none" xmlns="http://www.w3.org/2000/svg">
<path d="M9.93689 8.26813L9.93377 8.26688C9.89439 8.25 9.85627 8.23063 9.81627 8.215C10.2627 7.86507 10.6238 7.41822 10.8722 6.90825C11.1205 6.39827 11.2497 5.8385 11.25 5.27125C11.2485 5.13956 11.2391 5.00808 11.2219 4.8775C11.2315 4.85265 11.2395 4.82718 11.2456 4.80125L11.4213 3.30313C11.4761 2.82971 11.3489 2.35315 11.0655 1.96998C10.7821 1.5868 10.3637 1.32564 9.89501 1.23938L9.40127 1.15C8.14437 0.920478 6.85629 0.920478 5.59939 1.15L5.10502 1.23938C4.6363 1.32564 4.21789 1.5868 3.93451 1.96998C3.65113 2.35315 3.52396 2.82971 3.57876 3.30313L3.75376 4.80125C3.76016 4.82719 3.7683 4.85267 3.77814 4.8775C3.76093 5.00808 3.75154 5.13956 3.75001 5.27125C3.75028 5.8385 3.87949 6.39827 4.12787 6.90825C4.37626 7.41822 4.73732 7.86507 5.18376 8.215C5.14376 8.23063 5.10564 8.25 5.06626 8.26688L5.06314 8.26813C4.03997 8.69821 3.15058 9.39434 2.48731 10.2842C1.82403 11.1741 1.41106 12.2254 1.29126 13.3288C1.2757 13.4923 1.32514 13.6553 1.42889 13.7827C1.53263 13.9101 1.68234 13.9914 1.84563 14.0093C2.00893 14.0271 2.17267 13.9799 2.30145 13.8779C2.43022 13.776 2.51368 13.6274 2.53376 13.4644C2.62172 12.6532 2.90814 11.8762 3.36771 11.202C3.82728 10.5277 4.44586 9.97713 5.16877 9.59875L7.05814 11.4881C7.17534 11.6053 7.33429 11.6711 7.50001 11.6711C7.66574 11.6711 7.82469 11.6053 7.94189 11.4881L9.83126 9.59875C10.5542 9.97713 11.1727 10.5277 11.6323 11.202C12.0919 11.8762 12.3783 12.6532 12.4663 13.4644C12.4829 13.6173 12.5553 13.7588 12.6697 13.8616C12.7841 13.9645 12.9324 14.0215 13.0863 14.0219C13.1092 14.0218 13.1322 14.0206 13.155 14.0181C13.2367 14.0093 13.3157 13.9844 13.3878 13.9449C13.4598 13.9055 13.5233 13.8522 13.5747 13.7882C13.6262 13.7242 13.6645 13.6506 13.6875 13.5718C13.7105 13.493 13.7177 13.4104 13.7088 13.3288C13.5889 12.2253 13.1758 11.174 12.5125 10.2841C11.8491 9.39421 10.9595 8.69812 9.93626 8.26813H9.93689ZM4.82001 3.15688C4.80186 2.99914 4.8443 2.84039 4.93875 2.71276C5.0332 2.58512 5.17261 2.49813 5.32876 2.46938L5.82252 2.38C6.93166 2.17731 8.06837 2.17731 9.17752 2.38L9.67126 2.46938C9.82742 2.49813 9.96683 2.58512 10.0613 2.71276C10.1557 2.84039 10.1982 2.99914 10.18 3.15688L10.0688 4.10313H4.93126L4.82001 3.15688ZM7.50001 10.1631L6.46877 9.13125C7.1485 8.98511 7.85153 8.98511 8.53126 9.13125L7.50001 10.1631ZM7.50001 7.77188C6.85127 7.77111 6.22815 7.5185 5.76202 7.06729C5.29588 6.61608 5.02313 6.00151 5.00126 5.35313H9.99876C9.9769 6.00151 9.70415 6.61608 9.23801 7.06729C8.77188 7.5185 8.14876 7.77111 7.50001 7.77188Z" fill="url(#paint0_linear_1_143)"/>
<defs>
<linearGradient id="paint0_linear_1_143" x1="1.28845" y1="0.977859" x2="16.1438" y2="10.0334" gradientUnits="userSpaceOnUse">
<stop stop-color="#AD37E0"/>
<stop offset="1" stop-color="#EE2B3B"/>
</linearGradient>
</defs>
</svg>
