<svg width="16" height="17" viewBox="0 0 16 17" fill="none" xmlns="http://www.w3.org/2000/svg">
<path fill-rule="evenodd" clip-rule="evenodd" d="M9.49948 3.18774C9.49948 2.35932 8.82791 1.68774 7.99948 1.68774C7.17105 1.68774 6.49948 2.35932 6.49948 3.18774V3.55908C6.49182 3.27833 6.40531 2.99652 6.23366 2.74828C5.76248 2.06689 4.82815 1.89649 4.14676 2.36766C2.88102 3.24292 1.9311 4.51771 1.42117 5.98969C0.911472 7.46101 0.863337 9.06424 1.28256 10.5652C1.70193 12.0667 2.57118 13.4005 3.77829 14.3577C4.98705 15.3163 6.46768 15.843 7.99998 15.843C9.53229 15.843 11.0129 15.3163 12.2217 14.3577C13.4288 13.4005 14.2981 12.0668 14.7174 10.5653C15.1367 9.06428 15.0885 7.46104 14.5788 5.98972C14.0689 4.51773 13.119 3.24295 11.8533 2.36768C11.1719 1.8965 10.2375 2.0669 9.76637 2.74829C9.29519 3.42967 9.46559 4.364 10.147 4.83518C10.8686 5.33422 11.435 6.07931 11.7441 6.97172C12.0535 7.86479 12.0834 8.84387 11.828 9.75824C11.5728 10.6721 11.0509 11.4574 10.3577 12.0071C9.6661 12.5555 8.83895 12.843 7.99999 12.843C7.16103 12.843 6.33389 12.5555 5.64232 12.0071C4.94909 11.4574 4.42721 10.6721 4.17198 9.75822C3.91659 8.84385 3.94651 7.86477 4.25589 6.9717C4.56504 6.0793 5.13136 5.33421 5.85304 4.83517C6.262 4.55238 6.48689 4.10275 6.49948 3.64111V8.23462C6.49948 9.06305 7.17105 9.73462 7.99948 9.73462C8.82791 9.73462 9.49948 9.06305 9.49948 8.23462V3.18774Z" fill="url(#paint0_linear_1_118)"/>
<defs>
<linearGradient id="paint0_linear_1_118" x1="0.999999" y1="9.13787" x2="15.2672" y2="9.13787" gradientUnits="userSpaceOnUse">
<stop stop-color="#AD37E0"/>
<stop offset="1" stop-color="#EE2B3B"/>
</linearGradient>
</defs>
</svg>
