<svg width="30" height="30" viewBox="0 0 30 30" fill="none" xmlns="http://www.w3.org/2000/svg">
<path d="M18.3239 25H11.6621C10.8989 25.0033 10.1483 24.8066 9.48671 24.4299C8.82506 24.0532 8.27585 23.5099 7.8948 22.8551L4.57959 17.1417C4.19989 16.4906 4 15.7519 4 15C4 14.2481 4.19989 13.5094 4.57959 12.8583L7.91363 7.14488C8.29309 6.49284 8.83934 5.9513 9.49739 5.57477C10.1554 5.19824 10.9021 5 11.6621 5.00003H18.3239C19.087 4.99735 19.8372 5.1943 20.4988 5.57093C21.1603 5.94756 21.7096 6.49052 22.0912 7.14488L25.4252 12.8583C25.8019 13.5104 26 14.2487 26 15C26 15.7513 25.8019 16.4895 25.4252 17.1417L22.0912 22.8551C21.7096 23.5095 21.1603 24.0524 20.4988 24.4291C19.8372 24.8057 19.087 25.0026 18.3239 25ZM11.6621 7.52411C11.3491 7.52468 11.0418 7.6065 10.7708 7.76141C10.4998 7.91632 10.2745 8.13889 10.1175 8.40692L6.78345 14.1203C6.62749 14.3878 6.54539 14.6912 6.54539 15C6.54539 15.3088 6.62749 15.6122 6.78345 15.8797L10.1112 21.5931C10.2682 21.8611 10.4935 22.0837 10.7645 22.2386C11.0355 22.3935 11.3429 22.4753 11.6558 22.4759H18.3239C18.6362 22.4761 18.9429 22.3946 19.2131 22.2395C19.4832 22.0845 19.7072 21.8615 19.8622 21.5931L23.1962 15.8797C23.3504 15.6116 23.4314 15.3085 23.4314 15C23.4314 14.6915 23.3504 14.3884 23.1962 14.1203L19.8622 8.40692C19.7072 8.13853 19.4832 7.9155 19.2131 7.76046C18.9429 7.60542 18.6362 7.52388 18.3239 7.52411H11.6621Z" fill="white"/>
<path d="M14.9898 18.9073C17.1676 18.9073 18.9329 17.1594 18.9329 15.0031C18.9329 12.8468 17.1676 11.0989 14.9898 11.0989C12.8121 11.0989 11.0468 12.8468 11.0468 15.0031C11.0468 17.1594 12.8121 18.9073 14.9898 18.9073Z" fill="white"/>
</svg>
