<svg width="24" height="24" viewBox="0 0 24 24" fill="none" xmlns="http://www.w3.org/2000/svg">
<path d="M16.865 9.66999L13.97 9.24999L12.675 6.62499C12.55 6.36999 12.29 6.20499 12 6.20499C11.71 6.20499 11.455 6.36499 11.325 6.62499L10.03 9.24999L7.13499 9.66999C6.85499 9.70999 6.61999 9.90999 6.52999 10.18C6.43999 10.45 6.51499 10.75 6.71999 10.95L8.81499 12.99L8.31999 15.875C8.29664 16.013 8.31233 16.1548 8.36529 16.2844C8.41826 16.414 8.50639 16.5262 8.61975 16.6084C8.7331 16.6905 8.86716 16.7394 9.00679 16.7494C9.14643 16.7594 9.28608 16.7301 9.40999 16.665L12 15.3L14.59 16.66C14.7 16.72 14.82 16.745 14.94 16.745C15.095 16.745 15.25 16.695 15.38 16.6C15.61 16.43 15.725 16.15 15.68 15.865L15.185 12.98L17.28 10.94C17.485 10.74 17.56 10.445 17.47 10.17C17.38 9.90499 17.145 9.70999 16.865 9.66999ZM13.855 12.19C13.68 12.36 13.595 12.61 13.64 12.855L13.945 14.63L12.35 13.79C12.24 13.735 12.12 13.705 12 13.705C11.88 13.705 11.76 13.735 11.65 13.79L10.055 14.63L10.36 12.855C10.4 12.61 10.32 12.365 10.145 12.19L8.85499 10.935L10.635 10.675C10.88 10.64 11.09 10.485 11.2 10.265L12 8.64999L12.795 10.265C12.905 10.485 13.115 10.64 13.36 10.675L15.14 10.935L13.855 12.19Z" fill="white"/>
<path d="M12 1.25C6.075 1.25 1.25 6.075 1.25 12C1.25 17.93 6.075 22.75 12 22.75C17.925 22.75 22.75 17.93 22.75 12C22.75 6.075 17.925 1.25 12 1.25ZM12 21.25C6.9 21.25 2.75 17.1 2.75 12C2.75 6.9 6.9 2.75 12 2.75C17.1 2.75 21.25 6.9 21.25 12C21.25 17.1 17.1 21.25 12 21.25Z" fill="white"/>
</svg>
