<svg width="57" height="57" viewBox="0 0 57 57" fill="none" xmlns="http://www.w3.org/2000/svg">
    <defs>
        <linearGradient id="paint0_linear_0_91" x1="9.5" y1="4.75" x2="58.8763" y2="30.0307" gradientUnits="userSpaceOnUse">
            <stop stop-color="#AD37E0"/>
            <stop offset="1" stop-color="#EE2B3B"/>
        </linearGradient>
        <linearGradient id="paint1_linear_0_91" x1="19" y1="14.25" x2="37.0306" y2="29.6361" gradientUnits="userSpaceOnUse">
            <stop stop-color="#AD37E0"/>
            <stop offset="1" stop-color="#EE2B3B"/>
        </linearGradient>
    </defs>
    <path d="M38 4.75H19C13.775 4.75 9.5 9.025 9.5 14.25V42.75C9.5 47.975 13.775 52.25 19 52.25H28.5C28.7375 52.25 29.2125 52.25 29.45 52.0125C29.6875 51.775 29.925 51.775 30.1625 51.5375L46.7875 34.9125C47.025 34.675 47.025 34.4375 47.2625 34.2V33.9625C47.2625 33.725 47.2625 33.4875 47.5 33.25V14.25C47.5 9.025 43.225 4.75 38 4.75ZM30.875 44.175V40.375C30.875 37.7625 33.0125 35.625 35.625 35.625H39.425L30.875 44.175ZM42.75 30.875H35.625C30.4 30.875 26.125 35.15 26.125 40.375V47.5H19C16.3875 47.5 14.25 45.3625 14.25 42.75V14.25C14.25 11.6375 16.3875 9.5 19 9.5H38C40.6125 9.5 42.75 11.6375 42.75 14.25V30.875Z" fill="url(#paint0_linear_0_91)"/>
<path d="M21.375 19H28.5C29.925 19 30.875 18.05 30.875 16.625C30.875 15.2 29.925 14.25 28.5 14.25H21.375C19.95 14.25 19 15.2 19 16.625C19 18.05 19.95 19 21.375 19ZM35.625 23.75H21.375C19.95 23.75 19 24.7 19 26.125C19 27.55 19.95 28.5 21.375 28.5H35.625C37.05 28.5 38 27.55 38 26.125C38 24.7 37.05 23.75 35.625 23.75Z" fill="url(#paint1_linear_0_91)"/>

</svg>
