<svg width="57" height="57" viewBox="0 0 57 57" fill="none" xmlns="http://www.w3.org/2000/svg">
    <defs>
        <linearGradient id="paint0_linear_0_153" x1="9.5" y1="3.85937" x2="59.9817" y2="29.8646" gradientUnits="userSpaceOnUse">
            <stop stop-color="#AD37E0"/>
            <stop offset="1" stop-color="#EE2B3B"/>
        </linearGradient>
        <linearGradient id="paint1_linear_0_153" x1="19" y1="28.5" x2="36.5055" y2="41.5708" gradientUnits="userSpaceOnUse">
            <stop stop-color="#AD37E0"/>
            <stop offset="1" stop-color="#EE2B3B"/>
        </linearGradient>
    </defs>
<path d="M45.125 44.8875V17.5511C45.125 16.0457 45.723 14.602 46.7875 13.5375C47.975 12.35 48.45 10.925 48.45 9.5C48.45 8.075 47.7375 6.4125 46.7875 5.4625C44.65 3.325 40.85 3.325 38.7125 5.4625C37.648 6.52698 36.2043 7.125 34.6989 7.125H17.1C12.825 7.125 9.5 10.45 9.5 14.4875V44.8875C9.5 48.925 12.825 52.25 17.1 52.25H37.7625C41.8 52.25 45.125 48.925 45.125 44.8875ZM43.4625 8.7875C43.7 9.025 43.7 9.2625 43.7 9.5C43.7 9.52685 43.7 9.5537 43.6997 9.5802C43.6955 9.90224 43.3832 9.79446 43.1822 9.5428C42.82 9.08929 42.9047 8.42077 43.3938 8.73311C43.4197 8.7496 43.4427 8.76772 43.4625 8.7875ZM40.375 44.8875C40.375 46.3125 39.1875 47.5 37.525 47.5H17.1C15.4375 47.5 14.25 46.3125 14.25 44.8875V14.4875C14.25 13.0625 15.4375 11.875 17.1 11.875H27.9336C29.5449 11.875 30.3519 13.8231 29.2125 14.9625C28.025 16.15 27.55 17.575 27.55 19C27.55 20.425 28.2625 22.0875 29.2125 23.0375C30.4 24.225 31.825 24.7 33.25 24.7C34.675 24.7 36.1 24.225 37.2875 23.0375C38.2375 22.0875 38.2375 20.6625 37.2875 19.7125C36.3375 18.7625 34.9125 18.7625 33.9625 19.7125C33.4875 20.1875 33.0125 20.1875 32.5375 19.7125C32.3 19.475 32.3 19.2375 32.3 19C32.3 18.7625 32.3 18.525 32.5375 18.2875L36.5609 14.2641C37.8458 12.9792 40.375 12.6704 40.375 14.4875V44.8875Z" fill="url(#paint0_linear_0_153)"/>
<path d="M21.375 33.25H26.125C27.55 33.25 28.5 32.3 28.5 30.875C28.5 29.45 27.55 28.5 26.125 28.5H21.375C19.95 28.5 19 29.45 19 30.875C19 32.3 19.95 33.25 21.375 33.25ZM33.25 38H21.375C19.95 38 19 38.95 19 40.375C19 41.8 19.95 42.75 21.375 42.75H33.25C34.675 42.75 35.625 41.8 35.625 40.375C35.625 38.95 34.675 38 33.25 38Z" fill="url(#paint1_linear_0_153)"/>

</svg>
