<svg width="24" height="24" viewBox="0 0 24 24" fill="none" xmlns="http://www.w3.org/2000/svg">
<path fill-rule="evenodd" clip-rule="evenodd" d="M12 3.75C7.44675 3.75 3.75 7.44675 3.75 12C3.75 16.5533 7.44675 20.25 12 20.25C16.5533 20.25 20.25 16.5533 20.25 12C20.25 7.44675 16.5533 3.75 12 3.75ZM12 5.25C15.726 5.25 18.75 8.274 18.75 12C18.75 15.726 15.726 18.75 12 18.75C8.274 18.75 5.25 15.726 5.25 12C5.25 8.274 8.274 5.25 12 5.25Z" fill="#FF8A00" stroke="#FF8A00" stroke-width="0.5"/>
<path fill-rule="evenodd" clip-rule="evenodd" d="M11.25 2.25V4.5C11.25 4.69891 11.329 4.88968 11.4697 5.03033C11.6103 5.17098 11.8011 5.25 12 5.25C12.1989 5.25 12.3897 5.17098 12.5303 5.03033C12.671 4.88968 12.75 4.69891 12.75 4.5V2.25C12.75 2.05109 12.671 1.86032 12.5303 1.71967C12.3897 1.57902 12.1989 1.5 12 1.5C11.8011 1.5 11.6103 1.57902 11.4697 1.71967C11.329 1.86032 11.25 2.05109 11.25 2.25ZM21.75 11.25H19.5C19.3011 11.25 19.1103 11.329 18.9697 11.4697C18.829 11.6103 18.75 11.8011 18.75 12C18.75 12.1989 18.829 12.3897 18.9697 12.5303C19.1103 12.671 19.3011 12.75 19.5 12.75H21.75C21.9489 12.75 22.1397 12.671 22.2803 12.5303C22.421 12.3897 22.5 12.1989 22.5 12C22.5 11.8011 22.421 11.6103 22.2803 11.4697C22.1397 11.329 21.9489 11.25 21.75 11.25ZM5.63625 19.425L7.227 17.8335C7.36362 17.692 7.43921 17.5026 7.4375 17.306C7.43579 17.1093 7.35693 16.9212 7.21787 16.7821C7.07881 16.6431 6.8907 16.5642 6.69405 16.5625C6.4974 16.5608 6.30795 16.6364 6.1665 16.773L4.57575 18.3638C4.43913 18.5052 4.36354 18.6947 4.36525 18.8913C4.36695 19.0879 4.44582 19.2761 4.58488 19.4151C4.72394 19.5542 4.91205 19.633 5.1087 19.6348C5.30535 19.6365 5.4948 19.5609 5.63625 19.4243V19.425ZM4.575 5.63625L6.1665 7.227C6.30795 7.36362 6.4974 7.43921 6.69405 7.4375C6.8907 7.43579 7.07881 7.35692 7.21787 7.21786C7.35693 7.07881 7.43579 6.8907 7.4375 6.69405C7.43921 6.4974 7.36362 6.30795 7.227 6.1665L5.63625 4.57575C5.4948 4.43913 5.30535 4.36354 5.1087 4.36525C4.91205 4.36695 4.72394 4.44583 4.58488 4.58489C4.44582 4.72394 4.36695 4.91205 4.36525 5.1087C4.36354 5.30535 4.43913 5.4948 4.57575 5.63625H4.575ZM11.25 19.5V21.75C11.25 21.9489 11.329 22.1397 11.4697 22.2803C11.6103 22.421 11.8011 22.5 12 22.5C12.1989 22.5 12.3897 22.421 12.5303 22.2803C12.671 22.1397 12.75 21.9489 12.75 21.75V19.5C12.75 19.3011 12.671 19.1103 12.5303 18.9697C12.3897 18.829 12.1989 18.75 12 18.75C11.8011 18.75 11.6103 18.829 11.4697 18.9697C11.329 19.1103 11.25 19.3011 11.25 19.5ZM4.5 11.25H2.25C2.05109 11.25 1.86032 11.329 1.71967 11.4697C1.57902 11.6103 1.5 11.8011 1.5 12C1.5 12.1989 1.57902 12.3897 1.71967 12.5303C1.86032 12.671 2.05109 12.75 2.25 12.75H4.5C4.69891 12.75 4.88968 12.671 5.03033 12.5303C5.17098 12.3897 5.25 12.1989 5.25 12C5.25 11.8011 5.17098 11.6103 5.03033 11.4697C4.88968 11.329 4.69891 11.25 4.5 11.25ZM17.835 7.227L19.425 5.637C19.5657 5.49637 19.6448 5.30559 19.6449 5.10664C19.645 4.90769 19.566 4.71686 19.4254 4.57613C19.3557 4.50644 19.2731 4.45116 19.1821 4.41343C19.0911 4.37569 18.9935 4.35626 18.895 4.35622C18.6961 4.35615 18.5052 4.43512 18.3645 4.57575L16.7738 6.1665C16.6371 6.30795 16.5615 6.4974 16.5632 6.69405C16.5649 6.8907 16.6438 7.07881 16.7829 7.21786C16.9219 7.35692 17.11 7.43579 17.3067 7.4375C17.5033 7.43921 17.6928 7.36362 17.8343 7.227H17.835ZM16.773 17.8342L18.3638 19.4243C18.5051 19.561 18.6945 19.6367 18.8912 19.6351C19.0878 19.6336 19.276 19.5548 19.4151 19.4159C19.5543 19.2769 19.6333 19.0889 19.6351 18.8922C19.637 18.6956 19.5615 18.506 19.425 18.3645L17.8335 16.773C17.6928 16.6324 17.5019 16.5534 17.303 16.5535C17.104 16.5535 16.9133 16.6326 16.7726 16.7734C16.632 16.9141 16.553 17.1049 16.5531 17.3039C16.5532 17.5028 16.6323 17.6936 16.773 17.8342Z" fill="#FF8A00" stroke="#FF8A00" stroke-width="0.5"/>
<path d="M12 16.5C12.4142 16.5 12.75 16.1642 12.75 15.75C12.75 15.3358 12.4142 15 12 15C11.5858 15 11.25 15.3358 11.25 15.75C11.25 16.1642 11.5858 16.5 12 16.5Z" fill="#FF8A00" stroke="#FF8A00" stroke-width="0.5"/>
<path fill-rule="evenodd" clip-rule="evenodd" d="M9 9.7485V9.75L9.0015 9.79725C9.003 9.88731 9.02272 9.97612 9.05945 10.0584C9.09619 10.1406 9.14918 10.2145 9.21525 10.2757C9.35175 10.4137 9.54075 10.5 9.75 10.5C9.75 10.5 10.5 10.452 10.5 9.7485C10.5 9.33525 10.8353 9 11.2485 9H12.7455C12.9456 9 13.1375 9.07949 13.279 9.22099C13.4205 9.36248 13.5 9.55439 13.5 9.7545V9.75525C13.5 10.0598 13.311 10.3327 13.026 10.4392L12.0735 10.7962C11.8315 10.8869 11.6229 11.0493 11.4757 11.2618C11.3285 11.4742 11.2498 11.7266 11.25 11.985V12.75C11.25 12.9489 11.329 13.1397 11.4697 13.2803C11.6103 13.421 11.8011 13.5 12 13.5C12.1989 13.5 12.3897 13.421 12.5303 13.2803C12.671 13.1397 12.75 12.9489 12.75 12.75V12.1448L13.5525 11.844C13.9777 11.6846 14.3441 11.3992 14.6028 11.0259C14.8615 10.6527 15 10.2094 15 9.75525C14.9998 9.15731 14.7622 8.58391 14.3395 8.16103C13.9168 7.73816 13.3434 7.5004 12.7455 7.5H11.2485C10.9532 7.4999 10.6608 7.55799 10.3879 7.67096C10.1151 7.78392 9.86717 7.94954 9.65836 8.15835C9.44954 8.36716 9.28391 8.61508 9.17095 8.88792C9.05799 9.16077 8.9999 9.4532 9 9.7485Z" fill="#FF8A00" stroke="#FF8A00" stroke-width="0.5"/>
</svg>
