<svg width="24" height="24" viewBox="0 0 24 24" fill="none" xmlns="http://www.w3.org/2000/svg">
<path d="M18 6H6C3.7944 6 2 7.7939 2 10V17C2 19.2061 3.7944 21 6 21H18C20.2056 21 22 19.2061 22 17V10C22 7.7939 20.2056 6 18 6ZM20 17C20 18.1025 19.103 19 18 19H6C4.897 19 4 18.1025 4 17V12H20V17ZM4 10C4 8.8975 4.897 8 6 8H18C19.103 8 20 8.8975 20 10H4ZM6 3C5.4478 3 5 3.4473 5 4C5 4.5527 5.4478 5 6 5H8C8.5522 5 9 4.5527 9 4C9 3.4473 8.5522 3 8 3H6ZM18 3H16C15.4478 3 15 3.4473 15 4C15 4.5527 15.4478 5 16 5H18C18.5522 5 19 4.5527 19 4C19 3.4473 18.5522 3 18 3Z" fill="#FF8A00"/>
<path d="M11.293 17.707C11.4814 17.8955 11.7358 18 12 18C12.0327 18 12.0654 17.998 12.0986 17.9951C12.3965 17.9658 12.666 17.8037 12.832 17.5547L14.832 14.5547C15.1382 14.0947 15.0141 13.4746 14.5547 13.168C14.0943 12.8623 13.4736 12.9854 13.168 13.4453L11.8448 15.4307L11.707 15.293C11.3164 14.9024 10.6836 14.9024 10.2929 15.293C9.9022 15.6836 9.9023 16.3164 10.2929 16.7071L11.293 17.707Z" fill="#FF8A00"/>
</svg>
