<svg width="24" height="24" viewBox="0 0 24 24" fill="none" xmlns="http://www.w3.org/2000/svg">
<path d="M16.321 3.01669C16.1583 3.01669 16.0024 3.08413 15.8874 3.20418C15.7724 3.32422 15.7078 3.48704 15.7078 3.65681V19.0196C15.7078 19.529 15.9016 20.0174 16.2466 20.3775C16.5915 20.7377 17.0594 20.94 17.5473 20.94C18.0352 20.94 18.5031 20.7377 18.848 20.3775C19.193 20.0174 19.3868 19.529 19.3868 19.0196V11.9783C19.5495 11.9783 19.7054 11.9109 19.8204 11.7909C19.9354 11.6708 20 11.508 20 11.3382V6.8574C19.999 5.83909 19.6111 4.86278 18.9214 4.14273C18.2316 3.42268 17.2964 3.01771 16.321 3.01669ZM18.1605 19.0196C18.1605 19.1894 18.0959 19.3522 17.9809 19.4723C17.8659 19.5923 17.7099 19.6598 17.5473 19.6598C17.3847 19.6598 17.2287 19.5923 17.1137 19.4723C16.9987 19.3522 16.9341 19.1894 16.9341 19.0196V14.5388H18.1605V19.0196ZM18.1605 13.2586H16.9341V11.9783H18.1605V13.2586ZM18.7737 10.6981H16.9341V4.37758C17.4603 4.52031 17.9263 4.84115 18.2592 5.28987C18.592 5.73859 18.773 6.28987 18.7737 6.8574V10.6981ZM12.0288 15.8191C11.9093 15.8225 11.7902 15.8351 11.6725 15.8568L10.7901 11.214C10.768 11.096 10.7145 10.9868 10.6356 10.8991L10.1138 10.323L10.5173 9.87492C10.5875 9.79759 10.638 9.7032 10.6644 9.60031L12.1514 3.8226C12.1747 3.74063 12.1821 3.65461 12.1731 3.56961C12.1641 3.48462 12.1388 3.40237 12.0989 3.32773C12.0589 3.25309 12.005 3.18757 11.9403 3.13503C11.8757 3.0825 11.8016 3.04402 11.7225 3.02186C11.6434 2.9997 11.5608 2.99432 11.4797 3.00603C11.3985 3.01774 11.3205 3.0463 11.2501 3.09004C11.1797 3.13377 11.1184 3.19178 11.0698 3.26065C11.0213 3.32952 10.9864 3.40785 10.9674 3.49102L9.52271 9.11446L9.27193 9.39163L9.02114 9.11446L7.57405 3.49102C7.5532 3.40969 7.5172 3.33344 7.46812 3.26664C7.41904 3.19983 7.35783 3.14377 7.288 3.10166C7.21816 3.05954 7.14106 3.0322 7.06111 3.02119C6.98115 3.01018 6.8999 3.01572 6.82199 3.03749C6.74409 3.05927 6.67105 3.09684 6.60706 3.14808C6.54306 3.19932 6.48936 3.26321 6.44902 3.33612C6.40868 3.40902 6.38249 3.48951 6.37194 3.57298C6.3614 3.65645 6.36671 3.74127 6.38756 3.8226L7.87205 9.60287C7.89846 9.70576 7.94904 9.80015 8.01921 9.87748L8.42268 10.3256L7.90087 10.9017C7.82204 10.9894 7.76849 11.0986 7.74635 11.2166L6.86645 15.8568C6.74875 15.8351 6.62967 15.8225 6.5102 15.8191C5.92231 15.812 5.35111 16.023 4.89838 16.4146C4.44564 16.8061 4.14078 17.3528 4.03813 17.9571C3.93547 18.5614 4.04168 19.1842 4.33784 19.7144C4.63399 20.2446 5.10085 20.6478 5.65522 20.8522C6.20959 21.0565 6.81546 21.0488 7.36488 20.8303C7.91429 20.6118 8.37154 20.1968 8.65517 19.6592C8.9388 19.1216 9.03036 18.4963 8.91356 17.8948C8.79675 17.2932 8.47916 16.7545 8.01737 16.3747L8.9169 11.6436L9.26947 11.2544L9.62205 11.6436L10.5216 16.3747C10.0707 16.7501 9.7619 17.28 9.64984 17.8706C9.53777 18.4611 9.62974 19.074 9.90943 19.6004C10.1891 20.1269 10.6384 20.5329 11.1776 20.7463C11.7168 20.9598 12.311 20.9669 12.8547 20.7665C13.3985 20.566 13.8566 20.1709 14.1479 19.6513C14.4391 19.1318 14.5445 18.5212 14.4455 17.9282C14.3465 17.3351 14.0494 16.7979 13.607 16.4118C13.1646 16.0256 12.6054 15.8157 12.0288 15.8191ZM6.5102 19.6598C6.26765 19.6598 6.03055 19.5847 5.82887 19.444C5.6272 19.3033 5.47002 19.1034 5.3772 18.8695C5.28438 18.6355 5.2601 18.3781 5.30741 18.1298C5.35473 17.8814 5.47153 17.6533 5.64304 17.4743C5.81455 17.2952 6.03306 17.1733 6.27095 17.1239C6.50884 17.0745 6.75541 17.0998 6.9795 17.1967C7.20358 17.2936 7.39511 17.4577 7.52987 17.6683C7.66462 17.8788 7.73654 18.1263 7.73654 18.3795C7.73654 18.7191 7.60734 19.0447 7.37735 19.2848C7.14737 19.5249 6.83544 19.6598 6.5102 19.6598ZM12.0288 19.6598C11.7862 19.6598 11.5491 19.5847 11.3474 19.444C11.1458 19.3033 10.9886 19.1034 10.8958 18.8695C10.8029 18.6355 10.7787 18.3781 10.826 18.1298C10.8733 17.8814 10.9901 17.6533 11.1616 17.4743C11.3331 17.2952 11.5516 17.1733 11.7895 17.1239C12.0274 17.0745 12.274 17.0998 12.4981 17.1967C12.7221 17.2936 12.9137 17.4577 13.0484 17.6683C13.1832 17.8788 13.2551 18.1263 13.2551 18.3795C13.2551 18.7191 13.1259 19.0447 12.8959 19.2848C12.6659 19.5249 12.354 19.6598 12.0288 19.6598Z" fill="#FF8A00" stroke="#FF8A00" stroke-width="0.5"/>
</svg>
