<svg width="24" height="19" viewBox="0 0 24 19" fill="none" xmlns="http://www.w3.org/2000/svg">
    <defs>
        <linearGradient id="paint0_linear_0_44" x1="0.500244" y1="0" x2="23.5974" y2="18.3779" gradientUnits="userSpaceOnUse">
            <stop stop-color="#AD37E0"/>
            <stop offset="1" stop-color="#EE2B3B"/>
        </linearGradient>
    </defs>
    <path fill-rule="evenodd" clip-rule="evenodd" d="M11.4761 0.148342C11.7976 -0.0494472 12.2029 -0.0494472 12.5243 0.148342L22.2743 6.14834C22.6554 6.38282 22.8343 6.84186 22.7124 7.27234C22.5906 7.70283 22.1976 8 21.7502 8H19.7502V12.75H21.0002C21.5525 12.75 22.0002 13.1977 22.0002 13.75C22.0002 14.3023 21.5525 14.75 21.0002 14.75H18.7502H14.2502H9.75024H5.25024H3.00024C2.44796 14.75 2.00024 14.3023 2.00024 13.75C2.00024 13.1977 2.44796 12.75 3.00024 12.75H4.25024V8H2.25024C1.80285 8 1.40989 7.70283 1.28804 7.27234C1.1662 6.84186 1.34512 6.38282 1.72615 6.14834L11.4761 0.148342ZM17.7502 8V12.75H15.2502V8H17.7502ZM13.2502 8V12.75H10.7502V8H13.2502ZM8.75024 8V12.75H6.25024V8H8.75024ZM18.2172 6H14.2502H9.75024H5.78329L12.0002 2.17418L18.2172 6ZM1.50024 16.5C0.947959 16.5 0.500244 16.9477 0.500244 17.5C0.500244 18.0523 0.947959 18.5 1.50024 18.5H22.5002C23.0525 18.5 23.5002 18.0523 23.5002 17.5C23.5002 16.9477 23.0525 16.5 22.5002 16.5H1.50024Z" fill="url(#paint0_linear_0_44)"/>

</svg>
