<svg width="29" height="29" viewBox="0 0 29 29" fill="none" xmlns="http://www.w3.org/2000/svg">
<path d="M14.9094 6.67212C14.2346 6.67212 13.575 6.88472 13.0139 7.28304C12.4528 7.68136 12.0156 8.24751 11.7573 8.90989C11.4991 9.57227 11.4315 10.3011 11.5632 11.0043C11.6948 11.7075 12.0198 12.3534 12.4969 12.8604C12.974 13.3673 13.582 13.7126 14.2438 13.8525C14.9056 13.9923 15.5916 13.9205 16.215 13.6462C16.8384 13.3718 17.3713 12.9072 17.7462 12.3111C18.1211 11.7149 18.3212 11.0141 18.3212 10.2971C18.3212 9.33571 17.9617 8.41368 17.3219 7.73386C16.682 7.05404 15.8142 6.67212 14.9094 6.67212ZM14.9094 12.1096C14.572 12.1096 14.2422 12.0033 13.9616 11.8042C13.6811 11.605 13.4625 11.3219 13.3334 10.9907C13.2042 10.6595 13.1705 10.2951 13.2363 9.94352C13.3021 9.59193 13.4646 9.26897 13.7031 9.01549C13.9417 8.76201 14.2457 8.58938 14.5766 8.51945C14.9075 8.44951 15.2505 8.4854 15.5622 8.62259C15.8739 8.75977 16.1403 8.99208 16.3278 9.29015C16.5152 9.58821 16.6153 9.93864 16.6153 10.2971C16.6153 10.7778 16.4355 11.2388 16.1156 11.5787C15.7957 11.9187 15.3618 12.1096 14.9094 12.1096Z" fill="white"/>
<path d="M22.0946 8.10943C21.9121 7.87235 21.7548 7.61463 21.6255 7.34093C21.528 7.03597 21.4625 6.72049 21.4301 6.40025C21.3942 5.60073 21.1108 4.83618 20.6241 4.22525C20.0484 3.70972 19.3291 3.40974 18.577 3.37156C18.2739 3.33744 17.9753 3.26784 17.6866 3.16403C17.4294 3.02637 17.1871 2.85923 16.9641 2.66559C16.3975 2.11381 15.6751 1.77641 14.9094 1.70587C14.1425 1.77481 13.4186 2.11128 12.8504 2.66287C12.6273 2.85674 12.3847 3.0239 12.1271 3.16131C11.8387 3.26522 11.5403 3.33483 11.2375 3.36884C10.4865 3.40804 9.76855 3.70902 9.19469 4.22525C8.70949 4.83693 8.42716 5.60121 8.39122 6.40025C8.35911 6.7223 8.2936 7.0396 8.1959 7.34637C8.06634 7.61965 7.90903 7.87704 7.72678 8.11397C7.20745 8.71601 6.88991 9.48352 6.82352 10.2971C6.8884 11.112 7.20508 11.8811 7.72422 12.4848C7.90669 12.7219 8.06401 12.9796 8.19334 13.2533C8.29114 13.5597 8.35665 13.8767 8.38866 14.1985C8.4428 14.8409 8.63072 15.4625 8.93881 16.0183V24.7971C8.93887 25.1251 9.02269 25.447 9.18135 25.7283C9.34 26.0097 9.56755 26.24 9.83972 26.3948C10.1119 26.5496 10.4185 26.623 10.7268 26.6072C11.0352 26.5914 11.3337 26.487 11.5906 26.3051L14.9094 23.9543L18.2282 26.3051C18.4851 26.487 18.7836 26.5914 19.092 26.6072C19.4003 26.623 19.7069 26.5496 19.9791 26.3948C20.2513 26.24 20.4788 26.0097 20.6375 25.7283C20.7961 25.447 20.8799 25.1251 20.88 24.7971V16.0183C21.1879 15.4624 21.3758 14.8409 21.4301 14.1985C21.4623 13.8765 21.5278 13.5592 21.6255 13.2524C21.755 12.9791 21.9123 12.7217 22.0946 12.4848C22.6138 11.8812 22.9305 11.112 22.9953 10.2971C22.9304 9.48229 22.6137 8.71313 22.0946 8.10943ZM12.3506 23.5891L10.6447 24.7971V17.1139C10.8451 17.1583 11.0447 17.1937 11.2418 17.2254C11.5449 17.2595 11.8435 17.3291 12.1322 17.4329C12.2094 17.4718 12.2838 17.5166 12.3548 17.5671L12.3506 23.5891ZM15.7623 22.4001C15.5038 22.2386 15.2093 22.1534 14.9094 22.1534C14.6095 22.1534 14.315 22.2386 14.0565 22.4001V18.6944C14.3247 18.8223 14.6154 18.8884 14.9094 18.8884C15.2034 18.8884 15.4941 18.8223 15.7623 18.6944V22.4001ZM19.1741 24.7971L17.4682 23.5891V17.5671C17.5396 17.5167 17.6143 17.4719 17.6917 17.4329C17.9801 17.329 18.2785 17.2594 18.5813 17.2254C18.7741 17.1937 18.9737 17.1583 19.1784 17.1148L19.1741 24.7971ZM20.7282 11.4C20.4562 11.7543 20.2269 12.1434 20.0458 12.5582C19.8917 12.9994 19.7888 13.459 19.7396 13.9267C19.7247 14.337 19.6139 14.7369 19.4172 15.0903C19.0847 15.2997 18.7082 15.4175 18.322 15.4328C17.8821 15.485 17.4498 15.5943 17.0349 15.7582C16.6442 15.9504 16.2777 16.194 15.944 16.4832C15.6538 16.7735 15.2971 16.9778 14.9094 17.0759C14.5201 16.9774 14.1621 16.7717 13.8714 16.4796C13.5379 16.1905 13.1717 15.947 12.7813 15.7546C12.3673 15.5924 11.9362 15.4843 11.4976 15.4328C11.1115 15.4171 10.7351 15.2993 10.4025 15.0903C10.2053 14.737 10.0945 14.337 10.08 13.9267C10.0293 13.4603 9.925 13.0022 9.76958 12.5627C9.58867 12.1476 9.35943 11.7582 9.08722 11.4037C8.81297 11.0933 8.62057 10.7116 8.5294 10.2971C8.6221 9.88351 8.81567 9.50312 9.09064 9.19422C9.36265 8.83989 9.59188 8.45081 9.77299 8.03603C9.92564 7.59613 10.0273 7.13813 10.0758 6.67212C10.0906 6.26182 10.2014 5.86191 10.3982 5.5085C10.7315 5.29675 11.1096 5.17739 11.4976 5.1614C11.935 5.10855 12.3646 4.9993 12.777 4.83606C13.1678 4.64385 13.5343 4.40028 13.868 4.11106C14.16 3.81967 14.5193 3.61524 14.9094 3.51837C15.2987 3.61687 15.6567 3.82253 15.9474 4.11468C16.2809 4.4037 16.6471 4.64726 17.0375 4.83968C17.4527 5.00347 17.8852 5.11273 18.3254 5.16503C18.7116 5.18081 19.088 5.29854 19.4206 5.50759C19.6179 5.8611 19.7287 6.26144 19.743 6.67212C19.7928 7.13678 19.8956 7.59326 20.0492 8.0315C20.2301 8.44668 20.4594 8.83609 20.7316 9.19059C21.0058 9.50093 21.1982 9.88259 21.2894 10.2971C21.1967 10.7107 21.0031 11.0911 20.7282 11.4Z" fill="white"/>
</svg>
