<svg width="29" height="29" viewBox="0 0 29 29" fill="none" xmlns="http://www.w3.org/2000/svg">
<path d="M21.75 4.83332H20.5417V3.62499C20.5417 3.30452 20.4144 2.99718 20.1878 2.77057C19.9611 2.54396 19.6538 2.41666 19.3333 2.41666C19.0129 2.41666 18.7055 2.54396 18.4789 2.77057C18.2523 2.99718 18.125 3.30452 18.125 3.62499V4.83332H10.875V3.62499C10.875 3.30452 10.7477 2.99718 10.5211 2.77057C10.2945 2.54396 9.98714 2.41666 9.66667 2.41666C9.3462 2.41666 9.03885 2.54396 8.81225 2.77057C8.58564 2.99718 8.45833 3.30452 8.45833 3.62499V4.83332H7.25C6.28859 4.83332 5.36656 5.21524 4.68674 5.89506C4.00692 6.57488 3.625 7.49691 3.625 8.45832V22.9583C3.625 23.9197 4.00692 24.8418 4.68674 25.5216C5.36656 26.2014 6.28859 26.5833 7.25 26.5833H21.75C22.7114 26.5833 23.6334 26.2014 24.3133 25.5216C24.9931 24.8418 25.375 23.9197 25.375 22.9583V8.45832C25.375 7.49691 24.9931 6.57488 24.3133 5.89506C23.6334 5.21524 22.7114 4.83332 21.75 4.83332ZM7.25 7.24999H8.45833V8.45832C8.45833 8.77879 8.58564 9.08614 8.81225 9.31274C9.03885 9.53935 9.3462 9.66666 9.66667 9.66666C9.98714 9.66666 10.2945 9.53935 10.5211 9.31274C10.7477 9.08614 10.875 8.77879 10.875 8.45832V7.24999H18.125V8.45832C18.125 8.77879 18.2523 9.08614 18.4789 9.31274C18.7055 9.53935 19.0129 9.66666 19.3333 9.66666C19.6538 9.66666 19.9611 9.53935 20.1878 9.31274C20.4144 9.08614 20.5417 8.77879 20.5417 8.45832V7.24999H21.75C22.0705 7.24999 22.3778 7.3773 22.6044 7.6039C22.831 7.83051 22.9583 8.13785 22.9583 8.45832V13.2917H6.04167V8.45832C6.04167 8.13785 6.16897 7.83051 6.39558 7.6039C6.62219 7.3773 6.92953 7.24999 7.25 7.24999ZM21.75 24.1667H7.25C6.92953 24.1667 6.62219 24.0394 6.39558 23.8127C6.16897 23.5861 6.04167 23.2788 6.04167 22.9583V15.7083H22.9583V22.9583C22.9583 23.2788 22.831 23.5861 22.6044 23.8127C22.3778 24.0394 22.0705 24.1667 21.75 24.1667Z" fill="white"/>
<path d="M9.66667 20.5417C10.334 20.5417 10.875 20.0007 10.875 19.3333C10.875 18.666 10.334 18.125 9.66667 18.125C8.99933 18.125 8.45834 18.666 8.45834 19.3333C8.45834 20.0007 8.99933 20.5417 9.66667 20.5417Z" fill="white"/>
<path d="M19.3333 18.125H14.5C14.1795 18.125 13.8722 18.2523 13.6456 18.4789C13.419 18.7055 13.2917 19.0129 13.2917 19.3333C13.2917 19.6538 13.419 19.9611 13.6456 20.1878C13.8722 20.4144 14.1795 20.5417 14.5 20.5417H19.3333C19.6538 20.5417 19.9612 20.4144 20.1878 20.1878C20.4144 19.9611 20.5417 19.6538 20.5417 19.3333C20.5417 19.0129 20.4144 18.7055 20.1878 18.4789C19.9612 18.2523 19.6538 18.125 19.3333 18.125Z" fill="white"/>
</svg>
