<svg width="25" height="25" viewBox="0 0 25 25" fill="none" xmlns="http://www.w3.org/2000/svg">
    <defs>
        <linearGradient id="paint0_linear_0_2163" x1="3" y1="3" x2="26.2722" y2="17.899" gradientUnits="userSpaceOnUse">
            <stop stop-color="#AD37E0"/>
            <stop offset="1" stop-color="#EE2B3B"/>
        </linearGradient>
    </defs>
    <path d="M22.494 15.5954L21.5092 14.6107L21.5091 14.6106L21.509 14.6104L20.0328 13.1344L20.0318 13.133L20.0304 13.132L18.5557 11.6574L18.5546 11.6557L18.5528 11.6545L17.0766 10.1784C16.9243 10.0277 16.7291 9.9278 16.5177 9.8925C16.3064 9.8572 16.0893 9.8882 15.8963 9.98124L13.1399 7.22521C12.8525 6.93612 12.5108 6.70657 12.1345 6.5497C11.7582 6.39283 11.3547 6.31172 10.947 6.31101C10.9167 5.67055 10.7098 5.05096 10.3492 4.52079C9.98857 3.99063 9.48834 3.57055 8.90381 3.30705C8.31929 3.04355 7.67326 2.94688 7.0372 3.02776C6.40115 3.10864 5.79987 3.3639 5.29989 3.7653C5.26171 3.79591 5.23041 3.83423 5.20803 3.87775C5.18565 3.92127 5.17269 3.96902 5.16999 4.01789C5.1673 4.06675 5.17493 4.11564 5.19239 4.16136C5.20985 4.20707 5.23675 4.2486 5.27133 4.28323L6.26706 5.2793C6.32419 5.33614 6.3992 5.37148 6.47939 5.37935C6.55959 5.38722 6.64004 5.36713 6.70712 5.32249C6.97537 5.14558 7.29652 5.06681 7.61618 5.09953C7.93584 5.13226 8.23437 5.27445 8.46121 5.50204C8.67831 5.7179 8.81741 5.99984 8.85661 6.30347C8.89581 6.60709 8.83287 6.91512 8.67771 7.17903C8.33153 7.19918 8.00542 7.34812 7.76351 7.59656C7.52159 7.845 7.38138 8.17496 7.37044 8.52155L7.2526 8.63003C6.98526 8.80691 6.66501 8.88598 6.34606 8.85385C6.02712 8.82172 5.72907 8.68036 5.50238 8.45371C5.27569 8.22707 5.13428 7.92905 5.10209 7.61011C5.0699 7.29117 5.14891 6.9709 5.32573 6.70353C5.37065 6.63657 5.39094 6.55609 5.38313 6.47583C5.37531 6.39558 5.33989 6.32052 5.2829 6.26348L4.28715 5.2674C4.25335 5.23172 4.21197 5.20409 4.16606 5.18655C4.12014 5.16902 4.07087 5.16202 4.02189 5.16609C3.97308 5.16867 3.92536 5.18155 3.88187 5.20388C3.83839 5.2262 3.80011 5.25747 3.76956 5.29564C3.36659 5.79437 3.10996 6.39516 3.02824 7.03112C2.94653 7.66707 3.04294 8.31323 3.30675 8.89763C3.57055 9.48204 3.99139 9.98174 4.5224 10.3411C5.05341 10.7005 5.67374 10.9054 6.31433 10.9331C6.31423 11.3424 6.39496 11.7477 6.55188 12.1257C6.70881 12.5038 6.93885 12.8471 7.2288 13.136L9.98509 15.8923C9.89195 16.0853 9.86087 16.3025 9.89612 16.5139C9.93138 16.7253 10.0312 16.9206 10.182 17.073L15.5993 22.4901C15.761 22.6517 15.9529 22.78 16.1642 22.8675C16.3754 22.955 16.6018 23 16.8304 23C17.059 23 17.2854 22.955 17.4967 22.8675C17.7079 22.78 17.8998 22.6517 18.0615 22.4901C18.2231 22.3284 18.3514 22.1365 18.4389 21.9253C18.5264 21.714 18.5714 21.4876 18.5714 21.259C18.5714 21.0304 18.5264 20.804 18.4389 20.5928C18.3514 20.3815 18.2231 20.1896 18.0615 20.0279L17.077 19.0434L17.0766 19.0427L17.076 19.0423L15.5994 17.5655L15.5993 17.5655L15.5993 17.5654L14.1224 16.0884L14.1221 16.0878L14.1215 16.0875L12.6448 14.6106C12.4922 14.4598 12.2967 14.3599 12.0851 14.3248C11.8734 14.2896 11.6561 14.3209 11.463 14.4143L8.70266 11.654C8.507 11.4577 8.39713 11.1918 8.39713 10.9147C8.39713 10.6375 8.507 10.3717 8.70266 10.1754L8.93957 9.93846C9.24224 9.89868 9.52333 9.76015 9.73924 9.54434C9.95515 9.32852 10.0938 9.0475 10.1337 8.74485L10.1793 8.69911C10.3756 8.50344 10.6414 8.39357 10.9186 8.39357C11.1957 8.39357 11.4616 8.50344 11.6579 8.69911L14.4182 11.4591C14.3247 11.6522 14.2934 11.8694 14.3286 12.081C14.3637 12.2926 14.4636 12.4881 14.6145 12.6406L16.0911 14.1171L16.0918 14.1181L16.0928 14.1188L17.5684 15.5944L17.5691 15.5954L17.5701 15.5961L20.0319 18.0579C20.1935 18.2201 20.3854 18.3488 20.5968 18.4367C20.8082 18.5246 21.0348 18.57 21.2638 18.5702C21.4927 18.5704 21.7194 18.5254 21.931 18.4379C22.1425 18.3504 22.3347 18.222 22.4966 18.0601C22.6584 17.8982 22.7868 17.706 22.8743 17.4945C22.9618 17.2829 23.0067 17.0562 23.0064 16.8273C23.0062 16.5983 22.9608 16.3717 22.8729 16.1603C22.785 15.949 22.6562 15.757 22.494 15.5954L22.494 15.5954ZM4.51704 9.43942C4.07958 9.00297 3.79998 8.43323 3.72238 7.82017C3.64479 7.20711 3.77363 6.58567 4.08855 6.05399L4.60274 6.56853C4.40799 6.97231 4.34899 7.42823 4.43454 7.86829C4.5201 8.30835 4.74562 8.70895 5.07748 9.01035C5.40934 9.31175 5.82974 9.49779 6.27598 9.54071C6.72222 9.58364 7.17037 9.48115 7.5536 9.24854C7.67382 9.4599 7.84727 9.63611 8.0567 9.75967C7.64362 10.048 7.15839 10.2156 6.6554 10.2437C6.26214 10.2709 5.86764 10.2131 5.49868 10.0743C5.12972 9.93554 4.79493 9.71901 4.51704 9.43942ZM17.569 20.5204C17.6661 20.6173 17.7431 20.7325 17.7956 20.8592C17.8481 20.986 17.8751 21.1218 17.8751 21.259C17.8751 21.3962 17.8481 21.532 17.7956 21.6588C17.7431 21.7855 17.6661 21.9006 17.569 21.9976C17.3702 22.1878 17.1056 22.294 16.8304 22.294C16.5552 22.294 16.2906 22.1878 16.0918 21.9976L15.3531 21.259L16.8303 19.7815L17.569 20.5204ZM16.3379 19.2891L14.8607 20.7666L13.8758 19.7818L15.3532 18.3041L16.3379 19.2891ZM14.8607 17.8117L13.3833 19.2894L12.3983 18.3044L13.8757 16.8266L14.8607 17.8117ZM11.6592 15.103C11.7247 15.0377 11.8133 15.001 11.9058 15.001C11.9982 15.001 12.0869 15.0377 12.1523 15.103L13.3834 16.3342L11.9058 17.812L10.6744 16.5806C10.6095 16.5156 10.573 16.4276 10.5727 16.3358C10.5724 16.244 10.6083 16.1558 10.6728 16.0903L10.6744 16.0893L10.6771 16.0852L11.6592 15.103ZM10.9206 14.8568L10.4275 15.3499L7.72124 12.6436C7.49372 12.4139 7.31481 12.1406 7.1952 11.8402C7.07559 11.5398 7.01773 11.2184 7.02507 10.8952C7.26199 10.8624 7.49478 10.8046 7.71954 10.7228C7.68896 10.9817 7.7172 11.2442 7.80217 11.4907C7.88713 11.7372 8.02663 11.9613 8.21027 12.1464L10.9206 14.8568ZM8.75911 9.2602C8.62136 9.2602 8.48671 9.21935 8.37217 9.14282C8.25764 9.06629 8.16837 8.95752 8.11566 8.83026C8.06294 8.70299 8.04915 8.56296 8.07603 8.42786C8.1029 8.29275 8.16923 8.16865 8.26663 8.07125C8.36404 7.97385 8.48814 7.90752 8.62324 7.88064C8.75834 7.85377 8.89838 7.86756 9.02564 7.92028C9.1529 7.97299 9.26168 8.06226 9.33821 8.17679C9.41473 8.29133 9.45558 8.42598 9.45558 8.56373C9.4554 8.74839 9.38196 8.92543 9.25139 9.056C9.12081 9.18658 8.94377 9.26001 8.75911 9.2602ZM9.92395 7.80405C9.7888 7.59981 9.60233 7.4347 9.38323 7.32527C9.55563 6.93502 9.60431 6.50133 9.52272 6.08257C9.44113 5.66382 9.23318 5.28013 8.92687 4.98316C8.62057 4.68619 8.23063 4.49022 7.80955 4.42162C7.38847 4.35302 6.95649 4.4151 6.57177 4.59949L6.05758 4.08496C6.58925 3.76989 7.21074 3.64093 7.82388 3.71846C8.43702 3.796 9.00684 4.07561 9.44335 4.51312C9.86343 4.93901 10.1366 5.48788 10.223 6.07981C10.3095 6.67174 10.2047 7.27581 9.92395 7.80405ZM12.1503 8.20665C11.9655 8.02304 11.7417 7.88351 11.4955 7.79846C11.2492 7.71342 10.987 7.68506 10.7283 7.7155C10.8096 7.49078 10.8671 7.25812 10.8997 7.02137C11.2229 7.01405 11.5442 7.07193 11.8445 7.19156C12.1448 7.31118 12.4179 7.4901 12.6475 7.71762L15.354 10.4238L14.8609 10.9169L12.1503 8.20665ZM15.1069 12.1481C15.0746 12.1158 15.0489 12.0774 15.0314 12.0351C15.0139 11.9929 15.0049 11.9476 15.0049 11.9019C15.0049 11.8562 15.0139 11.8109 15.0314 11.7686C15.0489 11.7264 15.0746 11.688 15.1069 11.6557L16.0901 10.6725L16.0931 10.6705L16.0938 10.6695C16.1592 10.605 16.2475 10.5689 16.3393 10.5692C16.4312 10.5694 16.5192 10.606 16.5842 10.6709L17.8156 11.9022L16.3382 13.3794L15.1069 12.1481ZM16.8306 13.8718L18.3081 12.3946L19.2929 13.3794L17.8155 14.8567L16.8306 13.8718ZM18.3079 15.3491L19.7854 13.8718L20.7705 14.8568L19.2932 16.3344L18.3079 15.3491ZM22.0016 17.5655C21.8054 17.7608 21.5398 17.8705 21.2629 17.8705C20.9861 17.8705 20.7205 17.7608 20.5243 17.5655L19.7856 16.8268L21.2629 15.3492L22.0016 16.0878C22.1972 16.2839 22.3071 16.5496 22.3071 16.8267C22.3071 17.1037 22.1972 17.3694 22.0016 17.5655L22.0016 17.5655Z" fill="url(#paint0_linear_0_2163)"/>

</svg>
