<svg width="25" height="25" viewBox="0 0 25 25" fill="none" xmlns="http://www.w3.org/2000/svg">
    <defs>
        <linearGradient id="paint0_linear_0_2159" x1="3" y1="3" x2="25.9522" y2="17.2304"
            gradientUnits="userSpaceOnUse">
            <stop stop-color="#AD37E0" />
            <stop offset="1" stop-color="#EE2B3B" />
        </linearGradient>
    </defs>
    <path
        d="M20.5 17.5495V15.8125C20.4995 15.3982 20.3347 15.0011 20.0418 14.7082C19.7489 14.4153 19.3518 14.2505 18.9375 14.25H17.6875C17.3036 14.2513 16.9339 14.3949 16.6498 14.6532C16.5408 14.3526 16.342 14.0928 16.0805 13.909C15.8189 13.7251 15.5072 13.6259 15.1875 13.625H13.9375C13.694 13.6257 13.4541 13.6834 13.237 13.7936C13.0199 13.9039 12.8317 14.0635 12.6875 14.2597C12.5433 14.0635 12.3551 13.9039 12.138 13.7936C11.9209 13.6834 11.681 13.6257 11.4375 13.625H10.1875C9.86778 13.6259 9.55607 13.7251 9.29453 13.909C9.03299 14.0928 8.83424 14.3526 8.72517 14.6532C8.44114 14.3949 8.07138 14.2513 7.6875 14.25H6.4375C6.02325 14.2505 5.6261 14.4153 5.33318 14.7082C5.04026 15.0011 4.87549 15.3982 4.875 15.8125V17.5495C4.32772 17.7408 3.85338 18.0974 3.5175 18.57C3.18163 19.0425 3.0008 19.6077 3 20.1875V21.4375C3.00049 21.8518 3.16526 22.2489 3.45818 22.5418C3.7511 22.8347 4.14825 22.9995 4.5625 23H20.8125C21.2268 22.9995 21.6239 22.8347 21.9168 22.5418C22.2097 22.2489 22.3745 21.8518 22.375 21.4375V20.1875C22.3742 19.6077 22.1934 19.0425 21.8575 18.57C21.5216 18.0974 21.0473 17.7408 20.5 17.5495ZM16.75 15.8125C16.7503 15.5639 16.8491 15.3256 17.0249 15.1499C17.2006 14.9741 17.4389 14.8753 17.6875 14.875H18.9375C19.1861 14.8753 19.4244 14.9741 19.6001 15.1499C19.7759 15.3256 19.8747 15.5639 19.875 15.8125L19.8764 16.75H19.25V16.4375C19.25 16.3965 19.242 16.3558 19.2263 16.3179C19.2106 16.28 19.1875 16.2455 19.1585 16.2165C19.1295 16.1875 19.095 16.1644 19.0571 16.1487C19.0192 16.133 18.9785 16.125 18.9375 16.125H17.6875C17.6465 16.125 17.6058 16.133 17.5679 16.1487C17.53 16.1644 17.4955 16.1875 17.4665 16.2165C17.4375 16.2455 17.4144 16.28 17.3987 16.3179C17.383 16.3558 17.375 16.3965 17.375 16.4375V16.75H16.75V15.8125ZM18.625 16.75V17.375H18V16.75H18.625ZM16.75 17.375H17.375V17.6875C17.375 17.7285 17.383 17.7692 17.3987 17.8071C17.4144 17.845 17.4375 17.8795 17.4665 17.9085C17.4955 17.9375 17.53 17.9606 17.5679 17.9763C17.6058 17.992 17.6465 18 17.6875 18H18.9375C18.9785 18 19.0192 17.992 19.0571 17.9763C19.095 17.9606 19.1295 17.9375 19.1585 17.9085C19.1875 17.8795 19.2106 17.845 19.2263 17.8071C19.242 17.7692 19.25 17.7285 19.25 17.6875V17.375H19.8773L19.8777 17.6945C19.8728 17.7148 19.8699 17.7356 19.8692 17.7565C19.8527 18.1582 19.6815 18.5381 19.3913 18.8164C19.1012 19.0948 18.7146 19.2502 18.3125 19.25C17.8982 19.2495 17.5011 19.0847 17.2082 18.7918C16.9153 18.4989 16.7505 18.1018 16.75 17.6875V17.375ZM13 15.1875C13.0003 14.9389 13.0991 14.7006 13.2749 14.5249C13.4506 14.3491 13.6889 14.2503 13.9375 14.25H15.1875C15.4361 14.2503 15.6744 14.3491 15.8501 14.5249C16.0259 14.7006 16.1247 14.9389 16.125 15.1875V16.75H15.5V16.4375C15.5 16.3965 15.492 16.3558 15.4763 16.3179C15.4606 16.28 15.4375 16.2455 15.4085 16.2165C15.3795 16.1875 15.345 16.1644 15.3071 16.1487C15.2692 16.133 15.2285 16.125 15.1875 16.125H13.9375C13.8965 16.125 13.8558 16.133 13.8179 16.1487C13.78 16.1644 13.7455 16.1875 13.7165 16.2165C13.6875 16.2455 13.6644 16.28 13.6487 16.3179C13.633 16.3558 13.625 16.3965 13.625 16.4375V16.75H13V15.1875ZM14.875 16.75V17.375H14.25V16.75H14.875ZM13 17.375H13.625V17.6875C13.625 17.7285 13.633 17.7692 13.6487 17.8071C13.6644 17.845 13.6875 17.8795 13.7165 17.9085C13.7455 17.9375 13.78 17.9606 13.8179 17.9763C13.8558 17.992 13.8965 18 13.9375 18H15.1875C15.2285 18 15.2692 17.992 15.3071 17.9763C15.345 17.9606 15.3795 17.9375 15.4085 17.9085C15.4375 17.8795 15.4606 17.845 15.4763 17.8071C15.492 17.7692 15.5 17.7285 15.5 17.6875V17.375H16.125V17.6875C16.125 18.1019 15.9604 18.4993 15.6674 18.7924C15.3743 19.0854 14.9769 19.25 14.5625 19.25C14.1481 19.25 13.7507 19.0854 13.4576 18.7924C13.1646 18.4993 13 18.1019 13 17.6875V17.375ZM9.25 15.1875C9.25027 14.9389 9.34913 14.7006 9.52489 14.5249C9.70064 14.3491 9.93894 14.2503 10.1875 14.25H11.4375C11.6861 14.2503 11.9244 14.3491 12.1001 14.5249C12.2759 14.7006 12.3747 14.9389 12.375 15.1875V16.75H11.75V16.4375C11.75 16.3965 11.742 16.3558 11.7263 16.3179C11.7106 16.28 11.6875 16.2455 11.6585 16.2165C11.6295 16.1875 11.595 16.1644 11.5571 16.1487C11.5192 16.133 11.4785 16.125 11.4375 16.125H10.1875C10.1465 16.125 10.1058 16.133 10.0679 16.1487C10.03 16.1644 9.9955 16.1875 9.96648 16.2165C9.93745 16.2455 9.91444 16.28 9.89874 16.3179C9.88304 16.3558 9.87498 16.3965 9.875 16.4375V16.75H9.25V15.1875ZM11.125 16.75V17.375H10.5V16.75H11.125ZM9.25 17.375H9.875V17.6875C9.87498 17.7285 9.88304 17.7692 9.89874 17.8071C9.91444 17.845 9.93745 17.8795 9.96648 17.9085C9.9955 17.9375 10.03 17.9606 10.0679 17.9763C10.1058 17.992 10.1465 18 10.1875 18H11.4375C11.4785 18 11.5192 17.992 11.5571 17.9763C11.595 17.9606 11.6295 17.9375 11.6585 17.9085C11.6875 17.8795 11.7106 17.845 11.7263 17.8071C11.742 17.7692 11.75 17.7285 11.75 17.6875V17.375H12.375V17.6875C12.375 18.1019 12.2104 18.4993 11.9174 18.7924C11.6243 19.0854 11.2269 19.25 10.8125 19.25C10.3981 19.25 10.0007 19.0854 9.70765 18.7924C9.41462 18.4993 9.25 18.1019 9.25 17.6875V17.375ZM5.5 15.8125C5.50027 15.5639 5.59913 15.3256 5.77489 15.1499C5.95064 14.9741 6.18894 14.8753 6.4375 14.875H7.6875C7.93606 14.8753 8.17436 14.9741 8.35011 15.1499C8.52587 15.3256 8.62473 15.5639 8.625 15.8125V16.75H8V16.4375C8.00002 16.3965 7.99196 16.3558 7.97626 16.3179C7.96056 16.28 7.93755 16.2455 7.90852 16.2165C7.8795 16.1875 7.84504 16.1644 7.80712 16.1487C7.76919 16.133 7.72854 16.125 7.6875 16.125H6.4375C6.39646 16.125 6.35581 16.133 6.31788 16.1487C6.27996 16.1644 6.2455 16.1875 6.21648 16.2165C6.18745 16.2455 6.16444 16.28 6.14874 16.3179C6.13304 16.3558 6.12498 16.3965 6.125 16.4375V16.75H5.5V15.8125ZM7.375 16.75V17.375H6.75V16.75H7.375ZM5.5 17.375H6.125V17.6875C6.12498 17.7285 6.13304 17.7692 6.14874 17.8071C6.16444 17.845 6.18745 17.8795 6.21648 17.9085C6.2455 17.9375 6.27996 17.9606 6.31788 17.9763C6.35581 17.992 6.39646 18 6.4375 18H7.6875C7.72854 18 7.76919 17.992 7.80712 17.9763C7.84504 17.9606 7.8795 17.9375 7.90852 17.9085C7.93755 17.8795 7.96056 17.845 7.97626 17.8071C7.99196 17.7692 8.00002 17.7285 8 17.6875V17.375H8.625V17.6875C8.62554 18.0957 8.46613 18.4878 8.18095 18.7798C7.89577 19.0718 7.50752 19.2404 7.09947 19.2495C6.69141 19.2586 6.29603 19.1075 5.99812 18.8285C5.7002 18.5495 5.52346 18.1649 5.5058 17.7571C5.50602 17.7338 5.50408 17.7105 5.5 17.6875V17.375ZM21.75 21.4375C21.7497 21.6861 21.6509 21.9244 21.4751 22.1001C21.2994 22.2759 21.0611 22.3747 20.8125 22.375H4.5625C4.31394 22.3747 4.07564 22.2759 3.89989 22.1001C3.72413 21.9244 3.62527 21.6861 3.625 21.4375V20.1875C3.62494 19.7623 3.7492 19.3463 3.98251 18.9907C4.21582 18.6352 4.54798 18.3556 4.93813 18.1865C5.03261 18.6139 5.25422 19.0028 5.57381 19.3019C5.89341 19.6011 6.29604 19.7966 6.72879 19.8627C7.16154 19.9287 7.60416 19.8624 7.99848 19.6722C8.3928 19.4821 8.72036 19.1771 8.93813 18.7973C9.12906 19.1253 9.40271 19.3974 9.73173 19.5865C10.0607 19.7756 10.4336 19.8751 10.8131 19.875C11.1926 19.8749 11.5654 19.7752 11.8943 19.5859C12.2233 19.3966 12.4967 19.1243 12.6875 18.7963C12.8765 19.1267 13.1494 19.4013 13.4787 19.5923C13.8079 19.7834 14.1818 19.884 14.5625 19.8841C14.9431 19.8843 15.3171 19.7838 15.6464 19.593C15.9758 19.4021 16.2489 19.1276 16.4381 18.7973C16.6585 19.1733 16.9867 19.4744 17.3802 19.6618C17.7736 19.8492 18.2143 19.9143 18.6451 19.8485C19.0759 19.7828 19.4771 19.5893 19.7968 19.293C20.1165 18.9968 20.3399 18.6115 20.4382 18.1869C20.828 18.3563 21.1598 18.6358 21.3929 18.9913C21.626 19.3467 21.7501 19.7625 21.75 20.1875V21.4375ZM20.8125 3H4.5625C4.14825 3.00049 3.7511 3.16526 3.45818 3.45818C3.16526 3.7511 3.00049 4.14825 3 4.5625V5.8125C3.0008 6.39226 3.18163 6.95747 3.5175 7.43003C3.85338 7.90259 4.32772 8.25917 4.875 8.45052V10.1875C4.87549 10.6018 5.04026 10.9989 5.33318 11.2918C5.6261 11.5847 6.02325 11.7495 6.4375 11.75H7.6875C8.07138 11.7487 8.44114 11.6051 8.72517 11.3468C8.83424 11.6474 9.03299 11.9072 9.29453 12.091C9.55607 12.2749 9.86778 12.3741 10.1875 12.375H11.4375C11.681 12.3743 11.9209 12.3166 12.138 12.2064C12.3551 12.0961 12.5433 11.9365 12.6875 11.7403C12.8317 11.9365 13.0199 12.0961 13.237 12.2064C13.4541 12.3166 13.694 12.3743 13.9375 12.375H15.1875C15.5072 12.3741 15.8189 12.2749 16.0805 12.091C16.342 11.9072 16.5408 11.6474 16.6498 11.3468C16.9339 11.6051 17.3036 11.7487 17.6875 11.75H18.9375C19.3518 11.7495 19.7489 11.5847 20.0418 11.2918C20.3347 10.9989 20.4995 10.6018 20.5 10.1875V8.45052C21.0473 8.25917 21.5216 7.90259 21.8575 7.43003C22.1934 6.95747 22.3742 6.39226 22.375 5.8125V4.5625C22.3745 4.14825 22.2097 3.7511 21.9168 3.45818C21.6239 3.16526 21.2268 3.00049 20.8125 3V3ZM8.625 10.1875C8.62473 10.4361 8.52587 10.6744 8.35011 10.8501C8.17436 11.0259 7.93606 11.1247 7.6875 11.125H6.4375C6.18894 11.1247 5.95064 11.0259 5.77489 10.8501C5.59913 10.6744 5.50027 10.4361 5.5 10.1875V9.25H6.125V9.5625C6.12498 9.60354 6.13304 9.64419 6.14874 9.68212C6.16444 9.72004 6.18745 9.7545 6.21648 9.78352C6.2455 9.81255 6.27996 9.83556 6.31788 9.85126C6.35581 9.86696 6.39646 9.87502 6.4375 9.875H7.6875C7.72854 9.87502 7.76919 9.86696 7.80712 9.85126C7.84504 9.83556 7.8795 9.81255 7.90852 9.78352C7.93755 9.7545 7.96056 9.72004 7.97626 9.68212C7.99196 9.64419 8.00002 9.60354 8 9.5625V9.25H8.625V10.1875ZM6.75 9.25V8.625H7.375V9.25H6.75ZM8.625 8.625H8V8.3125C8.00002 8.27146 7.99196 8.23081 7.97626 8.19288C7.96056 8.15496 7.93755 8.1205 7.90852 8.09148C7.8795 8.06245 7.84504 8.03944 7.80712 8.02374C7.76919 8.00804 7.72854 7.99998 7.6875 8H6.4375C6.39646 7.99998 6.35581 8.00804 6.31788 8.02374C6.27996 8.03944 6.2455 8.06245 6.21648 8.09148C6.18745 8.1205 6.16444 8.15496 6.14874 8.19288C6.13304 8.23081 6.12498 8.27146 6.125 8.3125V8.625H5.5V8.3125C5.5 7.8981 5.66462 7.50067 5.95765 7.20765C6.25067 6.91462 6.6481 6.75 7.0625 6.75C7.4769 6.75 7.87433 6.91462 8.16735 7.20765C8.46038 7.50067 8.625 7.8981 8.625 8.3125V8.625ZM12.375 10.8125C12.3747 11.0611 12.2759 11.2994 12.1001 11.4751C11.9244 11.6509 11.6861 11.7497 11.4375 11.75H10.1875C9.93894 11.7497 9.70064 11.6509 9.52489 11.4751C9.34913 11.2994 9.25027 11.0611 9.25 10.8125V9.25H9.875V9.5625C9.87498 9.60354 9.88304 9.64419 9.89874 9.68212C9.91444 9.72004 9.93745 9.7545 9.96648 9.78352C9.9955 9.81255 10.03 9.83556 10.0679 9.85126C10.1058 9.86696 10.1465 9.87502 10.1875 9.875H11.4375C11.4785 9.87502 11.5192 9.86696 11.5571 9.85126C11.595 9.83556 11.6295 9.81255 11.6585 9.78352C11.6875 9.7545 11.7106 9.72004 11.7263 9.68212C11.742 9.64419 11.75 9.60354 11.75 9.5625V9.25H12.375V10.8125ZM10.5 9.25V8.625H11.125V9.25H10.5ZM12.375 8.625H11.75V8.3125C11.75 8.27146 11.742 8.23081 11.7263 8.19288C11.7106 8.15496 11.6875 8.1205 11.6585 8.09148C11.6295 8.06245 11.595 8.03944 11.5571 8.02374C11.5192 8.00804 11.4785 7.99998 11.4375 8H10.1875C10.1465 7.99998 10.1058 8.00804 10.0679 8.02374C10.03 8.03944 9.9955 8.06245 9.96648 8.09148C9.93745 8.1205 9.91444 8.15496 9.89874 8.19288C9.88304 8.23081 9.87498 8.27146 9.875 8.3125V8.625H9.25V8.3125C9.25 7.8981 9.41462 7.50067 9.70765 7.20765C10.0007 6.91462 10.3981 6.75 10.8125 6.75C11.2269 6.75 11.6243 6.91462 11.9174 7.20765C12.2104 7.50067 12.375 7.8981 12.375 8.3125V8.625ZM16.125 10.8125C16.1247 11.0611 16.0259 11.2994 15.8501 11.4751C15.6744 11.6509 15.4361 11.7497 15.1875 11.75H13.9375C13.6889 11.7497 13.4506 11.6509 13.2749 11.4751C13.0991 11.2994 13.0003 11.0611 13 10.8125V9.25H13.625V9.5625C13.625 9.60354 13.633 9.64419 13.6487 9.68212C13.6644 9.72004 13.6875 9.7545 13.7165 9.78352C13.7455 9.81255 13.78 9.83556 13.8179 9.85126C13.8558 9.86696 13.8965 9.87502 13.9375 9.875H15.1875C15.2285 9.87502 15.2692 9.86696 15.3071 9.85126C15.345 9.83556 15.3795 9.81255 15.4085 9.78352C15.4375 9.7545 15.4606 9.72004 15.4763 9.68212C15.492 9.64419 15.5 9.60354 15.5 9.5625V9.25H16.125V10.8125ZM14.25 9.25V8.625H14.875V9.25H14.25ZM16.125 8.625H15.5V8.3125C15.5 8.27146 15.492 8.23081 15.4763 8.19288C15.4606 8.15496 15.4375 8.1205 15.4085 8.09148C15.3795 8.06245 15.345 8.03944 15.3071 8.02374C15.2692 8.00804 15.2285 7.99998 15.1875 8H13.9375C13.8965 7.99998 13.8558 8.00804 13.8179 8.02374C13.78 8.03944 13.7455 8.06245 13.7165 8.09148C13.6875 8.1205 13.6644 8.15496 13.6487 8.19288C13.633 8.23081 13.625 8.27146 13.625 8.3125V8.625H13V8.3125C13 7.8981 13.1646 7.50067 13.4576 7.20765C13.7507 6.91462 14.1481 6.75 14.5625 6.75C14.9769 6.75 15.3743 6.91462 15.6674 7.20765C15.9604 7.50067 16.125 7.8981 16.125 8.3125V8.625ZM19.875 10.1875C19.8747 10.4361 19.7759 10.6744 19.6001 10.8501C19.4244 11.0259 19.1861 11.1247 18.9375 11.125H17.6875C17.4389 11.1247 17.2006 11.0259 17.0249 10.8501C16.8491 10.6744 16.7503 10.4361 16.75 10.1875V9.25H17.375V9.5625C17.375 9.60354 17.383 9.64419 17.3987 9.68212C17.4144 9.72004 17.4375 9.7545 17.4665 9.78352C17.4955 9.81255 17.53 9.83556 17.5679 9.85126C17.6058 9.86696 17.6465 9.87502 17.6875 9.875H18.9375C18.9785 9.87502 19.0192 9.86696 19.0571 9.85126C19.095 9.83556 19.1295 9.81255 19.1585 9.78352C19.1875 9.7545 19.2106 9.72004 19.2263 9.68212C19.242 9.64419 19.25 9.60354 19.25 9.5625V9.25H19.875V10.1875ZM18 9.25V8.625H18.625V9.25H18ZM19.875 8.625H19.25V8.3125C19.25 8.27146 19.242 8.23081 19.2263 8.19288C19.2106 8.15496 19.1875 8.1205 19.1585 8.09148C19.1295 8.06245 19.095 8.03944 19.0571 8.02374C19.0192 8.00804 18.9785 7.99998 18.9375 8H17.6875C17.6465 7.99998 17.6058 8.00804 17.5679 8.02374C17.53 8.03944 17.4955 8.06245 17.4665 8.09148C17.4375 8.1205 17.4144 8.15496 17.3987 8.19288C17.383 8.23081 17.375 8.27146 17.375 8.3125V8.625H16.75V8.3125C16.75 7.8981 16.9146 7.50067 17.2076 7.20765C17.5007 6.91462 17.8981 6.75 18.3125 6.75C18.7269 6.75 19.1243 6.91462 19.4174 7.20765C19.7104 7.50067 19.875 7.8981 19.875 8.3125V8.625ZM21.75 5.8125C21.75 6.23769 21.6258 6.65363 21.3926 7.00914C21.1593 7.36464 20.8272 7.64422 20.4372 7.81346C20.3395 7.38845 20.1163 7.00259 19.7967 6.70595C19.477 6.4093 19.0756 6.21555 18.6445 6.14983C18.2134 6.08411 17.7724 6.14945 17.3789 6.33738C16.9854 6.52531 16.6574 6.82715 16.4375 7.20375C16.2467 6.87558 15.9731 6.60323 15.6441 6.41393C15.3151 6.22462 14.9421 6.12499 14.5625 6.12499C14.1829 6.12499 13.8099 6.22462 13.4809 6.41393C13.1519 6.60323 12.8783 6.87558 12.6875 7.20375C12.4967 6.87558 12.2231 6.60323 11.8941 6.41393C11.5651 6.22462 11.1921 6.12499 10.8125 6.12499C10.4329 6.12499 10.0599 6.22462 9.73091 6.41393C9.40188 6.60323 9.12829 6.87558 8.9375 7.20375C8.71761 6.82715 8.38963 6.52531 7.9961 6.33738C7.60257 6.14945 7.16165 6.08411 6.73053 6.14983C6.29942 6.21555 5.89799 6.40929 5.57833 6.70594C5.25867 7.00258 5.03552 7.38843 4.93782 7.81345C4.54777 7.64421 4.21569 7.36463 3.98244 7.00913C3.7492 6.65362 3.62495 6.23769 3.625 5.8125V4.5625C3.62527 4.31394 3.72413 4.07564 3.89989 3.89989C4.07564 3.72413 4.31394 3.62527 4.5625 3.625H20.8125C21.0611 3.62527 21.2994 3.72413 21.4751 3.89989C21.6509 4.07564 21.7497 4.31394 21.75 4.5625V5.8125Z"
        fill="url(#paint0_linear_0_2159)" />

</svg>
