<svg width="25" height="25" viewBox="0 0 25 25" fill="none" xmlns="http://www.w3.org/2000/svg">
    <defs>
        <linearGradient id="paint0_linear_0_2157" x1="5" y1="3" x2="25.7227" y2="13.5515"
            gradientUnits="userSpaceOnUse">
            <stop stop-color="#AD37E0" />
            <stop offset="1" stop-color="#EE2B3B" />
        </linearGradient>
        <linearGradient id="paint1_linear_0_2157" x1="5" y1="3" x2="21" y2="23"
            gradientUnits="userSpaceOnUse">
            <stop stop-color="#B635C9" />
            <stop offset="1" stop-color="#E52D51" />
        </linearGradient>
    </defs>
    <path
        d="M20.6829 8.50091C20.9345 7.78043 20.9797 7.00396 20.8133 6.25918C20.6469 5.51439 20.2756 4.83095 19.7413 4.28604C19.2182 3.73053 18.5501 3.33244 17.8125 3.13677C17.075 2.94109 16.2974 2.95564 15.5677 3.17876L13.592 3.76061C13.1767 3.88327 12.7348 3.88327 12.3194 3.76061L10.3441 3.17878C9.61436 2.95568 8.83679 2.94115 8.09924 3.13682C7.36169 3.33249 6.69357 3.73057 6.17041 4.28606C5.63613 4.83097 5.26484 5.5144 5.09846 6.25919C4.93208 7.00397 4.97723 7.78043 5.22883 8.50091L6.58231 12.5034C6.74265 12.985 6.73814 13.5063 6.56949 13.985C6.16044 15.2276 6.00538 16.5397 6.11351 17.8434C6.22165 19.1471 6.59077 20.4157 7.19896 21.5739L7.62734 22.3846C7.72581 22.5768 7.87723 22.7367 8.0637 22.8456C8.25017 22.9545 8.46392 23.0078 8.67968 22.9991C8.89515 22.9939 9.10479 22.9281 9.28455 22.8092C9.46432 22.6903 9.60693 22.5232 9.69602 22.3269L11.8334 17.6635C11.9319 17.4486 12.09 17.2664 12.289 17.1387C12.488 17.011 12.7194 16.9431 12.9559 16.9431C13.1923 16.9431 13.4238 17.011 13.6228 17.1387C13.8218 17.2664 13.9799 17.4486 14.0784 17.6635L16.2157 22.3269C16.3048 22.5232 16.4474 22.6903 16.6272 22.8092C16.807 22.9281 17.0166 22.9939 17.2321 22.9991L17.2653 22.9997C17.4752 23.0004 17.6813 22.9434 17.861 22.8349C18.0407 22.7264 18.1872 22.5706 18.2844 22.3846L18.6856 21.6258C19.3022 20.4518 19.6766 19.1658 19.7864 17.8442C19.8962 16.5227 19.7392 15.1926 19.3249 13.9329C19.172 13.4684 19.1736 12.9669 19.3294 12.5034L20.6829 8.50091ZM18.7317 14.1297C19.1198 15.3094 19.2668 16.555 19.164 17.7927C19.0611 19.0303 18.7106 20.2346 18.1331 21.3341L17.7322 22.0929C17.6888 22.1825 17.6197 22.2571 17.5337 22.3072C17.4478 22.3574 17.3488 22.3808 17.2495 22.3745C17.1505 22.3729 17.0541 22.3431 16.9716 22.2885C16.8891 22.2339 16.824 22.1568 16.7839 22.0663L14.6465 17.403C14.4981 17.0793 14.2599 16.805 13.9602 16.6128C13.6605 16.4205 13.3119 16.3183 12.9559 16.3183C12.5998 16.3183 12.2512 16.4205 11.9515 16.6128C11.6518 16.805 11.4136 17.0793 11.2652 17.403L9.12788 22.0663C9.08777 22.1568 9.02261 22.2339 8.94011 22.2885C8.85761 22.3431 8.7612 22.3729 8.66228 22.3745C8.56317 22.3797 8.46473 22.3558 8.37903 22.3057C8.29333 22.2557 8.22411 22.1817 8.17987 22.0929L7.75149 21.2822C7.18027 20.1912 6.83499 18.9961 6.73628 17.7686C6.63757 16.541 6.78747 15.3062 7.17702 14.1379C7.37705 13.5426 7.37609 12.898 7.17428 12.3033L5.82079 8.30078C5.60703 7.68853 5.56865 7.02871 5.71001 6.39581C5.85137 5.76291 6.16682 5.18212 6.62077 4.719C7.0654 4.24697 7.6332 3.90871 8.25999 3.74242C8.88678 3.57614 9.54758 3.58847 10.1677 3.77803L12.1427 4.35988C12.3123 4.40784 12.486 4.44008 12.6615 4.45618C12.2709 4.86517 11.9988 5.37258 11.8742 5.92421C11.8564 6.00513 11.8714 6.08982 11.9159 6.15968C11.9605 6.22954 12.031 6.27884 12.1119 6.29675C12.1342 6.30157 12.1569 6.30402 12.1796 6.30408C12.2507 6.304 12.3197 6.27968 12.3751 6.23514C12.4305 6.1906 12.4691 6.12849 12.4844 6.05907C12.5697 5.68009 12.7417 5.32602 12.9868 5.02465C13.2319 4.72327 13.5435 4.48278 13.8972 4.32204L15.744 3.77802C16.3642 3.58856 17.0249 3.57628 17.6517 3.74255C18.2785 3.90883 18.8463 4.24704 19.291 4.719C19.7449 5.18211 20.0604 5.76289 20.2017 6.39579C20.3431 7.02869 20.3047 7.6885 20.091 8.30075L18.7375 12.3032C18.5385 12.8955 18.5365 13.5362 18.7317 14.1297Z"
        fill="url(#paint0_linear_0_2157)" stroke="url(#paint1_linear_0_2157)" stroke-width="0.2" />

</svg>
