<svg width="29" height="29" viewBox="0 0 29 29" fill="none" xmlns="http://www.w3.org/2000/svg">
<path d="M19.5435 15.6068C19.5217 15.5972 19.5012 15.5863 19.4794 15.5778C19.3127 15.5029 19.1483 15.4244 18.978 15.3567C20.1638 14.4254 21.0298 13.1474 21.4553 11.7009C21.8807 10.2543 21.8446 8.71102 21.3519 7.28593C20.8592 5.86085 19.9344 4.62485 18.7062 3.75001C17.4781 2.87517 16.0078 2.40503 14.4999 2.40503C12.992 2.40503 11.5217 2.87517 10.2936 3.75001C9.06542 4.62485 8.14062 5.86085 7.64789 7.28593C7.15516 8.71102 7.11903 10.2543 7.54453 11.7009C7.97002 13.1474 8.83596 14.4254 10.0218 15.3567C9.85264 15.4244 9.6871 15.5029 9.52035 15.5778L9.4551 15.6068C7.55887 16.4719 5.92021 17.8152 4.69998 19.5048C3.47976 21.1945 2.71993 23.1725 2.4951 25.2445C2.47796 25.4024 2.49209 25.5621 2.53668 25.7145C2.58127 25.867 2.65544 26.0091 2.75496 26.1329C2.85449 26.2566 2.97742 26.3596 3.11673 26.4358C3.25604 26.5121 3.409 26.5602 3.56689 26.5773C3.72478 26.5944 3.88449 26.5803 4.03692 26.5357C4.18935 26.4911 4.3315 26.417 4.45526 26.3174C4.57902 26.2179 4.68197 26.095 4.75822 25.9557C4.83448 25.8164 4.88254 25.6634 4.89968 25.5055C5.06386 23.9908 5.58619 22.537 6.42349 21.2641C7.26078 19.9912 8.38901 18.9359 9.71489 18.1854L13.6444 22.1137C13.871 22.3402 14.1783 22.4675 14.4987 22.4675C14.8191 22.4675 15.1264 22.3402 15.353 22.1137L19.2825 18.1854C20.6088 18.9357 21.7375 19.9908 22.5752 21.2637C23.413 22.5366 23.9357 23.9906 24.1001 25.5055C24.1322 25.8012 24.2723 26.0747 24.4934 26.2735C24.7146 26.4724 25.0013 26.5827 25.2988 26.5833C25.3432 26.5833 25.3875 26.5808 25.4317 26.5761C25.7502 26.5414 26.0419 26.3817 26.2427 26.132C26.4435 25.8823 26.5368 25.563 26.5023 25.2445C26.2774 23.1725 25.5176 21.1945 24.2974 19.5048C23.0772 17.8152 21.4385 16.4719 19.5423 15.6068H19.5435ZM9.7161 9.17609C9.82971 7.98606 10.3828 6.88109 11.2674 6.07696C12.1519 5.27282 13.3044 4.82725 14.4999 4.82725C15.6953 4.82725 16.8479 5.27282 17.7324 6.07696C18.617 6.88109 19.1701 7.98606 19.2837 9.17609H9.7161ZM14.4999 19.5508L12.1593 17.2103C13.6951 16.8184 15.3047 16.8184 16.8404 17.2103L14.4999 19.5508ZM14.4999 14.5C13.5592 14.4985 12.6393 14.2226 11.8529 13.7062C11.0666 13.1899 10.4479 12.4554 10.0726 11.5928H18.9272C18.5519 12.4554 17.9332 13.1899 17.1468 13.7062C16.3605 14.2226 15.4406 14.4985 14.4999 14.5Z" fill="white"/>
</svg>
