<svg width="24" height="24" viewBox="0 0 24 24" fill="none" xmlns="http://www.w3.org/2000/svg">
<path d="M11.75 1C5.825 1 1 5.825 1 11.75C1 17.68 5.825 22.5 11.75 22.5C17.675 22.5 22.5 17.68 22.5 11.75C22.5 5.825 17.675 1 11.75 1ZM11.75 21C6.65 21 2.5 16.85 2.5 11.75C2.5 6.65 6.65 2.5 11.75 2.5C16.85 2.5 21 6.65 21 11.75C21 16.85 16.85 21 11.75 21Z" fill="white"/>
<path d="M14.1001 11.46C14.0911 11.456 14.0825 11.4515 14.0735 11.448C14.0041 11.417 13.9356 11.3845 13.8647 11.3565C14.3584 10.9713 14.7189 10.4428 14.896 9.84453C15.0731 9.24626 15.0581 8.60801 14.853 8.01863C14.6479 7.42924 14.2629 6.91807 13.7516 6.55625C13.2403 6.19444 12.6282 6 12.0005 6C11.3728 6 10.7607 6.19444 10.2494 6.55625C9.73815 6.91807 9.35316 7.42924 9.14803 8.01863C8.94291 8.60801 8.92787 9.24626 9.105 9.84453C9.28214 10.4428 9.64263 10.9713 10.1363 11.3565C10.0659 11.3845 9.99695 11.417 9.92753 11.448L9.90037 11.46C9.11098 11.8177 8.4288 12.3733 7.92083 13.0721C7.41285 13.7709 7.09654 14.5889 7.00294 15.4459C6.99581 15.5112 7.00169 15.5772 7.02025 15.6403C7.03881 15.7033 7.06969 15.7621 7.11112 15.8133C7.15255 15.8645 7.20373 15.907 7.26172 15.9386C7.31972 15.9701 7.3834 15.99 7.44912 15.9971C7.51485 16.0042 7.58134 15.9983 7.6448 15.9799C7.70825 15.9614 7.76743 15.9308 7.81895 15.8896C7.87047 15.8484 7.91333 15.7976 7.94507 15.74C7.97682 15.6824 7.99683 15.6191 8.00396 15.5538C8.07231 14.9274 8.28975 14.3261 8.63832 13.7997C8.98688 13.2732 9.45656 12.8368 10.0085 12.5264L11.6444 14.151C11.7387 14.2447 11.8666 14.2974 12 14.2974C12.1334 14.2974 12.2613 14.2447 12.3556 14.151L13.9915 12.5264C14.5436 12.8367 15.0135 13.2731 15.3623 13.7995C15.711 14.3259 15.9286 14.9273 15.997 15.5538C16.0104 15.6761 16.0687 15.7892 16.1608 15.8714C16.2529 15.9537 16.3722 15.9993 16.496 15.9996C16.5145 15.9995 16.533 15.9985 16.5514 15.9966C16.684 15.9822 16.8054 15.9162 16.889 15.8129C16.9726 15.7096 17.0115 15.5776 16.9971 15.4459C16.9035 14.5889 16.5872 13.7709 16.0792 13.0721C15.5712 12.3733 14.889 11.8177 14.0996 11.46H14.1001ZM10.009 8.80035C10.0563 8.30818 10.2866 7.85119 10.6548 7.51862C11.023 7.18605 11.5028 7.00177 12.0005 7.00177C12.4982 7.00177 12.978 7.18605 13.3462 7.51862C13.7144 7.85119 13.9447 8.30818 13.992 8.80035H10.009ZM12.0005 13.0911L11.0261 12.1231C11.6655 11.961 12.3355 11.961 12.9749 12.1231L12.0005 13.0911ZM12.0005 11.0022C11.6089 11.0016 11.2259 10.8875 10.8986 10.6739C10.5712 10.4604 10.3137 10.1566 10.1574 9.79983H13.8436C13.6874 10.1566 13.4298 10.4604 13.1024 10.6739C12.7751 10.8875 12.3921 11.0016 12.0005 11.0022V11.0022Z" fill="white"/>
</svg>
