<svg width="26" height="24" viewBox="0 0 26 24" fill="none" xmlns="http://www.w3.org/2000/svg">
    <defs>
        <linearGradient id="paint0_linear_123_33" x1="0.233398" y1="0.266602" x2="28.6608" y2="19.8792" gradientUnits="userSpaceOnUse">
            <stop stop-color="#AD37E0"/>
            <stop offset="1" stop-color="#EE2B3B"/>
        </linearGradient>
    </defs>
    <path fill-rule="evenodd" clip-rule="evenodd" d="M25.2667 17.9999L16.4667 2.2666C15.8001 0.933268 14.4667 0.266602 13.0001 0.266602C11.5334 0.266602 10.2001 0.933268 9.5334 2.2666L0.733398 17.9999C0.0667318 19.1999 0.0667318 20.7999 0.733398 21.9999C1.40007 23.1999 2.7334 23.9999 4.20007 23.9999H21.8001C23.2667 23.9999 24.4667 23.1999 25.2667 21.9999C26.0667 20.7999 25.9334 19.3333 25.2667 17.9999ZM22.9246 20.757L22.9245 20.757C22.7682 20.9564 22.4726 21.3333 21.8001 21.3333H4.20007C3.5334 21.3333 3.1334 20.9333 3.00007 20.6666C2.9902 20.6469 2.97961 20.6264 2.96861 20.6052C2.83093 20.3393 2.62966 19.9506 3.00007 19.3333L11.8001 3.4666C12.2001 2.79993 12.7334 2.79993 13.0001 2.79993C13.2667 2.79993 13.8001 2.79993 14.2001 3.4666L23.0001 19.3333C23.208 19.8531 23.0916 20.2919 23.0303 20.5232C23.0277 20.5329 23.0253 20.5422 23.0229 20.5512C23.0038 20.6242 22.9711 20.6976 22.9246 20.757ZM13 7.99992C12.2 7.99992 11.6667 8.53325 11.6667 9.33325V13.3333C11.6667 14.1333 12.2 14.6666 13 14.6666C13.8 14.6666 14.3333 14.1333 14.3333 13.3333V9.33325C14.3333 8.53325 13.8 7.99992 13 7.99992ZM14.3333 17.3333C14.3333 18.0696 13.7364 18.6666 13 18.6666C12.2636 18.6666 11.6667 18.0696 11.6667 17.3333C11.6667 16.5969 12.2636 15.9999 13 15.9999C13.7364 15.9999 14.3333 16.5969 14.3333 17.3333Z" fill="url(#paint0_linear_123_33)"/>

</svg>
