<svg width="26" height="20" viewBox="0 0 26 20" fill="none" xmlns="http://www.w3.org/2000/svg">
    <defs>
        <linearGradient id="paint0_linear_123_12" x1="0.499999" y1="10.5042" x2="25.9771" y2="10.5042" gradientUnits="userSpaceOnUse">
            <stop stop-color="#AD37E0"/>
            <stop offset="1" stop-color="#EE2B3B"/>
        </linearGradient>
    </defs>
    <path d="M24.25 8.01269H21.125C20.9596 8.01338 20.796 8.04687 20.6437 8.11124C20.4913 8.17562 20.3533 8.26958 20.2375 8.38769L18.6875 10.0002L15.1875 6.01269C15.0706 5.8878 14.9293 5.78824 14.7723 5.72018C14.6154 5.65212 14.4461 5.617 14.275 5.617C14.1039 5.617 13.9347 5.65212 13.7777 5.72018C13.6208 5.78824 13.4794 5.8878 13.3625 6.01269L11.2375 8.13769H9.25001C8.91849 8.13769 8.60055 8.26939 8.36613 8.50381C8.13171 8.73823 8.00001 9.05617 8.00001 9.38769C8.00001 9.71921 8.13171 10.0372 8.36613 10.2716C8.60055 10.506 8.91849 10.6377 9.25001 10.6377H11.75C11.9145 10.6386 12.0776 10.6071 12.2299 10.5449C12.3822 10.4827 12.5207 10.391 12.6375 10.2752L14.25 8.60019L17.75 12.5877C17.8629 12.7164 18.0011 12.8205 18.1559 12.8936C18.3107 12.9667 18.4789 13.0073 18.65 13.0127C18.8145 13.0136 18.9776 12.9821 19.1299 12.9199C19.2822 12.8577 19.4207 12.766 19.5375 12.6502L21.6625 10.5127H24.25C24.5815 10.5127 24.8995 10.381 25.1339 10.1466C25.3683 9.91215 25.5 9.59421 25.5 9.26269C25.5 8.93117 25.3683 8.61323 25.1339 8.37881C24.8995 8.14438 24.5815 8.01269 24.25 8.01269ZM15.0125 14.6377L12.6375 17.0127C12.5213 17.1298 12.3831 17.2228 12.2307 17.2863C12.0784 17.3498 11.915 17.3824 11.75 17.3824C11.585 17.3824 11.4216 17.3498 11.2693 17.2863C11.117 17.2228 10.9787 17.1298 10.8625 17.0127L4.35001 10.5002C3.92141 10.0718 3.58141 9.56324 3.34944 9.00345C3.11747 8.44366 2.99807 7.84364 2.99807 7.23769C2.99807 6.63174 3.11747 6.03172 3.34944 5.47193C3.58141 4.91213 3.92141 4.40353 4.35001 3.97519C5.21459 3.1134 6.38554 2.62949 7.60626 2.62949C8.82699 2.62949 9.99794 3.1134 10.8625 3.97519C10.9787 4.09235 11.117 4.18534 11.2693 4.2488C11.4216 4.31226 11.585 4.34494 11.75 4.34494C11.915 4.34494 12.0784 4.31226 12.2307 4.2488C12.3831 4.18534 12.5213 4.09235 12.6375 3.97519C13.5158 3.13984 14.6816 2.674 15.8938 2.674C17.1059 2.674 18.2717 3.13984 19.15 3.97519C19.4285 4.25737 19.672 4.57214 19.875 4.91269C20.057 5.16295 20.3254 5.33681 20.6282 5.40062C20.931 5.46443 21.2467 5.41366 21.5142 5.25812C21.7817 5.10258 21.9821 4.85334 22.0764 4.55863C22.1708 4.26392 22.1525 3.94468 22.025 3.66269C21.7161 3.14962 21.3468 2.67541 20.925 2.25019C19.7388 1.05 18.1638 0.311568 16.4825 0.167259C14.8012 0.0229496 13.1234 0.482202 11.75 1.46269C10.6886 0.698056 9.43655 0.241534 8.13206 0.143502C6.82758 0.0454704 5.52137 0.309741 4.35759 0.90715C3.1938 1.50456 2.21769 2.41188 1.53698 3.52898C0.856262 4.64608 0.497407 5.92953 0.500014 7.23769C0.49964 8.1678 0.683972 9.08873 1.04232 9.94704C1.40066 10.8054 1.92589 11.584 2.58751 12.2377L9.10001 18.7502C9.80314 19.4524 10.7563 19.8469 11.75 19.8469C12.7438 19.8469 13.6969 19.4524 14.4 18.7502L16.75 16.4002C16.9828 16.166 17.1135 15.8492 17.1135 15.5189C17.1135 15.1887 16.9828 14.8719 16.75 14.6377C16.5169 14.4124 16.2054 14.2864 15.8813 14.2864C15.5571 14.2864 15.2456 14.4124 15.0125 14.6377Z" fill="url(#paint0_linear_123_12)"/>

</svg>
