<svg width="10" height="10" viewBox="0 0 10 10" fill="none" xmlns="http://www.w3.org/2000/svg">
<path d="M5 4.0625V5.3125" stroke="#FF0000" stroke-linecap="round" stroke-linejoin="round"/>
<path d="M4.45907 1.5619L1.02249 7.4991C0.967505 7.5941 0.938507 7.70191 0.938416 7.81168C0.938325 7.92145 0.967146 8.02931 1.02198 8.1244C1.07681 8.21949 1.15572 8.29847 1.25077 8.35338C1.34582 8.40829 1.45365 8.4372 1.56342 8.4372H8.43656C8.54633 8.4372 8.65416 8.40829 8.74921 8.35338C8.84426 8.29847 8.92317 8.2195 8.978 8.1244C9.03283 8.02931 9.06165 7.92145 9.06156 7.81168C9.06147 7.70191 9.03247 7.5941 8.97748 7.4991L5.54091 1.5619C5.48601 1.46705 5.40713 1.38831 5.31219 1.33356C5.21725 1.27882 5.10958 1.25 4.99999 1.25C4.8904 1.25 4.78273 1.27882 4.68779 1.33356C4.59285 1.38831 4.51397 1.46705 4.45907 1.5619V1.5619Z" stroke="#FF0000" stroke-linecap="round" stroke-linejoin="round"/>
<path d="M5 7.5C5.34518 7.5 5.625 7.22018 5.625 6.875C5.625 6.52982 5.34518 6.25 5 6.25C4.65482 6.25 4.375 6.52982 4.375 6.875C4.375 7.22018 4.65482 7.5 5 7.5Z" fill="#FF0000"/>
</svg>
