<svg width="38" height="38" viewBox="0 0 38 38" fill="none" xmlns="http://www.w3.org/2000/svg">
<g clip-path="url(#clip0_0_2220)">
<path d="M34.7566 15.7863H22.6516V3.24334C22.6516 1.44724 21.1969 -0.00744629 19.4008 -0.00744629C17.6047 -0.00744629 16.15 1.44724 16.15 3.24334V15.7863H3.23594C1.45469 15.7863 0 17.241 0 19.0371C0 20.8332 1.45469 22.2879 3.25078 22.2879H16.1648V34.7566C16.1648 36.5527 17.6195 38.0074 19.4156 38.0074C21.2117 38.0074 22.6664 36.5527 22.6664 34.7566V22.2879H34.7715C36.5676 22.2879 38.0223 20.8332 38.0223 19.0371C38 17.241 36.5527 15.7863 34.7566 15.7863Z" fill="white"/>
</g>
<defs>
<clipPath id="clip0_0_2220">
<rect width="38" height="38" fill="white"/>
</clipPath>
</defs>
</svg>
