<svg width="30" height="30" viewBox="0 0 30 30" fill="none" xmlns="http://www.w3.org/2000/svg">
<path d="M15 1.875C12.4041 1.875 9.86654 2.64477 7.70815 4.08696C5.54975 5.52915 3.86749 7.579 2.87409 9.97728C1.88069 12.3756 1.62077 15.0146 2.1272 17.5606C2.63363 20.1066 3.88366 22.4452 5.71923 24.2808C7.55479 26.1163 9.89345 27.3664 12.4394 27.8728C14.9854 28.3792 17.6244 28.1193 20.0227 27.1259C22.421 26.1325 24.4709 24.4503 25.913 22.2919C27.3552 20.1335 28.125 17.5959 28.125 15C28.125 11.519 26.7422 8.18064 24.2808 5.71922C21.8194 3.25781 18.481 1.875 15 1.875V1.875ZM9.37501 24.7406C9.51429 23.353 10.1641 22.0666 11.1983 21.131C12.2324 20.1955 13.5773 19.6774 14.9719 19.6774C16.3665 19.6774 17.7113 20.1955 18.7455 21.131C19.7797 22.0666 20.4295 23.353 20.5688 24.7406C18.8693 25.7296 16.9381 26.2505 14.9719 26.2505C13.0056 26.2505 11.0745 25.7296 9.37501 24.7406V24.7406ZM22.2563 23.5594C21.8567 21.9291 20.9217 20.48 19.6011 19.444C18.2804 18.4079 16.6504 17.8448 14.9719 17.8448C13.2933 17.8448 11.6633 18.4079 10.3427 19.444C9.02203 20.48 8.0871 21.9291 7.68751 23.5594C5.93262 22.0683 4.67758 20.0746 4.09186 17.8476C3.50615 15.6205 3.61798 13.2673 4.41226 11.1058C5.20653 8.94434 6.64498 7.07866 8.53336 5.76074C10.4217 4.44282 12.6691 3.73614 14.9719 3.73614C17.2747 3.73614 19.522 4.44282 21.4104 5.76074C23.2988 7.07866 24.7372 8.94434 25.5315 11.1058C26.3258 13.2673 26.4376 15.6205 25.8519 17.8476C25.2662 20.0746 24.0111 22.0683 22.2563 23.5594V23.5594ZM15 7.5C14.0729 7.5 13.1666 7.77492 12.3958 8.28999C11.6249 8.80506 11.0241 9.53714 10.6693 10.3937C10.3145 11.2502 10.2217 12.1927 10.4026 13.102C10.5834 14.0113 11.0299 14.8465 11.6854 15.5021C12.341 16.1576 13.1762 16.6041 14.0855 16.7849C14.9948 16.9658 15.9373 16.873 16.7938 16.5182C17.6504 16.1634 18.3825 15.5626 18.8975 14.7917C19.4126 14.0209 19.6875 13.1146 19.6875 12.1875C19.6875 10.9443 19.1936 9.75201 18.3146 8.87294C17.4355 7.99386 16.2432 7.5 15 7.5ZM15 15C14.4437 15 13.9 14.835 13.4375 14.526C12.975 14.217 12.6145 13.7777 12.4016 13.2638C12.1887 12.7499 12.133 12.1844 12.2415 11.6388C12.3501 11.0932 12.6179 10.5921 13.0113 10.1988C13.4046 9.80543 13.9057 9.53756 14.4513 9.42904C14.9969 9.32052 15.5624 9.37622 16.0763 9.58909C16.5902 9.80196 17.0295 10.1624 17.3385 10.625C17.6476 11.0875 17.8125 11.6312 17.8125 12.1875C17.8125 12.9334 17.5162 13.6488 16.9887 14.1762C16.4613 14.7037 15.7459 15 15 15Z" fill="white" stroke="white" stroke-width="0.5"/>
</svg>
