<svg width="29" height="29" viewBox="0 0 29 29" fill="none" xmlns="http://www.w3.org/2000/svg">
<path d="M21.75 4.83335H20.5417V3.62502C20.5417 3.30455 20.4144 2.99721 20.1878 2.7706C19.9611 2.54399 19.6538 2.41669 19.3333 2.41669C19.0129 2.41669 18.7055 2.54399 18.4789 2.7706C18.2523 2.99721 18.125 3.30455 18.125 3.62502V4.83335H10.875V3.62502C10.875 3.30455 10.7477 2.99721 10.5211 2.7706C10.2945 2.54399 9.98714 2.41669 9.66667 2.41669C9.3462 2.41669 9.03885 2.54399 8.81225 2.7706C8.58564 2.99721 8.45833 3.30455 8.45833 3.62502V4.83335H7.25C6.28859 4.83335 5.36656 5.21527 4.68674 5.89509C4.00692 6.57491 3.625 7.49694 3.625 8.45835V22.9584C3.625 23.9198 4.00692 24.8418 4.68674 25.5216C5.36656 26.2014 6.28859 26.5834 7.25 26.5834H21.75C22.7114 26.5834 23.6334 26.2014 24.3133 25.5216C24.9931 24.8418 25.375 23.9198 25.375 22.9584V8.45835C25.375 7.49694 24.9931 6.57491 24.3133 5.89509C23.6334 5.21527 22.7114 4.83335 21.75 4.83335V4.83335ZM7.25 7.25002H8.45833V8.45835C8.45833 8.77882 8.58564 9.08617 8.81225 9.31277C9.03885 9.53938 9.3462 9.66669 9.66667 9.66669C9.98714 9.66669 10.2945 9.53938 10.5211 9.31277C10.7477 9.08617 10.875 8.77882 10.875 8.45835V7.25002H18.125V8.45835C18.125 8.77882 18.2523 9.08617 18.4789 9.31277C18.7055 9.53938 19.0129 9.66669 19.3333 9.66669C19.6538 9.66669 19.9611 9.53938 20.1878 9.31277C20.4144 9.08617 20.5417 8.77882 20.5417 8.45835V7.25002H21.75C22.0705 7.25002 22.3778 7.37733 22.6044 7.60393C22.831 7.83054 22.9583 8.13788 22.9583 8.45835V13.2917H6.04167V8.45835C6.04167 8.13788 6.16897 7.83054 6.39558 7.60393C6.62219 7.37733 6.92953 7.25002 7.25 7.25002V7.25002ZM21.75 24.1667H7.25C6.92953 24.1667 6.62219 24.0394 6.39558 23.8128C6.16897 23.5862 6.04167 23.2788 6.04167 22.9584V15.7084H22.9583V22.9584C22.9583 23.2788 22.831 23.5862 22.6044 23.8128C22.3778 24.0394 22.0705 24.1667 21.75 24.1667Z" fill="white"/>
<path d="M9.66671 20.5417C10.3341 20.5417 10.875 20.0007 10.875 19.3333C10.875 18.666 10.3341 18.125 9.66671 18.125C8.99936 18.125 8.45837 18.666 8.45837 19.3333C8.45837 20.0007 8.99936 20.5417 9.66671 20.5417Z" fill="white"/>
<path d="M19.3333 18.125H14.5C14.1795 18.125 13.8721 18.2523 13.6455 18.4789C13.4189 18.7055 13.2916 19.0129 13.2916 19.3333C13.2916 19.6538 13.4189 19.9611 13.6455 20.1878C13.8721 20.4144 14.1795 20.5417 14.5 20.5417H19.3333C19.6538 20.5417 19.9611 20.4144 20.1877 20.1878C20.4143 19.9611 20.5416 19.6538 20.5416 19.3333C20.5416 19.0129 20.4143 18.7055 20.1877 18.4789C19.9611 18.2523 19.6538 18.125 19.3333 18.125Z" fill="white"/>
</svg>
