<svg width="25" height="25" viewBox="0 0 25 25" fill="none" xmlns="http://www.w3.org/2000/svg">
<path d="M20.6835 8.50104C20.935 7.78054 20.9801 7.0041 20.8137 6.25933C20.6473 5.51457 20.2761 4.83113 19.7419 4.28613C19.2185 3.73075 18.5502 3.33277 17.8125 3.13711C17.0749 2.94145 16.2972 2.9559 15.5673 3.17883L13.5926 3.76069C13.1771 3.88335 12.7351 3.88335 12.3196 3.76069L10.3449 3.17885C9.61501 2.95565 8.83726 2.94107 8.09954 3.13674C7.36182 3.33242 6.69354 3.73055 6.17024 4.28615C5.63608 4.83114 5.26487 5.51458 5.09849 6.25934C4.93212 7.0041 4.97719 7.78054 5.22864 8.50104L6.58214 12.5039C6.74285 12.9853 6.73855 13.5065 6.56994 13.9852C6.16064 15.2278 6.00542 16.5399 6.11351 17.8436C6.22159 19.1473 6.59078 20.416 7.1991 21.5742L7.62749 22.3849C7.7113 22.543 7.83121 22.6791 7.97748 22.7822C8.12376 22.8852 8.29227 22.9524 8.46935 22.9781C8.48581 22.9828 8.50264 22.986 8.51966 22.9878L8.54041 22.9872L8.54544 22.9858C8.58981 22.9932 8.6346 22.9977 8.67954 22.9994C8.89498 22.9942 9.1046 22.9284 9.28433 22.8095C9.46406 22.6906 9.60661 22.5235 9.6956 22.3272L11.8333 17.6638C11.9318 17.4488 12.09 17.2666 12.2891 17.139C12.4881 17.0113 12.7196 16.9434 12.9561 16.9434C13.1926 16.9434 13.4241 17.0113 13.6231 17.139C13.8222 17.2666 13.9804 17.4488 14.0789 17.6638L16.2166 22.3272C16.2949 22.4962 16.4136 22.6435 16.5621 22.7559C16.7107 22.8683 16.8846 22.9424 17.0686 22.9718C17.0794 22.9754 17.0903 22.9784 17.1014 22.9808C17.1054 22.981 17.1088 22.9791 17.1127 22.9792C17.1523 22.9881 17.1923 22.9948 17.2327 22.9994L17.2656 23C17.4755 23.0006 17.6816 22.9436 17.8613 22.8351C18.041 22.7267 18.1875 22.5709 18.2847 22.3849L18.6856 21.626C19.3024 20.4521 19.6768 19.1661 19.7866 17.8445C19.8965 16.523 19.7396 15.1928 19.3252 13.9331C19.1724 13.4686 19.1741 12.9671 19.3301 12.5036L20.6835 8.50104ZM16.8373 22.1504C16.817 22.1242 16.7992 22.0961 16.7841 22.0666L14.6464 17.4032C14.4981 17.0795 14.26 16.8053 13.9603 16.613C13.6607 16.4207 13.3121 16.3185 12.9561 16.3185C12.6 16.3185 12.2515 16.4207 11.9519 16.613C11.6522 16.8053 11.4141 17.0795 11.2657 17.4032L9.12805 22.0666C9.09835 22.1332 9.05493 22.1928 9.00063 22.2414C8.94632 22.2901 8.88235 22.3267 8.8129 22.349C8.79531 22.0267 8.78117 21.6357 8.7857 21.1876C8.81311 20.0124 8.9179 18.8404 9.09939 17.679C9.34504 15.6402 9.77831 13.6285 10.3937 11.6694C11.196 11.313 12.0638 11.1279 12.9417 11.1259C13.8196 11.1239 14.6883 11.305 15.4922 11.6578C15.6375 12.4047 16.2587 15.631 16.5418 17.679C16.7871 19.1561 16.886 20.6539 16.8373 22.1504ZM10.2186 8.7906C10.2884 8.68735 10.3782 8.59914 10.4827 8.53117C10.5872 8.4632 10.7043 8.41685 10.827 8.39486L12.0053 8.18065C12.6338 8.06613 13.2777 8.06603 13.9062 8.18034L15.0852 8.39484C15.2078 8.41701 15.3247 8.4634 15.4291 8.53128C15.5335 8.59917 15.6234 8.68719 15.6934 8.7902C15.7634 8.89322 15.8121 9.00916 15.8368 9.13124C15.8615 9.25332 15.8615 9.37909 15.837 9.5012L15.5352 11.0107C14.6707 10.6622 13.7453 10.4893 12.8133 10.5023C11.977 10.5219 11.1513 10.6933 10.3764 11.0083L10.0751 9.5012C10.0503 9.37919 10.0502 9.25342 10.0748 9.13136C10.0994 9.0093 10.1483 8.89342 10.2186 8.7906ZM18.732 14.1299C19.1201 15.3096 19.2671 16.5553 19.1641 17.793C19.0612 19.0306 18.7104 20.235 18.1327 21.3343L17.7318 22.0932C17.6705 22.2029 17.5716 22.2868 17.4534 22.3295C17.5198 20.745 17.4217 19.1578 17.1606 17.5936C16.8596 15.4173 16.1831 11.9335 16.0865 11.4406L16.4497 9.62387C16.4537 9.60393 16.4525 9.58398 16.4557 9.56399L17.78 10.0068C17.8118 10.0175 17.8452 10.023 17.8788 10.023C17.9415 10.0229 18.0028 10.004 18.0546 9.96871C18.1064 9.93339 18.1464 9.8833 18.1693 9.82495L18.4995 8.98618C18.5146 8.948 18.5221 8.90722 18.5214 8.86615C18.5208 8.82509 18.5121 8.78455 18.4958 8.74687C18.4794 8.70918 18.4558 8.67509 18.4263 8.64654C18.3968 8.61799 18.3619 8.59554 18.3237 8.58049C18.2855 8.56544 18.2447 8.55808 18.2036 8.55882C18.1626 8.55957 18.1221 8.56841 18.0844 8.58483C18.0468 8.60126 18.0127 8.62495 17.9843 8.65456C17.9558 8.68416 17.9335 8.71908 17.9185 8.75734L17.697 9.32028L16.4548 8.90509L16.9519 7.48896L17.7428 7.19207C17.82 7.16271 17.8826 7.10392 17.9166 7.02857C17.9506 6.95323 17.9534 6.86746 17.9244 6.79006C17.8953 6.71266 17.8368 6.64992 17.7616 6.61559C17.6863 6.58125 17.6006 6.57811 17.5231 6.60686L16.5955 6.955C16.5527 6.97109 16.514 6.99637 16.4821 7.02905C16.4501 7.06174 16.4257 7.10103 16.4106 7.14417L16.1011 8.02635L15.7199 6.9608L16.0476 5.88739C16.0711 5.80828 16.0624 5.72307 16.0234 5.65035C15.9843 5.57762 15.9181 5.52329 15.8392 5.4992C15.7602 5.47511 15.675 5.48322 15.602 5.52176C15.529 5.5603 15.4742 5.62615 15.4496 5.70493L15.0919 6.8775C15.0725 6.94183 15.0742 7.01071 15.0968 7.07399L15.3668 7.82863C15.3113 7.80937 15.2548 7.79325 15.1975 7.78034L14.0179 7.56554C13.3156 7.4378 12.596 7.4379 11.8937 7.56585L10.7147 7.78034C10.4243 7.83055 10.1546 7.96351 9.93791 8.16324C9.72123 8.36298 9.56679 8.621 9.49315 8.90635L8.91387 8.19377L8.86688 7.07217C8.86733 7.03046 8.85899 6.98911 8.84241 6.95083C8.82582 6.91255 8.80137 6.87819 8.77063 6.84999C8.73989 6.82178 8.70356 6.80036 8.664 6.78712C8.62444 6.77389 8.58253 6.76912 8.54101 6.77315C8.45825 6.77668 8.38026 6.81292 8.3242 6.8739C8.26813 6.93489 8.23856 7.01564 8.24199 7.09841L8.29386 8.32346C8.29678 8.39076 8.3214 8.4553 8.36403 8.50745L9.36719 9.74165L8.39699 10.2079L8.21634 9.53722C8.20572 9.49763 8.18741 9.46053 8.16245 9.42801C8.13749 9.3955 8.10637 9.36823 8.07087 9.34774C8.03537 9.32726 7.99618 9.31397 7.95555 9.30863C7.91491 9.30329 7.87362 9.306 7.83403 9.31662C7.79444 9.32724 7.75733 9.34555 7.72482 9.37051C7.69231 9.39547 7.66503 9.42659 7.64455 9.46209C7.62406 9.49759 7.61077 9.53678 7.60543 9.57742C7.60009 9.61806 7.60281 9.65935 7.61343 9.69894L7.89111 10.7333C7.90297 10.7777 7.92447 10.8189 7.95408 10.854C7.98369 10.8891 8.02067 10.9172 8.06239 10.9364C8.10412 10.9555 8.14956 10.9653 8.19547 10.9649C8.24139 10.9645 8.28665 10.954 8.32804 10.9341L9.60206 10.3222L9.82149 11.4194C9.18141 13.4308 8.73246 15.498 8.4806 17.5936C8.2955 18.7812 8.18868 19.9798 8.16083 21.1815C8.15755 21.5156 8.16442 21.8156 8.1751 22.0832L7.75198 21.2825C7.18067 20.1915 6.8353 18.9965 6.73653 17.769C6.63776 16.5415 6.78763 15.3067 7.17716 14.1384C7.37725 13.5429 7.37618 12.8982 7.17411 12.3034L5.82057 8.30088C5.60681 7.68862 5.56845 7.0288 5.70981 6.3959C5.85118 5.763 6.16664 5.18221 6.6206 4.71909C7.06541 4.2472 7.63326 3.90904 8.26007 3.74276C8.88688 3.57649 9.54769 3.58873 10.1679 3.7781L12.1426 4.35996C12.3122 4.40795 12.4859 4.44024 12.6614 4.45642C12.2708 4.86535 11.9987 5.37272 11.8741 5.92431C11.8562 6.00519 11.8712 6.08988 11.9157 6.15974C11.9602 6.2296 12.0306 6.27893 12.1115 6.29686C12.1338 6.30164 12.1565 6.3041 12.1793 6.30418C12.2504 6.30411 12.3194 6.27981 12.3748 6.23527C12.4303 6.19073 12.4689 6.12861 12.4844 6.05917C12.5699 5.68023 12.7419 5.32623 12.9871 5.0249C13.2322 4.72356 13.5438 4.48308 13.8974 4.32228L15.7443 3.7781C16.3645 3.58878 17.0253 3.57656 17.6521 3.74283C18.2789 3.9091 18.8467 4.24724 19.2916 4.71909C19.7455 5.18221 20.061 5.763 20.2023 6.3959C20.3437 7.0288 20.3054 7.68862 20.0916 8.30088L18.7381 12.3031C18.539 12.8954 18.5369 13.5362 18.732 14.1299H18.732Z" fill="url(#paint0_linear_7_2160)"/>
<defs>
<linearGradient id="paint0_linear_7_2160" x1="5" y1="3" x2="25.723" y2="13.5519" gradientUnits="userSpaceOnUse">
<stop stop-color="#AD37E0"/>
<stop offset="1" stop-color="#EE2B3B"/>
</linearGradient>
</defs>
</svg>
